<?xml version="1.0" encoding="utf-8"?>
<!-- Generator: Adobe Illustrator 19.1.0, SVG Export Plug-In . SVG Version: 6.00 Build 0)  -->
<svg version="1.0" id="Layer_1_copy" xmlns="http://www.w3.org/2000/svg" xmlns:xlink="http://www.w3.org/1999/xlink" x="0px"
	 y="0px" viewBox="0 0 300 438" enable-background="new 0 0 300 438" xml:space="preserve">
<rect y="0.4" fill="#FFFFFF" width="300" height="437.6"/>
<g>
	<path fill="#0F2026" d="M111,20.4c-0.7-0.4-1.2-1-1.6-1.7c-0.4-0.8-0.6-1.6-0.6-2.7s0.2-1.9,0.6-2.6c0.4-0.8,0.9-1.3,1.6-1.7
		c0.7-0.4,1.5-0.6,2.5-0.6c0.6,0,1.2,0.1,1.7,0.3c0.5,0.2,1,0.4,1.4,0.8c0.1,0.1,0.2,0.2,0.2,0.3s0.1,0.2,0.1,0.4
		c0,0.2-0.1,0.4-0.2,0.5c-0.1,0.1-0.2,0.2-0.4,0.2c-0.2,0-0.4-0.1-0.6-0.2c-0.4-0.3-0.8-0.5-1.1-0.6c-0.3-0.1-0.7-0.2-1.1-0.2
		c-1,0-1.7,0.3-2.2,0.9c-0.5,0.6-0.7,1.5-0.7,2.6c0,1.2,0.2,2.1,0.7,2.7c0.5,0.6,1.2,0.9,2.2,0.9c0.4,0,0.8-0.1,1.1-0.2
		c0.3-0.1,0.7-0.3,1.1-0.6c0.1-0.1,0.2-0.1,0.3-0.1c0.1,0,0.2-0.1,0.3-0.1c0.2,0,0.3,0.1,0.4,0.2c0.1,0.1,0.2,0.3,0.2,0.5
		c0,0.1,0,0.3-0.1,0.4c0,0.1-0.1,0.2-0.2,0.3c-0.4,0.3-0.9,0.6-1.4,0.8c-0.5,0.2-1.1,0.3-1.7,0.3C112.5,21,111.7,20.8,111,20.4z"/>
	<path fill="#0F2026" d="M118.4,12.5c-0.2-0.2-0.3-0.4-0.3-0.7c0-0.3,0.1-0.5,0.3-0.7s0.4-0.2,0.7-0.2c0.3,0,0.6,0.1,0.7,0.2
		s0.3,0.4,0.3,0.7c0,0.3-0.1,0.5-0.3,0.7c-0.2,0.2-0.4,0.3-0.7,0.3C118.8,12.8,118.6,12.7,118.4,12.5z M118.5,20.8
		c-0.2-0.1-0.2-0.3-0.2-0.6v-5.3c0-0.3,0.1-0.5,0.2-0.6c0.2-0.1,0.4-0.2,0.6-0.2c0.2,0,0.5,0.1,0.6,0.2c0.2,0.1,0.2,0.3,0.2,0.6v5.3
		c0,0.3-0.1,0.5-0.2,0.6c-0.2,0.1-0.4,0.2-0.6,0.2C118.9,21,118.7,20.9,118.5,20.8z"/>
	<path fill="#0F2026" d="M127.5,14.7c0.4,0.5,0.6,1.2,0.6,2.1v3.4c0,0.3-0.1,0.5-0.2,0.6c-0.2,0.1-0.4,0.2-0.6,0.2
		c-0.3,0-0.5-0.1-0.6-0.2c-0.2-0.1-0.2-0.4-0.2-0.6v-3.3c0-0.5-0.1-0.9-0.3-1.1c-0.2-0.2-0.5-0.4-0.9-0.4c-0.5,0-0.9,0.2-1.2,0.5
		c-0.3,0.3-0.4,0.7-0.4,1.3v3.1c0,0.3-0.1,0.5-0.2,0.6c-0.2,0.1-0.4,0.2-0.6,0.2c-0.3,0-0.5-0.1-0.6-0.2c-0.2-0.1-0.2-0.4-0.2-0.6
		v-5.4c0-0.2,0.1-0.4,0.2-0.6c0.2-0.1,0.4-0.2,0.6-0.2c0.2,0,0.4,0.1,0.6,0.2c0.2,0.1,0.2,0.3,0.2,0.6v0.4c0.2-0.4,0.5-0.7,0.9-0.9
		c0.4-0.2,0.8-0.3,1.3-0.3C126.5,14,127.1,14.2,127.5,14.7z"/>
	<path fill="#0F2026" d="M136.2,11.3c0.2,0.1,0.2,0.3,0.2,0.6v8.3c0,0.2-0.1,0.4-0.2,0.6c-0.2,0.1-0.4,0.2-0.6,0.2s-0.5-0.1-0.6-0.2
		c-0.2-0.1-0.2-0.3-0.2-0.6v-0.3c-0.2,0.4-0.5,0.7-0.9,0.9c-0.4,0.2-0.8,0.3-1.3,0.3c-0.6,0-1.1-0.1-1.6-0.4
		c-0.5-0.3-0.8-0.7-1.1-1.3c-0.3-0.5-0.4-1.2-0.4-1.9c0-0.7,0.1-1.3,0.4-1.8s0.6-0.9,1.1-1.2c0.5-0.3,1-0.4,1.6-0.4
		c0.5,0,0.9,0.1,1.3,0.3c0.4,0.2,0.7,0.5,0.9,0.9v-3.3c0-0.2,0.1-0.4,0.2-0.6c0.2-0.1,0.4-0.2,0.6-0.2
		C135.8,11.1,136,11.1,136.2,11.3z M134.2,19.1c0.3-0.4,0.4-0.9,0.4-1.6c0-0.7-0.1-1.2-0.4-1.6c-0.3-0.4-0.7-0.6-1.3-0.6
		c-0.6,0-1,0.2-1.3,0.6c-0.3,0.4-0.5,0.9-0.5,1.6c0,0.7,0.2,1.2,0.5,1.6c0.3,0.4,0.7,0.6,1.3,0.6C133.5,19.7,133.9,19.5,134.2,19.1z
		"/>
	<path fill="#0F2026" d="M143.2,14.1c0.1-0.1,0.3-0.1,0.4-0.1c0.2,0,0.4,0.1,0.6,0.2c0.2,0.1,0.3,0.3,0.3,0.5c0,0.1,0,0.2-0.1,0.3
		l-3.8,7.9c-0.2,0.3-0.4,0.5-0.7,0.5c-0.2,0-0.4-0.1-0.6-0.2c-0.2-0.1-0.2-0.3-0.2-0.5c0-0.1,0-0.2,0.1-0.3l0.9-2l-2.6-5.4
		c0-0.1-0.1-0.2-0.1-0.3c0-0.2,0.1-0.4,0.3-0.5c0.2-0.1,0.4-0.2,0.6-0.2c0.2,0,0.3,0,0.4,0.1c0.1,0.1,0.2,0.2,0.3,0.4l1.9,4.3
		l1.9-4.3C143,14.3,143.1,14.2,143.2,14.1z"/>
	<path fill="#0F2026" d="M161.9,11.2c0.1-0.1,0.3-0.1,0.5-0.1c0.2,0,0.4,0.1,0.6,0.2c0.2,0.1,0.2,0.3,0.2,0.6c0,0.1,0,0.2-0.1,0.4
		l-3,8.2c-0.1,0.2-0.2,0.3-0.4,0.4c-0.2,0.1-0.4,0.2-0.6,0.2s-0.4-0.1-0.6-0.2s-0.3-0.2-0.4-0.4l-2.3-6.5l-2.3,6.5
		c-0.1,0.2-0.2,0.3-0.4,0.4c-0.2,0.1-0.4,0.2-0.6,0.2c-0.2,0-0.4-0.1-0.6-0.2c-0.2-0.1-0.3-0.2-0.4-0.4l-3-8.2
		c0-0.1-0.1-0.3-0.1-0.4c0-0.2,0.1-0.4,0.3-0.6c0.2-0.1,0.4-0.2,0.6-0.2c0.2,0,0.4,0,0.5,0.1c0.1,0.1,0.3,0.2,0.3,0.4l2.3,6.8
		l2.4-6.7c0.1-0.2,0.2-0.3,0.3-0.4c0.1-0.1,0.3-0.2,0.5-0.2c0.2,0,0.3,0.1,0.5,0.2c0.2,0.1,0.3,0.3,0.3,0.4l2.3,6.8l2.4-6.8
		C161.6,11.4,161.7,11.3,161.9,11.2z"/>
	<path fill="#0F2026" d="M168.7,14.7c0.5,0.5,0.7,1.2,0.7,2.1v3.4c0,0.2-0.1,0.4-0.2,0.6c-0.1,0.1-0.4,0.2-0.6,0.2
		c-0.2,0-0.4-0.1-0.6-0.2c-0.2-0.1-0.2-0.3-0.2-0.6v-0.3c-0.2,0.4-0.4,0.6-0.7,0.8s-0.7,0.3-1.2,0.3c-0.5,0-0.9-0.1-1.2-0.3
		c-0.4-0.2-0.7-0.4-0.9-0.8c-0.2-0.3-0.3-0.7-0.3-1.1c0-0.5,0.1-0.9,0.4-1.2c0.3-0.3,0.7-0.5,1.2-0.6c0.6-0.1,1.4-0.2,2.4-0.2h0.3
		v-0.3c0-0.5-0.1-0.8-0.3-1c-0.2-0.2-0.5-0.3-0.9-0.3c-0.3,0-0.5,0-0.8,0.1c-0.3,0.1-0.6,0.2-1,0.3c-0.2,0.1-0.4,0.2-0.5,0.2
		c-0.2,0-0.3-0.1-0.4-0.2c-0.1-0.1-0.2-0.3-0.2-0.5c0-0.2,0-0.3,0.1-0.4c0.1-0.1,0.2-0.2,0.4-0.3c0.3-0.2,0.7-0.3,1.2-0.4
		c0.4-0.1,0.9-0.2,1.3-0.2C167.6,14,168.3,14.2,168.7,14.7z M167.3,19.3c0.3-0.3,0.4-0.7,0.4-1.2v-0.3h-0.2c-0.6,0-1.1,0-1.4,0.1
		c-0.3,0.1-0.6,0.2-0.7,0.3c-0.1,0.1-0.2,0.3-0.2,0.6c0,0.3,0.1,0.5,0.3,0.7c0.2,0.2,0.5,0.3,0.8,0.3
		C166.7,19.8,167.1,19.6,167.3,19.3z"/>
	<path fill="#0F2026" d="M175.4,20.3c0,0.2-0.1,0.4-0.3,0.5c-0.2,0.1-0.4,0.2-0.8,0.1l-0.4,0c-1.5-0.1-2.3-0.9-2.3-2.5v-3H171
		c-0.2,0-0.4-0.1-0.6-0.2c-0.1-0.1-0.2-0.3-0.2-0.5c0-0.2,0.1-0.4,0.2-0.5c0.1-0.1,0.3-0.2,0.6-0.2h0.7v-1.3c0-0.2,0.1-0.4,0.2-0.6
		c0.2-0.1,0.4-0.2,0.6-0.2c0.3,0,0.5,0.1,0.6,0.2c0.2,0.1,0.2,0.3,0.2,0.6v1.3h1.2c0.2,0,0.4,0.1,0.6,0.2c0.1,0.1,0.2,0.3,0.2,0.5
		c0,0.2-0.1,0.4-0.2,0.5c-0.1,0.1-0.3,0.2-0.6,0.2h-1.2v3.1c0,0.7,0.3,1,0.9,1.1l0.4,0C175.1,19.7,175.4,19.9,175.4,20.3z"/>
	<path fill="#0F2026" d="M176.3,20.4c-0.3-0.2-0.4-0.4-0.4-0.7c0-0.2,0.1-0.3,0.2-0.4c0.1-0.1,0.2-0.2,0.4-0.2
		c0.2,0,0.4,0.1,0.6,0.2c0.3,0.1,0.6,0.2,0.8,0.3c0.2,0.1,0.6,0.1,0.9,0.1c0.4,0,0.7-0.1,0.9-0.2c0.2-0.1,0.3-0.3,0.3-0.5
		c0-0.2,0-0.3-0.1-0.4c-0.1-0.1-0.2-0.2-0.5-0.3c-0.2-0.1-0.6-0.2-1-0.3c-0.8-0.2-1.4-0.4-1.8-0.7c-0.4-0.3-0.5-0.7-0.5-1.3
		c0-0.4,0.1-0.8,0.4-1.1c0.2-0.3,0.6-0.6,1-0.8c0.4-0.2,0.9-0.3,1.4-0.3c0.4,0,0.8,0,1.1,0.1c0.4,0.1,0.7,0.2,1,0.4
		c0.3,0.2,0.4,0.4,0.4,0.7c0,0.2-0.1,0.3-0.2,0.5c-0.1,0.1-0.2,0.2-0.4,0.2c-0.1,0-0.2,0-0.3-0.1c-0.1,0-0.2-0.1-0.4-0.2
		c-0.3-0.1-0.5-0.2-0.7-0.3s-0.4-0.1-0.7-0.1c-0.3,0-0.6,0.1-0.8,0.2c-0.2,0.1-0.3,0.3-0.3,0.6c0,0.2,0.1,0.4,0.3,0.5
		c0.2,0.1,0.6,0.2,1.2,0.4c0.6,0.1,1.1,0.3,1.4,0.4c0.3,0.2,0.6,0.4,0.8,0.6c0.2,0.2,0.2,0.6,0.2,1c0,0.6-0.3,1.1-0.8,1.5
		c-0.5,0.4-1.2,0.6-2.1,0.6C177.7,21,176.9,20.8,176.3,20.4z"/>
	<path fill="#0F2026" d="M184.2,20.6c-0.5-0.3-0.9-0.7-1.2-1.2c-0.3-0.5-0.4-1.2-0.4-1.9c0-0.7,0.1-1.3,0.4-1.9
		c0.3-0.5,0.7-0.9,1.2-1.2c0.5-0.3,1.1-0.4,1.8-0.4c0.7,0,1.3,0.1,1.8,0.4c0.5,0.3,0.9,0.7,1.2,1.2c0.3,0.5,0.4,1.2,0.4,1.9
		c0,0.7-0.1,1.3-0.4,1.9c-0.3,0.5-0.7,0.9-1.2,1.2c-0.5,0.3-1.1,0.4-1.8,0.4C185.4,21,184.8,20.9,184.2,20.6z M187.3,19.1
		c0.3-0.4,0.4-0.9,0.4-1.6c0-0.7-0.1-1.3-0.4-1.6c-0.3-0.4-0.7-0.6-1.3-0.6c-0.6,0-1,0.2-1.3,0.6c-0.3,0.4-0.4,0.9-0.4,1.6
		c0,0.7,0.1,1.3,0.4,1.6c0.3,0.4,0.7,0.6,1.3,0.6C186.6,19.7,187,19.5,187.3,19.1z"/>
	<path fill="#0F2026" d="M196.6,14.7c0.4,0.5,0.6,1.2,0.6,2.1v3.4c0,0.3-0.1,0.5-0.2,0.6c-0.2,0.1-0.4,0.2-0.6,0.2s-0.5-0.1-0.6-0.2
		c-0.2-0.1-0.2-0.4-0.2-0.6v-3.3c0-0.5-0.1-0.9-0.3-1.1c-0.2-0.2-0.5-0.4-0.9-0.4c-0.5,0-0.9,0.2-1.2,0.5c-0.3,0.3-0.4,0.7-0.4,1.3
		v3.1c0,0.3-0.1,0.5-0.2,0.6c-0.2,0.1-0.4,0.2-0.6,0.2c-0.3,0-0.5-0.1-0.6-0.2c-0.2-0.1-0.2-0.4-0.2-0.6v-5.4c0-0.2,0.1-0.4,0.2-0.6
		c0.2-0.1,0.4-0.2,0.6-0.2c0.2,0,0.4,0.1,0.6,0.2c0.2,0.1,0.2,0.3,0.2,0.6v0.4c0.2-0.4,0.5-0.7,0.9-0.9c0.4-0.2,0.8-0.3,1.3-0.3
		C195.6,14,196.2,14.2,196.6,14.7z"/>
	<path fill="#0F2026" d="M83.4,35.6c0,0.1,0,0.2-0.1,0.2c-0.1,0.1-0.1,0.1-0.2,0.1c-0.1,0-0.1,0-0.2-0.1c-0.1,0-0.1-0.1-0.1-0.2
		l-0.9-2h-4.5l-0.9,2c-0.1,0.1-0.2,0.2-0.3,0.2c-0.1,0-0.2,0-0.2-0.1c-0.1-0.1-0.1-0.1-0.1-0.2c0-0.1,0-0.1,0-0.1l3.4-7.6
		c0.1-0.2,0.2-0.3,0.4-0.3c0.1,0,0.2,0,0.2,0.1s0.1,0.1,0.2,0.2l3.3,7.6C83.4,35.5,83.4,35.6,83.4,35.6z M77.7,33.1h3.9l-2-4.5
		L77.7,33.1z"/>
	<path fill="#0F2026" d="M85.5,35.8c-0.3-0.1-0.6-0.2-0.8-0.4c-0.1-0.1-0.2-0.2-0.3-0.3c-0.1-0.1-0.1-0.2-0.1-0.2
		c0-0.1,0-0.1,0.1-0.2c0-0.1,0.1-0.1,0.2-0.1c0.1,0,0.2,0.1,0.4,0.2c0.2,0.1,0.5,0.3,0.7,0.4c0.2,0.1,0.5,0.1,0.9,0.1
		c0.5,0,0.8-0.1,1.1-0.2c0.3-0.2,0.4-0.4,0.4-0.7c0-0.2,0-0.3-0.1-0.5c-0.1-0.1-0.2-0.2-0.5-0.3c-0.2-0.1-0.5-0.2-0.9-0.3
		c-0.7-0.2-1.2-0.4-1.5-0.6c-0.3-0.2-0.4-0.6-0.4-1c0-0.5,0.2-0.9,0.6-1.2c0.4-0.3,0.9-0.5,1.5-0.5c0.3,0,0.6,0,0.9,0.1
		c0.3,0.1,0.5,0.2,0.7,0.3c0.3,0.2,0.4,0.4,0.4,0.5c0,0.1,0,0.1-0.1,0.2c0,0.1-0.1,0.1-0.2,0.1c-0.1,0-0.2-0.1-0.4-0.2
		c-0.2-0.1-0.4-0.3-0.6-0.4c-0.2-0.1-0.5-0.1-0.8-0.1c-0.4,0-0.7,0.1-1,0.3c-0.2,0.2-0.4,0.4-0.4,0.7c0,0.2,0,0.3,0.1,0.4
		c0.1,0.1,0.2,0.2,0.4,0.3s0.5,0.2,0.8,0.3c0.5,0.1,0.9,0.3,1.2,0.4c0.3,0.1,0.5,0.3,0.6,0.5c0.1,0.2,0.2,0.4,0.2,0.7
		c0,0.5-0.2,0.8-0.6,1.1c-0.4,0.3-0.9,0.4-1.6,0.4C86.1,36,85.8,35.9,85.5,35.8z"/>
	<path fill="#0F2026" d="M91,35.8c-0.3-0.1-0.6-0.2-0.8-0.4c-0.1-0.1-0.2-0.2-0.3-0.3c-0.1-0.1-0.1-0.2-0.1-0.2c0-0.1,0-0.1,0.1-0.2
		c0-0.1,0.1-0.1,0.2-0.1c0.1,0,0.2,0.1,0.4,0.2c0.2,0.1,0.5,0.3,0.7,0.4c0.2,0.1,0.5,0.1,0.9,0.1c0.5,0,0.8-0.1,1.1-0.2
		c0.3-0.2,0.4-0.4,0.4-0.7c0-0.2,0-0.3-0.1-0.5c-0.1-0.1-0.2-0.2-0.5-0.3s-0.5-0.2-0.9-0.3c-0.7-0.2-1.2-0.4-1.5-0.6s-0.4-0.6-0.4-1
		c0-0.5,0.2-0.9,0.6-1.2c0.4-0.3,0.9-0.5,1.5-0.5c0.3,0,0.6,0,0.9,0.1c0.3,0.1,0.5,0.2,0.7,0.3c0.3,0.2,0.4,0.4,0.4,0.5
		c0,0.1,0,0.1-0.1,0.2c-0.1,0.1-0.1,0.1-0.2,0.1c-0.1,0-0.2-0.1-0.4-0.2c-0.2-0.1-0.4-0.3-0.6-0.4c-0.2-0.1-0.5-0.1-0.8-0.1
		c-0.4,0-0.7,0.1-1,0.3c-0.2,0.2-0.4,0.4-0.4,0.7c0,0.2,0,0.3,0.1,0.4c0.1,0.1,0.2,0.2,0.4,0.3c0.2,0.1,0.5,0.2,0.8,0.3
		c0.5,0.1,0.9,0.3,1.2,0.4c0.3,0.1,0.5,0.3,0.6,0.5c0.1,0.2,0.2,0.4,0.2,0.7c0,0.5-0.2,0.8-0.6,1.1c-0.4,0.3-0.9,0.4-1.6,0.4
		C91.6,36,91.3,35.9,91,35.8z"/>
	<path fill="#0F2026" d="M95.6,28.7c-0.1-0.1-0.1-0.2-0.1-0.4c0-0.2,0-0.3,0.1-0.4c0.1-0.1,0.2-0.1,0.4-0.1c0.2,0,0.3,0,0.4,0.1
		s0.1,0.2,0.1,0.4c0,0.1,0,0.3-0.1,0.4c-0.1,0.1-0.2,0.1-0.4,0.1C95.8,28.9,95.7,28.8,95.6,28.7z M95.7,35.8
		c-0.1-0.1-0.1-0.2-0.1-0.3v-5c0-0.1,0-0.2,0.1-0.3c0.1-0.1,0.2-0.1,0.3-0.1c0.1,0,0.2,0,0.3,0.1c0.1,0.1,0.1,0.1,0.1,0.3v5
		c0,0.1,0,0.2-0.1,0.3c-0.1,0.1-0.1,0.1-0.3,0.1C95.9,35.9,95.8,35.9,95.7,35.8z"/>
	<path fill="#0F2026" d="M99,35.8c-0.3-0.1-0.6-0.2-0.8-0.4c-0.1-0.1-0.2-0.2-0.3-0.3c-0.1-0.1-0.1-0.2-0.1-0.2c0-0.1,0-0.1,0.1-0.2
		c0-0.1,0.1-0.1,0.2-0.1c0.1,0,0.2,0.1,0.4,0.2c0.2,0.1,0.5,0.3,0.7,0.4c0.2,0.1,0.5,0.1,0.9,0.1c0.5,0,0.8-0.1,1.1-0.2
		c0.3-0.2,0.4-0.4,0.4-0.7c0-0.2,0-0.3-0.1-0.5c-0.1-0.1-0.2-0.2-0.5-0.3s-0.5-0.2-0.9-0.3c-0.7-0.2-1.2-0.4-1.5-0.6s-0.4-0.6-0.4-1
		c0-0.5,0.2-0.9,0.6-1.2c0.4-0.3,0.9-0.5,1.5-0.5c0.3,0,0.6,0,0.9,0.1c0.3,0.1,0.5,0.2,0.7,0.3c0.3,0.2,0.4,0.4,0.4,0.5
		c0,0.1,0,0.1-0.1,0.2c-0.1,0.1-0.1,0.1-0.2,0.1c-0.1,0-0.2-0.1-0.4-0.2c-0.2-0.1-0.4-0.3-0.6-0.4c-0.2-0.1-0.5-0.1-0.8-0.1
		c-0.4,0-0.7,0.1-1,0.3c-0.2,0.2-0.4,0.4-0.4,0.7c0,0.2,0,0.3,0.1,0.4c0.1,0.1,0.2,0.2,0.4,0.3s0.5,0.2,0.8,0.3
		c0.5,0.1,0.9,0.3,1.2,0.4c0.3,0.1,0.5,0.3,0.6,0.5c0.1,0.2,0.2,0.4,0.2,0.7c0,0.5-0.2,0.8-0.6,1.1c-0.4,0.3-0.9,0.4-1.6,0.4
		C99.7,36,99.3,35.9,99,35.8z"/>
	<path fill="#0F2026" d="M106.4,35.6c0,0.1,0,0.2-0.1,0.2c-0.1,0.1-0.2,0.1-0.3,0.1l-0.3,0c-0.6,0-1-0.2-1.3-0.5
		c-0.3-0.3-0.4-0.8-0.4-1.5v-3.1H103c-0.1,0-0.2,0-0.2-0.1c-0.1-0.1-0.1-0.1-0.1-0.2c0-0.1,0-0.2,0.1-0.2c0.1-0.1,0.1-0.1,0.2-0.1
		h0.9v-1.4c0-0.1,0-0.2,0.1-0.3c0.1-0.1,0.1-0.1,0.3-0.1c0.1,0,0.2,0,0.3,0.1c0.1,0.1,0.1,0.1,0.1,0.3v1.4h1.4c0.1,0,0.2,0,0.2,0.1
		c0.1,0.1,0.1,0.1,0.1,0.2c0,0.1,0,0.2-0.1,0.2c-0.1,0.1-0.1,0.1-0.2,0.1h-1.4v3.1c0,0.5,0.1,0.8,0.3,1c0.2,0.2,0.5,0.3,0.9,0.4
		l0.3,0C106.3,35.4,106.4,35.5,106.4,35.6z"/>
	<path fill="#0F2026" d="M111.1,30.7c0.3,0.4,0.5,0.9,0.5,1.6v3.3c0,0.1,0,0.2-0.1,0.3s-0.1,0.1-0.3,0.1c-0.1,0-0.2,0-0.3-0.1
		c-0.1-0.1-0.1-0.2-0.1-0.3v-0.7c-0.2,0.3-0.4,0.6-0.7,0.8c-0.3,0.2-0.7,0.3-1.1,0.3c-0.4,0-0.7-0.1-1-0.2c-0.3-0.1-0.5-0.3-0.7-0.6
		c-0.2-0.3-0.3-0.5-0.3-0.9c0-0.4,0.1-0.7,0.3-1c0.2-0.2,0.6-0.4,1.1-0.5c0.5-0.1,1.2-0.1,2.1-0.1h0.2v-0.4c0-0.5-0.1-0.9-0.3-1.1
		c-0.2-0.2-0.5-0.4-1-0.4c-0.6,0-1.1,0.1-1.6,0.4c0,0-0.1,0.1-0.2,0.1c-0.1,0.1-0.2,0.1-0.2,0.1c-0.1,0-0.1,0-0.2-0.1
		c0-0.1-0.1-0.1-0.1-0.2c0-0.2,0.1-0.3,0.4-0.5c0.3-0.2,0.6-0.3,0.9-0.4c0.3-0.1,0.7-0.1,1-0.1C110.3,30.1,110.8,30.3,111.1,30.7z
		 M110.4,34.8c0.3-0.3,0.5-0.8,0.5-1.3v-0.4h-0.2c-0.7,0-1.3,0-1.7,0.1c-0.4,0.1-0.7,0.2-0.8,0.3c-0.2,0.1-0.2,0.4-0.2,0.7
		c0,0.3,0.1,0.6,0.4,0.8c0.2,0.2,0.5,0.3,0.9,0.3C109.7,35.3,110.1,35.2,110.4,34.8z"/>
	<path fill="#0F2026" d="M118.1,32.3v3.3c0,0.1,0,0.2-0.1,0.3c-0.1,0.1-0.1,0.1-0.3,0.1c-0.1,0-0.2,0-0.3-0.1
		c-0.1-0.1-0.1-0.2-0.1-0.3v-3.2c0-0.6-0.1-1-0.3-1.2c-0.2-0.3-0.6-0.4-1.1-0.4c-0.6,0-1,0.2-1.3,0.5c-0.3,0.3-0.5,0.8-0.5,1.4v2.9
		c0,0.1,0,0.2-0.1,0.3c-0.1,0.1-0.1,0.1-0.3,0.1c-0.1,0-0.2,0-0.3-0.1c-0.1-0.1-0.1-0.2-0.1-0.3v-5c0-0.1,0-0.2,0.1-0.3
		c0.1-0.1,0.2-0.1,0.3-0.1c0.1,0,0.2,0,0.2,0.1c0.1,0.1,0.1,0.1,0.1,0.3v0.7c0.2-0.4,0.4-0.6,0.8-0.8c0.3-0.2,0.7-0.3,1.2-0.3
		C117.4,30.1,118.1,30.9,118.1,32.3z"/>
	<path fill="#0F2026" d="M122.6,35.6c0,0.1,0,0.2-0.1,0.2c-0.1,0.1-0.2,0.1-0.3,0.1l-0.3,0c-0.6,0-1-0.2-1.3-0.5
		c-0.3-0.3-0.4-0.8-0.4-1.5v-3.1h-0.9c-0.1,0-0.2,0-0.2-0.1c-0.1-0.1-0.1-0.1-0.1-0.2c0-0.1,0-0.2,0.1-0.2c0.1-0.1,0.1-0.1,0.2-0.1
		h0.9v-1.4c0-0.1,0-0.2,0.1-0.3c0.1-0.1,0.1-0.1,0.3-0.1c0.1,0,0.2,0,0.3,0.1c0.1,0.1,0.1,0.1,0.1,0.3v1.4h1.4c0.1,0,0.2,0,0.2,0.1
		c0.1,0.1,0.1,0.1,0.1,0.2c0,0.1,0,0.2-0.1,0.2c-0.1,0.1-0.1,0.1-0.2,0.1h-1.4v3.1c0,0.5,0.1,0.8,0.3,1c0.2,0.2,0.5,0.3,0.9,0.4
		l0.3,0C122.5,35.4,122.6,35.5,122.6,35.6z"/>
	<path fill="#0F2026" d="M134.2,27.8c0.1,0.1,0.1,0.2,0.1,0.3v7.5c0,0.1,0,0.2-0.1,0.3c-0.1,0.1-0.1,0.1-0.3,0.1
		c-0.1,0-0.2,0-0.2-0.1c-0.1-0.1-0.1-0.2-0.1-0.3v-6.4l-2.7,5.3c-0.1,0.2-0.2,0.3-0.4,0.3c-0.2,0-0.3-0.1-0.4-0.3l-2.7-5.2v6.4
		c0,0.1,0,0.2-0.1,0.3c-0.1,0.1-0.1,0.1-0.2,0.1c-0.1,0-0.2,0-0.3-0.1c-0.1-0.1-0.1-0.2-0.1-0.3v-7.5c0-0.1,0-0.2,0.1-0.3
		c0.1-0.1,0.2-0.1,0.3-0.1c0.1,0,0.3,0.1,0.3,0.3l3.1,5.9l3-5.9c0.1-0.2,0.2-0.3,0.3-0.3C134,27.7,134.1,27.7,134.2,27.8z"/>
	<path fill="#0F2026" d="M139.9,30.7c0.3,0.4,0.5,0.9,0.5,1.6v3.3c0,0.1,0,0.2-0.1,0.3c-0.1,0.1-0.1,0.1-0.3,0.1
		c-0.1,0-0.2,0-0.3-0.1c-0.1-0.1-0.1-0.2-0.1-0.3v-0.7c-0.2,0.3-0.4,0.6-0.7,0.8c-0.3,0.2-0.7,0.3-1.1,0.3c-0.4,0-0.7-0.1-1-0.2
		c-0.3-0.1-0.5-0.3-0.7-0.6c-0.2-0.3-0.3-0.5-0.3-0.9c0-0.4,0.1-0.7,0.3-1c0.2-0.2,0.6-0.4,1.1-0.5c0.5-0.1,1.2-0.1,2.1-0.1h0.2
		v-0.4c0-0.5-0.1-0.9-0.3-1.1c-0.2-0.2-0.5-0.4-1-0.4c-0.6,0-1.1,0.1-1.6,0.4c0,0-0.1,0.1-0.2,0.1c-0.1,0.1-0.2,0.1-0.2,0.1
		c-0.1,0-0.1,0-0.2-0.1c0-0.1-0.1-0.1-0.1-0.2c0-0.2,0.1-0.3,0.4-0.5c0.3-0.2,0.6-0.3,0.9-0.4c0.3-0.1,0.7-0.1,1-0.1
		C139.1,30.1,139.6,30.3,139.9,30.7z M139.3,34.8c0.3-0.3,0.5-0.8,0.5-1.3v-0.4h-0.2c-0.7,0-1.3,0-1.7,0.1c-0.4,0.1-0.7,0.2-0.8,0.3
		c-0.2,0.1-0.2,0.4-0.2,0.7c0,0.3,0.1,0.6,0.4,0.8c0.2,0.2,0.5,0.3,0.9,0.3C138.5,35.3,139,35.2,139.3,34.8z"/>
	<path fill="#0F2026" d="M146.9,32.3v3.3c0,0.1,0,0.2-0.1,0.3c-0.1,0.1-0.1,0.1-0.3,0.1c-0.1,0-0.2,0-0.3-0.1
		c-0.1-0.1-0.1-0.2-0.1-0.3v-3.2c0-0.6-0.1-1-0.3-1.2c-0.2-0.3-0.6-0.4-1.1-0.4c-0.6,0-1,0.2-1.3,0.5c-0.3,0.3-0.5,0.8-0.5,1.4v2.9
		c0,0.1,0,0.2-0.1,0.3c-0.1,0.1-0.1,0.1-0.3,0.1c-0.1,0-0.2,0-0.3-0.1c-0.1-0.1-0.1-0.2-0.1-0.3v-5c0-0.1,0-0.2,0.1-0.3
		c0.1-0.1,0.2-0.1,0.3-0.1c0.1,0,0.2,0,0.2,0.1c0.1,0.1,0.1,0.1,0.1,0.3v0.7c0.2-0.4,0.4-0.6,0.8-0.8c0.3-0.2,0.7-0.3,1.2-0.3
		C146.2,30.1,146.9,30.9,146.9,32.3z"/>
	<path fill="#0F2026" d="M152.4,30.7c0.3,0.4,0.5,0.9,0.5,1.6v3.3c0,0.1,0,0.2-0.1,0.3c-0.1,0.1-0.1,0.1-0.3,0.1
		c-0.1,0-0.2,0-0.3-0.1c-0.1-0.1-0.1-0.2-0.1-0.3v-0.7c-0.2,0.3-0.4,0.6-0.7,0.8c-0.3,0.2-0.7,0.3-1.1,0.3c-0.4,0-0.7-0.1-1-0.2
		c-0.3-0.1-0.5-0.3-0.7-0.6c-0.2-0.3-0.3-0.5-0.3-0.9c0-0.4,0.1-0.7,0.3-1c0.2-0.2,0.6-0.4,1.1-0.5c0.5-0.1,1.2-0.1,2.1-0.1h0.2
		v-0.4c0-0.5-0.1-0.9-0.3-1.1c-0.2-0.2-0.5-0.4-1-0.4c-0.6,0-1.1,0.1-1.6,0.4c0,0-0.1,0.1-0.2,0.1c-0.1,0.1-0.2,0.1-0.2,0.1
		c-0.1,0-0.1,0-0.2-0.1c0-0.1-0.1-0.1-0.1-0.2c0-0.2,0.1-0.3,0.4-0.5c0.3-0.2,0.6-0.3,0.9-0.4c0.3-0.1,0.7-0.1,1-0.1
		C151.6,30.1,152.1,30.3,152.4,30.7z M151.8,34.8c0.3-0.3,0.5-0.8,0.5-1.3v-0.4H152c-0.7,0-1.3,0-1.7,0.1c-0.4,0.1-0.7,0.2-0.8,0.3
		c-0.2,0.1-0.2,0.4-0.2,0.7c0,0.3,0.1,0.6,0.4,0.8c0.2,0.2,0.5,0.3,0.9,0.3C151.1,35.3,151.5,35.2,151.8,34.8z"/>
	<path fill="#0F2026" d="M159.5,30.3c0.1,0.1,0.1,0.2,0.1,0.3v5c0,0.8-0.2,1.4-0.6,1.8c-0.4,0.4-1,0.6-1.8,0.6c-0.4,0-0.8,0-1.1-0.1
		c-0.3-0.1-0.6-0.2-0.9-0.4c-0.3-0.2-0.4-0.3-0.4-0.5c0-0.1,0-0.2,0.1-0.2c0-0.1,0.1-0.1,0.2-0.1c0,0,0.1,0,0.2,0.1
		c0.1,0,0.1,0.1,0.2,0.1c0.3,0.1,0.5,0.3,0.8,0.4c0.3,0.1,0.6,0.1,1,0.1c0.6,0,1-0.1,1.3-0.4c0.3-0.3,0.4-0.7,0.4-1.3v-1.1
		c-0.2,0.4-0.4,0.7-0.7,0.9c-0.3,0.2-0.7,0.3-1.2,0.3c-0.5,0-0.9-0.1-1.3-0.3c-0.4-0.2-0.7-0.6-0.9-1c-0.2-0.4-0.3-0.9-0.3-1.5
		c0-0.5,0.1-1,0.3-1.5c0.2-0.4,0.5-0.7,0.9-1c0.4-0.2,0.8-0.3,1.3-0.3c0.5,0,0.9,0.1,1.2,0.3c0.3,0.2,0.6,0.5,0.7,0.9v-0.8
		c0-0.1,0-0.2,0.1-0.3c0.1-0.1,0.1-0.1,0.3-0.1C159.3,30.2,159.4,30.2,159.5,30.3z M158.4,34.5c0.3-0.4,0.5-0.9,0.5-1.6
		s-0.2-1.2-0.5-1.6c-0.3-0.4-0.8-0.6-1.4-0.6c-0.6,0-1,0.2-1.4,0.6c-0.3,0.4-0.5,0.9-0.5,1.6c0,0.7,0.2,1.2,0.5,1.6
		c0.3,0.4,0.8,0.6,1.4,0.6C157.6,35.1,158.1,34.9,158.4,34.5z"/>
	<path fill="#0F2026" d="M165.9,34.8c0.1,0.1,0.1,0.1,0.1,0.2c0,0.2-0.1,0.3-0.4,0.5c-0.6,0.3-1.1,0.5-1.7,0.5c-0.9,0-1.5-0.3-2-0.8
		c-0.5-0.5-0.7-1.2-0.7-2.1c0-0.6,0.1-1.1,0.3-1.5c0.2-0.4,0.5-0.8,0.9-1c0.4-0.2,0.8-0.4,1.4-0.4c0.7,0,1.3,0.2,1.7,0.7
		c0.4,0.5,0.6,1.1,0.6,1.9c0,0.1,0,0.2-0.1,0.3c-0.1,0.1-0.2,0.1-0.3,0.1h-3.8c0,0.7,0.2,1.2,0.6,1.6c0.3,0.4,0.8,0.6,1.5,0.6
		c0.3,0,0.6,0,0.8-0.1s0.5-0.2,0.7-0.4c0.2-0.1,0.3-0.2,0.4-0.2C165.8,34.7,165.8,34.7,165.9,34.8z M162.4,31.2
		c-0.3,0.3-0.5,0.8-0.6,1.4h3.6c0-0.6-0.2-1.1-0.5-1.4c-0.3-0.3-0.7-0.5-1.2-0.5C163.1,30.7,162.7,30.9,162.4,31.2z"/>
	<path fill="#0F2026" d="M170.4,30.2c0.1,0,0.1,0.1,0.1,0.2c0,0.2-0.1,0.3-0.3,0.3l-0.3,0c-0.5,0.1-0.9,0.2-1.2,0.6
		c-0.3,0.3-0.4,0.7-0.4,1.2v3c0,0.1,0,0.2-0.1,0.3c-0.1,0.1-0.1,0.1-0.3,0.1c-0.1,0-0.2,0-0.3-0.1c-0.1-0.1-0.1-0.2-0.1-0.3v-5
		c0-0.1,0-0.2,0.1-0.3c0.1-0.1,0.2-0.1,0.3-0.1c0.1,0,0.2,0,0.2,0.1c0.1,0.1,0.1,0.1,0.1,0.3v0.7c0.3-0.7,0.9-1,1.7-1.1l0.2,0
		C170.2,30.2,170.3,30.2,170.4,30.2z"/>
	<path fill="#0F2026" d="M173.4,33c-0.1,0-0.1-0.1-0.1-0.2c0-0.1,0-0.1,0.1-0.2c0.1,0,0.1-0.1,0.2-0.1h5.2c0.1,0,0.2,0,0.2,0.1
		c0.1,0.1,0.1,0.1,0.1,0.2c0,0.1,0,0.1-0.1,0.2c-0.1,0-0.1,0.1-0.2,0.1h-5.2C173.6,33.1,173.5,33,173.4,33z"/>
	<path fill="#0F2026" d="M189.9,35.6c0,0.1,0,0.2-0.1,0.2c-0.1,0.1-0.1,0.1-0.2,0.1c-0.1,0-0.1,0-0.2-0.1c-0.1,0-0.1-0.1-0.1-0.2
		l-0.9-2h-4.5l-0.9,2c-0.1,0.1-0.2,0.2-0.3,0.2c-0.1,0-0.2,0-0.2-0.1c-0.1-0.1-0.1-0.1-0.1-0.2c0-0.1,0-0.1,0-0.1l3.4-7.6
		c0.1-0.2,0.2-0.3,0.4-0.3c0.1,0,0.2,0,0.2,0.1c0.1,0,0.1,0.1,0.2,0.2l3.3,7.6C189.9,35.5,189.9,35.6,189.9,35.6z M184.2,33.1h3.9
		l-2-4.5L184.2,33.1z"/>
	<path fill="#0F2026" d="M192.1,35.6c-0.4-0.2-0.7-0.6-0.9-1c-0.2-0.4-0.3-0.9-0.3-1.5c0-0.6,0.1-1.1,0.3-1.5c0.2-0.4,0.5-0.8,0.9-1
		c0.4-0.2,0.8-0.4,1.4-0.4c0.3,0,0.6,0,0.9,0.1c0.3,0.1,0.5,0.2,0.7,0.3c0.1,0.1,0.2,0.2,0.3,0.3s0.1,0.2,0.1,0.3
		c0,0.1,0,0.2-0.1,0.2c0,0.1-0.1,0.1-0.2,0.1c-0.1,0-0.2-0.1-0.4-0.2c-0.2-0.1-0.4-0.3-0.6-0.3c-0.2-0.1-0.4-0.1-0.7-0.1
		c-0.6,0-1.1,0.2-1.4,0.6c-0.3,0.4-0.5,1-0.5,1.7c0,0.7,0.2,1.3,0.5,1.7s0.8,0.6,1.4,0.6c0.3,0,0.5,0,0.7-0.1
		c0.2-0.1,0.4-0.2,0.6-0.3c0.1,0,0.1-0.1,0.2-0.1c0.1,0,0.1-0.1,0.2-0.1c0.1,0,0.1,0,0.2,0.1c0,0.1,0.1,0.1,0.1,0.2
		c0,0.1,0,0.2-0.1,0.2c-0.1,0.1-0.2,0.2-0.3,0.3c-0.2,0.2-0.5,0.3-0.8,0.4s-0.6,0.1-0.9,0.1C192.9,36,192.5,35.8,192.1,35.6z"/>
	<path fill="#0F2026" d="M204.6,32.3v3.3c0,0.1,0,0.2-0.1,0.3c-0.1,0.1-0.1,0.1-0.3,0.1c-0.1,0-0.2,0-0.3-0.1
		c-0.1-0.1-0.1-0.2-0.1-0.3v-3.2c0-0.6-0.1-1-0.3-1.2c-0.2-0.2-0.5-0.4-1-0.4c-0.5,0-0.9,0.2-1.2,0.5c-0.3,0.3-0.4,0.8-0.4,1.4v2.9
		c0,0.1,0,0.2-0.1,0.3c-0.1,0.1-0.1,0.1-0.3,0.1c-0.1,0-0.2,0-0.3-0.1c-0.1-0.1-0.1-0.2-0.1-0.3v-3.2c0-0.6-0.1-1-0.3-1.2
		c-0.2-0.2-0.5-0.4-1-0.4c-0.5,0-0.9,0.2-1.2,0.5c-0.3,0.3-0.4,0.8-0.4,1.4v2.9c0,0.1,0,0.2-0.1,0.3c-0.1,0.1-0.1,0.1-0.3,0.1
		c-0.1,0-0.2,0-0.3-0.1c-0.1-0.1-0.1-0.2-0.1-0.3v-5c0-0.1,0-0.2,0.1-0.3c0.1-0.1,0.2-0.1,0.3-0.1c0.1,0,0.2,0,0.2,0.1
		c0.1,0.1,0.1,0.1,0.1,0.3v0.7c0.2-0.3,0.4-0.6,0.7-0.8c0.3-0.2,0.7-0.3,1.1-0.3c0.9,0,1.5,0.4,1.7,1.1c0.2-0.3,0.4-0.6,0.7-0.8
		c0.3-0.2,0.7-0.3,1.1-0.3C203.9,30.1,204.6,30.9,204.6,32.3z"/>
	<path fill="#0F2026" d="M210.8,34.8c0.1,0.1,0.1,0.1,0.1,0.2c0,0.2-0.1,0.3-0.4,0.5c-0.6,0.3-1.1,0.5-1.7,0.5c-0.9,0-1.5-0.3-2-0.8
		c-0.5-0.5-0.7-1.2-0.7-2.1c0-0.6,0.1-1.1,0.3-1.5c0.2-0.4,0.5-0.8,0.9-1c0.4-0.2,0.8-0.4,1.4-0.4c0.7,0,1.3,0.2,1.7,0.7
		c0.4,0.5,0.6,1.1,0.6,1.9c0,0.1,0,0.2-0.1,0.3c-0.1,0.1-0.2,0.1-0.3,0.1h-3.8c0,0.7,0.2,1.2,0.6,1.6c0.3,0.4,0.8,0.6,1.5,0.6
		c0.3,0,0.6,0,0.8-0.1s0.5-0.2,0.7-0.4c0.2-0.1,0.3-0.2,0.4-0.2C210.7,34.7,210.8,34.7,210.8,34.8z M207.3,31.2
		c-0.3,0.3-0.5,0.8-0.6,1.4h3.6c0-0.6-0.2-1.1-0.5-1.4c-0.3-0.3-0.7-0.5-1.2-0.5C208.1,30.7,207.7,30.9,207.3,31.2z"/>
	<path fill="#0F2026" d="M216.9,35.5c-0.6-0.3-1-0.8-1.3-1.4c-0.3-0.6-0.4-1.4-0.4-2.2c0-0.9,0.1-1.6,0.4-2.2s0.7-1.1,1.3-1.4
		c0.6-0.3,1.2-0.5,2-0.5c0.5,0,1,0.1,1.5,0.3c0.5,0.2,0.9,0.4,1.2,0.7c0.1,0.1,0.2,0.2,0.2,0.3c0,0.1,0,0.2-0.1,0.2
		c-0.1,0.1-0.1,0.1-0.2,0.1c-0.1,0-0.2,0-0.3-0.1c-0.4-0.3-0.8-0.6-1.1-0.7c-0.3-0.1-0.7-0.2-1.2-0.2c-0.9,0-1.6,0.3-2.2,0.9
		c-0.5,0.6-0.8,1.5-0.8,2.6c0,1.1,0.3,2,0.8,2.6c0.5,0.6,1.2,0.9,2.2,0.9c0.5,0,0.8-0.1,1.2-0.2c0.3-0.1,0.7-0.4,1.1-0.7
		c0.1-0.1,0.2-0.1,0.3-0.1c0.1,0,0.1,0,0.2,0.1c0,0.1,0.1,0.1,0.1,0.2c0,0.1-0.1,0.2-0.2,0.3c-0.3,0.3-0.7,0.6-1.2,0.7
		c-0.5,0.2-1,0.3-1.5,0.3C218.1,36,217.4,35.8,216.9,35.5z"/>
	<path fill="#0F2026" d="M223.9,35.6c-0.4-0.2-0.7-0.6-0.9-1c-0.2-0.4-0.3-0.9-0.3-1.5c0-0.6,0.1-1.1,0.3-1.5c0.2-0.4,0.5-0.8,0.9-1
		c0.4-0.2,0.8-0.4,1.4-0.4c0.5,0,1,0.1,1.3,0.4c0.4,0.2,0.7,0.6,0.9,1c0.2,0.4,0.3,0.9,0.3,1.5c0,0.6-0.1,1.1-0.3,1.5
		c-0.2,0.4-0.5,0.8-0.9,1c-0.4,0.2-0.8,0.4-1.3,0.4C224.7,36,224.3,35.8,223.9,35.6z M226.6,34.7c0.3-0.4,0.5-1,0.5-1.7
		c0-0.7-0.2-1.3-0.5-1.7c-0.3-0.4-0.8-0.6-1.4-0.6c-0.6,0-1,0.2-1.4,0.6c-0.3,0.4-0.5,1-0.5,1.7c0,0.7,0.2,1.3,0.5,1.7
		s0.8,0.6,1.4,0.6C225.8,35.3,226.3,35.1,226.6,34.7z"/>
	<path fill="#0F2026" d="M229,35.8c-0.1-0.1-0.2-0.2-0.2-0.4c0-0.2,0.1-0.3,0.2-0.4c0.1-0.1,0.2-0.2,0.4-0.2c0.1,0,0.3,0.1,0.4,0.2
		c0.1,0.1,0.2,0.2,0.2,0.4c0,0.2-0.1,0.3-0.2,0.4c-0.1,0.1-0.2,0.2-0.4,0.2C229.3,35.9,229.1,35.9,229,35.8z"/>
</g>
<g>
	<path fill="#A7BBC4" d="M23.2,16.8c0.1-0.1,0.3-0.2,0.5-0.2c0.2,0,0.3,0.1,0.5,0.2l0.6,0.6c0.1,0.1,0.2,0.3,0.2,0.5
		c0,0.2,0,0.3-0.2,0.5l-4.2,4.2l4.2,4.2c0.1,0.1,0.2,0.3,0.2,0.5c0,0.2-0.1,0.3-0.2,0.5l-0.6,0.6c-0.1,0.1-0.3,0.2-0.5,0.2
		c-0.2,0-0.3-0.1-0.5-0.2l-5.2-5.2c-0.1-0.1-0.2-0.3-0.2-0.5s0.1-0.3,0.2-0.5L23.2,16.8z"/>
</g>
<line fill="none" stroke="#EEF1F3" stroke-miterlimit="10" x1="0" y1="106.5" x2="300" y2="106.5"/>
<line fill="none" stroke="#EEF1F3" stroke-miterlimit="10" x1="0" y1="181.5" x2="300" y2="181.5"/>
<line fill="none" stroke="#EEF1F3" stroke-miterlimit="10" x1="0" y1="251.5" x2="300" y2="251.5"/>
<line fill="none" stroke="#EEF1F3" stroke-miterlimit="10" x1="0" y1="320.5" x2="300" y2="320.5"/>
<line fill="none" stroke="#EEF1F3" stroke-miterlimit="10" x1="0" y1="388.5" x2="300" y2="388.5"/>
<path fill="#A7BBC4" d="M37.7,140.5c0.4,0,0.7,0.1,0.9,0.4c0.2,0.2,0.4,0.5,0.4,0.9v4.1c0,0.3-0.1,0.6-0.4,0.9s-0.5,0.4-0.9,0.4
	h-0.4v5.8c0,0.7-0.2,1.3-0.7,1.8c-0.5,0.5-1.1,0.7-1.8,0.7H16c-0.7,0-1.3-0.2-1.8-0.7c-0.5-0.5-0.7-1.1-0.7-1.8v-5.8H13
	c-0.4,0-0.7-0.1-0.9-0.4c-0.2-0.2-0.4-0.5-0.4-0.9v-4.1c0-0.3,0.1-0.6,0.4-0.9c0.2-0.2,0.5-0.4,0.9-0.4h3.5c-0.9-0.9-1.3-2-1.3-3.3
	c0-1.4,0.5-2.5,1.5-3.5s2.2-1.4,3.6-1.4c1,0,1.9,0.2,2.7,0.7c0.8,0.4,1.6,1.2,2.4,2.1c0.8-0.9,1.5-1.6,2.2-2
	c0.9-0.5,1.8-0.8,2.9-0.8c1.4,0,2.6,0.5,3.6,1.4c1,1,1.5,2.1,1.5,3.5c0,1.3-0.4,2.4-1.3,3.3H37.7z M20.2,135.5
	c-0.5,0-0.9,0.2-1.2,0.5c-0.3,0.3-0.5,0.7-0.5,1.2s0.2,0.8,0.5,1.2c0.3,0.3,0.7,0.5,1.2,0.5h3.8c-0.6-1.3-1.3-2.2-2.1-2.7
	C21.4,135.7,20.8,135.5,20.2,135.5z M22.8,142.1v9.5c0,0.3,0.1,0.6,0.4,0.9c0.2,0.2,0.5,0.4,0.9,0.4h2.6c0.4,0,0.7-0.1,0.9-0.4
	c0.2-0.2,0.4-0.5,0.4-0.9v-9.5H22.8z M26.6,138.8h3.8c0.5,0,0.9-0.2,1.2-0.5c0.3-0.3,0.5-0.7,0.5-1.2s-0.2-0.8-0.5-1.2
	c-0.3-0.3-0.7-0.5-1.2-0.5c-0.6,0-1.2,0.2-1.8,0.6C27.9,136.6,27.2,137.5,26.6,138.8z"/>
<path fill="#A7BBC4" d="M28.6,205.8c1.6,0.8,2.8,1.8,3.7,3s1.4,2.6,1.4,3.9c0,1.1-0.3,2.1-0.8,3.1c-0.6,1-1.3,1.9-2.3,2.6
	s-2.1,1.4-3.4,1.8c-1.4,0.5-2.9,0.7-4.4,0.7c-1.1,0-2.2-0.1-3.3-0.4c-2,1-3.8,1.6-5.5,1.6c-0.5,0-1-0.2-1.4-0.5
	c-0.4-0.3-0.7-0.7-0.8-1.2c-0.1-0.5-0.1-1,0.1-1.4c0.2-0.5,0.5-0.8,1-1.1c0.3-0.2,0.6-0.3,0.8-0.5c-0.3-0.4-0.6-0.7-0.9-1.1
	c-0.7-1.1-1.1-2.3-1.1-3.6s0.5-2.6,1.4-3.8s2.1-2.3,3.7-3c1.7-0.9,3.7-1.3,5.9-1.3S26.8,204.9,28.6,205.8z M17.9,207.7
	c-1.3,0.6-2.3,1.3-3,2.3c-0.7,0.9-1,1.8-1,2.8c0,0.8,0.2,1.6,0.7,2.4c0.5,0.7,1.1,1.3,1.8,1.8c-0.2,1.3-1,2.3-2.5,3
	c1.6,0,3.3-0.6,5.2-1.7c1.1,0.4,2.3,0.6,3.6,0.6c1.8,0,3.4-0.3,4.8-1c1.3-0.6,2.3-1.3,3-2.3c0.7-0.9,1-1.8,1-2.8s-0.3-1.8-1-2.8
	c-0.7-0.9-1.7-1.7-3-2.3c-1.4-0.6-3-1-4.8-1S19.3,207,17.9,207.7z M37.2,224.6c-0.4,0.3-0.8,0.5-1.3,0.5c-1.5,0-3.1-0.5-4.7-1.4
	c-1.2,0.3-2.4,0.4-3.7,0.3c-1.3-0.1-2.5-0.4-3.6-0.9c1.9-0.2,3.7-0.6,5.3-1.3c0.8-0.1,1.5-0.2,2.2-0.4c1.6,1,3,1.5,4.4,1.5
	c-1.3-0.7-2-1.6-2.1-2.7c0.6-0.5,1.1-1,1.5-1.6c0.4-0.7,0.6-1.4,0.6-2.2c0-0.5-0.1-1-0.3-1.5c0.3-1.1,0.4-2.3,0.2-3.4
	c0.7,0.7,1.3,1.5,1.7,2.3c0.4,0.8,0.6,1.7,0.6,2.5c0,1.5-0.5,2.9-1.6,4.2c0.1,0.1,0.3,0.2,0.5,0.3c0.4,0.2,0.7,0.6,1,1.1
	c0.2,0.5,0.3,0.9,0.1,1.4C37.9,223.9,37.6,224.3,37.2,224.6z"/>
<path fill="#A7BBC4" d="M39.7,276.1c0.3,0,0.6,0.1,0.8,0.3c0.2,0.2,0.3,0.5,0.3,0.8v11c0,0.3-0.1,0.6-0.3,0.8
	c-0.2,0.2-0.5,0.3-0.8,0.3h-2.2c-0.2,0-0.5-0.1-0.6-0.2c-0.2-0.1-0.3-0.3-0.4-0.5h-1.8c-0.6,0.9-1.4,1.4-2.5,1.6
	c-0.6,0.8-1.4,1.3-2.3,1.6c-0.4,0.5-0.9,0.8-1.5,1.1c-0.5,0.2-1.1,0.4-1.7,0.4c-0.6,0.3-1.4,0.5-2.1,0.5s-1.6-0.2-2.3-0.6
	c-0.8-0.4-1.5-0.9-2.1-1.5l-3.5-3.1h-0.8c-0.1,0.2-0.2,0.4-0.4,0.5s-0.4,0.2-0.6,0.2h-2.2c-0.3,0-0.6-0.1-0.8-0.3s-0.3-0.5-0.3-0.8
	v-11c0-0.3,0.1-0.6,0.3-0.8s0.5-0.3,0.8-0.3h2.2c0.3,0,0.6,0.1,0.8,0.4h1.2l1.8-1.8c0.5-0.5,1.1-0.9,1.7-1.1s1.3-0.4,2-0.4h1.5
	c0.9,0,1.7,0.2,2.5,0.6c0.7-0.4,1.5-0.6,2.2-0.6h2.2c0.7,0,1.4,0.1,2,0.4c0.6,0.3,1.1,0.7,1.6,1.2l1.5,1.7h1.1
	c0.2-0.2,0.5-0.4,0.8-0.4H39.7z M13.7,287.8c0.2,0,0.4-0.1,0.5-0.2c0.1-0.1,0.2-0.3,0.2-0.5s-0.1-0.4-0.2-0.5
	c-0.1-0.1-0.3-0.2-0.5-0.2c-0.2,0-0.4,0.1-0.5,0.2c-0.1,0.1-0.2,0.3-0.2,0.5s0.1,0.4,0.2,0.5C13.3,287.8,13.5,287.8,13.7,287.8z
	 M32.6,287.6c0.3-0.3,0.5-0.6,0.5-1.1c0-0.5-0.1-0.9-0.4-1.2l-3.3-4.4l-1.2,1.4c-0.5,0.6-1.1,1-1.8,1.1c-0.7,0.2-1.4,0.2-2.1,0
	c-0.7-0.2-1.3-0.6-1.8-1.2c-0.5-0.6-0.8-1.4-0.8-2.2c0-0.8,0.3-1.5,0.8-2.2l2-2.3c-0.3-0.1-0.5-0.1-0.8-0.1h-1.5
	c-0.8,0-1.5,0.3-2.1,0.9l-2,2c-0.3,0.3-0.6,0.4-1,0.4h-1.2v7.7H17c0.4,0,0.7,0.1,1,0.4l3.7,3.4c0.4,0.4,0.8,0.8,1.3,1
	c0.5,0.3,1.1,0.4,1.6,0.4c0.7,0,1.2-0.2,1.6-0.6c0.5,0.2,1,0.1,1.5-0.1c0.5-0.3,0.7-0.6,0.9-1.1c0.5,0,0.9-0.1,1.2-0.3
	c0.4-0.2,0.6-0.5,0.8-0.8s0.3-0.6,0.3-0.8c0.1,0.1,0.3,0.2,0.7,0.1C31.9,288,32.3,287.9,32.6,287.6z M36.4,286.4v-7.7h-1.8l-2.1-2.4
	c-0.5-0.6-1.2-0.9-1.9-0.9h-2.2c-0.6,0-1.2,0.2-1.6,0.7l-2.7,3.1c-0.2,0.2-0.3,0.5-0.3,0.8c0,0.3,0.1,0.5,0.3,0.8
	c0.3,0.4,0.7,0.6,1.2,0.6c0.5,0,0.9-0.2,1.2-0.6l2.5-2.8c0.2-0.2,0.4-0.3,0.7-0.4c0.3,0,0.6,0,0.8,0.2s0.3,0.4,0.4,0.6
	c0,0.2,0,0.5-0.1,0.7l3.6,4.8c0.6,0.7,0.9,1.5,0.9,2.5H36.4z M38.6,287.8c0.2,0,0.4-0.1,0.5-0.2c0.1-0.1,0.2-0.3,0.2-0.5
	s-0.1-0.4-0.2-0.5c-0.1-0.1-0.3-0.2-0.5-0.2c-0.2,0-0.4,0.1-0.5,0.2c-0.1,0.1-0.2,0.3-0.2,0.5s0.1,0.4,0.2,0.5
	C38.3,287.8,38.4,287.8,38.6,287.8z"/>
<path fill="#A7BBC4" d="M34.6,345.1c0.3,0.3,0.4,0.7,0.4,1.1c0,0.4-0.1,0.7-0.4,1.1l-4.4,4.3v12.3c0,0.4-0.1,0.7-0.4,1
	c-0.3,0.3-0.6,0.4-1,0.4H28c-0.4,0-0.7-0.1-1-0.4c-0.3-0.3-0.4-0.6-0.4-1v-5.1h-0.7v5.1c0,0.4-0.1,0.7-0.4,1c-0.3,0.3-0.6,0.4-1,0.4
	h-0.7c-0.4,0-0.7-0.1-1-0.4c-0.3-0.3-0.4-0.6-0.4-1v-12.3l-4.4-4.3c-0.3-0.3-0.4-0.7-0.4-1.1c0-0.4,0.1-0.7,0.4-1
	c0.3-0.3,0.6-0.4,1-0.4s0.7,0.1,1.1,0.4l3.9,4h4.7l3.9-4c0.3-0.3,0.7-0.4,1.1-0.4S34.3,344.8,34.6,345.1z M22.9,345.1
	c0,0.9,0.3,1.7,1,2.3c0.6,0.6,1.4,1,2.3,1s1.7-0.3,2.3-1s1-1.4,1-2.3c0-0.9-0.3-1.7-1-2.3s-1.4-1-2.3-1s-1.7,0.3-2.3,1
	C23.2,343.4,22.9,344.1,22.9,345.1z"/>
<g>
	<path fill="#A7BBC4" d="M89.8,82.3v-9.8h3.9c1,0,1.8,0.2,2.4,0.7c0.6,0.5,0.8,1.2,0.8,2s-0.3,1.5-0.9,2c-0.6,0.5-1.4,0.7-2.4,0.7
		h-2.8v4.3H89.8z M90.9,77h2.7c1.5,0,2.2-0.6,2.2-1.8c0-1.2-0.7-1.8-2.2-1.8h-2.7V77z"/>
	<path fill="#A7BBC4" d="M105,78.8h-5.1c0,1.8,0.8,2.7,2.3,2.7c0.8,0,1.6-0.3,2.2-0.8l0.4,0.8c-0.7,0.6-1.6,0.9-2.6,0.9
		c-1.1,0-1.9-0.3-2.6-1c-0.6-0.6-0.9-1.5-0.9-2.6c0-1.1,0.3-1.9,0.9-2.6c0.6-0.7,1.4-1,2.3-1c0.9,0,1.6,0.3,2.2,0.9
		c0.5,0.6,0.8,1.4,0.8,2.5V78.8z M104,78c-0.1-1.3-0.8-2-1.9-2c-1.2,0-1.9,0.7-2.1,2H104z"/>
	<path fill="#A7BBC4" d="M110.6,76.3c-0.3-0.1-0.5-0.1-0.7-0.1c-0.6,0-1.1,0.2-1.5,0.6c-0.3,0.4-0.5,1-0.5,1.5v4h-1.1v-5
		c0-0.5,0-1.2-0.1-2h1l0.1,1.3c0.4-1,1.1-1.5,2.2-1.5c0.2,0,0.4,0,0.6,0.1L110.6,76.3z"/>
	<path fill="#A7BBC4" d="M112.6,80.7c0.7,0.5,1.5,0.8,2.4,0.8c1.1,0,1.6-0.4,1.6-1c0-0.5-0.4-0.9-1.2-1l-1.2-0.3
		c-1.2-0.3-1.8-0.9-1.8-1.9c0-0.6,0.2-1.1,0.7-1.5c0.5-0.4,1.1-0.6,1.9-0.6c1,0,1.8,0.3,2.4,0.9l-0.4,0.8c-0.6-0.5-1.3-0.8-2.1-0.8
		c-1,0-1.6,0.4-1.6,1.1c0,0.5,0.4,0.9,1.1,1l1.2,0.3c1.3,0.3,1.9,1,1.9,1.9c0,0.6-0.2,1.1-0.7,1.5c-0.5,0.4-1.2,0.5-2,0.5
		c-1.1,0-2.1-0.3-2.8-0.9L112.6,80.7z"/>
	<path fill="#A7BBC4" d="M119.9,76.2c0.6-0.7,1.4-1,2.4-1s1.8,0.3,2.4,1s0.9,1.5,0.9,2.6s-0.3,2-0.9,2.6c-0.6,0.7-1.4,1-2.4,1
		s-1.8-0.3-2.4-1c-0.6-0.7-0.9-1.5-0.9-2.6S119.3,76.8,119.9,76.2z M123.9,76.8c-0.4-0.5-0.9-0.7-1.6-0.7c-0.7,0-1.2,0.2-1.6,0.7
		c-0.4,0.5-0.6,1.1-0.6,2c0,1.8,0.7,2.7,2.1,2.7c1.4,0,2.2-0.9,2.2-2.7C124.4,77.9,124.3,77.3,123.9,76.8z"/>
	<path fill="#A7BBC4" d="M133.3,82.3h-1.1V78c0-1.2-0.5-1.9-1.6-1.9c-0.6,0-1.1,0.2-1.5,0.6c-0.4,0.4-0.6,0.9-0.6,1.6v4h-1.1v-5
		c0-0.5,0-1.2-0.1-2h1l0.1,1.3c0.4-1,1.2-1.4,2.4-1.4c1.7,0,2.5,0.9,2.5,2.7V82.3z"/>
	<path fill="#A7BBC4" d="M140.3,75.3h1.1v6.9h-1.1V81c-0.4,0.9-1.2,1.4-2.3,1.4c-0.9,0-1.7-0.3-2.2-1c-0.6-0.7-0.8-1.5-0.8-2.6
		c0-1.1,0.3-2,0.8-2.6c0.6-0.7,1.3-1,2.2-1c1.1,0,1.9,0.5,2.3,1.4V75.3z M138.2,76.1c-0.7,0-1.2,0.2-1.6,0.7s-0.6,1.1-0.6,2
		s0.2,1.5,0.6,2c0.4,0.5,0.9,0.7,1.6,0.7c0.7,0,1.2-0.2,1.6-0.7c0.4-0.5,0.6-1.1,0.6-2C140.3,77,139.6,76.1,138.2,76.1z"/>
	<path fill="#A7BBC4" d="M144.3,82.3h-1.1V72.1h1.1V82.3z"/>
	<path fill="#A7BBC4" d="M146.3,73.7v-1.3h1.3v1.3H146.3z M147.5,82.3h-1.1v-6.9h1.1V82.3z"/>
	<path fill="#A7BBC4" d="M153.2,76.2h-2V80c0,0.9,0.4,1.4,1.2,1.4c0.2,0,0.5,0,0.8-0.1v0.9c-0.3,0.1-0.6,0.2-1,0.2
		c-0.7,0-1.2-0.2-1.5-0.6c-0.4-0.4-0.6-0.9-0.6-1.6v-4h-1.3v-0.9h1.3v-1.8l1.1-0.4v2.2h2V76.2z"/>
	<path fill="#A7BBC4" d="M159.4,75.3h1.1l-3.2,7.6c-0.6,1.4-1.7,2.2-3.2,2.5l-0.2-0.9c0.6-0.2,1.1-0.4,1.5-0.6
		c0.3-0.3,0.6-0.6,0.8-1.1l0.3-0.6l-2.9-6.9h1.2l2.3,5.7L159.4,75.3z"/>
	<path fill="#A7BBC4" d="M168.3,82.3h-1.1v-9.8h1.1V82.3z"/>
	<path fill="#A7BBC4" d="M176.6,82.3h-1.1V78c0-1.2-0.5-1.9-1.6-1.9c-0.6,0-1.1,0.2-1.5,0.6c-0.4,0.4-0.6,0.9-0.6,1.6v4h-1.1v-5
		c0-0.5,0-1.2-0.1-2h1l0.1,1.3c0.4-1,1.2-1.4,2.4-1.4c1.7,0,2.5,0.9,2.5,2.7V82.3z"/>
	<path fill="#A7BBC4" d="M178.6,80.7c0.7,0.5,1.5,0.8,2.4,0.8c1.1,0,1.6-0.4,1.6-1c0-0.5-0.4-0.9-1.2-1l-1.2-0.3
		c-1.2-0.3-1.8-0.9-1.8-1.9c0-0.6,0.2-1.1,0.7-1.5c0.5-0.4,1.1-0.6,1.9-0.6c1,0,1.8,0.3,2.4,0.9l-0.4,0.8c-0.6-0.5-1.3-0.8-2.1-0.8
		c-1,0-1.6,0.4-1.6,1.1c0,0.5,0.4,0.9,1.1,1l1.2,0.3c1.3,0.3,1.9,1,1.9,1.9c0,0.6-0.2,1.1-0.7,1.5c-0.5,0.4-1.2,0.5-2,0.5
		c-1.1,0-2.1-0.3-2.8-0.9L178.6,80.7z"/>
	<path fill="#A7BBC4" d="M185.3,73.7v-1.3h1.3v1.3H185.3z M186.5,82.3h-1.1v-6.9h1.1V82.3z"/>
	<path fill="#A7BBC4" d="M193.8,75.3h1.1v6.9c0,2.1-1,3.1-3.1,3.1c-1,0-1.9-0.2-2.7-0.7l0.2-0.9c0.9,0.5,1.7,0.7,2.5,0.7
		c1.3,0,2-0.7,2-2.1v-1.6c-0.5,0.9-1.3,1.4-2.4,1.4c-0.9,0-1.7-0.3-2.2-0.9c-0.6-0.6-0.8-1.5-0.8-2.5c0-1,0.3-1.9,0.8-2.5
		c0.6-0.6,1.3-1,2.2-1c1.1,0,1.9,0.5,2.4,1.4V75.3z M193.2,76.8c-0.4-0.4-0.9-0.7-1.6-0.7c-0.7,0-1.2,0.2-1.6,0.7
		c-0.4,0.4-0.6,1.1-0.6,1.8s0.2,1.4,0.6,1.9c0.4,0.4,0.9,0.7,1.6,0.7c0.7,0,1.2-0.2,1.6-0.7c0.4-0.4,0.6-1.1,0.6-1.9
		S193.6,77.2,193.2,76.8z"/>
	<path fill="#A7BBC4" d="M202.6,82.3h-1.1V78c0-1.2-0.5-1.9-1.6-1.9c-0.6,0-1.1,0.2-1.5,0.6c-0.4,0.4-0.6,0.9-0.6,1.6v4h-1.1V72.1
		h1.1v4.3c0.5-0.9,1.2-1.3,2.3-1.3c1.7,0,2.5,0.9,2.5,2.7V82.3z"/>
	<path fill="#A7BBC4" d="M208.2,76.2h-2V80c0,0.9,0.4,1.4,1.2,1.4c0.2,0,0.5,0,0.8-0.1v0.9c-0.3,0.1-0.6,0.2-1,0.2
		c-0.7,0-1.2-0.2-1.5-0.6c-0.4-0.4-0.6-0.9-0.6-1.6v-4h-1.3v-0.9h1.3v-1.8l1.1-0.4v2.2h2V76.2z"/>
	<path fill="#A7BBC4" d="M209.3,80.7c0.7,0.5,1.5,0.8,2.4,0.8c1.1,0,1.6-0.4,1.6-1c0-0.5-0.4-0.9-1.2-1l-1.2-0.3
		c-1.2-0.3-1.8-0.9-1.8-1.9c0-0.6,0.2-1.1,0.7-1.5c0.5-0.4,1.1-0.6,1.9-0.6c1,0,1.8,0.3,2.4,0.9l-0.4,0.8c-0.6-0.5-1.3-0.8-2.1-0.8
		c-1,0-1.6,0.4-1.6,1.1c0,0.5,0.4,0.9,1.1,1l1.2,0.3c1.3,0.3,1.9,1,1.9,1.9c0,0.6-0.2,1.1-0.7,1.5c-0.5,0.4-1.2,0.5-2,0.5
		c-1.1,0-2.1-0.3-2.8-0.9L209.3,80.7z"/>
</g>
<g>
	<g>
		<path d="M54.6,142c-0.1-0.1-0.2-0.2-0.2-0.4V133c0-0.2,0.1-0.3,0.2-0.4c0.1-0.1,0.2-0.2,0.4-0.2c0.2,0,0.3,0.1,0.4,0.2
			s0.2,0.2,0.2,0.4v8.2H60c0.2,0,0.3,0,0.4,0.1c0.1,0.1,0.1,0.2,0.1,0.4s0,0.3-0.1,0.4s-0.2,0.1-0.4,0.1h-5
			C54.8,142.2,54.7,142.1,54.6,142z"/>
		<path d="M61.7,133.7c-0.1-0.1-0.2-0.3-0.2-0.5c0-0.2,0.1-0.4,0.2-0.5s0.3-0.2,0.5-0.2c0.2,0,0.4,0.1,0.5,0.2
			c0.1,0.1,0.2,0.3,0.2,0.5c0,0.2-0.1,0.4-0.2,0.5c-0.1,0.1-0.3,0.2-0.5,0.2C62,133.9,61.8,133.8,61.7,133.7z M61.8,142.1
			c-0.1-0.1-0.2-0.2-0.2-0.4v-5.8c0-0.2,0.1-0.3,0.2-0.4s0.2-0.1,0.4-0.1c0.2,0,0.3,0,0.4,0.1s0.2,0.2,0.2,0.4v5.8
			c0,0.2-0.1,0.3-0.2,0.4c-0.1,0.1-0.2,0.1-0.4,0.1C62.1,142.2,61.9,142.2,61.8,142.1z"/>
		<path d="M70.4,141.7c0,0.1,0,0.3-0.1,0.4c-0.1,0.1-0.2,0.2-0.4,0.2c-0.1,0-0.2-0.1-0.4-0.2L66,139v2.7c0,0.2-0.1,0.3-0.2,0.4
			c-0.1,0.1-0.2,0.1-0.4,0.1c-0.2,0-0.3,0-0.4-0.1c-0.1-0.1-0.2-0.2-0.2-0.4v-8.8c0-0.2,0.1-0.3,0.2-0.4c0.1-0.1,0.2-0.1,0.4-0.1
			c0.2,0,0.3,0,0.4,0.1c0.1,0.1,0.2,0.2,0.2,0.4v5.6l3.3-3c0.1-0.1,0.2-0.2,0.4-0.2c0.1,0,0.3,0.1,0.4,0.2c0.1,0.1,0.2,0.2,0.2,0.4
			c0,0.2-0.1,0.3-0.2,0.4l-2.7,2.4l3,2.6C70.4,141.4,70.4,141.6,70.4,141.7z"/>
		<path d="M77.1,140.7c0.1,0.1,0.1,0.2,0.1,0.3c0,0.2-0.2,0.4-0.5,0.6c-0.3,0.2-0.7,0.3-1,0.4c-0.4,0.1-0.7,0.1-1.1,0.1
			c-1,0-1.9-0.3-2.5-0.9c-0.6-0.6-0.9-1.5-0.9-2.5c0-0.7,0.1-1.3,0.4-1.8c0.3-0.5,0.6-0.9,1.1-1.2c0.5-0.3,1-0.4,1.6-0.4
			c0.9,0,1.6,0.3,2.1,0.9c0.5,0.6,0.8,1.3,0.8,2.3c0,0.2,0,0.3-0.1,0.4c-0.1,0.1-0.2,0.1-0.4,0.1h-4.4c0.1,1.6,0.8,2.4,2.2,2.4
			c0.4,0,0.7,0,0.9-0.1c0.3-0.1,0.5-0.2,0.8-0.4c0.2-0.1,0.4-0.2,0.5-0.2C76.9,140.6,77,140.6,77.1,140.7z M73,136.7
			c-0.4,0.4-0.6,0.9-0.6,1.6h3.9c0-0.7-0.2-1.2-0.5-1.6c-0.3-0.4-0.8-0.5-1.4-0.5C73.8,136.2,73.4,136.3,73,136.7z"/>
		<path d="M79.1,142.1c-0.1-0.1-0.2-0.2-0.2-0.4v-8.8c0-0.2,0.1-0.3,0.2-0.4c0.1-0.1,0.2-0.1,0.4-0.1c0.2,0,0.3,0,0.4,0.1
			c0.1,0.1,0.2,0.2,0.2,0.4v8.8c0,0.2-0.1,0.3-0.2,0.4c-0.1,0.1-0.2,0.1-0.4,0.1C79.3,142.2,79.2,142.2,79.1,142.1z"/>
		<path d="M87.4,135.3c0.1,0,0.3,0,0.4,0.1s0.2,0.2,0.2,0.3c0,0.1,0,0.2-0.1,0.2l-3.9,8.4c0,0.1-0.1,0.2-0.2,0.2
			c-0.1,0.1-0.2,0.1-0.3,0.1c-0.1,0-0.3,0-0.4-0.1c-0.1-0.1-0.2-0.2-0.2-0.3c0-0.1,0-0.1,0.1-0.2l1-2.1l-2.7-5.9
			c0-0.1-0.1-0.1-0.1-0.2c0-0.1,0.1-0.3,0.2-0.4c0.1-0.1,0.3-0.2,0.4-0.2c0.1,0,0.2,0,0.3,0.1c0.1,0.1,0.2,0.1,0.2,0.2l2.3,5.2
			l2.3-5.1C87,135.4,87.2,135.3,87.4,135.3z"/>
		<path d="M96.3,141.8c0,0.2-0.1,0.3-0.2,0.4s-0.3,0.1-0.5,0.1l-0.4,0c-0.7-0.1-1.3-0.3-1.6-0.7s-0.5-1-0.5-1.8v-3.5h-0.9
			c-0.2,0-0.3,0-0.4-0.1c-0.1-0.1-0.1-0.2-0.1-0.3c0-0.1,0-0.2,0.1-0.3c0.1-0.1,0.2-0.1,0.4-0.1h0.9v-1.6c0-0.2,0.1-0.3,0.2-0.4
			c0.1-0.1,0.2-0.1,0.4-0.1c0.2,0,0.3,0,0.4,0.1c0.1,0.1,0.2,0.2,0.2,0.4v1.6h1.5c0.1,0,0.3,0,0.4,0.1c0.1,0.1,0.1,0.2,0.1,0.3
			c0,0.1,0,0.2-0.1,0.3c-0.1,0.1-0.2,0.1-0.4,0.1h-1.5v3.5c0,0.5,0.1,0.9,0.3,1.1c0.2,0.2,0.5,0.4,0.9,0.4l0.4,0
			C96.2,141.4,96.3,141.5,96.3,141.8z"/>
		<path d="M98.5,141.8c-0.5-0.3-0.9-0.7-1.1-1.2c-0.3-0.5-0.4-1.1-0.4-1.8s0.1-1.3,0.4-1.8c0.3-0.5,0.6-0.9,1.1-1.2
			c0.5-0.3,1-0.4,1.7-0.4c0.6,0,1.2,0.1,1.7,0.4c0.5,0.3,0.9,0.7,1.1,1.2c0.3,0.5,0.4,1.1,0.4,1.8s-0.1,1.3-0.4,1.8
			c-0.3,0.5-0.6,0.9-1.1,1.2c-0.5,0.3-1,0.4-1.7,0.4C99.6,142.3,99,142.1,98.5,141.8z M101.7,140.7c0.4-0.4,0.5-1.1,0.5-1.9
			c0-0.8-0.2-1.4-0.5-1.9c-0.4-0.4-0.9-0.7-1.5-0.7s-1.2,0.2-1.5,0.7c-0.4,0.4-0.5,1.1-0.5,1.9c0,0.8,0.2,1.5,0.5,1.9
			c0.4,0.4,0.9,0.7,1.5,0.7C100.9,141.3,101.4,141.1,101.7,140.7z"/>
		<path d="M111.3,142.1c-0.1-0.1-0.2-0.2-0.2-0.4v-8.2h-3c-0.2,0-0.3,0-0.4-0.1c-0.1-0.1-0.1-0.2-0.1-0.4s0-0.3,0.1-0.4
			s0.2-0.1,0.4-0.1h7.1c0.2,0,0.3,0,0.4,0.1s0.1,0.2,0.1,0.4s0,0.3-0.1,0.4c-0.1,0.1-0.2,0.1-0.4,0.1h-3v8.2c0,0.2-0.1,0.3-0.2,0.4
			s-0.2,0.2-0.4,0.2S111.4,142.2,111.3,142.1z"/>
		<path d="M119.7,135.8c0,0.1,0,0.3-0.1,0.4c-0.1,0.1-0.2,0.1-0.4,0.2l-0.4,0c-0.6,0.1-1.1,0.3-1.4,0.7c-0.3,0.4-0.4,0.8-0.4,1.3
			v3.3c0,0.2-0.1,0.3-0.2,0.4c-0.1,0.1-0.2,0.1-0.4,0.1c-0.2,0-0.3,0-0.4-0.1c-0.1-0.1-0.2-0.2-0.2-0.4v-5.8c0-0.2,0.1-0.3,0.2-0.4
			s0.2-0.1,0.4-0.1c0.1,0,0.3,0,0.4,0.1c0.1,0.1,0.2,0.2,0.2,0.4v0.8c0.2-0.4,0.5-0.7,0.8-0.9c0.4-0.2,0.8-0.3,1.2-0.4l0.2,0
			C119.5,135.3,119.7,135.4,119.7,135.8z"/>
		<path d="M126,140.7c0.1,0.1,0.1,0.2,0.1,0.3c0,0.2-0.2,0.4-0.5,0.6c-0.3,0.2-0.7,0.3-1,0.4c-0.4,0.1-0.7,0.1-1.1,0.1
			c-1,0-1.9-0.3-2.5-0.9c-0.6-0.6-0.9-1.5-0.9-2.5c0-0.7,0.1-1.3,0.4-1.8c0.3-0.5,0.6-0.9,1.1-1.2c0.5-0.3,1-0.4,1.6-0.4
			c0.9,0,1.6,0.3,2.1,0.9c0.5,0.6,0.8,1.3,0.8,2.3c0,0.2,0,0.3-0.1,0.4c-0.1,0.1-0.2,0.1-0.4,0.1h-4.4c0.1,1.6,0.8,2.4,2.2,2.4
			c0.4,0,0.7,0,0.9-0.1c0.3-0.1,0.5-0.2,0.8-0.4c0.2-0.1,0.4-0.2,0.5-0.2C125.8,140.6,125.9,140.6,126,140.7z M121.9,136.7
			c-0.4,0.4-0.6,0.9-0.6,1.6h3.9c0-0.7-0.2-1.2-0.5-1.6c-0.3-0.4-0.8-0.5-1.4-0.5C122.7,136.2,122.3,136.3,121.9,136.7z"/>
		<path d="M133.1,137.9v3.7c0,0.2,0,0.3-0.1,0.4c-0.1,0.1-0.2,0.2-0.4,0.2c-0.2,0-0.3-0.1-0.4-0.2c-0.1-0.1-0.2-0.2-0.2-0.4V141
			c-0.2,0.4-0.4,0.7-0.8,0.9s-0.8,0.3-1.2,0.3c-0.4,0-0.8-0.1-1.2-0.3c-0.4-0.2-0.6-0.4-0.9-0.7s-0.3-0.7-0.3-1
			c0-0.5,0.1-0.9,0.4-1.2s0.7-0.5,1.3-0.6s1.4-0.2,2.5-0.2h0.3v-0.5c0-0.6-0.1-1-0.3-1.2c-0.2-0.3-0.6-0.4-1.1-0.4
			c-0.6,0-1.3,0.2-1.9,0.5c-0.2,0.2-0.4,0.2-0.5,0.2c-0.1,0-0.2,0-0.3-0.1s-0.1-0.2-0.1-0.3c0-0.1,0-0.2,0.1-0.3s0.2-0.2,0.4-0.3
			c0.3-0.2,0.7-0.3,1.1-0.4s0.8-0.2,1.2-0.2C132.2,135.3,133.1,136.2,133.1,137.9z M131.4,140.8c0.4-0.4,0.5-0.9,0.5-1.4V139h-0.2
			c-0.8,0-1.4,0-1.8,0.1c-0.4,0.1-0.7,0.2-0.9,0.3c-0.2,0.2-0.3,0.4-0.3,0.7c0,0.4,0.1,0.7,0.4,0.9c0.3,0.2,0.6,0.4,1,0.4
			C130.6,141.4,131.1,141.2,131.4,140.8z"/>
		<path d="M138.7,141.8c0,0.2-0.1,0.3-0.2,0.4s-0.3,0.1-0.5,0.1l-0.4,0c-0.7-0.1-1.3-0.3-1.6-0.7s-0.5-1-0.5-1.8v-3.5h-0.9
			c-0.2,0-0.3,0-0.4-0.1c-0.1-0.1-0.1-0.2-0.1-0.3c0-0.1,0-0.2,0.1-0.3c0.1-0.1,0.2-0.1,0.4-0.1h0.9v-1.6c0-0.2,0.1-0.3,0.2-0.4
			c0.1-0.1,0.2-0.1,0.4-0.1c0.2,0,0.3,0,0.4,0.1c0.1,0.1,0.2,0.2,0.2,0.4v1.6h1.5c0.1,0,0.3,0,0.4,0.1c0.1,0.1,0.1,0.2,0.1,0.3
			c0,0.1,0,0.2-0.1,0.3c-0.1,0.1-0.2,0.1-0.4,0.1h-1.5v3.5c0,0.5,0.1,0.9,0.3,1.1c0.2,0.2,0.5,0.4,0.9,0.4l0.4,0
			C138.5,141.4,138.7,141.5,138.7,141.8z"/>
	</g>
</g>
<g>
	<g>
		<path d="M261.5,142c0.3,0.4,0.5,0.9,0.5,1.5c0,0.8-0.3,1.5-0.9,2c-0.6,0.5-1.5,0.7-2.6,0.7c-1.1,0-2-0.2-2.6-0.7
			c-0.6-0.5-0.9-1.1-0.9-2c0-0.6,0.2-1.1,0.5-1.5c0.3-0.4,0.8-0.7,1.3-0.9c-0.5-0.2-0.9-0.5-1.2-0.9c-0.3-0.4-0.4-0.9-0.4-1.4
			c0-0.8,0.3-1.4,0.9-1.9s1.4-0.7,2.4-0.7c1,0,1.8,0.2,2.4,0.7c0.6,0.5,0.9,1.1,0.9,1.9c0,0.5-0.1,1-0.4,1.4
			c-0.3,0.4-0.7,0.7-1.1,0.9C260.7,141.3,261.1,141.6,261.5,142z M260.8,143.5c0-1.2-0.8-1.8-2.4-1.8s-2.4,0.6-2.4,1.8
			c0,1.2,0.8,1.8,2.4,1.8S260.8,144.7,260.8,143.5z M256.9,140.2c0.4,0.3,0.9,0.5,1.6,0.5c0.7,0,1.2-0.2,1.6-0.5
			c0.4-0.3,0.5-0.7,0.5-1.3c0-0.5-0.2-1-0.5-1.3c-0.4-0.3-0.9-0.5-1.6-0.5c-0.7,0-1.2,0.2-1.6,0.5c-0.4,0.3-0.5,0.7-0.5,1.3
			C256.3,139.5,256.5,139.9,256.9,140.2z"/>
		<path d="M269.9,136.5c0.1,0.1,0.1,0.2,0.1,0.3c0,0.1,0,0.3-0.1,0.4l-4.6,8.6c-0.1,0.2-0.3,0.3-0.5,0.3c-0.1,0-0.3-0.1-0.4-0.2
			c-0.1-0.1-0.2-0.2-0.2-0.4c0-0.1,0-0.2,0.1-0.3l4.3-8h-4.8c-0.2,0-0.3,0-0.4-0.1c-0.1-0.1-0.1-0.2-0.1-0.3c0-0.2,0-0.3,0.1-0.4
			c0.1-0.1,0.2-0.1,0.4-0.1h5.6C269.7,136.4,269.8,136.4,269.9,136.5z"/>
		<path d="M272.2,141.5c-0.4-0.5-0.6-1.2-0.6-2.2c0-1,0.2-1.7,0.6-2.2s1-0.8,1.7-0.8s1.3,0.2,1.7,0.8s0.6,1.2,0.6,2.2
			c0,1-0.2,1.7-0.6,2.2s-1,0.8-1.7,0.8S272.6,142,272.2,141.5z M274.9,140.9c0.2-0.3,0.3-0.9,0.3-1.7c0-0.7-0.1-1.3-0.3-1.6
			c-0.2-0.3-0.5-0.5-1-0.5s-0.8,0.2-1,0.5c-0.2,0.3-0.3,0.9-0.3,1.6c0,0.8,0.1,1.3,0.3,1.7c0.2,0.3,0.6,0.5,1,0.5
			S274.7,141.2,274.9,140.9z M274.6,146.3c-0.1,0-0.2,0-0.3-0.1c-0.1-0.1-0.1-0.2-0.1-0.3c0-0.1,0-0.2,0.1-0.3l5.3-9.1
			c0.1-0.2,0.3-0.3,0.5-0.3c0.1,0,0.2,0,0.3,0.1c0.1,0.1,0.1,0.2,0.1,0.3c0,0.1,0,0.2-0.1,0.3L275,146
			C274.9,146.2,274.7,146.3,274.6,146.3z M278.8,145.5c-0.4-0.5-0.6-1.2-0.6-2.2c0-1,0.2-1.7,0.6-2.2c0.4-0.5,1-0.8,1.7-0.8
			c0.7,0,1.3,0.2,1.7,0.7s0.6,1.2,0.6,2.2s-0.2,1.7-0.6,2.2s-1,0.8-1.7,0.8C279.8,146.2,279.2,146,278.8,145.5z M281.6,144.9
			c0.2-0.3,0.3-0.9,0.3-1.7c0-0.7-0.1-1.3-0.3-1.6c-0.2-0.3-0.6-0.5-1-0.5s-0.8,0.2-1,0.5c-0.2,0.3-0.3,0.9-0.3,1.6
			c0,0.8,0.1,1.3,0.3,1.7c0.2,0.3,0.5,0.5,1,0.5C281,145.4,281.4,145.2,281.6,144.9z"/>
	</g>
</g>
<line fill="none" stroke="#EEF1F3" stroke-width="5" stroke-linecap="round" stroke-miterlimit="10" x1="53.2" y1="158.5" x2="284" y2="158.5"/>
<line fill="none" stroke="#3A7D99" stroke-width="4" stroke-linecap="round" stroke-miterlimit="10" x1="53.2" y1="158.5" x2="236.8" y2="158.5"/>
<g>
	<g>
		<path d="M260.4,209.1c0.5,0.3,0.8,0.6,1.1,1.1s0.4,1,0.4,1.6c0,0.6-0.1,1.1-0.4,1.6s-0.6,0.8-1.1,1.1s-1,0.4-1.6,0.4
			c-1.2,0-2.1-0.4-2.7-1.2c-0.6-0.8-1-2-1-3.5c0-1.1,0.1-2,0.4-2.8c0.3-0.8,0.7-1.4,1.3-1.8s1.2-0.6,2-0.6c0.5,0,1,0.1,1.6,0.3
			c0.5,0.2,1,0.5,1.3,0.8c0.2,0.1,0.2,0.3,0.2,0.5c0,0.1,0,0.3-0.1,0.3c-0.1,0.1-0.2,0.1-0.3,0.1c-0.1,0-0.3-0.1-0.4-0.2
			c-0.8-0.7-1.6-1-2.3-1c-0.8,0-1.5,0.4-1.9,1.1c-0.5,0.7-0.7,1.8-0.7,3.1v0.2c0.2-0.5,0.6-0.9,1-1.2c0.5-0.3,1-0.4,1.6-0.4
			C259.4,208.7,260,208.8,260.4,209.1z M260.2,213.3c0.4-0.4,0.6-0.9,0.6-1.6s-0.2-1.2-0.6-1.6c-0.4-0.4-0.9-0.6-1.5-0.6
			c-0.6,0-1.2,0.2-1.6,0.6c-0.4,0.4-0.6,0.9-0.6,1.6c0,0.6,0.2,1.2,0.6,1.6c0.4,0.4,0.9,0.6,1.6,0.6
			C259.3,213.9,259.8,213.7,260.2,213.3z"/>
		<path d="M270.3,211.9c0.1,0.1,0.1,0.2,0.1,0.3c0,0.3-0.2,0.5-0.5,0.5h-1v1.6c0,0.2-0.1,0.3-0.2,0.4c-0.1,0.1-0.2,0.2-0.4,0.2
			s-0.3-0.1-0.4-0.2c-0.1-0.1-0.2-0.2-0.2-0.4v-1.6h-4.1c-0.2,0-0.3,0-0.4-0.1c-0.1-0.1-0.1-0.2-0.1-0.3c0-0.1,0.1-0.3,0.2-0.4
			l4.5-6.5c0.1-0.2,0.3-0.2,0.5-0.2c0.2,0,0.3,0.1,0.4,0.2c0.1,0.1,0.2,0.2,0.2,0.4v6.2h1C270.1,211.7,270.2,211.8,270.3,211.9z
			 M264.4,211.7h3.3v-4.8L264.4,211.7z"/>
		<path d="M272.2,210.1c-0.4-0.5-0.6-1.2-0.6-2.2c0-1,0.2-1.7,0.6-2.2c0.4-0.5,1-0.8,1.7-0.8c0.7,0,1.3,0.2,1.7,0.8
			c0.4,0.5,0.6,1.2,0.6,2.2c0,1-0.2,1.7-0.6,2.2c-0.4,0.5-1,0.8-1.7,0.8C273.2,210.9,272.6,210.6,272.2,210.1z M274.9,209.6
			c0.2-0.3,0.3-0.9,0.3-1.7c0-0.7-0.1-1.3-0.3-1.6c-0.2-0.3-0.5-0.5-1-0.5c-0.5,0-0.8,0.2-1,0.5c-0.2,0.3-0.3,0.9-0.3,1.6
			c0,0.8,0.1,1.3,0.3,1.7c0.2,0.3,0.6,0.5,1,0.5C274.4,210.1,274.7,209.9,274.9,209.6z M274.6,215c-0.1,0-0.2,0-0.3-0.1
			c-0.1-0.1-0.1-0.2-0.1-0.3c0-0.1,0-0.2,0.1-0.3l5.3-9.1c0.1-0.2,0.3-0.3,0.5-0.3c0.1,0,0.2,0,0.3,0.1c0.1,0.1,0.1,0.2,0.1,0.3
			c0,0.1,0,0.2-0.1,0.3l-5.3,9.1C274.9,214.9,274.7,215,274.6,215z M278.8,214.1c-0.4-0.5-0.6-1.2-0.6-2.2c0-1,0.2-1.7,0.6-2.2
			s1-0.8,1.7-0.8c0.7,0,1.3,0.2,1.7,0.7s0.6,1.2,0.6,2.2s-0.2,1.7-0.6,2.2s-1,0.8-1.7,0.8C279.8,214.9,279.2,214.6,278.8,214.1z
			 M281.6,213.6c0.2-0.3,0.3-0.9,0.3-1.7c0-0.7-0.1-1.3-0.3-1.6c-0.2-0.3-0.6-0.5-1-0.5s-0.8,0.2-1,0.5c-0.2,0.3-0.3,0.9-0.3,1.6
			c0,0.8,0.1,1.3,0.3,1.7c0.2,0.3,0.5,0.5,1,0.5C281,214.1,281.3,213.9,281.6,213.6z"/>
	</g>
</g>
<line fill="none" stroke="#EEF1F3" stroke-width="5" stroke-linecap="round" stroke-miterlimit="10" x1="53.2" y1="227.2" x2="284" y2="227.2"/>
<line fill="none" stroke="#3A7D99" stroke-width="4" stroke-linecap="round" stroke-miterlimit="10" x1="53.2" y1="227.2" x2="200.3" y2="227.2"/>
<g>
	<g>
		<path d="M260.4,277.7c0.5,0.3,0.8,0.6,1.1,1.1s0.4,1,0.4,1.6c0,0.6-0.1,1.1-0.4,1.6s-0.6,0.8-1.1,1.1s-1,0.4-1.6,0.4
			c-1.2,0-2.1-0.4-2.7-1.2c-0.6-0.8-1-2-1-3.5c0-1.1,0.1-2,0.4-2.8c0.3-0.8,0.7-1.4,1.3-1.8s1.2-0.6,2-0.6c0.5,0,1,0.1,1.6,0.3
			c0.5,0.2,1,0.5,1.3,0.8c0.2,0.1,0.2,0.3,0.2,0.5c0,0.1,0,0.3-0.1,0.3c-0.1,0.1-0.2,0.1-0.3,0.1c-0.1,0-0.3-0.1-0.4-0.2
			c-0.8-0.7-1.6-1-2.3-1c-0.8,0-1.5,0.4-1.9,1.1c-0.5,0.7-0.7,1.8-0.7,3.1v0.2c0.2-0.5,0.6-0.9,1-1.2c0.5-0.3,1-0.4,1.6-0.4
			C259.4,277.3,260,277.5,260.4,277.7z M260.2,282c0.4-0.4,0.6-0.9,0.6-1.6s-0.2-1.2-0.6-1.6c-0.4-0.4-0.9-0.6-1.5-0.6
			c-0.6,0-1.2,0.2-1.6,0.6c-0.4,0.4-0.6,0.9-0.6,1.6c0,0.6,0.2,1.2,0.6,1.6c0.4,0.4,0.9,0.6,1.6,0.6
			C259.3,282.6,259.8,282.4,260.2,282z"/>
		<path d="M269.9,273.9c0.1,0.1,0.1,0.2,0.1,0.3c0,0.1,0,0.3-0.1,0.4l-4.6,8.6c-0.1,0.2-0.3,0.3-0.5,0.3c-0.1,0-0.3-0.1-0.4-0.2
			c-0.1-0.1-0.2-0.2-0.2-0.4c0-0.1,0-0.2,0.1-0.3l4.3-8h-4.8c-0.2,0-0.3,0-0.4-0.1c-0.1-0.1-0.1-0.2-0.1-0.3c0-0.2,0-0.3,0.1-0.4
			c0.1-0.1,0.2-0.1,0.4-0.1h5.6C269.7,273.7,269.8,273.8,269.9,273.9z"/>
		<path d="M272.2,278.8c-0.4-0.5-0.6-1.2-0.6-2.2c0-1,0.2-1.7,0.6-2.2c0.4-0.5,1-0.8,1.7-0.8c0.7,0,1.3,0.2,1.7,0.8
			c0.4,0.5,0.6,1.2,0.6,2.2c0,1-0.2,1.7-0.6,2.2c-0.4,0.5-1,0.8-1.7,0.8C273.2,279.6,272.6,279.3,272.2,278.8z M274.9,278.2
			c0.2-0.3,0.3-0.9,0.3-1.7c0-0.7-0.1-1.3-0.3-1.6c-0.2-0.3-0.5-0.5-1-0.5c-0.5,0-0.8,0.2-1,0.5c-0.2,0.3-0.3,0.9-0.3,1.6
			c0,0.8,0.1,1.3,0.3,1.7c0.2,0.3,0.6,0.5,1,0.5C274.4,278.8,274.7,278.6,274.9,278.2z M274.6,283.7c-0.1,0-0.2,0-0.3-0.1
			c-0.1-0.1-0.1-0.2-0.1-0.3c0-0.1,0-0.2,0.1-0.3l5.3-9.1c0.1-0.2,0.3-0.3,0.5-0.3c0.1,0,0.2,0,0.3,0.1c0.1,0.1,0.1,0.2,0.1,0.3
			c0,0.1,0,0.2-0.1,0.3l-5.3,9.1C274.9,283.6,274.7,283.7,274.6,283.7z M278.8,282.8c-0.4-0.5-0.6-1.2-0.6-2.2c0-1,0.2-1.7,0.6-2.2
			s1-0.8,1.7-0.8c0.7,0,1.3,0.2,1.7,0.7s0.6,1.2,0.6,2.2s-0.2,1.7-0.6,2.2s-1,0.8-1.7,0.8C279.8,283.5,279.2,283.3,278.8,282.8z
			 M281.6,282.2c0.2-0.3,0.3-0.9,0.3-1.7c0-0.7-0.1-1.3-0.3-1.6c-0.2-0.3-0.6-0.5-1-0.5s-0.8,0.2-1,0.5c-0.2,0.3-0.3,0.9-0.3,1.6
			c0,0.8,0.1,1.3,0.3,1.7c0.2,0.3,0.5,0.5,1,0.5C281,282.7,281.3,282.6,281.6,282.2z"/>
	</g>
</g>
<line fill="none" stroke="#EEF1F3" stroke-width="5" stroke-linecap="round" stroke-miterlimit="10" x1="53.2" y1="295.8" x2="284" y2="295.8"/>
<line fill="none" stroke="#3A7D99" stroke-width="4" stroke-linecap="round" stroke-miterlimit="10" x1="53.2" y1="295.8" x2="206.7" y2="295.8"/>
<g>
	<g>
		<path d="M262,349.2c0.1,0.1,0.1,0.2,0.1,0.3c0,0.3-0.2,0.5-0.5,0.5h-1v1.6c0,0.2-0.1,0.3-0.2,0.4c-0.1,0.1-0.2,0.2-0.4,0.2
			c-0.2,0-0.3-0.1-0.4-0.2c-0.1-0.1-0.2-0.2-0.2-0.4V350h-4.1c-0.2,0-0.3,0-0.4-0.1c-0.1-0.1-0.1-0.2-0.1-0.3c0-0.1,0.1-0.3,0.2-0.4
			l4.5-6.5c0.1-0.2,0.3-0.2,0.5-0.2c0.2,0,0.3,0.1,0.4,0.2c0.1,0.1,0.2,0.2,0.2,0.4v6.2h1C261.8,349.1,261.9,349.1,262,349.2z
			 M256.2,349.1h3.3v-4.8L256.2,349.1z"/>
		<path d="M268.7,346.4c0.5,0.3,0.8,0.6,1.1,1.1s0.4,1,0.4,1.6s-0.1,1.1-0.4,1.6c-0.3,0.5-0.7,0.8-1.2,1.1c-0.5,0.3-1.1,0.4-1.7,0.4
			c-0.6,0-1.1-0.1-1.7-0.3c-0.5-0.2-1-0.5-1.4-0.8c-0.1-0.1-0.2-0.3-0.2-0.5c0-0.1,0-0.3,0.1-0.3c0.1-0.1,0.2-0.1,0.3-0.1
			c0.1,0,0.3,0.1,0.4,0.2c0.4,0.3,0.8,0.6,1.2,0.7c0.4,0.2,0.8,0.2,1.3,0.2c0.7,0,1.2-0.2,1.6-0.6c0.4-0.4,0.6-0.9,0.6-1.6
			c0-0.6-0.2-1.2-0.6-1.6c-0.4-0.4-0.9-0.6-1.6-0.6c-0.8,0-1.5,0.3-2,1c-0.1,0.1-0.3,0.2-0.5,0.2c-0.1,0-0.2,0-0.3-0.1
			s-0.1-0.2-0.1-0.3v-4.8c0-0.2,0-0.3,0.1-0.4c0.1-0.1,0.2-0.2,0.4-0.2h4.8c0.2,0,0.3,0,0.4,0.1c0.1,0.1,0.1,0.2,0.1,0.3
			c0,0.1,0,0.3-0.1,0.3c-0.1,0.1-0.2,0.1-0.4,0.1h-4.3v3.5c0.3-0.2,0.6-0.4,0.9-0.6c0.3-0.1,0.7-0.2,1.1-0.2
			C267.7,346,268.2,346.1,268.7,346.4z"/>
		<path d="M272.2,347.5c-0.4-0.5-0.6-1.2-0.6-2.2c0-1,0.2-1.7,0.6-2.2s1-0.8,1.7-0.8s1.3,0.2,1.7,0.8s0.6,1.2,0.6,2.2
			c0,1-0.2,1.7-0.6,2.2s-1,0.8-1.7,0.8S272.6,348,272.2,347.5z M274.9,346.9c0.2-0.3,0.3-0.9,0.3-1.7c0-0.7-0.1-1.3-0.3-1.6
			c-0.2-0.3-0.5-0.5-1-0.5s-0.8,0.2-1,0.5c-0.2,0.3-0.3,0.9-0.3,1.6c0,0.8,0.1,1.3,0.3,1.7c0.2,0.3,0.6,0.5,1,0.5
			S274.7,347.2,274.9,346.9z M274.6,352.3c-0.1,0-0.2,0-0.3-0.1c-0.1-0.1-0.1-0.2-0.1-0.3c0-0.1,0-0.2,0.1-0.3l5.3-9.1
			c0.1-0.2,0.3-0.3,0.5-0.3c0.1,0,0.2,0,0.3,0.1c0.1,0.1,0.1,0.2,0.1,0.3c0,0.1,0,0.2-0.1,0.3L275,352
			C274.9,352.2,274.7,352.3,274.6,352.3z M278.8,351.5c-0.4-0.5-0.6-1.2-0.6-2.2c0-1,0.2-1.7,0.6-2.2c0.4-0.5,1-0.8,1.7-0.8
			c0.7,0,1.3,0.2,1.7,0.7s0.6,1.2,0.6,2.2s-0.2,1.7-0.6,2.2s-1,0.8-1.7,0.8C279.8,352.2,279.2,352,278.8,351.5z M281.6,350.9
			c0.2-0.3,0.3-0.9,0.3-1.7c0-0.7-0.1-1.3-0.3-1.6c-0.2-0.3-0.6-0.5-1-0.5s-0.8,0.2-1,0.5c-0.2,0.3-0.3,0.9-0.3,1.6
			c0,0.8,0.1,1.3,0.3,1.7c0.2,0.3,0.5,0.5,1,0.5C281,351.4,281.4,351.2,281.6,350.9z"/>
	</g>
</g>
<line fill="none" stroke="#EEF1F3" stroke-width="5" stroke-linecap="round" stroke-miterlimit="10" x1="53.2" y1="364.5" x2="284" y2="364.5"/>
<line fill="none" stroke="#3A7D99" stroke-width="4" stroke-linecap="round" stroke-miterlimit="10" x1="53.2" y1="364.5" x2="162.3" y2="364.5"/>
<g>
	<g>
		<path d="M55.5,211.8c-0.6-0.2-1.1-0.5-1.5-0.8c-0.1-0.1-0.2-0.3-0.2-0.5c0-0.1,0-0.2,0.1-0.3c0.1-0.1,0.2-0.1,0.3-0.1
			c0.1,0,0.2,0.1,0.4,0.2c0.9,0.7,1.8,1,2.9,1c0.8,0,1.4-0.2,1.8-0.5c0.4-0.3,0.6-0.7,0.6-1.3c0-0.3-0.1-0.6-0.3-0.8
			s-0.5-0.4-0.8-0.5c-0.3-0.1-0.8-0.2-1.3-0.4c-0.8-0.2-1.4-0.4-1.9-0.6c-0.5-0.2-0.9-0.5-1.2-0.8c-0.3-0.4-0.4-0.8-0.4-1.4
			c0-0.6,0.1-1,0.4-1.5c0.3-0.4,0.7-0.8,1.3-1c0.5-0.2,1.2-0.4,1.8-0.4c0.6,0,1.2,0.1,1.8,0.3c0.6,0.2,1,0.5,1.4,0.8
			c0.1,0.1,0.2,0.3,0.2,0.5c0,0.1,0,0.2-0.1,0.3c-0.1,0.1-0.2,0.1-0.3,0.1s-0.2-0.1-0.4-0.2c-0.5-0.4-0.9-0.6-1.3-0.8
			c-0.4-0.1-0.9-0.2-1.4-0.2c-0.8,0-1.4,0.2-1.8,0.5c-0.4,0.3-0.6,0.8-0.6,1.3c0,0.5,0.2,0.9,0.6,1.1s0.9,0.5,1.7,0.6
			c0.8,0.2,1.5,0.4,2,0.6c0.5,0.2,0.9,0.4,1.2,0.8s0.5,0.8,0.5,1.4c0,0.5-0.1,1-0.4,1.4c-0.3,0.4-0.7,0.7-1.3,1s-1.2,0.3-1.9,0.3
			C56.8,212.1,56.1,212,55.5,211.8z"/>
		<path d="M63.8,211.7c-0.5-0.3-0.9-0.7-1.1-1.2c-0.3-0.5-0.4-1.1-0.4-1.8s0.1-1.3,0.4-1.8c0.3-0.5,0.6-0.9,1.1-1.2
			c0.5-0.3,1-0.4,1.7-0.4c0.6,0,1.2,0.1,1.7,0.4c0.5,0.3,0.9,0.7,1.1,1.2c0.3,0.5,0.4,1.1,0.4,1.8s-0.1,1.3-0.4,1.8
			c-0.3,0.5-0.6,0.9-1.1,1.2c-0.5,0.3-1,0.4-1.7,0.4C64.9,212.1,64.3,212,63.8,211.7z M67,210.5c0.4-0.4,0.5-1.1,0.5-1.9
			c0-0.8-0.2-1.4-0.5-1.9c-0.4-0.4-0.9-0.7-1.5-0.7s-1.2,0.2-1.5,0.7c-0.4,0.4-0.5,1.1-0.5,1.9c0,0.8,0.2,1.5,0.5,1.9
			c0.4,0.4,0.9,0.7,1.5,0.7C66.2,211.2,66.7,211,67,210.5z"/>
		<path d="M71.5,211.7c-0.5-0.3-0.9-0.7-1.1-1.2c-0.3-0.5-0.4-1.1-0.4-1.8s0.1-1.3,0.4-1.8c0.3-0.5,0.6-0.9,1.1-1.2s1-0.4,1.7-0.4
			c0.3,0,0.7,0,1,0.1c0.3,0.1,0.6,0.2,0.9,0.4c0.2,0.1,0.3,0.2,0.4,0.3s0.1,0.2,0.1,0.4s0,0.2-0.1,0.3c-0.1,0.1-0.2,0.1-0.3,0.1
			c-0.1,0-0.1,0-0.2-0.1s-0.1-0.1-0.2-0.1s-0.1-0.1-0.1-0.1c-0.2-0.2-0.5-0.3-0.7-0.4c-0.2-0.1-0.5-0.1-0.8-0.1
			c-0.7,0-1.2,0.2-1.6,0.7c-0.4,0.5-0.6,1.1-0.6,1.9s0.2,1.4,0.6,1.9s0.9,0.7,1.6,0.7c0.3,0,0.6,0,0.8-0.1s0.5-0.2,0.7-0.4
			c0.1-0.1,0.2-0.1,0.3-0.2s0.2-0.1,0.2-0.1c0.1,0,0.2,0,0.3,0.1c0.1,0.1,0.1,0.2,0.1,0.3c0,0.1,0,0.2-0.1,0.3
			c-0.1,0.1-0.2,0.2-0.4,0.3c-0.3,0.2-0.6,0.3-0.9,0.4c-0.4,0.1-0.7,0.2-1.1,0.2C72.5,212.1,72,212,71.5,211.7z"/>
		<path d="M77,203.5c-0.1-0.1-0.2-0.3-0.2-0.5c0-0.2,0.1-0.4,0.2-0.5s0.3-0.2,0.5-0.2c0.2,0,0.4,0.1,0.5,0.2
			c0.1,0.1,0.2,0.3,0.2,0.5c0,0.2-0.1,0.4-0.2,0.5c-0.1,0.1-0.3,0.2-0.5,0.2C77.3,203.7,77.1,203.6,77,203.5z M77.1,211.9
			c-0.1-0.1-0.2-0.2-0.2-0.4v-5.8c0-0.2,0.1-0.3,0.2-0.4s0.2-0.1,0.4-0.1c0.2,0,0.3,0,0.4,0.1s0.2,0.2,0.2,0.4v5.8
			c0,0.2-0.1,0.3-0.2,0.4c-0.1,0.1-0.2,0.1-0.4,0.1C77.4,212.1,77.2,212,77.1,211.9z"/>
		<path d="M85.4,207.8v3.7c0,0.2,0,0.3-0.1,0.4c-0.1,0.1-0.2,0.2-0.4,0.2c-0.2,0-0.3-0.1-0.4-0.2c-0.1-0.1-0.2-0.2-0.2-0.4v-0.7
			c-0.2,0.4-0.4,0.7-0.8,0.9s-0.8,0.3-1.2,0.3c-0.4,0-0.8-0.1-1.2-0.3c-0.4-0.2-0.6-0.4-0.9-0.7s-0.3-0.7-0.3-1
			c0-0.5,0.1-0.9,0.4-1.2s0.7-0.5,1.3-0.6s1.4-0.2,2.5-0.2h0.3v-0.5c0-0.6-0.1-1-0.3-1.2c-0.2-0.3-0.6-0.4-1.1-0.4
			c-0.6,0-1.3,0.2-1.9,0.5c-0.2,0.2-0.4,0.2-0.5,0.2c-0.1,0-0.2,0-0.3-0.1s-0.1-0.2-0.1-0.3c0-0.1,0-0.2,0.1-0.3s0.2-0.2,0.4-0.3
			c0.3-0.2,0.7-0.3,1.1-0.4s0.8-0.2,1.2-0.2C84.6,205.1,85.4,206,85.4,207.8z M83.8,210.7c0.4-0.4,0.5-0.9,0.5-1.4v-0.4h-0.2
			c-0.8,0-1.4,0-1.8,0.1c-0.4,0.1-0.7,0.2-0.9,0.3c-0.2,0.2-0.3,0.4-0.3,0.7c0,0.4,0.1,0.7,0.4,0.9c0.3,0.2,0.6,0.4,1,0.4
			C83,211.2,83.5,211,83.8,210.7z"/>
		<path d="M87.6,211.9c-0.1-0.1-0.2-0.2-0.2-0.4v-8.8c0-0.2,0.1-0.3,0.2-0.4c0.1-0.1,0.2-0.1,0.4-0.1c0.2,0,0.3,0,0.4,0.1
			c0.1,0.1,0.2,0.2,0.2,0.4v8.8c0,0.2-0.1,0.3-0.2,0.4c-0.1,0.1-0.2,0.1-0.4,0.1C87.9,212.1,87.7,212,87.6,211.9z"/>
		<path d="M94.5,211.9c-0.1-0.1-0.2-0.2-0.2-0.4v-8.7c0-0.2,0.1-0.3,0.2-0.4c0.1-0.1,0.2-0.2,0.4-0.2c0.2,0,0.3,0.1,0.4,0.2
			s0.2,0.2,0.2,0.4v8.7c0,0.2-0.1,0.3-0.2,0.4s-0.2,0.2-0.4,0.2C94.8,212.1,94.7,212,94.5,211.9z"/>
		<path d="M103.5,207.8v3.7c0,0.2,0,0.3-0.1,0.4c-0.1,0.1-0.2,0.1-0.4,0.1c-0.2,0-0.3,0-0.4-0.1c-0.1-0.1-0.2-0.2-0.2-0.4v-3.7
			c0-0.6-0.1-1.1-0.4-1.4c-0.2-0.3-0.6-0.4-1.2-0.4c-0.6,0-1.1,0.2-1.5,0.6c-0.4,0.4-0.6,0.9-0.6,1.5v3.4c0,0.2,0,0.3-0.1,0.4
			c-0.1,0.1-0.2,0.1-0.4,0.1c-0.2,0-0.3,0-0.4-0.1c-0.1-0.1-0.2-0.2-0.2-0.4v-5.8c0-0.2,0.1-0.3,0.2-0.4c0.1-0.1,0.2-0.2,0.4-0.2
			c0.2,0,0.3,0.1,0.4,0.2c0.1,0.1,0.1,0.2,0.1,0.4v0.7c0.2-0.4,0.5-0.7,0.9-0.9s0.8-0.3,1.4-0.3C102.7,205.1,103.5,206,103.5,207.8z
			"/>
		<path d="M107.4,203.6c-0.2,0.3-0.4,0.7-0.4,1.2v0.4h1.5c0.2,0,0.3,0,0.4,0.1s0.1,0.2,0.1,0.3s0,0.2-0.1,0.3
			c-0.1,0.1-0.2,0.1-0.4,0.1h-1.5v5.3c0,0.2-0.1,0.3-0.2,0.4c-0.1,0.1-0.2,0.1-0.4,0.1c-0.2,0-0.3,0-0.4-0.1
			c-0.1-0.1-0.2-0.2-0.2-0.4v-5.3H105c-0.2,0-0.3,0-0.4-0.1c-0.1-0.1-0.1-0.2-0.1-0.3c0-0.1,0-0.2,0.1-0.3c0.1-0.1,0.2-0.1,0.4-0.1
			h0.9V205c0-0.8,0.2-1.5,0.6-2c0.4-0.5,1-0.7,1.8-0.8l0.4,0c0.2,0,0.4,0,0.5,0.1c0.1,0.1,0.2,0.2,0.2,0.3c0,0.3-0.2,0.4-0.5,0.5
			l-0.4,0C108.1,203.2,107.7,203.4,107.4,203.6z M110.3,211.9c-0.1-0.1-0.2-0.2-0.2-0.4v-8.8c0-0.2,0.1-0.3,0.2-0.4
			c0.1-0.1,0.2-0.1,0.4-0.1c0.2,0,0.3,0,0.4,0.1c0.1,0.1,0.2,0.2,0.2,0.4v8.8c0,0.2-0.1,0.3-0.2,0.4c-0.1,0.1-0.2,0.1-0.4,0.1
			C110.5,212.1,110.4,212,110.3,211.9z"/>
		<path d="M118.8,205.3c0.1,0.1,0.1,0.2,0.1,0.4v5.8c0,0.2,0,0.3-0.1,0.4c-0.1,0.1-0.2,0.2-0.4,0.2c-0.2,0-0.3,0-0.4-0.1
			c-0.1-0.1-0.1-0.2-0.1-0.4v-0.7c-0.2,0.4-0.5,0.7-0.9,0.9c-0.4,0.2-0.8,0.3-1.3,0.3c-0.8,0-1.4-0.2-1.8-0.7
			c-0.4-0.4-0.6-1.1-0.6-2v-3.7c0-0.2,0.1-0.3,0.2-0.4c0.1-0.1,0.2-0.2,0.4-0.2s0.3,0.1,0.4,0.2c0.1,0.1,0.1,0.2,0.1,0.4v3.7
			c0,0.6,0.1,1,0.4,1.3c0.2,0.3,0.6,0.4,1.1,0.4c0.6,0,1.1-0.2,1.4-0.6c0.4-0.4,0.5-0.9,0.5-1.5v-3.4c0-0.2,0.1-0.3,0.2-0.4
			c0.1-0.1,0.2-0.2,0.4-0.2C118.6,205.2,118.7,205.2,118.8,205.3z"/>
		<path d="M126.5,210.6c0.1,0.1,0.1,0.2,0.1,0.3c0,0.2-0.2,0.4-0.5,0.6c-0.3,0.2-0.7,0.3-1,0.4c-0.4,0.1-0.7,0.1-1.1,0.1
			c-1,0-1.9-0.3-2.5-0.9c-0.6-0.6-0.9-1.5-0.9-2.5c0-0.7,0.1-1.3,0.4-1.8c0.3-0.5,0.6-0.9,1.1-1.2c0.5-0.3,1-0.4,1.6-0.4
			c0.9,0,1.6,0.3,2.1,0.9c0.5,0.6,0.8,1.3,0.8,2.3c0,0.2,0,0.3-0.1,0.4c-0.1,0.1-0.2,0.1-0.4,0.1h-4.4c0.1,1.6,0.8,2.4,2.2,2.4
			c0.4,0,0.7,0,0.9-0.1c0.3-0.1,0.5-0.2,0.8-0.4c0.2-0.1,0.4-0.2,0.5-0.2C126.3,210.4,126.4,210.5,126.5,210.6z M122.4,206.5
			c-0.4,0.4-0.6,0.9-0.6,1.6h3.9c0-0.7-0.2-1.2-0.5-1.6c-0.3-0.4-0.8-0.5-1.4-0.5C123.2,206,122.8,206.2,122.4,206.5z"/>
		<path d="M134.1,207.8v3.7c0,0.2,0,0.3-0.1,0.4c-0.1,0.1-0.2,0.1-0.4,0.1c-0.2,0-0.3,0-0.4-0.1c-0.1-0.1-0.2-0.2-0.2-0.4v-3.7
			c0-0.6-0.1-1.1-0.4-1.4c-0.2-0.3-0.6-0.4-1.2-0.4c-0.6,0-1.1,0.2-1.5,0.6c-0.4,0.4-0.6,0.9-0.6,1.5v3.4c0,0.2,0,0.3-0.1,0.4
			c-0.1,0.1-0.2,0.1-0.4,0.1c-0.2,0-0.3,0-0.4-0.1c-0.1-0.1-0.2-0.2-0.2-0.4v-5.8c0-0.2,0.1-0.3,0.2-0.4c0.1-0.1,0.2-0.2,0.4-0.2
			c0.2,0,0.3,0.1,0.4,0.2c0.1,0.1,0.1,0.2,0.1,0.4v0.7c0.2-0.4,0.5-0.7,0.9-0.9s0.8-0.3,1.4-0.3C133.3,205.1,134.1,206,134.1,207.8z
			"/>
		<path d="M137.2,211.7c-0.5-0.3-0.9-0.7-1.1-1.2c-0.3-0.5-0.4-1.1-0.4-1.8s0.1-1.3,0.4-1.8c0.3-0.5,0.6-0.9,1.1-1.2s1-0.4,1.7-0.4
			c0.3,0,0.7,0,1,0.1c0.3,0.1,0.6,0.2,0.9,0.4c0.2,0.1,0.3,0.2,0.4,0.3s0.1,0.2,0.1,0.4s0,0.2-0.1,0.3c-0.1,0.1-0.2,0.1-0.3,0.1
			c-0.1,0-0.1,0-0.2-0.1s-0.1-0.1-0.2-0.1s-0.1-0.1-0.1-0.1c-0.2-0.2-0.5-0.3-0.7-0.4c-0.2-0.1-0.5-0.1-0.8-0.1
			c-0.7,0-1.2,0.2-1.6,0.7c-0.4,0.5-0.6,1.1-0.6,1.9s0.2,1.4,0.6,1.9s0.9,0.7,1.6,0.7c0.3,0,0.6,0,0.8-0.1s0.5-0.2,0.7-0.4
			c0.1-0.1,0.2-0.1,0.3-0.2s0.2-0.1,0.2-0.1c0.1,0,0.2,0,0.3,0.1c0.1,0.1,0.1,0.2,0.1,0.3c0,0.1,0,0.2-0.1,0.3
			c-0.1,0.1-0.2,0.2-0.4,0.3c-0.3,0.2-0.6,0.3-0.9,0.4c-0.4,0.1-0.7,0.2-1.1,0.2C138.3,212.1,137.7,212,137.2,211.7z"/>
		<path d="M148.2,210.6c0.1,0.1,0.1,0.2,0.1,0.3c0,0.2-0.2,0.4-0.5,0.6c-0.3,0.2-0.7,0.3-1,0.4c-0.4,0.1-0.7,0.1-1.1,0.1
			c-1,0-1.9-0.3-2.5-0.9c-0.6-0.6-0.9-1.5-0.9-2.5c0-0.7,0.1-1.3,0.4-1.8c0.3-0.5,0.6-0.9,1.1-1.2c0.5-0.3,1-0.4,1.6-0.4
			c0.9,0,1.6,0.3,2.1,0.9c0.5,0.6,0.8,1.3,0.8,2.3c0,0.2,0,0.3-0.1,0.4c-0.1,0.1-0.2,0.1-0.4,0.1h-4.4c0.1,1.6,0.8,2.4,2.2,2.4
			c0.4,0,0.7,0,0.9-0.1c0.3-0.1,0.5-0.2,0.8-0.4c0.2-0.1,0.4-0.2,0.5-0.2C148,210.4,148.1,210.5,148.2,210.6z M144.1,206.5
			c-0.4,0.4-0.6,0.9-0.6,1.6h3.9c0-0.7-0.2-1.2-0.5-1.6c-0.3-0.4-0.8-0.5-1.4-0.5C144.9,206,144.4,206.2,144.1,206.5z"/>
	</g>
</g>
<g>
	<g>
		<path d="M62.8,279.1c0,0.1-0.1,0.3-0.2,0.3c-0.1,0.1-0.2,0.1-0.4,0.1c-0.2,0-0.4-0.1-0.5-0.3l-1-2.2h-5.2l-1,2.2
			c-0.1,0.2-0.3,0.3-0.5,0.3c-0.1,0-0.3,0-0.4-0.1c-0.1-0.1-0.2-0.2-0.2-0.4c0-0.1,0-0.1,0.1-0.2l3.9-8.8c0.1-0.1,0.1-0.2,0.2-0.3
			c0.1-0.1,0.2-0.1,0.4-0.1c0.1,0,0.3,0,0.4,0.1c0.1,0.1,0.2,0.2,0.2,0.3l3.9,8.8C62.8,278.9,62.8,279,62.8,279.1z M56,276.1h4.4
			l-2.2-4.9L56,276.1z"/>
		<path d="M70.1,272.8c0.1,0.1,0.2,0.2,0.2,0.4v5.8c0,1-0.3,1.8-0.8,2.3c-0.5,0.5-1.3,0.8-2.3,0.8c-1,0-1.8-0.2-2.5-0.6
			c-0.3-0.2-0.5-0.4-0.5-0.6c0-0.1,0-0.2,0.1-0.3c0.1-0.1,0.2-0.1,0.3-0.1c0.1,0,0.3,0.1,0.5,0.2c0.3,0.2,0.6,0.3,1,0.4
			c0.3,0.1,0.7,0.2,1.1,0.2c0.7,0,1.1-0.2,1.5-0.5c0.3-0.3,0.5-0.8,0.5-1.5V278c-0.2,0.4-0.5,0.8-0.9,1c-0.4,0.2-0.9,0.3-1.4,0.3
			c-0.6,0-1.1-0.1-1.6-0.4c-0.5-0.3-0.8-0.7-1.1-1.2c-0.3-0.5-0.4-1.1-0.4-1.8c0-0.7,0.1-1.2,0.4-1.8c0.3-0.5,0.6-0.9,1.1-1.2
			c0.5-0.3,1-0.4,1.6-0.4c0.5,0,1,0.1,1.4,0.3c0.4,0.2,0.7,0.6,0.9,1v-0.7c0-0.2,0-0.3,0.1-0.4c0.1-0.1,0.2-0.2,0.4-0.2
			C69.9,272.7,70,272.7,70.1,272.8z M68.6,277.7c0.4-0.4,0.6-1,0.6-1.8c0-0.7-0.2-1.3-0.5-1.8c-0.4-0.4-0.9-0.6-1.5-0.6
			s-1.2,0.2-1.5,0.6c-0.4,0.4-0.6,1-0.6,1.8c0,0.8,0.2,1.3,0.6,1.8c0.4,0.4,0.9,0.6,1.5,0.6C67.7,278.4,68.2,278.2,68.6,277.7z"/>
		<path d="M76.2,273.1c0,0.1,0,0.3-0.1,0.4c-0.1,0.1-0.2,0.1-0.4,0.2l-0.4,0c-0.6,0.1-1.1,0.3-1.4,0.7c-0.3,0.4-0.4,0.8-0.4,1.3v3.3
			c0,0.2-0.1,0.3-0.2,0.4c-0.1,0.1-0.2,0.1-0.4,0.1c-0.2,0-0.3,0-0.4-0.1c-0.1-0.1-0.2-0.2-0.2-0.4v-5.8c0-0.2,0.1-0.3,0.2-0.4
			s0.2-0.1,0.4-0.1c0.1,0,0.3,0,0.4,0.1c0.1,0.1,0.2,0.2,0.2,0.4v0.8c0.2-0.4,0.5-0.7,0.8-0.9c0.4-0.2,0.8-0.3,1.2-0.4l0.2,0
			C76,272.6,76.2,272.8,76.2,273.1z"/>
		<path d="M82.5,278.1c0.1,0.1,0.1,0.2,0.1,0.3c0,0.2-0.2,0.4-0.5,0.6c-0.3,0.2-0.7,0.3-1,0.4c-0.4,0.1-0.7,0.1-1.1,0.1
			c-1,0-1.9-0.3-2.5-0.9c-0.6-0.6-0.9-1.5-0.9-2.5c0-0.7,0.1-1.3,0.4-1.8c0.3-0.5,0.6-0.9,1.1-1.2c0.5-0.3,1-0.4,1.6-0.4
			c0.9,0,1.6,0.3,2.1,0.9c0.5,0.6,0.8,1.3,0.8,2.3c0,0.2,0,0.3-0.1,0.4c-0.1,0.1-0.2,0.1-0.4,0.1h-4.4c0.1,1.6,0.8,2.4,2.2,2.4
			c0.4,0,0.7,0,0.9-0.1c0.3-0.1,0.5-0.2,0.8-0.4c0.2-0.1,0.4-0.2,0.5-0.2C82.3,277.9,82.4,278,82.5,278.1z M78.4,274
			c-0.4,0.4-0.6,0.9-0.6,1.6h3.9c0-0.7-0.2-1.2-0.5-1.6c-0.3-0.4-0.8-0.5-1.4-0.5C79.2,273.5,78.8,273.7,78.4,274z"/>
		<path d="M89.8,278.1c0.1,0.1,0.1,0.2,0.1,0.3c0,0.2-0.2,0.4-0.5,0.6c-0.3,0.2-0.7,0.3-1,0.4c-0.4,0.1-0.7,0.1-1.1,0.1
			c-1,0-1.9-0.3-2.5-0.9c-0.6-0.6-0.9-1.5-0.9-2.5c0-0.7,0.1-1.3,0.4-1.8c0.3-0.5,0.6-0.9,1.1-1.2c0.5-0.3,1-0.4,1.6-0.4
			c0.9,0,1.6,0.3,2.1,0.9c0.5,0.6,0.8,1.3,0.8,2.3c0,0.2,0,0.3-0.1,0.4c-0.1,0.1-0.2,0.1-0.4,0.1H85c0.1,1.6,0.8,2.4,2.2,2.4
			c0.4,0,0.7,0,0.9-0.1c0.3-0.1,0.5-0.2,0.8-0.4c0.2-0.1,0.4-0.2,0.5-0.2C89.6,277.9,89.7,278,89.8,278.1z M85.7,274
			c-0.4,0.4-0.6,0.9-0.6,1.6H89c0-0.7-0.2-1.2-0.5-1.6c-0.3-0.4-0.8-0.5-1.4-0.5C86.5,273.5,86,273.7,85.7,274z"/>
		<path d="M96.8,275.3v3.7c0,0.2,0,0.3-0.1,0.4c-0.1,0.1-0.2,0.2-0.4,0.2c-0.2,0-0.3-0.1-0.4-0.2c-0.1-0.1-0.2-0.2-0.2-0.4v-0.7
			c-0.2,0.4-0.4,0.7-0.8,0.9s-0.8,0.3-1.2,0.3c-0.4,0-0.8-0.1-1.2-0.3c-0.4-0.2-0.6-0.4-0.9-0.7s-0.3-0.7-0.3-1
			c0-0.5,0.1-0.9,0.4-1.2s0.7-0.5,1.3-0.6s1.4-0.2,2.5-0.2h0.3v-0.5c0-0.6-0.1-1-0.3-1.2c-0.2-0.3-0.6-0.4-1.1-0.4
			c-0.6,0-1.3,0.2-1.9,0.5c-0.2,0.2-0.4,0.2-0.5,0.2c-0.1,0-0.2,0-0.3-0.1s-0.1-0.2-0.1-0.3c0-0.1,0-0.2,0.1-0.3s0.2-0.2,0.4-0.3
			c0.3-0.2,0.7-0.3,1.1-0.4s0.8-0.2,1.2-0.2C96,272.6,96.8,273.5,96.8,275.3z M95.2,278.2c0.4-0.4,0.5-0.9,0.5-1.4v-0.4h-0.2
			c-0.8,0-1.4,0-1.8,0.1c-0.4,0.1-0.7,0.2-0.9,0.3c-0.2,0.2-0.3,0.4-0.3,0.7c0,0.4,0.1,0.7,0.4,0.9c0.3,0.2,0.6,0.4,1,0.4
			C94.4,278.7,94.9,278.5,95.2,278.2z"/>
		<path d="M103.8,273c0.4,0.3,0.8,0.7,1,1.2s0.4,1.1,0.4,1.8c0,0.7-0.1,1.3-0.4,1.8s-0.6,0.9-1,1.2c-0.5,0.3-1,0.4-1.6,0.4
			c-0.5,0-1-0.1-1.4-0.3c-0.4-0.2-0.7-0.6-0.9-1v0.7c0,0.2,0,0.3-0.1,0.4c-0.1,0.1-0.2,0.2-0.4,0.2c-0.2,0-0.3-0.1-0.4-0.2
			c-0.1-0.1-0.2-0.2-0.2-0.4v-8.8c0-0.2,0.1-0.3,0.2-0.4c0.1-0.1,0.2-0.2,0.4-0.2c0.2,0,0.3,0,0.4,0.1c0.1,0.1,0.1,0.2,0.1,0.4v3.7
			c0.2-0.4,0.5-0.7,0.9-1c0.4-0.2,0.8-0.3,1.4-0.3C102.8,272.6,103.4,272.8,103.8,273z M103.5,278c0.4-0.5,0.5-1.1,0.5-1.9
			c0-0.8-0.2-1.4-0.5-1.9c-0.4-0.4-0.9-0.7-1.5-0.7s-1.2,0.2-1.5,0.7c-0.4,0.4-0.5,1.1-0.5,1.9s0.2,1.4,0.5,1.9s0.9,0.7,1.5,0.7
			S103.2,278.4,103.5,278z"/>
		<path d="M107.1,279.4c-0.1-0.1-0.2-0.2-0.2-0.4v-8.8c0-0.2,0.1-0.3,0.2-0.4c0.1-0.1,0.2-0.1,0.4-0.1c0.2,0,0.3,0,0.4,0.1
			c0.1,0.1,0.2,0.2,0.2,0.4v8.8c0,0.2-0.1,0.3-0.2,0.4c-0.1,0.1-0.2,0.1-0.4,0.1C107.3,279.6,107.2,279.5,107.1,279.4z"/>
		<path d="M115.6,278.1c0.1,0.1,0.1,0.2,0.1,0.3c0,0.2-0.2,0.4-0.5,0.6c-0.3,0.2-0.7,0.3-1,0.4c-0.4,0.1-0.7,0.1-1.1,0.1
			c-1,0-1.9-0.3-2.5-0.9c-0.6-0.6-0.9-1.5-0.9-2.5c0-0.7,0.1-1.3,0.4-1.8c0.3-0.5,0.6-0.9,1.1-1.2c0.5-0.3,1-0.4,1.6-0.4
			c0.9,0,1.6,0.3,2.1,0.9c0.5,0.6,0.8,1.3,0.8,2.3c0,0.2,0,0.3-0.1,0.4c-0.1,0.1-0.2,0.1-0.4,0.1h-4.4c0.1,1.6,0.8,2.4,2.2,2.4
			c0.4,0,0.7,0,0.9-0.1c0.3-0.1,0.5-0.2,0.8-0.4c0.2-0.1,0.4-0.2,0.5-0.2C115.4,277.9,115.5,278,115.6,278.1z M111.5,274
			c-0.4,0.4-0.6,0.9-0.6,1.6h3.9c0-0.7-0.2-1.2-0.5-1.6c-0.3-0.4-0.8-0.5-1.4-0.5C112.3,273.5,111.8,273.7,111.5,274z"/>
		<path d="M123.1,275.3v3.7c0,0.2,0,0.3-0.1,0.4c-0.1,0.1-0.2,0.1-0.4,0.1c-0.2,0-0.3,0-0.4-0.1c-0.1-0.1-0.2-0.2-0.2-0.4v-3.7
			c0-0.6-0.1-1.1-0.4-1.4c-0.2-0.3-0.6-0.4-1.2-0.4c-0.6,0-1.1,0.2-1.5,0.6c-0.4,0.4-0.6,0.9-0.6,1.5v3.4c0,0.2,0,0.3-0.1,0.4
			c-0.1,0.1-0.2,0.1-0.4,0.1c-0.2,0-0.3,0-0.4-0.1c-0.1-0.1-0.2-0.2-0.2-0.4v-5.8c0-0.2,0.1-0.3,0.2-0.4c0.1-0.1,0.2-0.2,0.4-0.2
			c0.2,0,0.3,0.1,0.4,0.2c0.1,0.1,0.1,0.2,0.1,0.4v0.7c0.2-0.4,0.5-0.7,0.9-0.9s0.8-0.3,1.4-0.3
			C122.3,272.6,123.1,273.5,123.1,275.3z"/>
		<path d="M130.6,278.1c0.1,0.1,0.1,0.2,0.1,0.3c0,0.2-0.2,0.4-0.5,0.6c-0.3,0.2-0.7,0.3-1,0.4c-0.4,0.1-0.7,0.1-1.1,0.1
			c-1,0-1.9-0.3-2.5-0.9c-0.6-0.6-0.9-1.5-0.9-2.5c0-0.7,0.1-1.3,0.4-1.8c0.3-0.5,0.6-0.9,1.1-1.2c0.5-0.3,1-0.4,1.6-0.4
			c0.9,0,1.6,0.3,2.1,0.9c0.5,0.6,0.8,1.3,0.8,2.3c0,0.2,0,0.3-0.1,0.4c-0.1,0.1-0.2,0.1-0.4,0.1h-4.4c0.1,1.6,0.8,2.4,2.2,2.4
			c0.4,0,0.7,0,0.9-0.1c0.3-0.1,0.5-0.2,0.8-0.4c0.2-0.1,0.4-0.2,0.5-0.2C130.5,277.9,130.6,278,130.6,278.1z M126.6,274
			c-0.4,0.4-0.6,0.9-0.6,1.6h3.9c0-0.7-0.2-1.2-0.5-1.6c-0.3-0.4-0.8-0.5-1.4-0.5C127.4,273.5,126.9,273.7,126.6,274z"/>
		<path d="M133.5,279.4c-0.4-0.1-0.7-0.2-1-0.4c-0.2-0.1-0.3-0.2-0.4-0.3c-0.1-0.1-0.1-0.2-0.1-0.4c0-0.1,0-0.2,0.1-0.3
			c0.1-0.1,0.2-0.1,0.3-0.1s0.3,0.1,0.5,0.2c0.3,0.2,0.5,0.3,0.8,0.4c0.3,0.1,0.6,0.1,1,0.1c0.5,0,0.9-0.1,1.2-0.3
			c0.3-0.2,0.4-0.4,0.4-0.8c0-0.2-0.1-0.4-0.2-0.5s-0.3-0.2-0.5-0.3c-0.2-0.1-0.6-0.2-1.1-0.3c-0.8-0.2-1.4-0.4-1.7-0.7
			s-0.5-0.7-0.5-1.2c0-0.4,0.1-0.7,0.3-1c0.2-0.3,0.5-0.5,0.9-0.7c0.4-0.2,0.8-0.3,1.3-0.3c0.4,0,0.7,0,1,0.1
			c0.3,0.1,0.6,0.2,0.9,0.4c0.3,0.2,0.5,0.5,0.5,0.7c0,0.1,0,0.2-0.1,0.3c-0.1,0.1-0.2,0.1-0.3,0.1c-0.1,0-0.3-0.1-0.5-0.2
			c-0.3-0.2-0.5-0.3-0.7-0.4c-0.2-0.1-0.5-0.1-0.9-0.1c-0.4,0-0.8,0.1-1,0.3c-0.3,0.2-0.4,0.5-0.4,0.8c0,0.2,0,0.4,0.1,0.5
			c0.1,0.1,0.3,0.2,0.5,0.3s0.5,0.2,1,0.3c0.6,0.1,1.1,0.3,1.5,0.5c0.3,0.2,0.6,0.4,0.7,0.6s0.2,0.5,0.2,0.9c0,0.6-0.2,1-0.7,1.4
			c-0.5,0.4-1.1,0.5-1.9,0.5C134.3,279.6,133.9,279.5,133.5,279.4z"/>
		<path d="M140.1,279.4c-0.4-0.1-0.7-0.2-1-0.4c-0.2-0.1-0.3-0.2-0.4-0.3c-0.1-0.1-0.1-0.2-0.1-0.4c0-0.1,0-0.2,0.1-0.3
			c0.1-0.1,0.2-0.1,0.3-0.1s0.3,0.1,0.5,0.2c0.3,0.2,0.5,0.3,0.8,0.4c0.3,0.1,0.6,0.1,1,0.1c0.5,0,0.9-0.1,1.2-0.3
			c0.3-0.2,0.4-0.4,0.4-0.8c0-0.2-0.1-0.4-0.2-0.5s-0.3-0.2-0.5-0.3c-0.2-0.1-0.6-0.2-1.1-0.3c-0.8-0.2-1.4-0.4-1.7-0.7
			s-0.5-0.7-0.5-1.2c0-0.4,0.1-0.7,0.3-1c0.2-0.3,0.5-0.5,0.9-0.7c0.4-0.2,0.8-0.3,1.3-0.3c0.4,0,0.7,0,1,0.1
			c0.3,0.1,0.6,0.2,0.9,0.4c0.3,0.2,0.5,0.5,0.5,0.7c0,0.1,0,0.2-0.1,0.3c-0.1,0.1-0.2,0.1-0.3,0.1c-0.1,0-0.3-0.1-0.5-0.2
			c-0.3-0.2-0.5-0.3-0.7-0.4c-0.2-0.1-0.5-0.1-0.9-0.1c-0.4,0-0.8,0.1-1,0.3c-0.3,0.2-0.4,0.5-0.4,0.8c0,0.2,0,0.4,0.1,0.5
			c0.1,0.1,0.3,0.2,0.5,0.3s0.5,0.2,1,0.3c0.6,0.1,1.1,0.3,1.5,0.5c0.3,0.2,0.6,0.4,0.7,0.6s0.2,0.5,0.2,0.9c0,0.6-0.2,1-0.7,1.4
			c-0.5,0.4-1.1,0.5-1.9,0.5C140.9,279.6,140.5,279.5,140.1,279.4z"/>
	</g>
</g>
<g>
	<g>
		<path d="M62.8,349c0,0.1-0.1,0.3-0.2,0.3c-0.1,0.1-0.2,0.1-0.4,0.1c-0.2,0-0.4-0.1-0.5-0.3l-1-2.2h-5.2l-1,2.2
			c-0.1,0.2-0.3,0.3-0.5,0.3c-0.1,0-0.3,0-0.4-0.1c-0.1-0.1-0.2-0.2-0.2-0.4c0-0.1,0-0.1,0.1-0.2l3.9-8.8c0.1-0.1,0.1-0.2,0.2-0.3
			c0.1-0.1,0.2-0.1,0.4-0.1c0.1,0,0.3,0,0.4,0.1c0.1,0.1,0.2,0.2,0.2,0.3l3.9,8.8C62.8,348.8,62.8,348.9,62.8,349z M56,345.9h4.4
			l-2.2-4.9L56,345.9z"/>
		<path d="M65.4,349c-0.5-0.3-0.9-0.7-1.1-1.2c-0.3-0.5-0.4-1.1-0.4-1.8s0.1-1.3,0.4-1.8c0.3-0.5,0.6-0.9,1.1-1.2s1-0.4,1.7-0.4
			c0.3,0,0.7,0,1,0.1c0.3,0.1,0.6,0.2,0.9,0.4c0.2,0.1,0.3,0.2,0.4,0.3s0.1,0.2,0.1,0.4s0,0.2-0.1,0.3c-0.1,0.1-0.2,0.1-0.3,0.1
			c-0.1,0-0.1,0-0.2-0.1s-0.1-0.1-0.2-0.1s-0.1-0.1-0.1-0.1c-0.2-0.2-0.5-0.3-0.7-0.4c-0.2-0.1-0.5-0.1-0.8-0.1
			c-0.7,0-1.2,0.2-1.6,0.7c-0.4,0.5-0.6,1.1-0.6,1.9s0.2,1.4,0.6,1.9s0.9,0.7,1.6,0.7c0.3,0,0.6,0,0.8-0.1s0.5-0.2,0.7-0.4
			c0.1-0.1,0.2-0.1,0.3-0.2s0.2-0.1,0.2-0.1c0.1,0,0.2,0,0.3,0.1c0.1,0.1,0.1,0.2,0.1,0.3c0,0.1,0,0.2-0.1,0.3
			c-0.1,0.1-0.2,0.2-0.4,0.3c-0.3,0.2-0.6,0.3-0.9,0.4c-0.4,0.1-0.7,0.2-1.1,0.2C66.4,349.5,65.8,349.3,65.4,349z"/>
		<path d="M76,343.2c0.4,0.4,0.6,1.1,0.6,2v3.7c0,0.2-0.1,0.3-0.2,0.4c-0.1,0.1-0.2,0.1-0.4,0.1c-0.2,0-0.3,0-0.4-0.1
			c-0.1-0.1-0.2-0.2-0.2-0.4v-3.7c0-0.6-0.1-1-0.4-1.3c-0.2-0.3-0.6-0.4-1.2-0.4c-0.6,0-1.1,0.2-1.5,0.6c-0.4,0.4-0.6,0.9-0.6,1.5
			v3.4c0,0.2,0,0.3-0.1,0.4c-0.1,0.1-0.2,0.1-0.4,0.1c-0.2,0-0.3,0-0.4-0.1c-0.1-0.1-0.2-0.2-0.2-0.4v-8.8c0-0.2,0.1-0.3,0.2-0.4
			c0.1-0.1,0.2-0.2,0.4-0.2c0.2,0,0.3,0,0.4,0.1c0.1,0.1,0.1,0.2,0.1,0.4v3.6c0.2-0.4,0.5-0.7,0.9-0.9c0.4-0.2,0.8-0.3,1.4-0.3
			C75,342.5,75.6,342.7,76,343.2z"/>
		<path d="M78.7,340.9c-0.1-0.1-0.2-0.3-0.2-0.5c0-0.2,0.1-0.4,0.2-0.5s0.3-0.2,0.5-0.2c0.2,0,0.4,0.1,0.5,0.2
			c0.1,0.1,0.2,0.3,0.2,0.5c0,0.2-0.1,0.4-0.2,0.5c-0.1,0.1-0.3,0.2-0.5,0.2C79,341.1,78.8,341,78.7,340.9z M78.8,349.3
			c-0.1-0.1-0.2-0.2-0.2-0.4v-5.8c0-0.2,0.1-0.3,0.2-0.4s0.2-0.1,0.4-0.1c0.2,0,0.3,0,0.4,0.1s0.2,0.2,0.2,0.4v5.8
			c0,0.2-0.1,0.3-0.2,0.4c-0.1,0.1-0.2,0.1-0.4,0.1C79.1,349.4,78.9,349.4,78.8,349.3z"/>
		<path d="M87.3,347.9c0.1,0.1,0.1,0.2,0.1,0.3c0,0.2-0.2,0.4-0.5,0.6c-0.3,0.2-0.7,0.3-1,0.4c-0.4,0.1-0.7,0.1-1.1,0.1
			c-1,0-1.9-0.3-2.5-0.9c-0.6-0.6-0.9-1.5-0.9-2.5c0-0.7,0.1-1.3,0.4-1.8c0.3-0.5,0.6-0.9,1.1-1.2c0.5-0.3,1-0.4,1.6-0.4
			c0.9,0,1.6,0.3,2.1,0.9c0.5,0.6,0.8,1.3,0.8,2.3c0,0.2,0,0.3-0.1,0.4c-0.1,0.1-0.2,0.1-0.4,0.1h-4.4c0.1,1.6,0.8,2.4,2.2,2.4
			c0.4,0,0.7,0,0.9-0.1c0.3-0.1,0.5-0.2,0.8-0.4c0.2-0.1,0.4-0.2,0.5-0.2C87.2,347.8,87.3,347.9,87.3,347.9z M83.2,343.9
			c-0.4,0.4-0.6,0.9-0.6,1.6h3.9c0-0.7-0.2-1.2-0.5-1.6c-0.3-0.4-0.8-0.5-1.4-0.5C84.1,343.4,83.6,343.6,83.2,343.9z"/>
		<path d="M94.4,342.5c0.1,0,0.3,0,0.4,0.1s0.2,0.2,0.2,0.3c0,0.1,0,0.2-0.1,0.2l-2.7,5.8c-0.1,0.1-0.1,0.2-0.2,0.3
			c-0.1,0.1-0.2,0.1-0.4,0.1c-0.1,0-0.2,0-0.3-0.1c-0.1-0.1-0.2-0.2-0.3-0.3l-2.7-5.8c0-0.1-0.1-0.1-0.1-0.2c0-0.1,0.1-0.3,0.2-0.4
			c0.1-0.1,0.3-0.2,0.4-0.2c0.1,0,0.2,0,0.3,0.1c0.1,0.1,0.2,0.1,0.2,0.2l2.3,5.2l2.3-5.1C94,342.7,94.2,342.5,94.4,342.5z"/>
		<path d="M101.5,347.9c0.1,0.1,0.1,0.2,0.1,0.3c0,0.2-0.2,0.4-0.5,0.6c-0.3,0.2-0.7,0.3-1,0.4c-0.4,0.1-0.7,0.1-1.1,0.1
			c-1,0-1.9-0.3-2.5-0.9c-0.6-0.6-0.9-1.5-0.9-2.5c0-0.7,0.1-1.3,0.4-1.8c0.3-0.5,0.6-0.9,1.1-1.2c0.5-0.3,1-0.4,1.6-0.4
			c0.9,0,1.6,0.3,2.1,0.9c0.5,0.6,0.8,1.3,0.8,2.3c0,0.2,0,0.3-0.1,0.4c-0.1,0.1-0.2,0.1-0.4,0.1h-4.4c0.1,1.6,0.8,2.4,2.2,2.4
			c0.4,0,0.7,0,0.9-0.1c0.3-0.1,0.5-0.2,0.8-0.4c0.2-0.1,0.4-0.2,0.5-0.2C101.3,347.8,101.4,347.9,101.5,347.9z M97.4,343.9
			c-0.4,0.4-0.6,0.9-0.6,1.6h3.9c0-0.7-0.2-1.2-0.5-1.6c-0.3-0.4-0.8-0.5-1.4-0.5C98.2,343.4,97.8,343.6,97.4,343.9z"/>
		<path d="M113,345.2v3.7c0,0.2-0.1,0.3-0.2,0.4c-0.1,0.1-0.2,0.1-0.4,0.1c-0.2,0-0.3,0-0.4-0.1c-0.1-0.1-0.2-0.2-0.2-0.4v-3.7
			c0-0.6-0.1-1.1-0.3-1.3c-0.2-0.3-0.6-0.4-1-0.4c-0.6,0-1,0.2-1.3,0.6c-0.3,0.4-0.5,0.9-0.5,1.5v3.4c0,0.2-0.1,0.3-0.2,0.4
			c-0.1,0.1-0.2,0.1-0.4,0.1c-0.2,0-0.3,0-0.4-0.1c-0.1-0.1-0.2-0.2-0.2-0.4v-3.7c0-0.6-0.1-1.1-0.3-1.3c-0.2-0.3-0.6-0.4-1-0.4
			c-0.6,0-1,0.2-1.3,0.6s-0.5,0.9-0.5,1.5v3.4c0,0.2-0.1,0.3-0.2,0.4c-0.1,0.1-0.2,0.1-0.4,0.1c-0.2,0-0.3,0-0.4-0.1
			c-0.1-0.1-0.2-0.2-0.2-0.4v-5.8c0-0.2,0.1-0.3,0.2-0.4c0.1-0.1,0.2-0.2,0.4-0.2c0.2,0,0.3,0,0.4,0.1s0.2,0.2,0.2,0.4v0.7
			c0.2-0.4,0.5-0.7,0.8-0.9c0.4-0.2,0.8-0.3,1.2-0.3c1,0,1.7,0.4,2.1,1.3c0.2-0.4,0.5-0.7,0.9-1c0.4-0.2,0.8-0.4,1.4-0.4
			C112.3,342.5,113,343.4,113,345.2z"/>
		<path d="M120.5,347.9c0.1,0.1,0.1,0.2,0.1,0.3c0,0.2-0.2,0.4-0.5,0.6c-0.3,0.2-0.7,0.3-1,0.4c-0.4,0.1-0.7,0.1-1.1,0.1
			c-1,0-1.9-0.3-2.5-0.9c-0.6-0.6-0.9-1.5-0.9-2.5c0-0.7,0.1-1.3,0.4-1.8c0.3-0.5,0.6-0.9,1.1-1.2c0.5-0.3,1-0.4,1.6-0.4
			c0.9,0,1.6,0.3,2.1,0.9c0.5,0.6,0.8,1.3,0.8,2.3c0,0.2,0,0.3-0.1,0.4c-0.1,0.1-0.2,0.1-0.4,0.1h-4.4c0.1,1.6,0.8,2.4,2.2,2.4
			c0.4,0,0.7,0,0.9-0.1c0.3-0.1,0.5-0.2,0.8-0.4c0.2-0.1,0.4-0.2,0.5-0.2C120.4,347.8,120.4,347.9,120.5,347.9z M116.4,343.9
			c-0.4,0.4-0.6,0.9-0.6,1.6h3.9c0-0.7-0.2-1.2-0.5-1.6c-0.3-0.4-0.8-0.5-1.4-0.5C117.2,343.4,116.8,343.6,116.4,343.9z"/>
		<path d="M128.1,345.2v3.7c0,0.2,0,0.3-0.1,0.4c-0.1,0.1-0.2,0.1-0.4,0.1c-0.2,0-0.3,0-0.4-0.1c-0.1-0.1-0.2-0.2-0.2-0.4v-3.7
			c0-0.6-0.1-1.1-0.4-1.4c-0.2-0.3-0.6-0.4-1.2-0.4c-0.6,0-1.1,0.2-1.5,0.6c-0.4,0.4-0.6,0.9-0.6,1.5v3.4c0,0.2,0,0.3-0.1,0.4
			c-0.1,0.1-0.2,0.1-0.4,0.1c-0.2,0-0.3,0-0.4-0.1c-0.1-0.1-0.2-0.2-0.2-0.4v-5.8c0-0.2,0.1-0.3,0.2-0.4c0.1-0.1,0.2-0.2,0.4-0.2
			c0.2,0,0.3,0.1,0.4,0.2c0.1,0.1,0.1,0.2,0.1,0.4v0.7c0.2-0.4,0.5-0.7,0.9-0.9s0.8-0.3,1.4-0.3
			C127.3,342.5,128.1,343.4,128.1,345.2z"/>
		<path d="M133.7,349c0,0.2-0.1,0.3-0.2,0.4s-0.3,0.1-0.5,0.1l-0.4,0c-0.7-0.1-1.3-0.3-1.6-0.7s-0.5-1-0.5-1.8v-3.5h-0.9
			c-0.2,0-0.3,0-0.4-0.1c-0.1-0.1-0.1-0.2-0.1-0.3c0-0.1,0-0.2,0.1-0.3c0.1-0.1,0.2-0.1,0.4-0.1h0.9v-1.6c0-0.2,0.1-0.3,0.2-0.4
			c0.1-0.1,0.2-0.1,0.4-0.1c0.2,0,0.3,0,0.4,0.1c0.1,0.1,0.2,0.2,0.2,0.4v1.6h1.5c0.1,0,0.3,0,0.4,0.1c0.1,0.1,0.1,0.2,0.1,0.3
			c0,0.1,0,0.2-0.1,0.3c-0.1,0.1-0.2,0.1-0.4,0.1h-1.5v3.5c0,0.5,0.1,0.9,0.3,1.1c0.2,0.2,0.5,0.4,0.9,0.4l0.4,0
			C133.6,348.6,133.7,348.7,133.7,349z"/>
	</g>
</g>
<g>
</g>
<g>
</g>
<g>
</g>
<g>
</g>
<g>
</g>
<g>
</g>
</svg>
