<?xml version="1.0" encoding="utf-8"?>
<!-- Generator: Adobe Illustrator 19.1.0, SVG Export Plug-In . SVG Version: 6.00 Build 0)  -->
<svg version="1.0" id="Layer_1_copy" xmlns="http://www.w3.org/2000/svg" xmlns:xlink="http://www.w3.org/1999/xlink" x="0px"
	 y="0px" viewBox="0 0 300 438" enable-background="new 0 0 300 438" xml:space="preserve">
<g>
	<path fill="#FFFFFF" d="M111,20.4c-0.7-0.4-1.2-1-1.6-1.7c-0.4-0.8-0.6-1.6-0.6-2.7s0.2-1.9,0.6-2.6c0.4-0.8,0.9-1.3,1.6-1.7
		c0.7-0.4,1.5-0.6,2.5-0.6c0.6,0,1.2,0.1,1.7,0.3c0.5,0.2,1,0.4,1.4,0.8c0.1,0.1,0.2,0.2,0.2,0.3s0.1,0.2,0.1,0.4
		c0,0.2-0.1,0.4-0.2,0.5c-0.1,0.1-0.2,0.2-0.4,0.2c-0.2,0-0.4-0.1-0.6-0.2c-0.4-0.3-0.8-0.5-1.1-0.6c-0.3-0.1-0.7-0.2-1.1-0.2
		c-1,0-1.7,0.3-2.2,0.9c-0.5,0.6-0.7,1.5-0.7,2.6c0,1.2,0.2,2.1,0.7,2.7c0.5,0.6,1.2,0.9,2.2,0.9c0.4,0,0.8-0.1,1.1-0.2
		c0.3-0.1,0.7-0.3,1.1-0.6c0.1-0.1,0.2-0.1,0.3-0.1c0.1,0,0.2-0.1,0.3-0.1c0.2,0,0.3,0.1,0.4,0.2c0.1,0.1,0.2,0.3,0.2,0.5
		c0,0.1,0,0.3-0.1,0.4c0,0.1-0.1,0.2-0.2,0.3c-0.4,0.3-0.9,0.6-1.4,0.8c-0.5,0.2-1.1,0.3-1.7,0.3C112.5,21,111.7,20.8,111,20.4z"/>
	<path fill="#FFFFFF" d="M118.4,12.5c-0.2-0.2-0.3-0.4-0.3-0.7c0-0.3,0.1-0.5,0.3-0.7s0.4-0.2,0.7-0.2c0.3,0,0.6,0.1,0.7,0.2
		s0.3,0.4,0.3,0.7c0,0.3-0.1,0.5-0.3,0.7c-0.2,0.2-0.4,0.3-0.7,0.3C118.8,12.8,118.6,12.7,118.4,12.5z M118.5,20.8
		c-0.2-0.1-0.2-0.3-0.2-0.6v-5.3c0-0.3,0.1-0.5,0.2-0.6c0.2-0.1,0.4-0.2,0.6-0.2c0.2,0,0.5,0.1,0.6,0.2c0.2,0.1,0.2,0.3,0.2,0.6v5.3
		c0,0.3-0.1,0.5-0.2,0.6c-0.2,0.1-0.4,0.2-0.6,0.2C118.9,21,118.7,20.9,118.5,20.8z"/>
	<path fill="#FFFFFF" d="M127.5,14.7c0.4,0.5,0.6,1.2,0.6,2.1v3.4c0,0.3-0.1,0.5-0.2,0.6c-0.2,0.1-0.4,0.2-0.6,0.2
		c-0.3,0-0.5-0.1-0.6-0.2c-0.2-0.1-0.2-0.4-0.2-0.6v-3.3c0-0.5-0.1-0.9-0.3-1.1c-0.2-0.2-0.5-0.4-0.9-0.4c-0.5,0-0.9,0.2-1.2,0.5
		c-0.3,0.3-0.4,0.7-0.4,1.3v3.1c0,0.3-0.1,0.5-0.2,0.6c-0.2,0.1-0.4,0.2-0.6,0.2c-0.3,0-0.5-0.1-0.6-0.2c-0.2-0.1-0.2-0.4-0.2-0.6
		v-5.4c0-0.2,0.1-0.4,0.2-0.6c0.2-0.1,0.4-0.2,0.6-0.2c0.2,0,0.4,0.1,0.6,0.2c0.2,0.1,0.2,0.3,0.2,0.6v0.4c0.2-0.4,0.5-0.7,0.9-0.9
		c0.4-0.2,0.8-0.3,1.3-0.3C126.5,14,127.1,14.2,127.5,14.7z"/>
	<path fill="#FFFFFF" d="M136.2,11.3c0.2,0.1,0.2,0.3,0.2,0.6v8.3c0,0.2-0.1,0.4-0.2,0.6c-0.2,0.1-0.4,0.2-0.6,0.2s-0.5-0.1-0.6-0.2
		c-0.2-0.1-0.2-0.3-0.2-0.6v-0.3c-0.2,0.4-0.5,0.7-0.9,0.9c-0.4,0.2-0.8,0.3-1.3,0.3c-0.6,0-1.1-0.1-1.6-0.4
		c-0.5-0.3-0.8-0.7-1.1-1.3c-0.3-0.5-0.4-1.2-0.4-1.9c0-0.7,0.1-1.3,0.4-1.8s0.6-0.9,1.1-1.2c0.5-0.3,1-0.4,1.6-0.4
		c0.5,0,0.9,0.1,1.3,0.3c0.4,0.2,0.7,0.5,0.9,0.9v-3.3c0-0.2,0.1-0.4,0.2-0.6c0.2-0.1,0.4-0.2,0.6-0.2
		C135.8,11.1,136,11.1,136.2,11.3z M134.2,19.1c0.3-0.4,0.4-0.9,0.4-1.6c0-0.7-0.1-1.2-0.4-1.6c-0.3-0.4-0.7-0.6-1.3-0.6
		c-0.6,0-1,0.2-1.3,0.6c-0.3,0.4-0.5,0.9-0.5,1.6c0,0.7,0.2,1.2,0.5,1.6c0.3,0.4,0.7,0.6,1.3,0.6C133.5,19.7,133.9,19.5,134.2,19.1z
		"/>
	<path fill="#FFFFFF" d="M143.2,14.1c0.1-0.1,0.3-0.1,0.4-0.1c0.2,0,0.4,0.1,0.6,0.2c0.2,0.1,0.3,0.3,0.3,0.5c0,0.1,0,0.2-0.1,0.3
		l-3.8,7.9c-0.2,0.3-0.4,0.5-0.7,0.5c-0.2,0-0.4-0.1-0.6-0.2c-0.2-0.1-0.2-0.3-0.2-0.5c0-0.1,0-0.2,0.1-0.3l0.9-2l-2.6-5.4
		c0-0.1-0.1-0.2-0.1-0.3c0-0.2,0.1-0.4,0.3-0.5c0.2-0.1,0.4-0.2,0.6-0.2c0.2,0,0.3,0,0.4,0.1c0.1,0.1,0.2,0.2,0.3,0.4l1.9,4.3
		l1.9-4.3C143,14.3,143.1,14.2,143.2,14.1z"/>
	<path fill="#FFFFFF" d="M161.9,11.2c0.1-0.1,0.3-0.1,0.5-0.1c0.2,0,0.4,0.1,0.6,0.2c0.2,0.1,0.2,0.3,0.2,0.6c0,0.1,0,0.2-0.1,0.4
		l-3,8.2c-0.1,0.2-0.2,0.3-0.4,0.4c-0.2,0.1-0.4,0.2-0.6,0.2s-0.4-0.1-0.6-0.2s-0.3-0.2-0.4-0.4l-2.3-6.5l-2.3,6.5
		c-0.1,0.2-0.2,0.3-0.4,0.4c-0.2,0.1-0.4,0.2-0.6,0.2c-0.2,0-0.4-0.1-0.6-0.2c-0.2-0.1-0.3-0.2-0.4-0.4l-3-8.2
		c0-0.1-0.1-0.3-0.1-0.4c0-0.2,0.1-0.4,0.3-0.6c0.2-0.1,0.4-0.2,0.6-0.2c0.2,0,0.4,0,0.5,0.1c0.1,0.1,0.3,0.2,0.3,0.4l2.3,6.8
		l2.4-6.7c0.1-0.2,0.2-0.3,0.3-0.4c0.1-0.1,0.3-0.2,0.5-0.2c0.2,0,0.3,0.1,0.5,0.2c0.2,0.1,0.3,0.3,0.3,0.4l2.3,6.8l2.4-6.8
		C161.6,11.4,161.7,11.3,161.9,11.2z"/>
	<path fill="#FFFFFF" d="M168.7,14.7c0.5,0.5,0.7,1.2,0.7,2.1v3.4c0,0.2-0.1,0.4-0.2,0.6c-0.1,0.1-0.4,0.2-0.6,0.2
		c-0.2,0-0.4-0.1-0.6-0.2c-0.2-0.1-0.2-0.3-0.2-0.6v-0.3c-0.2,0.4-0.4,0.6-0.7,0.8s-0.7,0.3-1.2,0.3c-0.5,0-0.9-0.1-1.2-0.3
		c-0.4-0.2-0.7-0.4-0.9-0.8c-0.2-0.3-0.3-0.7-0.3-1.1c0-0.5,0.1-0.9,0.4-1.2c0.3-0.3,0.7-0.5,1.2-0.6c0.6-0.1,1.4-0.2,2.4-0.2h0.3
		v-0.3c0-0.5-0.1-0.8-0.3-1c-0.2-0.2-0.5-0.3-0.9-0.3c-0.3,0-0.5,0-0.8,0.1c-0.3,0.1-0.6,0.2-1,0.3c-0.2,0.1-0.4,0.2-0.5,0.2
		c-0.2,0-0.3-0.1-0.4-0.2c-0.1-0.1-0.2-0.3-0.2-0.5c0-0.2,0-0.3,0.1-0.4c0.1-0.1,0.2-0.2,0.4-0.3c0.3-0.2,0.7-0.3,1.2-0.4
		c0.4-0.1,0.9-0.2,1.3-0.2C167.6,14,168.3,14.2,168.7,14.7z M167.3,19.3c0.3-0.3,0.4-0.7,0.4-1.2v-0.3h-0.2c-0.6,0-1.1,0-1.4,0.1
		c-0.3,0.1-0.6,0.2-0.7,0.3c-0.1,0.1-0.2,0.3-0.2,0.6c0,0.3,0.1,0.5,0.3,0.7c0.2,0.2,0.5,0.3,0.8,0.3
		C166.7,19.8,167.1,19.6,167.3,19.3z"/>
	<path fill="#FFFFFF" d="M175.4,20.3c0,0.2-0.1,0.4-0.3,0.5c-0.2,0.1-0.4,0.2-0.8,0.1l-0.4,0c-1.5-0.1-2.3-0.9-2.3-2.5v-3H171
		c-0.2,0-0.4-0.1-0.6-0.2c-0.1-0.1-0.2-0.3-0.2-0.5c0-0.2,0.1-0.4,0.2-0.5c0.1-0.1,0.3-0.2,0.6-0.2h0.7v-1.3c0-0.2,0.1-0.4,0.2-0.6
		c0.2-0.1,0.4-0.2,0.6-0.2c0.3,0,0.5,0.1,0.6,0.2c0.2,0.1,0.2,0.3,0.2,0.6v1.3h1.2c0.2,0,0.4,0.1,0.6,0.2c0.1,0.1,0.2,0.3,0.2,0.5
		c0,0.2-0.1,0.4-0.2,0.5c-0.1,0.1-0.3,0.2-0.6,0.2h-1.2v3.1c0,0.7,0.3,1,0.9,1.1l0.4,0C175.1,19.7,175.4,19.9,175.4,20.3z"/>
	<path fill="#FFFFFF" d="M176.3,20.4c-0.3-0.2-0.4-0.4-0.4-0.7c0-0.2,0.1-0.3,0.2-0.4c0.1-0.1,0.2-0.2,0.4-0.2
		c0.2,0,0.4,0.1,0.6,0.2c0.3,0.1,0.6,0.2,0.8,0.3c0.2,0.1,0.6,0.1,0.9,0.1c0.4,0,0.7-0.1,0.9-0.2c0.2-0.1,0.3-0.3,0.3-0.5
		c0-0.2,0-0.3-0.1-0.4c-0.1-0.1-0.2-0.2-0.5-0.3c-0.2-0.1-0.6-0.2-1-0.3c-0.8-0.2-1.4-0.4-1.8-0.7c-0.4-0.3-0.5-0.7-0.5-1.3
		c0-0.4,0.1-0.8,0.4-1.1c0.2-0.3,0.6-0.6,1-0.8c0.4-0.2,0.9-0.3,1.4-0.3c0.4,0,0.8,0,1.1,0.1c0.4,0.1,0.7,0.2,1,0.4
		c0.3,0.2,0.4,0.4,0.4,0.7c0,0.2-0.1,0.3-0.2,0.5c-0.1,0.1-0.2,0.2-0.4,0.2c-0.1,0-0.2,0-0.3-0.1c-0.1,0-0.2-0.1-0.4-0.2
		c-0.3-0.1-0.5-0.2-0.7-0.3s-0.4-0.1-0.7-0.1c-0.3,0-0.6,0.1-0.8,0.2c-0.2,0.1-0.3,0.3-0.3,0.6c0,0.2,0.1,0.4,0.3,0.5
		c0.2,0.1,0.6,0.2,1.2,0.4c0.6,0.1,1.1,0.3,1.4,0.4c0.3,0.2,0.6,0.4,0.8,0.6c0.2,0.2,0.2,0.6,0.2,1c0,0.6-0.3,1.1-0.8,1.5
		c-0.5,0.4-1.2,0.6-2.1,0.6C177.7,21,176.9,20.8,176.3,20.4z"/>
	<path fill="#FFFFFF" d="M184.2,20.6c-0.5-0.3-0.9-0.7-1.2-1.2c-0.3-0.5-0.4-1.2-0.4-1.9c0-0.7,0.1-1.3,0.4-1.9
		c0.3-0.5,0.7-0.9,1.2-1.2c0.5-0.3,1.1-0.4,1.8-0.4c0.7,0,1.3,0.1,1.8,0.4c0.5,0.3,0.9,0.7,1.2,1.2c0.3,0.5,0.4,1.2,0.4,1.9
		c0,0.7-0.1,1.3-0.4,1.9c-0.3,0.5-0.7,0.9-1.2,1.2c-0.5,0.3-1.1,0.4-1.8,0.4C185.4,21,184.8,20.9,184.2,20.6z M187.3,19.1
		c0.3-0.4,0.4-0.9,0.4-1.6c0-0.7-0.1-1.3-0.4-1.6c-0.3-0.4-0.7-0.6-1.3-0.6c-0.6,0-1,0.2-1.3,0.6c-0.3,0.4-0.4,0.9-0.4,1.6
		c0,0.7,0.1,1.3,0.4,1.6c0.3,0.4,0.7,0.6,1.3,0.6C186.6,19.7,187,19.5,187.3,19.1z"/>
	<path fill="#FFFFFF" d="M196.6,14.7c0.4,0.5,0.6,1.2,0.6,2.1v3.4c0,0.3-0.1,0.5-0.2,0.6c-0.2,0.1-0.4,0.2-0.6,0.2s-0.5-0.1-0.6-0.2
		c-0.2-0.1-0.2-0.4-0.2-0.6v-3.3c0-0.5-0.1-0.9-0.3-1.1c-0.2-0.2-0.5-0.4-0.9-0.4c-0.5,0-0.9,0.2-1.2,0.5c-0.3,0.3-0.4,0.7-0.4,1.3
		v3.1c0,0.3-0.1,0.5-0.2,0.6c-0.2,0.1-0.4,0.2-0.6,0.2c-0.3,0-0.5-0.1-0.6-0.2c-0.2-0.1-0.2-0.4-0.2-0.6v-5.4c0-0.2,0.1-0.4,0.2-0.6
		c0.2-0.1,0.4-0.2,0.6-0.2c0.2,0,0.4,0.1,0.6,0.2c0.2,0.1,0.2,0.3,0.2,0.6v0.4c0.2-0.4,0.5-0.7,0.9-0.9c0.4-0.2,0.8-0.3,1.3-0.3
		C195.6,14,196.2,14.2,196.6,14.7z"/>
	<path fill="#FFFFFF" d="M83.4,35.6c0,0.1,0,0.2-0.1,0.2c-0.1,0.1-0.1,0.1-0.2,0.1c-0.1,0-0.1,0-0.2-0.1c-0.1,0-0.1-0.1-0.1-0.2
		l-0.9-2h-4.5l-0.9,2c-0.1,0.1-0.2,0.2-0.3,0.2c-0.1,0-0.2,0-0.2-0.1c-0.1-0.1-0.1-0.1-0.1-0.2c0-0.1,0-0.1,0-0.1l3.4-7.6
		c0.1-0.2,0.2-0.3,0.4-0.3c0.1,0,0.2,0,0.2,0.1s0.1,0.1,0.2,0.2l3.3,7.6C83.4,35.5,83.4,35.6,83.4,35.6z M77.7,33.1h3.9l-2-4.5
		L77.7,33.1z"/>
	<path fill="#FFFFFF" d="M85.5,35.8c-0.3-0.1-0.6-0.2-0.8-0.4c-0.1-0.1-0.2-0.2-0.3-0.3c-0.1-0.1-0.1-0.2-0.1-0.2
		c0-0.1,0-0.1,0.1-0.2c0-0.1,0.1-0.1,0.2-0.1c0.1,0,0.2,0.1,0.4,0.2c0.2,0.1,0.5,0.3,0.7,0.4c0.2,0.1,0.5,0.1,0.9,0.1
		c0.5,0,0.8-0.1,1.1-0.2c0.3-0.2,0.4-0.4,0.4-0.7c0-0.2,0-0.3-0.1-0.5c-0.1-0.1-0.2-0.2-0.5-0.3c-0.2-0.1-0.5-0.2-0.9-0.3
		c-0.7-0.2-1.2-0.4-1.5-0.6c-0.3-0.2-0.4-0.6-0.4-1c0-0.5,0.2-0.9,0.6-1.2c0.4-0.3,0.9-0.5,1.5-0.5c0.3,0,0.6,0,0.9,0.1
		c0.3,0.1,0.5,0.2,0.7,0.3c0.3,0.2,0.4,0.4,0.4,0.5c0,0.1,0,0.1-0.1,0.2c0,0.1-0.1,0.1-0.2,0.1c-0.1,0-0.2-0.1-0.4-0.2
		c-0.2-0.1-0.4-0.3-0.6-0.4c-0.2-0.1-0.5-0.1-0.8-0.1c-0.4,0-0.7,0.1-1,0.3c-0.2,0.2-0.4,0.4-0.4,0.7c0,0.2,0,0.3,0.1,0.4
		c0.1,0.1,0.2,0.2,0.4,0.3s0.5,0.2,0.8,0.3c0.5,0.1,0.9,0.3,1.2,0.4c0.3,0.1,0.5,0.3,0.6,0.5c0.1,0.2,0.2,0.4,0.2,0.7
		c0,0.5-0.2,0.8-0.6,1.1c-0.4,0.3-0.9,0.4-1.6,0.4C86.1,36,85.8,35.9,85.5,35.8z"/>
	<path fill="#FFFFFF" d="M91,35.8c-0.3-0.1-0.6-0.2-0.8-0.4c-0.1-0.1-0.2-0.2-0.3-0.3c-0.1-0.1-0.1-0.2-0.1-0.2c0-0.1,0-0.1,0.1-0.2
		c0-0.1,0.1-0.1,0.2-0.1c0.1,0,0.2,0.1,0.4,0.2c0.2,0.1,0.5,0.3,0.7,0.4c0.2,0.1,0.5,0.1,0.9,0.1c0.5,0,0.8-0.1,1.1-0.2
		c0.3-0.2,0.4-0.4,0.4-0.7c0-0.2,0-0.3-0.1-0.5c-0.1-0.1-0.2-0.2-0.5-0.3s-0.5-0.2-0.9-0.3c-0.7-0.2-1.2-0.4-1.5-0.6s-0.4-0.6-0.4-1
		c0-0.5,0.2-0.9,0.6-1.2c0.4-0.3,0.9-0.5,1.5-0.5c0.3,0,0.6,0,0.9,0.1c0.3,0.1,0.5,0.2,0.7,0.3c0.3,0.2,0.4,0.4,0.4,0.5
		c0,0.1,0,0.1-0.1,0.2c-0.1,0.1-0.1,0.1-0.2,0.1c-0.1,0-0.2-0.1-0.4-0.2c-0.2-0.1-0.4-0.3-0.6-0.4c-0.2-0.1-0.5-0.1-0.8-0.1
		c-0.4,0-0.7,0.1-1,0.3c-0.2,0.2-0.4,0.4-0.4,0.7c0,0.2,0,0.3,0.1,0.4c0.1,0.1,0.2,0.2,0.4,0.3c0.2,0.1,0.5,0.2,0.8,0.3
		c0.5,0.1,0.9,0.3,1.2,0.4c0.3,0.1,0.5,0.3,0.6,0.5c0.1,0.2,0.2,0.4,0.2,0.7c0,0.5-0.2,0.8-0.6,1.1c-0.4,0.3-0.9,0.4-1.6,0.4
		C91.6,36,91.3,35.9,91,35.8z"/>
	<path fill="#FFFFFF" d="M95.6,28.7c-0.1-0.1-0.1-0.2-0.1-0.4c0-0.2,0-0.3,0.1-0.4c0.1-0.1,0.2-0.1,0.4-0.1c0.2,0,0.3,0,0.4,0.1
		s0.1,0.2,0.1,0.4c0,0.1,0,0.3-0.1,0.4c-0.1,0.1-0.2,0.1-0.4,0.1C95.8,28.9,95.7,28.8,95.6,28.7z M95.7,35.8
		c-0.1-0.1-0.1-0.2-0.1-0.3v-5c0-0.1,0-0.2,0.1-0.3c0.1-0.1,0.2-0.1,0.3-0.1c0.1,0,0.2,0,0.3,0.1c0.1,0.1,0.1,0.1,0.1,0.3v5
		c0,0.1,0,0.2-0.1,0.3c-0.1,0.1-0.1,0.1-0.3,0.1C95.9,35.9,95.8,35.9,95.7,35.8z"/>
	<path fill="#FFFFFF" d="M99,35.8c-0.3-0.1-0.6-0.2-0.8-0.4c-0.1-0.1-0.2-0.2-0.3-0.3c-0.1-0.1-0.1-0.2-0.1-0.2c0-0.1,0-0.1,0.1-0.2
		c0-0.1,0.1-0.1,0.2-0.1c0.1,0,0.2,0.1,0.4,0.2c0.2,0.1,0.5,0.3,0.7,0.4c0.2,0.1,0.5,0.1,0.9,0.1c0.5,0,0.8-0.1,1.1-0.2
		c0.3-0.2,0.4-0.4,0.4-0.7c0-0.2,0-0.3-0.1-0.5c-0.1-0.1-0.2-0.2-0.5-0.3s-0.5-0.2-0.9-0.3c-0.7-0.2-1.2-0.4-1.5-0.6s-0.4-0.6-0.4-1
		c0-0.5,0.2-0.9,0.6-1.2c0.4-0.3,0.9-0.5,1.5-0.5c0.3,0,0.6,0,0.9,0.1c0.3,0.1,0.5,0.2,0.7,0.3c0.3,0.2,0.4,0.4,0.4,0.5
		c0,0.1,0,0.1-0.1,0.2c-0.1,0.1-0.1,0.1-0.2,0.1c-0.1,0-0.2-0.1-0.4-0.2c-0.2-0.1-0.4-0.3-0.6-0.4c-0.2-0.1-0.5-0.1-0.8-0.1
		c-0.4,0-0.7,0.1-1,0.3c-0.2,0.2-0.4,0.4-0.4,0.7c0,0.2,0,0.3,0.1,0.4c0.1,0.1,0.2,0.2,0.4,0.3s0.5,0.2,0.8,0.3
		c0.5,0.1,0.9,0.3,1.2,0.4c0.3,0.1,0.5,0.3,0.6,0.5c0.1,0.2,0.2,0.4,0.2,0.7c0,0.5-0.2,0.8-0.6,1.1c-0.4,0.3-0.9,0.4-1.6,0.4
		C99.7,36,99.3,35.9,99,35.8z"/>
	<path fill="#FFFFFF" d="M106.4,35.6c0,0.1,0,0.2-0.1,0.2c-0.1,0.1-0.2,0.1-0.3,0.1l-0.3,0c-0.6,0-1-0.2-1.3-0.5
		c-0.3-0.3-0.4-0.8-0.4-1.5v-3.1H103c-0.1,0-0.2,0-0.2-0.1c-0.1-0.1-0.1-0.1-0.1-0.2c0-0.1,0-0.2,0.1-0.2c0.1-0.1,0.1-0.1,0.2-0.1
		h0.9v-1.4c0-0.1,0-0.2,0.1-0.3c0.1-0.1,0.1-0.1,0.3-0.1c0.1,0,0.2,0,0.3,0.1c0.1,0.1,0.1,0.1,0.1,0.3v1.4h1.4c0.1,0,0.2,0,0.2,0.1
		c0.1,0.1,0.1,0.1,0.1,0.2c0,0.1,0,0.2-0.1,0.2c-0.1,0.1-0.1,0.1-0.2,0.1h-1.4v3.1c0,0.5,0.1,0.8,0.3,1c0.2,0.2,0.5,0.3,0.9,0.4
		l0.3,0C106.3,35.4,106.4,35.5,106.4,35.6z"/>
	<path fill="#FFFFFF" d="M111.1,30.7c0.3,0.4,0.5,0.9,0.5,1.6v3.3c0,0.1,0,0.2-0.1,0.3s-0.1,0.1-0.3,0.1c-0.1,0-0.2,0-0.3-0.1
		c-0.1-0.1-0.1-0.2-0.1-0.3v-0.7c-0.2,0.3-0.4,0.6-0.7,0.8c-0.3,0.2-0.7,0.3-1.1,0.3c-0.4,0-0.7-0.1-1-0.2c-0.3-0.1-0.5-0.3-0.7-0.6
		c-0.2-0.3-0.3-0.5-0.3-0.9c0-0.4,0.1-0.7,0.3-1c0.2-0.2,0.6-0.4,1.1-0.5c0.5-0.1,1.2-0.1,2.1-0.1h0.2v-0.4c0-0.5-0.1-0.9-0.3-1.1
		c-0.2-0.2-0.5-0.4-1-0.4c-0.6,0-1.1,0.1-1.6,0.4c0,0-0.1,0.1-0.2,0.1c-0.1,0.1-0.2,0.1-0.2,0.1c-0.1,0-0.1,0-0.2-0.1
		c0-0.1-0.1-0.1-0.1-0.2c0-0.2,0.1-0.3,0.4-0.5c0.3-0.2,0.6-0.3,0.9-0.4c0.3-0.1,0.7-0.1,1-0.1C110.3,30.1,110.8,30.3,111.1,30.7z
		 M110.4,34.8c0.3-0.3,0.5-0.8,0.5-1.3v-0.4h-0.2c-0.7,0-1.3,0-1.7,0.1c-0.4,0.1-0.7,0.2-0.8,0.3c-0.2,0.1-0.2,0.4-0.2,0.7
		c0,0.3,0.1,0.6,0.4,0.8c0.2,0.2,0.5,0.3,0.9,0.3C109.7,35.3,110.1,35.2,110.4,34.8z"/>
	<path fill="#FFFFFF" d="M118.1,32.3v3.3c0,0.1,0,0.2-0.1,0.3c-0.1,0.1-0.1,0.1-0.3,0.1c-0.1,0-0.2,0-0.3-0.1
		c-0.1-0.1-0.1-0.2-0.1-0.3v-3.2c0-0.6-0.1-1-0.3-1.2c-0.2-0.3-0.6-0.4-1.1-0.4c-0.6,0-1,0.2-1.3,0.5c-0.3,0.3-0.5,0.8-0.5,1.4v2.9
		c0,0.1,0,0.2-0.1,0.3c-0.1,0.1-0.1,0.1-0.3,0.1c-0.1,0-0.2,0-0.3-0.1c-0.1-0.1-0.1-0.2-0.1-0.3v-5c0-0.1,0-0.2,0.1-0.3
		c0.1-0.1,0.2-0.1,0.3-0.1c0.1,0,0.2,0,0.2,0.1c0.1,0.1,0.1,0.1,0.1,0.3v0.7c0.2-0.4,0.4-0.6,0.8-0.8c0.3-0.2,0.7-0.3,1.2-0.3
		C117.4,30.1,118.1,30.9,118.1,32.3z"/>
	<path fill="#FFFFFF" d="M122.6,35.6c0,0.1,0,0.2-0.1,0.2c-0.1,0.1-0.2,0.1-0.3,0.1l-0.3,0c-0.6,0-1-0.2-1.3-0.5
		c-0.3-0.3-0.4-0.8-0.4-1.5v-3.1h-0.9c-0.1,0-0.2,0-0.2-0.1c-0.1-0.1-0.1-0.1-0.1-0.2c0-0.1,0-0.2,0.1-0.2c0.1-0.1,0.1-0.1,0.2-0.1
		h0.9v-1.4c0-0.1,0-0.2,0.1-0.3c0.1-0.1,0.1-0.1,0.3-0.1c0.1,0,0.2,0,0.3,0.1c0.1,0.1,0.1,0.1,0.1,0.3v1.4h1.4c0.1,0,0.2,0,0.2,0.1
		c0.1,0.1,0.1,0.1,0.1,0.2c0,0.1,0,0.2-0.1,0.2c-0.1,0.1-0.1,0.1-0.2,0.1h-1.4v3.1c0,0.5,0.1,0.8,0.3,1c0.2,0.2,0.5,0.3,0.9,0.4
		l0.3,0C122.5,35.4,122.6,35.5,122.6,35.6z"/>
	<path fill="#FFFFFF" d="M134.2,27.8c0.1,0.1,0.1,0.2,0.1,0.3v7.5c0,0.1,0,0.2-0.1,0.3c-0.1,0.1-0.1,0.1-0.3,0.1
		c-0.1,0-0.2,0-0.2-0.1c-0.1-0.1-0.1-0.2-0.1-0.3v-6.4l-2.7,5.3c-0.1,0.2-0.2,0.3-0.4,0.3c-0.2,0-0.3-0.1-0.4-0.3l-2.7-5.2v6.4
		c0,0.1,0,0.2-0.1,0.3c-0.1,0.1-0.1,0.1-0.2,0.1c-0.1,0-0.2,0-0.3-0.1c-0.1-0.1-0.1-0.2-0.1-0.3v-7.5c0-0.1,0-0.2,0.1-0.3
		c0.1-0.1,0.2-0.1,0.3-0.1c0.1,0,0.3,0.1,0.3,0.3l3.1,5.9l3-5.9c0.1-0.2,0.2-0.3,0.3-0.3C134,27.7,134.1,27.7,134.2,27.8z"/>
	<path fill="#FFFFFF" d="M139.9,30.7c0.3,0.4,0.5,0.9,0.5,1.6v3.3c0,0.1,0,0.2-0.1,0.3c-0.1,0.1-0.1,0.1-0.3,0.1
		c-0.1,0-0.2,0-0.3-0.1c-0.1-0.1-0.1-0.2-0.1-0.3v-0.7c-0.2,0.3-0.4,0.6-0.7,0.8c-0.3,0.2-0.7,0.3-1.1,0.3c-0.4,0-0.7-0.1-1-0.2
		c-0.3-0.1-0.5-0.3-0.7-0.6c-0.2-0.3-0.3-0.5-0.3-0.9c0-0.4,0.1-0.7,0.3-1c0.2-0.2,0.6-0.4,1.1-0.5c0.5-0.1,1.2-0.1,2.1-0.1h0.2
		v-0.4c0-0.5-0.1-0.9-0.3-1.1c-0.2-0.2-0.5-0.4-1-0.4c-0.6,0-1.1,0.1-1.6,0.4c0,0-0.1,0.1-0.2,0.1c-0.1,0.1-0.2,0.1-0.2,0.1
		c-0.1,0-0.1,0-0.2-0.1c0-0.1-0.1-0.1-0.1-0.2c0-0.2,0.1-0.3,0.4-0.5c0.3-0.2,0.6-0.3,0.9-0.4c0.3-0.1,0.7-0.1,1-0.1
		C139.1,30.1,139.6,30.3,139.9,30.7z M139.3,34.8c0.3-0.3,0.5-0.8,0.5-1.3v-0.4h-0.2c-0.7,0-1.3,0-1.7,0.1c-0.4,0.1-0.7,0.2-0.8,0.3
		c-0.2,0.1-0.2,0.4-0.2,0.7c0,0.3,0.1,0.6,0.4,0.8c0.2,0.2,0.5,0.3,0.9,0.3C138.5,35.3,139,35.2,139.3,34.8z"/>
	<path fill="#FFFFFF" d="M146.9,32.3v3.3c0,0.1,0,0.2-0.1,0.3c-0.1,0.1-0.1,0.1-0.3,0.1c-0.1,0-0.2,0-0.3-0.1
		c-0.1-0.1-0.1-0.2-0.1-0.3v-3.2c0-0.6-0.1-1-0.3-1.2c-0.2-0.3-0.6-0.4-1.1-0.4c-0.6,0-1,0.2-1.3,0.5c-0.3,0.3-0.5,0.8-0.5,1.4v2.9
		c0,0.1,0,0.2-0.1,0.3c-0.1,0.1-0.1,0.1-0.3,0.1c-0.1,0-0.2,0-0.3-0.1c-0.1-0.1-0.1-0.2-0.1-0.3v-5c0-0.1,0-0.2,0.1-0.3
		c0.1-0.1,0.2-0.1,0.3-0.1c0.1,0,0.2,0,0.2,0.1c0.1,0.1,0.1,0.1,0.1,0.3v0.7c0.2-0.4,0.4-0.6,0.8-0.8c0.3-0.2,0.7-0.3,1.2-0.3
		C146.2,30.1,146.9,30.9,146.9,32.3z"/>
	<path fill="#FFFFFF" d="M152.4,30.7c0.3,0.4,0.5,0.9,0.5,1.6v3.3c0,0.1,0,0.2-0.1,0.3c-0.1,0.1-0.1,0.1-0.3,0.1
		c-0.1,0-0.2,0-0.3-0.1c-0.1-0.1-0.1-0.2-0.1-0.3v-0.7c-0.2,0.3-0.4,0.6-0.7,0.8c-0.3,0.2-0.7,0.3-1.1,0.3c-0.4,0-0.7-0.1-1-0.2
		c-0.3-0.1-0.5-0.3-0.7-0.6c-0.2-0.3-0.3-0.5-0.3-0.9c0-0.4,0.1-0.7,0.3-1c0.2-0.2,0.6-0.4,1.1-0.5c0.5-0.1,1.2-0.1,2.1-0.1h0.2
		v-0.4c0-0.5-0.1-0.9-0.3-1.1c-0.2-0.2-0.5-0.4-1-0.4c-0.6,0-1.1,0.1-1.6,0.4c0,0-0.1,0.1-0.2,0.1c-0.1,0.1-0.2,0.1-0.2,0.1
		c-0.1,0-0.1,0-0.2-0.1c0-0.1-0.1-0.1-0.1-0.2c0-0.2,0.1-0.3,0.4-0.5c0.3-0.2,0.6-0.3,0.9-0.4c0.3-0.1,0.7-0.1,1-0.1
		C151.6,30.1,152.1,30.3,152.4,30.7z M151.8,34.8c0.3-0.3,0.5-0.8,0.5-1.3v-0.4H152c-0.7,0-1.3,0-1.7,0.1c-0.4,0.1-0.7,0.2-0.8,0.3
		c-0.2,0.1-0.2,0.4-0.2,0.7c0,0.3,0.1,0.6,0.4,0.8c0.2,0.2,0.5,0.3,0.9,0.3C151.1,35.3,151.5,35.2,151.8,34.8z"/>
	<path fill="#FFFFFF" d="M159.5,30.3c0.1,0.1,0.1,0.2,0.1,0.3v5c0,0.8-0.2,1.4-0.6,1.8c-0.4,0.4-1,0.6-1.8,0.6c-0.4,0-0.8,0-1.1-0.1
		c-0.3-0.1-0.6-0.2-0.9-0.4c-0.3-0.2-0.4-0.3-0.4-0.5c0-0.1,0-0.2,0.1-0.2c0-0.1,0.1-0.1,0.2-0.1c0,0,0.1,0,0.2,0.1
		c0.1,0,0.1,0.1,0.2,0.1c0.3,0.1,0.5,0.3,0.8,0.4c0.3,0.1,0.6,0.1,1,0.1c0.6,0,1-0.1,1.3-0.4c0.3-0.3,0.4-0.7,0.4-1.3v-1.1
		c-0.2,0.4-0.4,0.7-0.7,0.9c-0.3,0.2-0.7,0.3-1.2,0.3c-0.5,0-0.9-0.1-1.3-0.3c-0.4-0.2-0.7-0.6-0.9-1c-0.2-0.4-0.3-0.9-0.3-1.5
		c0-0.5,0.1-1,0.3-1.5c0.2-0.4,0.5-0.7,0.9-1c0.4-0.2,0.8-0.3,1.3-0.3c0.5,0,0.9,0.1,1.2,0.3c0.3,0.2,0.6,0.5,0.7,0.9v-0.8
		c0-0.1,0-0.2,0.1-0.3c0.1-0.1,0.1-0.1,0.3-0.1C159.3,30.2,159.4,30.2,159.5,30.3z M158.4,34.5c0.3-0.4,0.5-0.9,0.5-1.6
		s-0.2-1.2-0.5-1.6c-0.3-0.4-0.8-0.6-1.4-0.6c-0.6,0-1,0.2-1.4,0.6c-0.3,0.4-0.5,0.9-0.5,1.6c0,0.7,0.2,1.2,0.5,1.6
		c0.3,0.4,0.8,0.6,1.4,0.6C157.6,35.1,158.1,34.9,158.4,34.5z"/>
	<path fill="#FFFFFF" d="M165.9,34.8c0.1,0.1,0.1,0.1,0.1,0.2c0,0.2-0.1,0.3-0.4,0.5c-0.6,0.3-1.1,0.5-1.7,0.5c-0.9,0-1.5-0.3-2-0.8
		c-0.5-0.5-0.7-1.2-0.7-2.1c0-0.6,0.1-1.1,0.3-1.5c0.2-0.4,0.5-0.8,0.9-1c0.4-0.2,0.8-0.4,1.4-0.4c0.7,0,1.3,0.2,1.7,0.7
		c0.4,0.5,0.6,1.1,0.6,1.9c0,0.1,0,0.2-0.1,0.3c-0.1,0.1-0.2,0.1-0.3,0.1h-3.8c0,0.7,0.2,1.2,0.6,1.6c0.3,0.4,0.8,0.6,1.5,0.6
		c0.3,0,0.6,0,0.8-0.1s0.5-0.2,0.7-0.4c0.2-0.1,0.3-0.2,0.4-0.2C165.8,34.7,165.8,34.7,165.9,34.8z M162.4,31.2
		c-0.3,0.3-0.5,0.8-0.6,1.4h3.6c0-0.6-0.2-1.1-0.5-1.4c-0.3-0.3-0.7-0.5-1.2-0.5C163.1,30.7,162.7,30.9,162.4,31.2z"/>
	<path fill="#FFFFFF" d="M170.4,30.2c0.1,0,0.1,0.1,0.1,0.2c0,0.2-0.1,0.3-0.3,0.3l-0.3,0c-0.5,0.1-0.9,0.2-1.2,0.6
		c-0.3,0.3-0.4,0.7-0.4,1.2v3c0,0.1,0,0.2-0.1,0.3c-0.1,0.1-0.1,0.1-0.3,0.1c-0.1,0-0.2,0-0.3-0.1c-0.1-0.1-0.1-0.2-0.1-0.3v-5
		c0-0.1,0-0.2,0.1-0.3c0.1-0.1,0.2-0.1,0.3-0.1c0.1,0,0.2,0,0.2,0.1c0.1,0.1,0.1,0.1,0.1,0.3v0.7c0.3-0.7,0.9-1,1.7-1.1l0.2,0
		C170.2,30.2,170.3,30.2,170.4,30.2z"/>
	<path fill="#FFFFFF" d="M173.4,33c-0.1,0-0.1-0.1-0.1-0.2c0-0.1,0-0.1,0.1-0.2c0.1,0,0.1-0.1,0.2-0.1h5.2c0.1,0,0.2,0,0.2,0.1
		c0.1,0.1,0.1,0.1,0.1,0.2c0,0.1,0,0.1-0.1,0.2c-0.1,0-0.1,0.1-0.2,0.1h-5.2C173.6,33.1,173.5,33,173.4,33z"/>
	<path fill="#FFFFFF" d="M189.9,35.6c0,0.1,0,0.2-0.1,0.2c-0.1,0.1-0.1,0.1-0.2,0.1c-0.1,0-0.1,0-0.2-0.1c-0.1,0-0.1-0.1-0.1-0.2
		l-0.9-2h-4.5l-0.9,2c-0.1,0.1-0.2,0.2-0.3,0.2c-0.1,0-0.2,0-0.2-0.1c-0.1-0.1-0.1-0.1-0.1-0.2c0-0.1,0-0.1,0-0.1l3.4-7.6
		c0.1-0.2,0.2-0.3,0.4-0.3c0.1,0,0.2,0,0.2,0.1c0.1,0,0.1,0.1,0.2,0.2l3.3,7.6C189.9,35.5,189.9,35.6,189.9,35.6z M184.2,33.1h3.9
		l-2-4.5L184.2,33.1z"/>
	<path fill="#FFFFFF" d="M192.1,35.6c-0.4-0.2-0.7-0.6-0.9-1c-0.2-0.4-0.3-0.9-0.3-1.5c0-0.6,0.1-1.1,0.3-1.5c0.2-0.4,0.5-0.8,0.9-1
		c0.4-0.2,0.8-0.4,1.4-0.4c0.3,0,0.6,0,0.9,0.1c0.3,0.1,0.5,0.2,0.7,0.3c0.1,0.1,0.2,0.2,0.3,0.3s0.1,0.2,0.1,0.3
		c0,0.1,0,0.2-0.1,0.2c0,0.1-0.1,0.1-0.2,0.1c-0.1,0-0.2-0.1-0.4-0.2c-0.2-0.1-0.4-0.3-0.6-0.3c-0.2-0.1-0.4-0.1-0.7-0.1
		c-0.6,0-1.1,0.2-1.4,0.6c-0.3,0.4-0.5,1-0.5,1.7c0,0.7,0.2,1.3,0.5,1.7s0.8,0.6,1.4,0.6c0.3,0,0.5,0,0.7-0.1
		c0.2-0.1,0.4-0.2,0.6-0.3c0.1,0,0.1-0.1,0.2-0.1c0.1,0,0.1-0.1,0.2-0.1c0.1,0,0.1,0,0.2,0.1c0,0.1,0.1,0.1,0.1,0.2
		c0,0.1,0,0.2-0.1,0.2c-0.1,0.1-0.2,0.2-0.3,0.3c-0.2,0.2-0.5,0.3-0.8,0.4s-0.6,0.1-0.9,0.1C192.9,36,192.5,35.8,192.1,35.6z"/>
	<path fill="#FFFFFF" d="M204.6,32.3v3.3c0,0.1,0,0.2-0.1,0.3c-0.1,0.1-0.1,0.1-0.3,0.1c-0.1,0-0.2,0-0.3-0.1
		c-0.1-0.1-0.1-0.2-0.1-0.3v-3.2c0-0.6-0.1-1-0.3-1.2c-0.2-0.2-0.5-0.4-1-0.4c-0.5,0-0.9,0.2-1.2,0.5c-0.3,0.3-0.4,0.8-0.4,1.4v2.9
		c0,0.1,0,0.2-0.1,0.3c-0.1,0.1-0.1,0.1-0.3,0.1c-0.1,0-0.2,0-0.3-0.1c-0.1-0.1-0.1-0.2-0.1-0.3v-3.2c0-0.6-0.1-1-0.3-1.2
		c-0.2-0.2-0.5-0.4-1-0.4c-0.5,0-0.9,0.2-1.2,0.5c-0.3,0.3-0.4,0.8-0.4,1.4v2.9c0,0.1,0,0.2-0.1,0.3c-0.1,0.1-0.1,0.1-0.3,0.1
		c-0.1,0-0.2,0-0.3-0.1c-0.1-0.1-0.1-0.2-0.1-0.3v-5c0-0.1,0-0.2,0.1-0.3c0.1-0.1,0.2-0.1,0.3-0.1c0.1,0,0.2,0,0.2,0.1
		c0.1,0.1,0.1,0.1,0.1,0.3v0.7c0.2-0.3,0.4-0.6,0.7-0.8c0.3-0.2,0.7-0.3,1.1-0.3c0.9,0,1.5,0.4,1.7,1.1c0.2-0.3,0.4-0.6,0.7-0.8
		c0.3-0.2,0.7-0.3,1.1-0.3C203.9,30.1,204.6,30.9,204.6,32.3z"/>
	<path fill="#FFFFFF" d="M210.8,34.8c0.1,0.1,0.1,0.1,0.1,0.2c0,0.2-0.1,0.3-0.4,0.5c-0.6,0.3-1.1,0.5-1.7,0.5c-0.9,0-1.5-0.3-2-0.8
		c-0.5-0.5-0.7-1.2-0.7-2.1c0-0.6,0.1-1.1,0.3-1.5c0.2-0.4,0.5-0.8,0.9-1c0.4-0.2,0.8-0.4,1.4-0.4c0.7,0,1.3,0.2,1.7,0.7
		c0.4,0.5,0.6,1.1,0.6,1.9c0,0.1,0,0.2-0.1,0.3c-0.1,0.1-0.2,0.1-0.3,0.1h-3.8c0,0.7,0.2,1.2,0.6,1.6c0.3,0.4,0.8,0.6,1.5,0.6
		c0.3,0,0.6,0,0.8-0.1s0.5-0.2,0.7-0.4c0.2-0.1,0.3-0.2,0.4-0.2C210.7,34.7,210.8,34.7,210.8,34.8z M207.3,31.2
		c-0.3,0.3-0.5,0.8-0.6,1.4h3.6c0-0.6-0.2-1.1-0.5-1.4c-0.3-0.3-0.7-0.5-1.2-0.5C208.1,30.7,207.7,30.9,207.3,31.2z"/>
	<path fill="#FFFFFF" d="M216.9,35.5c-0.6-0.3-1-0.8-1.3-1.4c-0.3-0.6-0.4-1.4-0.4-2.2c0-0.9,0.1-1.6,0.4-2.2s0.7-1.1,1.3-1.4
		c0.6-0.3,1.2-0.5,2-0.5c0.5,0,1,0.1,1.5,0.3c0.5,0.2,0.9,0.4,1.2,0.7c0.1,0.1,0.2,0.2,0.2,0.3c0,0.1,0,0.2-0.1,0.2
		c-0.1,0.1-0.1,0.1-0.2,0.1c-0.1,0-0.2,0-0.3-0.1c-0.4-0.3-0.8-0.6-1.1-0.7c-0.3-0.1-0.7-0.2-1.2-0.2c-0.9,0-1.6,0.3-2.2,0.9
		c-0.5,0.6-0.8,1.5-0.8,2.6c0,1.1,0.3,2,0.8,2.6c0.5,0.6,1.2,0.9,2.2,0.9c0.5,0,0.8-0.1,1.2-0.2c0.3-0.1,0.7-0.4,1.1-0.7
		c0.1-0.1,0.2-0.1,0.3-0.1c0.1,0,0.1,0,0.2,0.1c0,0.1,0.1,0.1,0.1,0.2c0,0.1-0.1,0.2-0.2,0.3c-0.3,0.3-0.7,0.6-1.2,0.7
		c-0.5,0.2-1,0.3-1.5,0.3C218.1,36,217.4,35.8,216.9,35.5z"/>
	<path fill="#FFFFFF" d="M223.9,35.6c-0.4-0.2-0.7-0.6-0.9-1c-0.2-0.4-0.3-0.9-0.3-1.5c0-0.6,0.1-1.1,0.3-1.5c0.2-0.4,0.5-0.8,0.9-1
		c0.4-0.2,0.8-0.4,1.4-0.4c0.5,0,1,0.1,1.3,0.4c0.4,0.2,0.7,0.6,0.9,1c0.2,0.4,0.3,0.9,0.3,1.5c0,0.6-0.1,1.1-0.3,1.5
		c-0.2,0.4-0.5,0.8-0.9,1c-0.4,0.2-0.8,0.4-1.3,0.4C224.7,36,224.3,35.8,223.9,35.6z M226.6,34.7c0.3-0.4,0.5-1,0.5-1.7
		c0-0.7-0.2-1.3-0.5-1.7c-0.3-0.4-0.8-0.6-1.4-0.6c-0.6,0-1,0.2-1.4,0.6c-0.3,0.4-0.5,1-0.5,1.7c0,0.7,0.2,1.3,0.5,1.7
		s0.8,0.6,1.4,0.6C225.8,35.3,226.3,35.1,226.6,34.7z"/>
	<path fill="#FFFFFF" d="M229,35.8c-0.1-0.1-0.2-0.2-0.2-0.4c0-0.2,0.1-0.3,0.2-0.4c0.1-0.1,0.2-0.2,0.4-0.2c0.1,0,0.3,0.1,0.4,0.2
		c0.1,0.1,0.2,0.2,0.2,0.4c0,0.2-0.1,0.3-0.2,0.4c-0.1,0.1-0.2,0.2-0.4,0.2C229.3,35.9,229.1,35.9,229,35.8z"/>
</g>
<rect x="0" y="393.2" fill="rgba(255,255,255,.5)" width="300" height="44.8"/>
<g>
	<path fill="rgba(255,255,255,.5)" d="M23.2,16.8c0.1-0.1,0.3-0.2,0.5-0.2c0.2,0,0.3,0.1,0.5,0.2l0.6,0.6c0.1,0.1,0.2,0.3,0.2,0.5
		c0,0.2,0,0.3-0.2,0.5l-4.2,4.2l4.2,4.2c0.1,0.1,0.2,0.3,0.2,0.5c0,0.2-0.1,0.3-0.2,0.5l-0.6,0.6c-0.1,0.1-0.3,0.2-0.5,0.2
		c-0.2,0-0.3-0.1-0.5-0.2l-5.2-5.2c-0.1-0.1-0.2-0.3-0.2-0.5s0.1-0.3,0.2-0.5L23.2,16.8z"/>
</g>
<g>
	<path fill="#FFFFFF" d="M20.3,409.2c0.1-0.1,0.3-0.2,0.5-0.2c0.2,0,0.3,0.1,0.5,0.2l0.6,0.6c0.1,0.1,0.2,0.3,0.2,0.5
		c0,0.2,0,0.3-0.2,0.5l-4.2,4.2l4.2,4.2c0.1,0.1,0.2,0.3,0.2,0.5c0,0.2-0.1,0.3-0.2,0.5l-0.6,0.6c-0.1,0.1-0.3,0.2-0.5,0.2
		c-0.2,0-0.3-0.1-0.5-0.2l-5.2-5.2c-0.1-0.1-0.2-0.3-0.2-0.5s0.1-0.3,0.2-0.5L20.3,409.2z"/>
</g>
<g>
	<path fill="#FFFFFF" d="M280.7,420.5c-0.1,0.1-0.3,0.2-0.5,0.2s-0.3-0.1-0.5-0.2l-0.6-0.6c-0.1-0.1-0.2-0.3-0.2-0.5
		c0-0.2,0-0.3,0.2-0.5l4.2-4.2l-4.2-4.2c-0.1-0.1-0.2-0.3-0.2-0.5c0-0.2,0.1-0.3,0.2-0.5l0.6-0.6c0.1-0.1,0.3-0.2,0.5-0.2
		s0.3,0.1,0.5,0.2l5.2,5.2c0.1,0.1,0.2,0.3,0.2,0.5s-0.1,0.3-0.2,0.5L280.7,420.5z"/>
</g>
<g>
</g>
<g>
</g>
<g>
</g>
<g>
</g>
<g>
</g>
<g>
</g>
</svg>
