<?xml version="1.0" encoding="utf-8"?>
<!-- Generator: Adobe Illustrator 19.1.0, SVG Export Plug-In . SVG Version: 6.00 Build 0)  -->
<svg version="1.1" baseProfile="tiny" id="Layer_1" xmlns="http://www.w3.org/2000/svg" xmlns:xlink="http://www.w3.org/1999/xlink"
	 x="0px" y="0px" viewBox="0 0 300 438" xml:space="preserve">
<g>
	<path fill="#FFFFFF" d="M297.4,438H3c-1.3,0-2.4-1.1-2.4-2.4V2.4C0.6,1.1,1.6,0,3,0h294.4c1.3,0,2.4,1.1,2.4,2.4v433.2
		C299.8,436.9,298.7,438,297.4,438z"/>
	<g>
		<path fill="#A7BBC4" d="M274.1,23.9c-0.1,0-0.2,0-0.3-0.1c-0.1-0.1-0.1-0.2-0.1-0.3v-1.1c0-0.1,0-0.2,0.1-0.3
			c0.1-0.1,0.2-0.1,0.3-0.1h11.2c0.1,0,0.2,0,0.3,0.1c0.1,0.1,0.1,0.2,0.1,0.3v1.1c0,0.1,0,0.2-0.1,0.3c-0.1,0.1-0.2,0.1-0.3,0.1
			H274.1z M274.1,30.8c-0.1,0-0.2,0-0.3-0.1c-0.1-0.1-0.1-0.2-0.1-0.3v-1.1c0-0.1,0-0.2,0.1-0.3c0.1-0.1,0.2-0.1,0.3-0.1h11.2
			c0.1,0,0.2,0,0.3,0.1c0.1,0.1,0.1,0.2,0.1,0.3v1.1c0,0.1,0,0.2-0.1,0.3c-0.1,0.1-0.2,0.1-0.3,0.1H274.1z M278,20
			c0,0.1,0,0.2,0.1,0.3c0.1,0.1,0.2,0.1,0.3,0.1h6.9c0.1,0,0.2,0,0.3-0.1c0.1-0.1,0.1-0.2,0.1-0.3v-1.1c0-0.1,0-0.2-0.1-0.3
			c-0.1-0.1-0.2-0.1-0.3-0.1h-6.9c-0.1,0-0.2,0-0.3,0.1c-0.1,0.1-0.1,0.2-0.1,0.3V20z M278.4,27.3c-0.1,0-0.2,0-0.3-0.1
			c-0.1-0.1-0.1-0.2-0.1-0.3v-1.1c0-0.1,0-0.2,0.1-0.3c0.1-0.1,0.2-0.1,0.3-0.1h6.9c0.1,0,0.2,0,0.3,0.1c0.1,0.1,0.1,0.2,0.1,0.3
			v1.1c0,0.1,0,0.2-0.1,0.3c-0.1,0.1-0.2,0.1-0.3,0.1H278.4z"/>
	</g>
	<g>
		<path fill="#A7BBC4" d="M28.3,26.3c0.1,0,0.1,0.1,0.1,0.2c0,0.1,0,0.1,0,0.2c-0.3,1-0.8,1.8-1.5,2.5c-0.1,0.1-0.1,0.1-0.2,0.1
			c-0.1,0-0.1,0-0.2,0l-1.1-0.7c-0.5,0.4-1,0.7-1.6,0.9v1.3c0,0.1,0,0.1-0.1,0.2c0,0.1-0.1,0.1-0.2,0.1c-1,0.2-2,0.2-3,0
			c-0.1,0-0.1-0.1-0.2-0.1c0-0.1-0.1-0.1-0.1-0.2v-1.3c-0.6-0.2-1.2-0.5-1.6-0.9l-1.1,0.7c-0.1,0-0.1,0-0.2,0
			c-0.1,0-0.1-0.1-0.2-0.1c-0.7-0.7-1.2-1.6-1.5-2.5c0-0.1,0-0.1,0-0.2c0-0.1,0.1-0.1,0.1-0.2l1.1-0.7c-0.1-0.6-0.1-1.3,0-1.9
			L15.9,23c-0.1,0-0.1-0.1-0.1-0.2s0-0.1,0-0.2c0.3-1,0.8-1.8,1.5-2.5c0.1-0.1,0.1-0.1,0.2-0.1c0.1,0,0.1,0,0.2,0l1.1,0.7
			c0.5-0.4,1-0.7,1.6-0.9v-1.3c0-0.1,0-0.1,0.1-0.2c0-0.1,0.1-0.1,0.2-0.1c1-0.2,2-0.2,3,0c0.1,0,0.1,0.1,0.2,0.1
			c0,0.1,0.1,0.1,0.1,0.2v1.3c0.6,0.2,1.2,0.5,1.6,0.9l1.1-0.7c0.1,0,0.1,0,0.2,0c0.1,0,0.1,0.1,0.2,0.1c0.7,0.7,1.2,1.6,1.5,2.5
			c0,0.1,0,0.1,0,0.2S28.4,23,28.3,23l-1.1,0.7c0.1,0.6,0.1,1.3,0,1.9L28.3,26.3z M23.6,23.1c-0.4-0.4-0.9-0.6-1.5-0.6
			s-1.1,0.2-1.5,0.6c-0.4,0.4-0.6,0.9-0.6,1.5s0.2,1.1,0.6,1.5c0.4,0.4,0.9,0.6,1.5,0.6s1.1-0.2,1.5-0.6c0.4-0.4,0.6-0.9,0.6-1.5
			S24,23.5,23.6,23.1z"/>
	</g>
	<g>
		<path fill="#0F2026" d="M111,20.4c-0.7-0.4-1.2-1-1.6-1.7c-0.4-0.8-0.6-1.6-0.6-2.7s0.2-1.9,0.6-2.6c0.4-0.8,0.9-1.3,1.6-1.7
			c0.7-0.4,1.5-0.6,2.5-0.6c0.6,0,1.2,0.1,1.7,0.3c0.5,0.2,1,0.4,1.4,0.8c0.1,0.1,0.2,0.2,0.2,0.3s0.1,0.2,0.1,0.4
			c0,0.2-0.1,0.4-0.2,0.5c-0.1,0.1-0.2,0.2-0.4,0.2c-0.2,0-0.4-0.1-0.6-0.2c-0.4-0.3-0.8-0.5-1.1-0.6c-0.3-0.1-0.7-0.2-1.1-0.2
			c-1,0-1.7,0.3-2.2,0.9c-0.5,0.6-0.7,1.5-0.7,2.6c0,1.2,0.2,2.1,0.7,2.7c0.5,0.6,1.2,0.9,2.2,0.9c0.4,0,0.8-0.1,1.1-0.2
			c0.3-0.1,0.7-0.3,1.1-0.6c0.1-0.1,0.2-0.1,0.3-0.1c0.1,0,0.2-0.1,0.3-0.1c0.2,0,0.3,0.1,0.4,0.2c0.1,0.1,0.2,0.3,0.2,0.5
			c0,0.1,0,0.3-0.1,0.4c0,0.1-0.1,0.2-0.2,0.3c-0.4,0.3-0.9,0.6-1.4,0.8c-0.5,0.2-1.1,0.3-1.7,0.3C112.5,21,111.7,20.8,111,20.4z"/>
		<path fill="#0F2026" d="M118.4,12.5c-0.2-0.2-0.3-0.4-0.3-0.7c0-0.3,0.1-0.5,0.3-0.7s0.4-0.2,0.7-0.2c0.3,0,0.6,0.1,0.7,0.2
			s0.3,0.4,0.3,0.7c0,0.3-0.1,0.5-0.3,0.7c-0.2,0.2-0.4,0.3-0.7,0.3C118.8,12.8,118.6,12.7,118.4,12.5z M118.5,20.8
			c-0.2-0.1-0.2-0.3-0.2-0.6v-5.3c0-0.3,0.1-0.5,0.2-0.6c0.2-0.1,0.4-0.2,0.6-0.2c0.2,0,0.5,0.1,0.6,0.2c0.2,0.1,0.2,0.3,0.2,0.6
			v5.3c0,0.3-0.1,0.5-0.2,0.6c-0.2,0.1-0.4,0.2-0.6,0.2C118.9,21,118.7,20.9,118.5,20.8z"/>
		<path fill="#0F2026" d="M127.5,14.7c0.4,0.5,0.6,1.2,0.6,2.1v3.4c0,0.3-0.1,0.5-0.2,0.6c-0.2,0.1-0.4,0.2-0.6,0.2
			c-0.3,0-0.5-0.1-0.6-0.2c-0.2-0.1-0.2-0.4-0.2-0.6v-3.3c0-0.5-0.1-0.9-0.3-1.1c-0.2-0.2-0.5-0.4-0.9-0.4c-0.5,0-0.9,0.2-1.2,0.5
			c-0.3,0.3-0.4,0.7-0.4,1.3v3.1c0,0.3-0.1,0.5-0.2,0.6c-0.2,0.1-0.4,0.2-0.6,0.2c-0.3,0-0.5-0.1-0.6-0.2c-0.2-0.1-0.2-0.4-0.2-0.6
			v-5.4c0-0.2,0.1-0.4,0.2-0.6c0.2-0.1,0.4-0.2,0.6-0.2c0.2,0,0.4,0.1,0.6,0.2c0.2,0.1,0.2,0.3,0.2,0.6v0.4c0.2-0.4,0.5-0.7,0.9-0.9
			c0.4-0.2,0.8-0.3,1.3-0.3C126.5,14,127.1,14.2,127.5,14.7z"/>
		<path fill="#0F2026" d="M136.2,11.3c0.2,0.1,0.2,0.3,0.2,0.6v8.3c0,0.2-0.1,0.4-0.2,0.6c-0.2,0.1-0.4,0.2-0.6,0.2
			s-0.5-0.1-0.6-0.2c-0.2-0.1-0.2-0.3-0.2-0.6v-0.3c-0.2,0.4-0.5,0.7-0.9,0.9c-0.4,0.2-0.8,0.3-1.3,0.3c-0.6,0-1.1-0.1-1.6-0.4
			c-0.5-0.3-0.8-0.7-1.1-1.3c-0.3-0.5-0.4-1.2-0.4-1.9c0-0.7,0.1-1.3,0.4-1.8s0.6-0.9,1.1-1.2c0.5-0.3,1-0.4,1.6-0.4
			c0.5,0,0.9,0.1,1.3,0.3c0.4,0.2,0.7,0.5,0.9,0.9v-3.3c0-0.2,0.1-0.4,0.2-0.6c0.2-0.1,0.4-0.2,0.6-0.2
			C135.8,11.1,136,11.1,136.2,11.3z M134.2,19.1c0.3-0.4,0.4-0.9,0.4-1.6c0-0.7-0.1-1.2-0.4-1.6c-0.3-0.4-0.7-0.6-1.3-0.6
			c-0.6,0-1,0.2-1.3,0.6c-0.3,0.4-0.5,0.9-0.5,1.6c0,0.7,0.2,1.2,0.5,1.6c0.3,0.4,0.7,0.6,1.3,0.6C133.5,19.7,133.9,19.5,134.2,19.1
			z"/>
		<path fill="#0F2026" d="M143.2,14.1c0.1-0.1,0.3-0.1,0.4-0.1c0.2,0,0.4,0.1,0.6,0.2c0.2,0.1,0.3,0.3,0.3,0.5c0,0.1,0,0.2-0.1,0.3
			l-3.8,7.9c-0.2,0.3-0.4,0.5-0.7,0.5c-0.2,0-0.4-0.1-0.6-0.2c-0.2-0.1-0.2-0.3-0.2-0.5c0-0.1,0-0.2,0.1-0.3l0.9-2l-2.6-5.4
			c0-0.1-0.1-0.2-0.1-0.3c0-0.2,0.1-0.4,0.3-0.5c0.2-0.1,0.4-0.2,0.6-0.2c0.2,0,0.3,0,0.4,0.1c0.1,0.1,0.2,0.2,0.3,0.4l1.9,4.3
			l1.9-4.3C143,14.3,143.1,14.2,143.2,14.1z"/>
		<path fill="#0F2026" d="M161.9,11.2c0.1-0.1,0.3-0.1,0.5-0.1c0.2,0,0.4,0.1,0.6,0.2c0.2,0.1,0.2,0.3,0.2,0.6c0,0.1,0,0.2-0.1,0.4
			l-3,8.2c-0.1,0.2-0.2,0.3-0.4,0.4c-0.2,0.1-0.4,0.2-0.6,0.2s-0.4-0.1-0.6-0.2s-0.3-0.2-0.4-0.4l-2.3-6.5l-2.3,6.5
			c-0.1,0.2-0.2,0.3-0.4,0.4c-0.2,0.1-0.4,0.2-0.6,0.2c-0.2,0-0.4-0.1-0.6-0.2c-0.2-0.1-0.3-0.2-0.4-0.4l-3-8.2
			c0-0.1-0.1-0.3-0.1-0.4c0-0.2,0.1-0.4,0.3-0.6c0.2-0.1,0.4-0.2,0.6-0.2c0.2,0,0.4,0,0.5,0.1c0.1,0.1,0.3,0.2,0.3,0.4l2.3,6.8
			l2.4-6.7c0.1-0.2,0.2-0.3,0.3-0.4c0.1-0.1,0.3-0.2,0.5-0.2c0.2,0,0.3,0.1,0.5,0.2c0.2,0.1,0.3,0.3,0.3,0.4l2.3,6.8l2.4-6.8
			C161.6,11.4,161.7,11.3,161.9,11.2z"/>
		<path fill="#0F2026" d="M168.7,14.7c0.5,0.5,0.7,1.2,0.7,2.1v3.4c0,0.2-0.1,0.4-0.2,0.6c-0.1,0.1-0.4,0.2-0.6,0.2
			c-0.2,0-0.4-0.1-0.6-0.2c-0.2-0.1-0.2-0.3-0.2-0.6v-0.3c-0.2,0.4-0.4,0.6-0.7,0.8s-0.7,0.3-1.2,0.3c-0.5,0-0.9-0.1-1.2-0.3
			c-0.4-0.2-0.7-0.4-0.9-0.8c-0.2-0.3-0.3-0.7-0.3-1.1c0-0.5,0.1-0.9,0.4-1.2c0.3-0.3,0.7-0.5,1.2-0.6c0.6-0.1,1.4-0.2,2.4-0.2h0.3
			v-0.3c0-0.5-0.1-0.8-0.3-1c-0.2-0.2-0.5-0.3-0.9-0.3c-0.3,0-0.5,0-0.8,0.1c-0.3,0.1-0.6,0.2-1,0.3c-0.2,0.1-0.4,0.2-0.5,0.2
			c-0.2,0-0.3-0.1-0.4-0.2c-0.1-0.1-0.2-0.3-0.2-0.5c0-0.2,0-0.3,0.1-0.4c0.1-0.1,0.2-0.2,0.4-0.3c0.3-0.2,0.7-0.3,1.2-0.4
			c0.4-0.1,0.9-0.2,1.3-0.2C167.6,14,168.3,14.2,168.7,14.7z M167.3,19.3c0.3-0.3,0.4-0.7,0.4-1.2v-0.3h-0.2c-0.6,0-1.1,0-1.4,0.1
			c-0.3,0.1-0.6,0.2-0.7,0.3c-0.1,0.1-0.2,0.3-0.2,0.6c0,0.3,0.1,0.5,0.3,0.7c0.2,0.2,0.5,0.3,0.8,0.3
			C166.7,19.8,167.1,19.6,167.3,19.3z"/>
		<path fill="#0F2026" d="M175.4,20.3c0,0.2-0.1,0.4-0.3,0.5c-0.2,0.1-0.4,0.2-0.8,0.1l-0.4,0c-1.5-0.1-2.3-0.9-2.3-2.5v-3H171
			c-0.2,0-0.4-0.1-0.6-0.2c-0.1-0.1-0.2-0.3-0.2-0.5c0-0.2,0.1-0.4,0.2-0.5c0.1-0.1,0.3-0.2,0.6-0.2h0.7v-1.3c0-0.2,0.1-0.4,0.2-0.6
			c0.2-0.1,0.4-0.2,0.6-0.2c0.3,0,0.5,0.1,0.6,0.2c0.2,0.1,0.2,0.3,0.2,0.6v1.3h1.2c0.2,0,0.4,0.1,0.6,0.2c0.1,0.1,0.2,0.3,0.2,0.5
			c0,0.2-0.1,0.4-0.2,0.5c-0.1,0.1-0.3,0.2-0.6,0.2h-1.2v3.1c0,0.7,0.3,1,0.9,1.1l0.4,0C175.1,19.7,175.4,19.9,175.4,20.3z"/>
		<path fill="#0F2026" d="M176.3,20.4c-0.3-0.2-0.4-0.4-0.4-0.7c0-0.2,0.1-0.3,0.2-0.4c0.1-0.1,0.2-0.2,0.4-0.2
			c0.2,0,0.4,0.1,0.6,0.2c0.3,0.1,0.6,0.2,0.8,0.3c0.2,0.1,0.6,0.1,0.9,0.1c0.4,0,0.7-0.1,0.9-0.2c0.2-0.1,0.3-0.3,0.3-0.5
			c0-0.2,0-0.3-0.1-0.4c-0.1-0.1-0.2-0.2-0.5-0.3c-0.2-0.1-0.6-0.2-1-0.3c-0.8-0.2-1.4-0.4-1.8-0.7c-0.4-0.3-0.5-0.7-0.5-1.3
			c0-0.4,0.1-0.8,0.4-1.1c0.2-0.3,0.6-0.6,1-0.8c0.4-0.2,0.9-0.3,1.4-0.3c0.4,0,0.8,0,1.1,0.1c0.4,0.1,0.7,0.2,1,0.4
			c0.3,0.2,0.4,0.4,0.4,0.7c0,0.2-0.1,0.3-0.2,0.5c-0.1,0.1-0.2,0.2-0.4,0.2c-0.1,0-0.2,0-0.3-0.1c-0.1,0-0.2-0.1-0.4-0.2
			c-0.3-0.1-0.5-0.2-0.7-0.3s-0.4-0.1-0.7-0.1c-0.3,0-0.6,0.1-0.8,0.2c-0.2,0.1-0.3,0.3-0.3,0.6c0,0.2,0.1,0.4,0.3,0.5
			c0.2,0.1,0.6,0.2,1.2,0.4c0.6,0.1,1.1,0.3,1.4,0.4c0.3,0.2,0.6,0.4,0.8,0.6c0.2,0.2,0.2,0.6,0.2,1c0,0.6-0.3,1.1-0.8,1.5
			c-0.5,0.4-1.2,0.6-2.1,0.6C177.7,21,176.9,20.8,176.3,20.4z"/>
		<path fill="#0F2026" d="M184.2,20.6c-0.5-0.3-0.9-0.7-1.2-1.2c-0.3-0.5-0.4-1.2-0.4-1.9c0-0.7,0.1-1.3,0.4-1.9
			c0.3-0.5,0.7-0.9,1.2-1.2c0.5-0.3,1.1-0.4,1.8-0.4c0.7,0,1.3,0.1,1.8,0.4c0.5,0.3,0.9,0.7,1.2,1.2c0.3,0.5,0.4,1.2,0.4,1.9
			c0,0.7-0.1,1.3-0.4,1.9c-0.3,0.5-0.7,0.9-1.2,1.2c-0.5,0.3-1.1,0.4-1.8,0.4C185.4,21,184.8,20.9,184.2,20.6z M187.3,19.1
			c0.3-0.4,0.4-0.9,0.4-1.6c0-0.7-0.1-1.3-0.4-1.6c-0.3-0.4-0.7-0.6-1.3-0.6c-0.6,0-1,0.2-1.3,0.6c-0.3,0.4-0.4,0.9-0.4,1.6
			c0,0.7,0.1,1.3,0.4,1.6c0.3,0.4,0.7,0.6,1.3,0.6C186.6,19.7,187,19.5,187.3,19.1z"/>
		<path fill="#0F2026" d="M196.6,14.7c0.4,0.5,0.6,1.2,0.6,2.1v3.4c0,0.3-0.1,0.5-0.2,0.6c-0.2,0.1-0.4,0.2-0.6,0.2
			s-0.5-0.1-0.6-0.2c-0.2-0.1-0.2-0.4-0.2-0.6v-3.3c0-0.5-0.1-0.9-0.3-1.1c-0.2-0.2-0.5-0.4-0.9-0.4c-0.5,0-0.9,0.2-1.2,0.5
			c-0.3,0.3-0.4,0.7-0.4,1.3v3.1c0,0.3-0.1,0.5-0.2,0.6c-0.2,0.1-0.4,0.2-0.6,0.2c-0.3,0-0.5-0.1-0.6-0.2c-0.2-0.1-0.2-0.4-0.2-0.6
			v-5.4c0-0.2,0.1-0.4,0.2-0.6c0.2-0.1,0.4-0.2,0.6-0.2c0.2,0,0.4,0.1,0.6,0.2c0.2,0.1,0.2,0.3,0.2,0.6v0.4c0.2-0.4,0.5-0.7,0.9-0.9
			c0.4-0.2,0.8-0.3,1.3-0.3C195.6,14,196.2,14.2,196.6,14.7z"/>
		<path fill="#0F2026" d="M83.4,35.6c0,0.1,0,0.2-0.1,0.2c-0.1,0.1-0.1,0.1-0.2,0.1c-0.1,0-0.1,0-0.2-0.1c-0.1,0-0.1-0.1-0.1-0.2
			l-0.9-2h-4.5l-0.9,2c-0.1,0.1-0.2,0.2-0.3,0.2c-0.1,0-0.2,0-0.2-0.1c-0.1-0.1-0.1-0.1-0.1-0.2c0-0.1,0-0.1,0-0.1l3.4-7.6
			c0.1-0.2,0.2-0.3,0.4-0.3c0.1,0,0.2,0,0.2,0.1s0.1,0.1,0.2,0.2l3.3,7.6C83.4,35.5,83.4,35.6,83.4,35.6z M77.7,33.1h3.9l-2-4.5
			L77.7,33.1z"/>
		<path fill="#0F2026" d="M85.5,35.8c-0.3-0.1-0.6-0.2-0.8-0.4c-0.1-0.1-0.2-0.2-0.3-0.3c-0.1-0.1-0.1-0.2-0.1-0.2
			c0-0.1,0-0.1,0.1-0.2c0-0.1,0.1-0.1,0.2-0.1c0.1,0,0.2,0.1,0.4,0.2c0.2,0.1,0.5,0.3,0.7,0.4c0.2,0.1,0.5,0.1,0.9,0.1
			c0.5,0,0.8-0.1,1.1-0.2c0.3-0.2,0.4-0.4,0.4-0.7c0-0.2,0-0.3-0.1-0.5c-0.1-0.1-0.2-0.2-0.5-0.3c-0.2-0.1-0.5-0.2-0.9-0.3
			c-0.7-0.2-1.2-0.4-1.5-0.6c-0.3-0.2-0.4-0.6-0.4-1c0-0.5,0.2-0.9,0.6-1.2c0.4-0.3,0.9-0.5,1.5-0.5c0.3,0,0.6,0,0.9,0.1
			c0.3,0.1,0.5,0.2,0.7,0.3c0.3,0.2,0.4,0.4,0.4,0.5c0,0.1,0,0.1-0.1,0.2c0,0.1-0.1,0.1-0.2,0.1c-0.1,0-0.2-0.1-0.4-0.2
			c-0.2-0.1-0.4-0.3-0.6-0.4c-0.2-0.1-0.5-0.1-0.8-0.1c-0.4,0-0.7,0.1-1,0.3c-0.2,0.2-0.4,0.4-0.4,0.7c0,0.2,0,0.3,0.1,0.4
			c0.1,0.1,0.2,0.2,0.4,0.3s0.5,0.2,0.8,0.3c0.5,0.1,0.9,0.3,1.2,0.4c0.3,0.1,0.5,0.3,0.6,0.5c0.1,0.2,0.2,0.4,0.2,0.7
			c0,0.5-0.2,0.8-0.6,1.1c-0.4,0.3-0.9,0.4-1.6,0.4C86.1,36,85.8,35.9,85.5,35.8z"/>
		<path fill="#0F2026" d="M91,35.8c-0.3-0.1-0.6-0.2-0.8-0.4c-0.1-0.1-0.2-0.2-0.3-0.3c-0.1-0.1-0.1-0.2-0.1-0.2
			c0-0.1,0-0.1,0.1-0.2c0-0.1,0.1-0.1,0.2-0.1c0.1,0,0.2,0.1,0.4,0.2c0.2,0.1,0.5,0.3,0.7,0.4c0.2,0.1,0.5,0.1,0.9,0.1
			c0.5,0,0.8-0.1,1.1-0.2c0.3-0.2,0.4-0.4,0.4-0.7c0-0.2,0-0.3-0.1-0.5c-0.1-0.1-0.2-0.2-0.5-0.3s-0.5-0.2-0.9-0.3
			c-0.7-0.2-1.2-0.4-1.5-0.6s-0.4-0.6-0.4-1c0-0.5,0.2-0.9,0.6-1.2c0.4-0.3,0.9-0.5,1.5-0.5c0.3,0,0.6,0,0.9,0.1
			c0.3,0.1,0.5,0.2,0.7,0.3c0.3,0.2,0.4,0.4,0.4,0.5c0,0.1,0,0.1-0.1,0.2c-0.1,0.1-0.1,0.1-0.2,0.1c-0.1,0-0.2-0.1-0.4-0.2
			c-0.2-0.1-0.4-0.3-0.6-0.4c-0.2-0.1-0.5-0.1-0.8-0.1c-0.4,0-0.7,0.1-1,0.3c-0.2,0.2-0.4,0.4-0.4,0.7c0,0.2,0,0.3,0.1,0.4
			c0.1,0.1,0.2,0.2,0.4,0.3c0.2,0.1,0.5,0.2,0.8,0.3c0.5,0.1,0.9,0.3,1.2,0.4c0.3,0.1,0.5,0.3,0.6,0.5c0.1,0.2,0.2,0.4,0.2,0.7
			c0,0.5-0.2,0.8-0.6,1.1c-0.4,0.3-0.9,0.4-1.6,0.4C91.6,36,91.3,35.9,91,35.8z"/>
		<path fill="#0F2026" d="M95.6,28.7c-0.1-0.1-0.1-0.2-0.1-0.4c0-0.2,0-0.3,0.1-0.4c0.1-0.1,0.2-0.1,0.4-0.1c0.2,0,0.3,0,0.4,0.1
			s0.1,0.2,0.1,0.4c0,0.1,0,0.3-0.1,0.4c-0.1,0.1-0.2,0.1-0.4,0.1C95.8,28.9,95.7,28.8,95.6,28.7z M95.7,35.8
			c-0.1-0.1-0.1-0.2-0.1-0.3v-5c0-0.1,0-0.2,0.1-0.3c0.1-0.1,0.2-0.1,0.3-0.1c0.1,0,0.2,0,0.3,0.1c0.1,0.1,0.1,0.1,0.1,0.3v5
			c0,0.1,0,0.2-0.1,0.3c-0.1,0.1-0.1,0.1-0.3,0.1C95.9,35.9,95.8,35.9,95.7,35.8z"/>
		<path fill="#0F2026" d="M99,35.8c-0.3-0.1-0.6-0.2-0.8-0.4c-0.1-0.1-0.2-0.2-0.3-0.3c-0.1-0.1-0.1-0.2-0.1-0.2
			c0-0.1,0-0.1,0.1-0.2c0-0.1,0.1-0.1,0.2-0.1c0.1,0,0.2,0.1,0.4,0.2c0.2,0.1,0.5,0.3,0.7,0.4c0.2,0.1,0.5,0.1,0.9,0.1
			c0.5,0,0.8-0.1,1.1-0.2c0.3-0.2,0.4-0.4,0.4-0.7c0-0.2,0-0.3-0.1-0.5c-0.1-0.1-0.2-0.2-0.5-0.3s-0.5-0.2-0.9-0.3
			c-0.7-0.2-1.2-0.4-1.5-0.6s-0.4-0.6-0.4-1c0-0.5,0.2-0.9,0.6-1.2c0.4-0.3,0.9-0.5,1.5-0.5c0.3,0,0.6,0,0.9,0.1
			c0.3,0.1,0.5,0.2,0.7,0.3c0.3,0.2,0.4,0.4,0.4,0.5c0,0.1,0,0.1-0.1,0.2c-0.1,0.1-0.1,0.1-0.2,0.1c-0.1,0-0.2-0.1-0.4-0.2
			c-0.2-0.1-0.4-0.3-0.6-0.4c-0.2-0.1-0.5-0.1-0.8-0.1c-0.4,0-0.7,0.1-1,0.3c-0.2,0.2-0.4,0.4-0.4,0.7c0,0.2,0,0.3,0.1,0.4
			c0.1,0.1,0.2,0.2,0.4,0.3s0.5,0.2,0.8,0.3c0.5,0.1,0.9,0.3,1.2,0.4c0.3,0.1,0.5,0.3,0.6,0.5c0.1,0.2,0.2,0.4,0.2,0.7
			c0,0.5-0.2,0.8-0.6,1.1c-0.4,0.3-0.9,0.4-1.6,0.4C99.7,36,99.3,35.9,99,35.8z"/>
		<path fill="#0F2026" d="M106.4,35.6c0,0.1,0,0.2-0.1,0.2c-0.1,0.1-0.2,0.1-0.3,0.1l-0.3,0c-0.6,0-1-0.2-1.3-0.5
			c-0.3-0.3-0.4-0.8-0.4-1.5v-3.1H103c-0.1,0-0.2,0-0.2-0.1c-0.1-0.1-0.1-0.1-0.1-0.2c0-0.1,0-0.2,0.1-0.2c0.1-0.1,0.1-0.1,0.2-0.1
			h0.9v-1.4c0-0.1,0-0.2,0.1-0.3c0.1-0.1,0.1-0.1,0.3-0.1c0.1,0,0.2,0,0.3,0.1c0.1,0.1,0.1,0.1,0.1,0.3v1.4h1.4c0.1,0,0.2,0,0.2,0.1
			c0.1,0.1,0.1,0.1,0.1,0.2c0,0.1,0,0.2-0.1,0.2c-0.1,0.1-0.1,0.1-0.2,0.1h-1.4v3.1c0,0.5,0.1,0.8,0.3,1c0.2,0.2,0.5,0.3,0.9,0.4
			l0.3,0C106.3,35.4,106.4,35.5,106.4,35.6z"/>
		<path fill="#0F2026" d="M111.1,30.7c0.3,0.4,0.5,0.9,0.5,1.6v3.3c0,0.1,0,0.2-0.1,0.3s-0.1,0.1-0.3,0.1c-0.1,0-0.2,0-0.3-0.1
			c-0.1-0.1-0.1-0.2-0.1-0.3v-0.7c-0.2,0.3-0.4,0.6-0.7,0.8c-0.3,0.2-0.7,0.3-1.1,0.3c-0.4,0-0.7-0.1-1-0.2
			c-0.3-0.1-0.5-0.3-0.7-0.6c-0.2-0.3-0.3-0.5-0.3-0.9c0-0.4,0.1-0.7,0.3-1c0.2-0.2,0.6-0.4,1.1-0.5c0.5-0.1,1.2-0.1,2.1-0.1h0.2
			v-0.4c0-0.5-0.1-0.9-0.3-1.1c-0.2-0.2-0.5-0.4-1-0.4c-0.6,0-1.1,0.1-1.6,0.4c0,0-0.1,0.1-0.2,0.1c-0.1,0.1-0.2,0.1-0.2,0.1
			c-0.1,0-0.1,0-0.2-0.1c0-0.1-0.1-0.1-0.1-0.2c0-0.2,0.1-0.3,0.4-0.5c0.3-0.2,0.6-0.3,0.9-0.4c0.3-0.1,0.7-0.1,1-0.1
			C110.3,30.1,110.8,30.3,111.1,30.7z M110.4,34.8c0.3-0.3,0.5-0.8,0.5-1.3v-0.4h-0.2c-0.7,0-1.3,0-1.7,0.1
			c-0.4,0.1-0.7,0.2-0.8,0.3c-0.2,0.1-0.2,0.4-0.2,0.7c0,0.3,0.1,0.6,0.4,0.8c0.2,0.2,0.5,0.3,0.9,0.3
			C109.7,35.3,110.1,35.2,110.4,34.8z"/>
		<path fill="#0F2026" d="M118.1,32.3v3.3c0,0.1,0,0.2-0.1,0.3c-0.1,0.1-0.1,0.1-0.3,0.1c-0.1,0-0.2,0-0.3-0.1
			c-0.1-0.1-0.1-0.2-0.1-0.3v-3.2c0-0.6-0.1-1-0.3-1.2c-0.2-0.3-0.6-0.4-1.1-0.4c-0.6,0-1,0.2-1.3,0.5c-0.3,0.3-0.5,0.8-0.5,1.4v2.9
			c0,0.1,0,0.2-0.1,0.3c-0.1,0.1-0.1,0.1-0.3,0.1c-0.1,0-0.2,0-0.3-0.1c-0.1-0.1-0.1-0.2-0.1-0.3v-5c0-0.1,0-0.2,0.1-0.3
			c0.1-0.1,0.2-0.1,0.3-0.1c0.1,0,0.2,0,0.2,0.1c0.1,0.1,0.1,0.1,0.1,0.3v0.7c0.2-0.4,0.4-0.6,0.8-0.8c0.3-0.2,0.7-0.3,1.2-0.3
			C117.4,30.1,118.1,30.9,118.1,32.3z"/>
		<path fill="#0F2026" d="M122.6,35.6c0,0.1,0,0.2-0.1,0.2c-0.1,0.1-0.2,0.1-0.3,0.1l-0.3,0c-0.6,0-1-0.2-1.3-0.5
			c-0.3-0.3-0.4-0.8-0.4-1.5v-3.1h-0.9c-0.1,0-0.2,0-0.2-0.1c-0.1-0.1-0.1-0.1-0.1-0.2c0-0.1,0-0.2,0.1-0.2c0.1-0.1,0.1-0.1,0.2-0.1
			h0.9v-1.4c0-0.1,0-0.2,0.1-0.3c0.1-0.1,0.1-0.1,0.3-0.1c0.1,0,0.2,0,0.3,0.1c0.1,0.1,0.1,0.1,0.1,0.3v1.4h1.4c0.1,0,0.2,0,0.2,0.1
			c0.1,0.1,0.1,0.1,0.1,0.2c0,0.1,0,0.2-0.1,0.2c-0.1,0.1-0.1,0.1-0.2,0.1h-1.4v3.1c0,0.5,0.1,0.8,0.3,1c0.2,0.2,0.5,0.3,0.9,0.4
			l0.3,0C122.5,35.4,122.6,35.5,122.6,35.6z"/>
		<path fill="#0F2026" d="M134.2,27.8c0.1,0.1,0.1,0.2,0.1,0.3v7.5c0,0.1,0,0.2-0.1,0.3c-0.1,0.1-0.1,0.1-0.3,0.1
			c-0.1,0-0.2,0-0.2-0.1c-0.1-0.1-0.1-0.2-0.1-0.3v-6.4l-2.7,5.3c-0.1,0.2-0.2,0.3-0.4,0.3c-0.2,0-0.3-0.1-0.4-0.3l-2.7-5.2v6.4
			c0,0.1,0,0.2-0.1,0.3c-0.1,0.1-0.1,0.1-0.2,0.1c-0.1,0-0.2,0-0.3-0.1c-0.1-0.1-0.1-0.2-0.1-0.3v-7.5c0-0.1,0-0.2,0.1-0.3
			c0.1-0.1,0.2-0.1,0.3-0.1c0.1,0,0.3,0.1,0.3,0.3l3.1,5.9l3-5.9c0.1-0.2,0.2-0.3,0.3-0.3C134,27.7,134.1,27.7,134.2,27.8z"/>
		<path fill="#0F2026" d="M139.9,30.7c0.3,0.4,0.5,0.9,0.5,1.6v3.3c0,0.1,0,0.2-0.1,0.3c-0.1,0.1-0.1,0.1-0.3,0.1
			c-0.1,0-0.2,0-0.3-0.1c-0.1-0.1-0.1-0.2-0.1-0.3v-0.7c-0.2,0.3-0.4,0.6-0.7,0.8c-0.3,0.2-0.7,0.3-1.1,0.3c-0.4,0-0.7-0.1-1-0.2
			c-0.3-0.1-0.5-0.3-0.7-0.6c-0.2-0.3-0.3-0.5-0.3-0.9c0-0.4,0.1-0.7,0.3-1c0.2-0.2,0.6-0.4,1.1-0.5c0.5-0.1,1.2-0.1,2.1-0.1h0.2
			v-0.4c0-0.5-0.1-0.9-0.3-1.1c-0.2-0.2-0.5-0.4-1-0.4c-0.6,0-1.1,0.1-1.6,0.4c0,0-0.1,0.1-0.2,0.1c-0.1,0.1-0.2,0.1-0.2,0.1
			c-0.1,0-0.1,0-0.2-0.1c0-0.1-0.1-0.1-0.1-0.2c0-0.2,0.1-0.3,0.4-0.5c0.3-0.2,0.6-0.3,0.9-0.4c0.3-0.1,0.7-0.1,1-0.1
			C139.1,30.1,139.6,30.3,139.9,30.7z M139.3,34.8c0.3-0.3,0.5-0.8,0.5-1.3v-0.4h-0.2c-0.7,0-1.3,0-1.7,0.1
			c-0.4,0.1-0.7,0.2-0.8,0.3c-0.2,0.1-0.2,0.4-0.2,0.7c0,0.3,0.1,0.6,0.4,0.8c0.2,0.2,0.5,0.3,0.9,0.3
			C138.5,35.3,139,35.2,139.3,34.8z"/>
		<path fill="#0F2026" d="M146.9,32.3v3.3c0,0.1,0,0.2-0.1,0.3c-0.1,0.1-0.1,0.1-0.3,0.1c-0.1,0-0.2,0-0.3-0.1
			c-0.1-0.1-0.1-0.2-0.1-0.3v-3.2c0-0.6-0.1-1-0.3-1.2c-0.2-0.3-0.6-0.4-1.1-0.4c-0.6,0-1,0.2-1.3,0.5c-0.3,0.3-0.5,0.8-0.5,1.4v2.9
			c0,0.1,0,0.2-0.1,0.3c-0.1,0.1-0.1,0.1-0.3,0.1c-0.1,0-0.2,0-0.3-0.1c-0.1-0.1-0.1-0.2-0.1-0.3v-5c0-0.1,0-0.2,0.1-0.3
			c0.1-0.1,0.2-0.1,0.3-0.1c0.1,0,0.2,0,0.2,0.1c0.1,0.1,0.1,0.1,0.1,0.3v0.7c0.2-0.4,0.4-0.6,0.8-0.8c0.3-0.2,0.7-0.3,1.2-0.3
			C146.2,30.1,146.9,30.9,146.9,32.3z"/>
		<path fill="#0F2026" d="M152.4,30.7c0.3,0.4,0.5,0.9,0.5,1.6v3.3c0,0.1,0,0.2-0.1,0.3c-0.1,0.1-0.1,0.1-0.3,0.1
			c-0.1,0-0.2,0-0.3-0.1c-0.1-0.1-0.1-0.2-0.1-0.3v-0.7c-0.2,0.3-0.4,0.6-0.7,0.8c-0.3,0.2-0.7,0.3-1.1,0.3c-0.4,0-0.7-0.1-1-0.2
			c-0.3-0.1-0.5-0.3-0.7-0.6c-0.2-0.3-0.3-0.5-0.3-0.9c0-0.4,0.1-0.7,0.3-1c0.2-0.2,0.6-0.4,1.1-0.5c0.5-0.1,1.2-0.1,2.1-0.1h0.2
			v-0.4c0-0.5-0.1-0.9-0.3-1.1c-0.2-0.2-0.5-0.4-1-0.4c-0.6,0-1.1,0.1-1.6,0.4c0,0-0.1,0.1-0.2,0.1c-0.1,0.1-0.2,0.1-0.2,0.1
			c-0.1,0-0.1,0-0.2-0.1c0-0.1-0.1-0.1-0.1-0.2c0-0.2,0.1-0.3,0.4-0.5c0.3-0.2,0.6-0.3,0.9-0.4c0.3-0.1,0.7-0.1,1-0.1
			C151.6,30.1,152.1,30.3,152.4,30.7z M151.8,34.8c0.3-0.3,0.5-0.8,0.5-1.3v-0.4H152c-0.7,0-1.3,0-1.7,0.1c-0.4,0.1-0.7,0.2-0.8,0.3
			c-0.2,0.1-0.2,0.4-0.2,0.7c0,0.3,0.1,0.6,0.4,0.8c0.2,0.2,0.5,0.3,0.9,0.3C151.1,35.3,151.5,35.2,151.8,34.8z"/>
		<path fill="#0F2026" d="M159.5,30.3c0.1,0.1,0.1,0.2,0.1,0.3v5c0,0.8-0.2,1.4-0.6,1.8c-0.4,0.4-1,0.6-1.8,0.6
			c-0.4,0-0.8,0-1.1-0.1c-0.3-0.1-0.6-0.2-0.9-0.4c-0.3-0.2-0.4-0.3-0.4-0.5c0-0.1,0-0.2,0.1-0.2c0-0.1,0.1-0.1,0.2-0.1
			c0,0,0.1,0,0.2,0.1c0.1,0,0.1,0.1,0.2,0.1c0.3,0.1,0.5,0.3,0.8,0.4c0.3,0.1,0.6,0.1,1,0.1c0.6,0,1-0.1,1.3-0.4
			c0.3-0.3,0.4-0.7,0.4-1.3v-1.1c-0.2,0.4-0.4,0.7-0.7,0.9c-0.3,0.2-0.7,0.3-1.2,0.3c-0.5,0-0.9-0.1-1.3-0.3c-0.4-0.2-0.7-0.6-0.9-1
			c-0.2-0.4-0.3-0.9-0.3-1.5c0-0.5,0.1-1,0.3-1.5c0.2-0.4,0.5-0.7,0.9-1c0.4-0.2,0.8-0.3,1.3-0.3c0.5,0,0.9,0.1,1.2,0.3
			c0.3,0.2,0.6,0.5,0.7,0.9v-0.8c0-0.1,0-0.2,0.1-0.3c0.1-0.1,0.1-0.1,0.3-0.1C159.3,30.2,159.4,30.2,159.5,30.3z M158.4,34.5
			c0.3-0.4,0.5-0.9,0.5-1.6s-0.2-1.2-0.5-1.6c-0.3-0.4-0.8-0.6-1.4-0.6c-0.6,0-1,0.2-1.4,0.6c-0.3,0.4-0.5,0.9-0.5,1.6
			c0,0.7,0.2,1.2,0.5,1.6c0.3,0.4,0.8,0.6,1.4,0.6C157.6,35.1,158.1,34.9,158.4,34.5z"/>
		<path fill="#0F2026" d="M165.9,34.8c0.1,0.1,0.1,0.1,0.1,0.2c0,0.2-0.1,0.3-0.4,0.5c-0.6,0.3-1.1,0.5-1.7,0.5
			c-0.9,0-1.5-0.3-2-0.8c-0.5-0.5-0.7-1.2-0.7-2.1c0-0.6,0.1-1.1,0.3-1.5c0.2-0.4,0.5-0.8,0.9-1c0.4-0.2,0.8-0.4,1.4-0.4
			c0.7,0,1.3,0.2,1.7,0.7c0.4,0.5,0.6,1.1,0.6,1.9c0,0.1,0,0.2-0.1,0.3c-0.1,0.1-0.2,0.1-0.3,0.1h-3.8c0,0.7,0.2,1.2,0.6,1.6
			c0.3,0.4,0.8,0.6,1.5,0.6c0.3,0,0.6,0,0.8-0.1s0.5-0.2,0.7-0.4c0.2-0.1,0.3-0.2,0.4-0.2C165.8,34.7,165.8,34.7,165.9,34.8z
			 M162.4,31.2c-0.3,0.3-0.5,0.8-0.6,1.4h3.6c0-0.6-0.2-1.1-0.5-1.4c-0.3-0.3-0.7-0.5-1.2-0.5C163.1,30.7,162.7,30.9,162.4,31.2z"/>
		<path fill="#0F2026" d="M170.4,30.2c0.1,0,0.1,0.1,0.1,0.2c0,0.2-0.1,0.3-0.3,0.3l-0.3,0c-0.5,0.1-0.9,0.2-1.2,0.6
			c-0.3,0.3-0.4,0.7-0.4,1.2v3c0,0.1,0,0.2-0.1,0.3c-0.1,0.1-0.1,0.1-0.3,0.1c-0.1,0-0.2,0-0.3-0.1c-0.1-0.1-0.1-0.2-0.1-0.3v-5
			c0-0.1,0-0.2,0.1-0.3c0.1-0.1,0.2-0.1,0.3-0.1c0.1,0,0.2,0,0.2,0.1c0.1,0.1,0.1,0.1,0.1,0.3v0.7c0.3-0.7,0.9-1,1.7-1.1l0.2,0
			C170.2,30.2,170.3,30.2,170.4,30.2z"/>
		<path fill="#0F2026" d="M173.4,33c-0.1,0-0.1-0.1-0.1-0.2c0-0.1,0-0.1,0.1-0.2c0.1,0,0.1-0.1,0.2-0.1h5.2c0.1,0,0.2,0,0.2,0.1
			c0.1,0.1,0.1,0.1,0.1,0.2c0,0.1,0,0.1-0.1,0.2c-0.1,0-0.1,0.1-0.2,0.1h-5.2C173.6,33.1,173.5,33,173.4,33z"/>
		<path fill="#0F2026" d="M189.9,35.6c0,0.1,0,0.2-0.1,0.2c-0.1,0.1-0.1,0.1-0.2,0.1c-0.1,0-0.1,0-0.2-0.1c-0.1,0-0.1-0.1-0.1-0.2
			l-0.9-2h-4.5l-0.9,2c-0.1,0.1-0.2,0.2-0.3,0.2c-0.1,0-0.2,0-0.2-0.1c-0.1-0.1-0.1-0.1-0.1-0.2c0-0.1,0-0.1,0-0.1l3.4-7.6
			c0.1-0.2,0.2-0.3,0.4-0.3c0.1,0,0.2,0,0.2,0.1c0.1,0,0.1,0.1,0.2,0.2l3.3,7.6C189.9,35.5,189.9,35.6,189.9,35.6z M184.2,33.1h3.9
			l-2-4.5L184.2,33.1z"/>
		<path fill="#0F2026" d="M192.1,35.6c-0.4-0.2-0.7-0.6-0.9-1c-0.2-0.4-0.3-0.9-0.3-1.5c0-0.6,0.1-1.1,0.3-1.5
			c0.2-0.4,0.5-0.8,0.9-1c0.4-0.2,0.8-0.4,1.4-0.4c0.3,0,0.6,0,0.9,0.1c0.3,0.1,0.5,0.2,0.7,0.3c0.1,0.1,0.2,0.2,0.3,0.3
			s0.1,0.2,0.1,0.3c0,0.1,0,0.2-0.1,0.2c0,0.1-0.1,0.1-0.2,0.1c-0.1,0-0.2-0.1-0.4-0.2c-0.2-0.1-0.4-0.3-0.6-0.3
			c-0.2-0.1-0.4-0.1-0.7-0.1c-0.6,0-1.1,0.2-1.4,0.6c-0.3,0.4-0.5,1-0.5,1.7c0,0.7,0.2,1.3,0.5,1.7s0.8,0.6,1.4,0.6
			c0.3,0,0.5,0,0.7-0.1c0.2-0.1,0.4-0.2,0.6-0.3c0.1,0,0.1-0.1,0.2-0.1c0.1,0,0.1-0.1,0.2-0.1c0.1,0,0.1,0,0.2,0.1
			c0,0.1,0.1,0.1,0.1,0.2c0,0.1,0,0.2-0.1,0.2c-0.1,0.1-0.2,0.2-0.3,0.3c-0.2,0.2-0.5,0.3-0.8,0.4s-0.6,0.1-0.9,0.1
			C192.9,36,192.5,35.8,192.1,35.6z"/>
		<path fill="#0F2026" d="M204.6,32.3v3.3c0,0.1,0,0.2-0.1,0.3c-0.1,0.1-0.1,0.1-0.3,0.1c-0.1,0-0.2,0-0.3-0.1
			c-0.1-0.1-0.1-0.2-0.1-0.3v-3.2c0-0.6-0.1-1-0.3-1.2c-0.2-0.2-0.5-0.4-1-0.4c-0.5,0-0.9,0.2-1.2,0.5c-0.3,0.3-0.4,0.8-0.4,1.4v2.9
			c0,0.1,0,0.2-0.1,0.3c-0.1,0.1-0.1,0.1-0.3,0.1c-0.1,0-0.2,0-0.3-0.1c-0.1-0.1-0.1-0.2-0.1-0.3v-3.2c0-0.6-0.1-1-0.3-1.2
			c-0.2-0.2-0.5-0.4-1-0.4c-0.5,0-0.9,0.2-1.2,0.5c-0.3,0.3-0.4,0.8-0.4,1.4v2.9c0,0.1,0,0.2-0.1,0.3c-0.1,0.1-0.1,0.1-0.3,0.1
			c-0.1,0-0.2,0-0.3-0.1c-0.1-0.1-0.1-0.2-0.1-0.3v-5c0-0.1,0-0.2,0.1-0.3c0.1-0.1,0.2-0.1,0.3-0.1c0.1,0,0.2,0,0.2,0.1
			c0.1,0.1,0.1,0.1,0.1,0.3v0.7c0.2-0.3,0.4-0.6,0.7-0.8c0.3-0.2,0.7-0.3,1.1-0.3c0.9,0,1.5,0.4,1.7,1.1c0.2-0.3,0.4-0.6,0.7-0.8
			c0.3-0.2,0.7-0.3,1.1-0.3C203.9,30.1,204.6,30.9,204.6,32.3z"/>
		<path fill="#0F2026" d="M210.8,34.8c0.1,0.1,0.1,0.1,0.1,0.2c0,0.2-0.1,0.3-0.4,0.5c-0.6,0.3-1.1,0.5-1.7,0.5
			c-0.9,0-1.5-0.3-2-0.8c-0.5-0.5-0.7-1.2-0.7-2.1c0-0.6,0.1-1.1,0.3-1.5c0.2-0.4,0.5-0.8,0.9-1c0.4-0.2,0.8-0.4,1.4-0.4
			c0.7,0,1.3,0.2,1.7,0.7c0.4,0.5,0.6,1.1,0.6,1.9c0,0.1,0,0.2-0.1,0.3c-0.1,0.1-0.2,0.1-0.3,0.1h-3.8c0,0.7,0.2,1.2,0.6,1.6
			c0.3,0.4,0.8,0.6,1.5,0.6c0.3,0,0.6,0,0.8-0.1s0.5-0.2,0.7-0.4c0.2-0.1,0.3-0.2,0.4-0.2C210.7,34.7,210.8,34.7,210.8,34.8z
			 M207.3,31.2c-0.3,0.3-0.5,0.8-0.6,1.4h3.6c0-0.6-0.2-1.1-0.5-1.4c-0.3-0.3-0.7-0.5-1.2-0.5C208.1,30.7,207.7,30.9,207.3,31.2z"/>
		<path fill="#0F2026" d="M216.9,35.5c-0.6-0.3-1-0.8-1.3-1.4c-0.3-0.6-0.4-1.4-0.4-2.2c0-0.9,0.1-1.6,0.4-2.2s0.7-1.1,1.3-1.4
			c0.6-0.3,1.2-0.5,2-0.5c0.5,0,1,0.1,1.5,0.3c0.5,0.2,0.9,0.4,1.2,0.7c0.1,0.1,0.2,0.2,0.2,0.3c0,0.1,0,0.2-0.1,0.2
			c-0.1,0.1-0.1,0.1-0.2,0.1c-0.1,0-0.2,0-0.3-0.1c-0.4-0.3-0.8-0.6-1.1-0.7c-0.3-0.1-0.7-0.2-1.2-0.2c-0.9,0-1.6,0.3-2.2,0.9
			c-0.5,0.6-0.8,1.5-0.8,2.6c0,1.1,0.3,2,0.8,2.6c0.5,0.6,1.2,0.9,2.2,0.9c0.5,0,0.8-0.1,1.2-0.2c0.3-0.1,0.7-0.4,1.1-0.7
			c0.1-0.1,0.2-0.1,0.3-0.1c0.1,0,0.1,0,0.2,0.1c0,0.1,0.1,0.1,0.1,0.2c0,0.1-0.1,0.2-0.2,0.3c-0.3,0.3-0.7,0.6-1.2,0.7
			c-0.5,0.2-1,0.3-1.5,0.3C218.1,36,217.4,35.8,216.9,35.5z"/>
		<path fill="#0F2026" d="M223.9,35.6c-0.4-0.2-0.7-0.6-0.9-1c-0.2-0.4-0.3-0.9-0.3-1.5c0-0.6,0.1-1.1,0.3-1.5
			c0.2-0.4,0.5-0.8,0.9-1c0.4-0.2,0.8-0.4,1.4-0.4c0.5,0,1,0.1,1.3,0.4c0.4,0.2,0.7,0.6,0.9,1c0.2,0.4,0.3,0.9,0.3,1.5
			c0,0.6-0.1,1.1-0.3,1.5c-0.2,0.4-0.5,0.8-0.9,1c-0.4,0.2-0.8,0.4-1.3,0.4C224.7,36,224.3,35.8,223.9,35.6z M226.6,34.7
			c0.3-0.4,0.5-1,0.5-1.7c0-0.7-0.2-1.3-0.5-1.7c-0.3-0.4-0.8-0.6-1.4-0.6c-0.6,0-1,0.2-1.4,0.6c-0.3,0.4-0.5,1-0.5,1.7
			c0,0.7,0.2,1.3,0.5,1.7s0.8,0.6,1.4,0.6C225.8,35.3,226.3,35.1,226.6,34.7z"/>
		<path fill="#0F2026" d="M229,35.8c-0.1-0.1-0.2-0.2-0.2-0.4c0-0.2,0.1-0.3,0.2-0.4c0.1-0.1,0.2-0.2,0.4-0.2c0.1,0,0.3,0.1,0.4,0.2
			c0.1,0.1,0.2,0.2,0.2,0.4c0,0.2-0.1,0.3-0.2,0.4c-0.1,0.1-0.2,0.2-0.4,0.2C229.3,35.9,229.1,35.9,229,35.8z"/>
	</g>
	<g>
		<path fill="#173440" d="M52.4,223.3c1,1.3,1.4,2.8,1.4,4.6c0,2.5-0.9,4.5-2.8,6c-1.8,1.4-4.5,2.2-7.8,2.2s-6-0.7-7.8-2.2
			c-1.8-1.4-2.8-3.4-2.8-6c0-1.8,0.5-3.4,1.5-4.7c1-1.3,2.3-2.2,4.1-2.7c-1.5-0.6-2.7-1.4-3.5-2.6c-0.9-1.2-1.3-2.6-1.3-4.2
			c0-2.4,0.9-4.3,2.6-5.7c1.7-1.4,4.2-2.1,7.3-2.1c3.1,0,5.5,0.7,7.3,2.1c1.7,1.4,2.6,3.3,2.6,5.7c0,1.6-0.4,3-1.3,4.3
			c-0.9,1.2-2,2.1-3.5,2.6C50.1,221.1,51.5,222,52.4,223.3z M50.5,227.7c0-3.7-2.4-5.5-7.2-5.5s-7.2,1.8-7.2,5.5
			c0,3.7,2.4,5.5,7.2,5.5S50.5,231.4,50.5,227.7z M38.4,218c1.1,0.9,2.7,1.4,4.8,1.4c2.1,0,3.7-0.5,4.8-1.4c1.1-0.9,1.7-2.3,1.7-4
			c0-1.7-0.6-2.9-1.7-3.9c-1.1-0.9-2.7-1.4-4.8-1.4c-2.1,0-3.7,0.5-4.8,1.4s-1.7,2.2-1.7,3.9C36.8,215.7,37.3,217,38.4,218z"/>
		<path fill="#173440" d="M75.8,209.6c1.9,2.5,2.9,6,2.9,10.7c0,3.3-0.4,6.1-1.3,8.5c-0.9,2.4-2.2,4.2-3.9,5.5
			c-1.7,1.3-3.7,1.9-6.1,1.9c-1.6,0-3.2-0.3-4.8-0.9c-1.6-0.6-2.9-1.5-4-2.5c-0.5-0.4-0.7-0.9-0.7-1.4c0-0.4,0.1-0.8,0.3-1
			c0.2-0.3,0.5-0.4,0.8-0.4c0.4,0,0.8,0.2,1.2,0.5c2.4,2,4.8,3,7.1,3c2.5,0,4.4-1.1,5.8-3.4c1.4-2.3,2.1-5.4,2.1-9.5v-0.5
			c-0.6,1.6-1.7,2.8-3.1,3.7c-1.4,0.9-3.1,1.3-4.9,1.3c-1.8,0-3.4-0.4-4.8-1.2c-1.4-0.8-2.5-1.9-3.3-3.3c-0.8-1.4-1.2-3.1-1.2-4.9
			c0-1.8,0.4-3.5,1.2-4.9c0.8-1.5,1.9-2.6,3.4-3.4c1.5-0.8,3.1-1.2,4.9-1.2C71.1,205.9,73.8,207.1,75.8,209.6z M72.4,220.1
			c1.2-1.2,1.8-2.8,1.8-4.7c0-2-0.6-3.5-1.8-4.8c-1.2-1.2-2.8-1.8-4.8-1.8c-1.9,0-3.4,0.6-4.6,1.8c-1.1,1.2-1.7,2.8-1.7,4.8
			c0,2,0.6,3.6,1.7,4.8c1.2,1.2,2.7,1.8,4.6,1.8C69.6,221.9,71.2,221.3,72.4,220.1z"/>
		<path fill="#173440" d="M85.2,221.7c-1.3-1.5-1.9-3.8-1.9-6.8c0-3,0.6-5.2,1.9-6.7c1.3-1.5,3-2.3,5.2-2.3c2.2,0,4,0.8,5.2,2.3
			c1.3,1.5,1.9,3.8,1.9,6.7c0,3-0.6,5.3-1.9,6.8c-1.3,1.5-3,2.3-5.2,2.3C88.2,224,86.4,223.2,85.2,221.7z M93.4,219.9
			c0.7-1.1,1-2.7,1-5c0-2.3-0.3-3.9-1-5c-0.7-1.1-1.7-1.6-3-1.6s-2.4,0.5-3.1,1.6c-0.7,1.1-1,2.7-1,5c0,2.3,0.3,4,1,5
			c0.7,1.1,1.7,1.6,3.1,1.6S92.8,221,93.4,219.9z M92.3,236.5c-0.4,0-0.7-0.1-0.9-0.4c-0.3-0.3-0.4-0.6-0.4-1c0-0.3,0.1-0.7,0.3-1
			l16-27.7c0.4-0.6,0.8-0.9,1.4-0.9c0.4,0,0.7,0.1,0.9,0.4c0.3,0.3,0.4,0.6,0.4,1c0,0.3-0.1,0.6-0.3,1l-16,27.7
			C93.3,236.2,92.8,236.5,92.3,236.5z M105.3,233.8c-1.3-1.5-1.9-3.8-1.9-6.8c0-3,0.6-5.2,1.9-6.7c1.3-1.5,3-2.3,5.2-2.3
			c2.3,0,4,0.8,5.3,2.3c1.2,1.5,1.9,3.8,1.9,6.8c0,3-0.6,5.3-1.9,6.8c-1.2,1.5-3,2.3-5.3,2.3C108.3,236.1,106.5,235.3,105.3,233.8z
			 M113.6,232.1c0.7-1,1-2.7,1-5.1c0-2.3-0.3-3.9-1-5c-0.7-1.1-1.7-1.6-3.1-1.6c-1.4,0-2.4,0.5-3,1.6c-0.7,1.1-1,2.7-1,5
			c0,2.3,0.3,4,1,5c0.7,1.1,1.7,1.6,3,1.6C111.9,233.7,112.9,233.1,113.6,232.1z"/>
	</g>
	<g>
		<path fill="#A7BBC4" d="M53.8,249.5c-0.1-0.1-0.1-0.2-0.1-0.3v-5.5h-2c-0.1,0-0.2,0-0.3-0.1c-0.1-0.1-0.1-0.1-0.1-0.2
			s0-0.2,0.1-0.2c0.1-0.1,0.1-0.1,0.3-0.1h4.7c0.1,0,0.2,0,0.3,0.1c0.1,0.1,0.1,0.1,0.1,0.2s0,0.2-0.1,0.2c-0.1,0.1-0.1,0.1-0.3,0.1
			h-2v5.5c0,0.1,0,0.2-0.1,0.3s-0.2,0.1-0.3,0.1C54,249.6,53.9,249.5,53.8,249.5z"/>
		<path fill="#A7BBC4" d="M57.6,249.3c-0.3-0.2-0.6-0.5-0.7-0.8c-0.2-0.4-0.3-0.8-0.3-1.2s0.1-0.9,0.3-1.2c0.2-0.4,0.4-0.6,0.7-0.8
			c0.3-0.2,0.7-0.3,1.1-0.3s0.8,0.1,1.1,0.3c0.3,0.2,0.6,0.5,0.7,0.8c0.2,0.4,0.3,0.8,0.3,1.2s-0.1,0.9-0.3,1.2
			c-0.2,0.4-0.4,0.6-0.7,0.8c-0.3,0.2-0.7,0.3-1.1,0.3S57.9,249.5,57.6,249.3z M59.7,248.5c0.2-0.3,0.4-0.7,0.4-1.3
			c0-0.5-0.1-1-0.4-1.3c-0.2-0.3-0.6-0.4-1-0.4s-0.8,0.1-1,0.4c-0.2,0.3-0.4,0.7-0.4,1.3c0,0.6,0.1,1,0.4,1.3c0.2,0.3,0.6,0.4,1,0.4
			S59.5,248.8,59.7,248.5z"/>
		<path fill="#A7BBC4" d="M64.3,249.3c0,0.1,0,0.2-0.1,0.2s-0.2,0.1-0.3,0.1l-0.2,0c-0.5,0-0.9-0.2-1.1-0.4
			c-0.2-0.3-0.3-0.6-0.3-1.2v-2.3h-0.6c-0.1,0-0.2,0-0.2-0.1c-0.1-0.1-0.1-0.1-0.1-0.2c0-0.1,0-0.2,0.1-0.2c0.1-0.1,0.1-0.1,0.2-0.1
			h0.6v-1c0-0.1,0-0.2,0.1-0.3c0.1-0.1,0.2-0.1,0.3-0.1c0.1,0,0.2,0,0.3,0.1c0.1,0.1,0.1,0.2,0.1,0.3v1h1c0.1,0,0.2,0,0.2,0.1
			c0.1,0.1,0.1,0.1,0.1,0.2c0,0.1,0,0.2-0.1,0.2c-0.1,0.1-0.1,0.1-0.2,0.1h-1v2.4c0,0.3,0.1,0.6,0.2,0.7c0.1,0.2,0.3,0.2,0.6,0.3
			l0.2,0C64.2,249,64.3,249.1,64.3,249.3z"/>
		<path fill="#A7BBC4" d="M68.6,246.7v2.5c0,0.1,0,0.2-0.1,0.3c-0.1,0.1-0.2,0.1-0.3,0.1c-0.1,0-0.2,0-0.3-0.1
			c-0.1-0.1-0.1-0.2-0.1-0.3v-0.4c-0.1,0.3-0.3,0.5-0.5,0.6c-0.2,0.1-0.5,0.2-0.8,0.2c-0.3,0-0.6-0.1-0.8-0.2
			c-0.2-0.1-0.4-0.3-0.6-0.5c-0.1-0.2-0.2-0.4-0.2-0.7c0-0.3,0.1-0.6,0.3-0.8c0.2-0.2,0.5-0.3,0.8-0.4c0.4-0.1,0.9-0.1,1.6-0.1h0.2
			v-0.3c0-0.4-0.1-0.6-0.2-0.8c-0.2-0.2-0.4-0.3-0.7-0.3c-0.4,0-0.8,0.1-1.3,0.3c-0.2,0.1-0.3,0.2-0.3,0.2c-0.1,0-0.1,0-0.2-0.1
			c0-0.1-0.1-0.1-0.1-0.2c0-0.1,0-0.2,0.1-0.2c0.1-0.1,0.1-0.1,0.3-0.2c0.2-0.1,0.5-0.2,0.7-0.3c0.3-0.1,0.5-0.1,0.8-0.1
			C68,244.9,68.6,245.5,68.6,246.7z M67.5,248.6c0.2-0.2,0.4-0.6,0.4-1v-0.3h-0.2c-0.5,0-1,0-1.2,0.1c-0.3,0-0.5,0.1-0.6,0.2
			c-0.1,0.1-0.2,0.3-0.2,0.5c0,0.2,0.1,0.4,0.3,0.6c0.2,0.2,0.4,0.2,0.7,0.2C67,249,67.3,248.9,67.5,248.6z"/>
		<path fill="#A7BBC4" d="M70.1,249.5c-0.1-0.1-0.1-0.2-0.1-0.3v-5.9c0-0.1,0-0.2,0.1-0.3c0.1-0.1,0.2-0.1,0.3-0.1
			c0.1,0,0.2,0,0.3,0.1c0.1,0.1,0.1,0.2,0.1,0.3v5.9c0,0.1,0,0.2-0.1,0.3c-0.1,0.1-0.2,0.1-0.3,0.1
			C70.2,249.6,70.1,249.5,70.1,249.5z"/>
		<path fill="#A7BBC4" d="M75.3,249.4c-0.4-0.1-0.8-0.3-1-0.6c-0.1-0.1-0.1-0.2-0.1-0.3c0-0.1,0-0.2,0.1-0.2c0-0.1,0.1-0.1,0.2-0.1
			c0.1,0,0.2,0,0.3,0.1c0.6,0.4,1.2,0.7,2,0.7c0.5,0,0.9-0.1,1.2-0.3c0.3-0.2,0.4-0.5,0.4-0.9c0-0.2-0.1-0.4-0.2-0.5
			c-0.1-0.1-0.3-0.2-0.5-0.3c-0.2-0.1-0.5-0.2-0.9-0.2c-0.5-0.1-0.9-0.2-1.2-0.4c-0.3-0.1-0.6-0.3-0.8-0.6c-0.2-0.2-0.3-0.6-0.3-0.9
			c0-0.4,0.1-0.7,0.3-1c0.2-0.3,0.5-0.5,0.8-0.7c0.4-0.2,0.8-0.2,1.2-0.2c0.4,0,0.8,0.1,1.2,0.2c0.4,0.1,0.7,0.3,0.9,0.6
			c0.1,0.1,0.1,0.2,0.1,0.3c0,0.1,0,0.2-0.1,0.2c0,0.1-0.1,0.1-0.2,0.1s-0.2,0-0.3-0.1c-0.3-0.2-0.6-0.4-0.8-0.5
			c-0.3-0.1-0.6-0.1-0.9-0.1c-0.5,0-0.9,0.1-1.2,0.3c-0.3,0.2-0.4,0.5-0.4,0.9c0,0.3,0.1,0.6,0.4,0.7c0.2,0.2,0.6,0.3,1.1,0.4
			c0.6,0.1,1,0.3,1.3,0.4c0.3,0.1,0.6,0.3,0.8,0.5c0.2,0.2,0.3,0.5,0.3,0.9c0,0.4-0.1,0.7-0.3,1c-0.2,0.3-0.5,0.5-0.8,0.6
			c-0.4,0.2-0.8,0.2-1.2,0.2C76.2,249.6,75.7,249.5,75.3,249.4z"/>
		<path fill="#A7BBC4" d="M80.9,249.3c-0.3-0.2-0.6-0.5-0.7-0.8c-0.2-0.4-0.3-0.8-0.3-1.2c0-0.5,0.1-0.9,0.3-1.2
			c0.2-0.4,0.4-0.6,0.8-0.8c0.3-0.2,0.7-0.3,1.1-0.3c0.2,0,0.5,0,0.7,0.1c0.2,0.1,0.4,0.2,0.6,0.3c0.1,0.1,0.2,0.1,0.2,0.2
			c0,0.1,0.1,0.1,0.1,0.2c0,0.1,0,0.2-0.1,0.2c0,0.1-0.1,0.1-0.2,0.1c0,0-0.1,0-0.1,0c0,0-0.1,0-0.1-0.1c0,0-0.1,0-0.1,0
			c-0.2-0.1-0.3-0.2-0.5-0.2c-0.1-0.1-0.3-0.1-0.5-0.1c-0.4,0-0.8,0.2-1,0.5c-0.2,0.3-0.4,0.7-0.4,1.3c0,0.5,0.1,1,0.4,1.3
			c0.2,0.3,0.6,0.4,1,0.4c0.2,0,0.4,0,0.5-0.1c0.2-0.1,0.3-0.1,0.5-0.2c0.1,0,0.1-0.1,0.2-0.1c0.1,0,0.1,0,0.2,0
			c0.1,0,0.1,0,0.2,0.1c0,0.1,0.1,0.1,0.1,0.2c0,0.1,0,0.2-0.1,0.2c0,0.1-0.1,0.1-0.2,0.2c-0.2,0.1-0.4,0.2-0.6,0.3
			c-0.2,0.1-0.5,0.1-0.7,0.1C81.6,249.6,81.2,249.5,80.9,249.3z"/>
		<path fill="#A7BBC4" d="M85.3,249.3c-0.3-0.2-0.6-0.5-0.7-0.8c-0.2-0.4-0.3-0.8-0.3-1.2s0.1-0.9,0.3-1.2c0.2-0.4,0.4-0.6,0.7-0.8
			c0.3-0.2,0.7-0.3,1.1-0.3s0.8,0.1,1.1,0.3c0.3,0.2,0.6,0.5,0.7,0.8c0.2,0.4,0.3,0.8,0.3,1.2s-0.1,0.9-0.3,1.2
			c-0.2,0.4-0.4,0.6-0.7,0.8c-0.3,0.2-0.7,0.3-1.1,0.3S85.6,249.5,85.3,249.3z M87.4,248.5c0.2-0.3,0.4-0.7,0.4-1.3
			c0-0.5-0.1-1-0.4-1.3c-0.2-0.3-0.6-0.4-1-0.4s-0.8,0.1-1,0.4c-0.2,0.3-0.4,0.7-0.4,1.3c0,0.6,0.1,1,0.4,1.3c0.2,0.3,0.6,0.4,1,0.4
			S87.2,248.8,87.4,248.5z"/>
		<path fill="#A7BBC4" d="M92.3,245.3c0,0.1,0,0.2-0.1,0.2c-0.1,0.1-0.2,0.1-0.3,0.1l-0.3,0c-0.4,0-0.7,0.2-0.9,0.4
			c-0.2,0.3-0.3,0.6-0.3,0.9v2.2c0,0.1,0,0.2-0.1,0.3c-0.1,0.1-0.2,0.1-0.3,0.1c-0.1,0-0.2,0-0.3-0.1c-0.1-0.1-0.1-0.2-0.1-0.3v-3.9
			c0-0.1,0-0.2,0.1-0.3c0.1-0.1,0.2-0.1,0.3-0.1c0.1,0,0.2,0,0.2,0.1c0.1,0.1,0.1,0.2,0.1,0.3v0.5c0.1-0.3,0.3-0.5,0.5-0.6
			c0.2-0.1,0.5-0.2,0.8-0.2l0.1,0C92.1,244.9,92.3,245,92.3,245.3z"/>
		<path fill="#A7BBC4" d="M96.5,248.6c0,0.1,0.1,0.1,0.1,0.2c0,0.2-0.1,0.3-0.3,0.4c-0.2,0.1-0.5,0.2-0.7,0.3
			c-0.2,0.1-0.5,0.1-0.7,0.1c-0.7,0-1.2-0.2-1.6-0.6c-0.4-0.4-0.6-1-0.6-1.7c0-0.5,0.1-0.9,0.3-1.2c0.2-0.4,0.4-0.6,0.8-0.8
			c0.3-0.2,0.7-0.3,1.1-0.3c0.6,0,1,0.2,1.4,0.6c0.3,0.4,0.5,0.9,0.5,1.5c0,0.1,0,0.2-0.1,0.3c0,0.1-0.1,0.1-0.2,0.1h-3
			c0.1,1.1,0.6,1.6,1.5,1.6c0.2,0,0.4,0,0.6-0.1c0.2-0.1,0.4-0.2,0.6-0.3c0.2-0.1,0.3-0.1,0.3-0.1C96.4,248.5,96.4,248.5,96.5,248.6
			z M93.7,245.9c-0.2,0.2-0.4,0.6-0.4,1h2.6c0-0.5-0.1-0.8-0.3-1c-0.2-0.2-0.5-0.4-0.9-0.4C94.3,245.5,94,245.6,93.7,245.9z"/>
	</g>
	<g>
		<g>
			<path fill="#A7BBC4" d="M193.3,249.5c-0.1-0.1-0.1-0.2-0.1-0.3v-5.8c0-0.1,0-0.2,0.1-0.3c0.1-0.1,0.2-0.1,0.3-0.1h2.2
				c0.7,0,1.2,0.2,1.6,0.5c0.4,0.3,0.6,0.8,0.6,1.4c0,0.6-0.2,1.1-0.6,1.4c-0.4,0.3-0.9,0.5-1.6,0.5h-1.8v2.3c0,0.1,0,0.2-0.1,0.3
				c-0.1,0.1-0.2,0.1-0.3,0.1C193.4,249.6,193.3,249.5,193.3,249.5z M195.6,246.2c1,0,1.5-0.4,1.5-1.3c0-0.9-0.5-1.3-1.5-1.3h-1.7
				v2.6H195.6z"/>
			<path fill="#A7BBC4" d="M201.5,245.3c0,0.1,0,0.2-0.1,0.2c-0.1,0.1-0.2,0.1-0.3,0.1l-0.3,0c-0.4,0-0.7,0.2-0.9,0.4
				c-0.2,0.3-0.3,0.6-0.3,0.9v2.2c0,0.1,0,0.2-0.1,0.3c-0.1,0.1-0.2,0.1-0.3,0.1c-0.1,0-0.2,0-0.3-0.1c-0.1-0.1-0.1-0.2-0.1-0.3
				v-3.9c0-0.1,0-0.2,0.1-0.3c0.1-0.1,0.2-0.1,0.3-0.1c0.1,0,0.2,0,0.2,0.1c0.1,0.1,0.1,0.2,0.1,0.3v0.5c0.1-0.3,0.3-0.5,0.5-0.6
				c0.2-0.1,0.5-0.2,0.8-0.2l0.1,0C201.4,244.9,201.5,245,201.5,245.3z"/>
			<path fill="#A7BBC4" d="M202.8,249.3c-0.3-0.2-0.6-0.5-0.7-0.8c-0.2-0.4-0.3-0.8-0.3-1.2s0.1-0.9,0.3-1.2
				c0.2-0.4,0.4-0.6,0.7-0.8c0.3-0.2,0.7-0.3,1.1-0.3c0.4,0,0.8,0.1,1.1,0.3c0.3,0.2,0.6,0.5,0.7,0.8c0.2,0.4,0.3,0.8,0.3,1.2
				s-0.1,0.9-0.3,1.2c-0.2,0.4-0.4,0.6-0.7,0.8c-0.3,0.2-0.7,0.3-1.1,0.3C203.5,249.6,203.1,249.5,202.8,249.3z M204.9,248.5
				c0.2-0.3,0.4-0.7,0.4-1.3c0-0.5-0.1-1-0.4-1.3c-0.2-0.3-0.6-0.4-1-0.4s-0.8,0.1-1,0.4c-0.2,0.3-0.4,0.7-0.4,1.3
				c0,0.6,0.1,1,0.4,1.3s0.6,0.4,1,0.4S204.7,248.8,204.9,248.5z"/>
			<path fill="#A7BBC4" d="M211,243.1c0.1,0.1,0.1,0.2,0.1,0.3v5.9c0,0.1,0,0.2-0.1,0.3c-0.1,0.1-0.2,0.1-0.3,0.1
				c-0.1,0-0.2,0-0.3-0.1c-0.1-0.1-0.1-0.2-0.1-0.3v-0.5c-0.1,0.3-0.3,0.5-0.6,0.7c-0.3,0.2-0.6,0.2-0.9,0.2c-0.4,0-0.7-0.1-1-0.3
				c-0.3-0.2-0.5-0.5-0.7-0.8c-0.2-0.4-0.2-0.8-0.2-1.2c0-0.5,0.1-0.9,0.2-1.2c0.2-0.4,0.4-0.6,0.7-0.8c0.3-0.2,0.6-0.3,1-0.3
				c0.4,0,0.7,0.1,0.9,0.2c0.3,0.2,0.5,0.4,0.6,0.7v-2.5c0-0.1,0-0.2,0.1-0.3c0.1-0.1,0.2-0.1,0.3-0.1C210.9,243,211,243,211,243.1z
				 M210,248.5c0.2-0.3,0.4-0.7,0.4-1.3s-0.1-1-0.4-1.3c-0.2-0.3-0.6-0.4-1-0.4c-0.4,0-0.8,0.1-1,0.4c-0.2,0.3-0.4,0.7-0.4,1.2
				c0,0.5,0.1,1,0.4,1.3c0.2,0.3,0.6,0.5,1,0.5C209.5,249,209.8,248.8,210,248.5z"/>
			<path fill="#A7BBC4" d="M216.2,245c0.1,0.1,0.1,0.2,0.1,0.3v3.9c0,0.1,0,0.2-0.1,0.3s-0.2,0.1-0.3,0.1c-0.1,0-0.2,0-0.3-0.1
				c-0.1-0.1-0.1-0.1-0.1-0.3v-0.5c-0.1,0.3-0.3,0.5-0.6,0.6c-0.3,0.1-0.5,0.2-0.9,0.2c-0.5,0-0.9-0.1-1.2-0.4
				c-0.3-0.3-0.4-0.7-0.4-1.3v-2.5c0-0.1,0-0.2,0.1-0.3c0.1-0.1,0.2-0.1,0.3-0.1s0.2,0,0.3,0.1c0.1,0.1,0.1,0.2,0.1,0.3v2.5
				c0,0.4,0.1,0.7,0.2,0.9c0.2,0.2,0.4,0.3,0.8,0.3c0.4,0,0.7-0.1,0.9-0.4c0.2-0.3,0.4-0.6,0.4-1v-2.3c0-0.1,0-0.2,0.1-0.3
				c0.1-0.1,0.2-0.1,0.3-0.1C216,244.9,216.1,245,216.2,245z"/>
			<path fill="#A7BBC4" d="M218.4,249.3c-0.3-0.2-0.6-0.5-0.7-0.8c-0.2-0.4-0.3-0.8-0.3-1.2s0.1-0.9,0.3-1.2
				c0.2-0.4,0.4-0.6,0.8-0.8c0.3-0.2,0.7-0.3,1.1-0.3c0.2,0,0.5,0,0.7,0.1c0.2,0.1,0.4,0.2,0.6,0.3c0.1,0.1,0.2,0.1,0.2,0.2
				c0,0.1,0.1,0.1,0.1,0.2c0,0.1,0,0.2-0.1,0.2c0,0.1-0.1,0.1-0.2,0.1c0,0-0.1,0-0.1,0c0,0-0.1,0-0.1-0.1c0,0-0.1,0-0.1,0
				c-0.2-0.1-0.3-0.2-0.5-0.2c-0.1-0.1-0.3-0.1-0.5-0.1c-0.4,0-0.8,0.2-1,0.5c-0.2,0.3-0.4,0.7-0.4,1.3s0.1,1,0.4,1.3
				c0.2,0.3,0.6,0.4,1,0.4c0.2,0,0.4,0,0.5-0.1c0.2-0.1,0.3-0.1,0.5-0.2c0.1,0,0.1-0.1,0.2-0.1c0.1,0,0.1,0,0.2,0
				c0.1,0,0.1,0,0.2,0.1c0,0.1,0.1,0.1,0.1,0.2c0,0.1,0,0.2-0.1,0.2c0,0.1-0.1,0.1-0.2,0.2c-0.2,0.1-0.4,0.2-0.6,0.3
				c-0.2,0.1-0.5,0.1-0.7,0.1C219.1,249.6,218.7,249.5,218.4,249.3z"/>
			<path fill="#A7BBC4" d="M224.5,249.3c0,0.1,0,0.2-0.1,0.2c-0.1,0.1-0.2,0.1-0.3,0.1l-0.2,0c-0.5,0-0.9-0.2-1.1-0.4
				c-0.2-0.3-0.3-0.6-0.3-1.2v-2.3h-0.6c-0.1,0-0.2,0-0.2-0.1c-0.1-0.1-0.1-0.1-0.1-0.2c0-0.1,0-0.2,0.1-0.2
				c0.1-0.1,0.1-0.1,0.2-0.1h0.6v-1c0-0.1,0-0.2,0.1-0.3c0.1-0.1,0.2-0.1,0.3-0.1c0.1,0,0.2,0,0.3,0.1c0.1,0.1,0.1,0.2,0.1,0.3v1h1
				c0.1,0,0.2,0,0.2,0.1c0.1,0.1,0.1,0.1,0.1,0.2c0,0.1,0,0.2-0.1,0.2c-0.1,0.1-0.1,0.1-0.2,0.1h-1v2.4c0,0.3,0.1,0.6,0.2,0.7
				c0.1,0.2,0.3,0.2,0.6,0.3l0.2,0C224.4,249,224.5,249.1,224.5,249.3z"/>
			<path fill="#A7BBC4" d="M233.7,243.1c0.1,0.1,0.1,0.2,0.1,0.3v5.8c0,0.1,0,0.2-0.1,0.3c-0.1,0.1-0.1,0.1-0.3,0.1
				c-0.1,0-0.2,0-0.2-0.1c-0.1-0.1-0.1-0.2-0.1-0.3v-4.7l-2,3.8c-0.1,0.2-0.2,0.3-0.4,0.3c-0.2,0-0.3-0.1-0.4-0.3l-2-3.8v4.7
				c0,0.1,0,0.2-0.1,0.3c-0.1,0.1-0.1,0.1-0.3,0.1c-0.1,0-0.2,0-0.3-0.1c-0.1-0.1-0.1-0.2-0.1-0.3v-5.8c0-0.1,0-0.2,0.1-0.3
				c0.1-0.1,0.2-0.1,0.3-0.1c0.2,0,0.3,0.1,0.4,0.3l2.3,4.5l2.3-4.5c0-0.1,0.1-0.2,0.2-0.2c0.1,0,0.1-0.1,0.2-0.1
				C233.6,243,233.7,243,233.7,243.1z"/>
			<path fill="#A7BBC4" d="M238.9,246.7v2.5c0,0.1,0,0.2-0.1,0.3c-0.1,0.1-0.2,0.1-0.3,0.1c-0.1,0-0.2,0-0.3-0.1s-0.1-0.2-0.1-0.3
				v-0.4c-0.1,0.3-0.3,0.5-0.5,0.6c-0.2,0.1-0.5,0.2-0.8,0.2c-0.3,0-0.6-0.1-0.8-0.2c-0.2-0.1-0.4-0.3-0.6-0.5
				c-0.1-0.2-0.2-0.4-0.2-0.7c0-0.3,0.1-0.6,0.3-0.8c0.2-0.2,0.5-0.3,0.8-0.4c0.4-0.1,0.9-0.1,1.6-0.1h0.2v-0.3
				c0-0.4-0.1-0.6-0.2-0.8c-0.2-0.2-0.4-0.3-0.7-0.3c-0.4,0-0.8,0.1-1.3,0.3c-0.2,0.1-0.3,0.2-0.3,0.2c-0.1,0-0.1,0-0.2-0.1
				c0-0.1-0.1-0.1-0.1-0.2c0-0.1,0-0.2,0.1-0.2c0.1-0.1,0.1-0.1,0.3-0.2c0.2-0.1,0.5-0.2,0.7-0.3s0.5-0.1,0.8-0.1
				C238.3,244.9,238.9,245.5,238.9,246.7z M237.8,248.6c0.2-0.2,0.4-0.6,0.4-1v-0.3H238c-0.5,0-1,0-1.2,0.1c-0.3,0-0.5,0.1-0.6,0.2
				c-0.1,0.1-0.2,0.3-0.2,0.5c0,0.2,0.1,0.4,0.3,0.6c0.2,0.2,0.4,0.2,0.7,0.2C237.2,249,237.5,248.9,237.8,248.6z"/>
			<path fill="#A7BBC4" d="M242.6,249.3c0,0.1,0,0.2-0.1,0.2c-0.1,0.1-0.2,0.1-0.3,0.1l-0.2,0c-0.5,0-0.9-0.2-1.1-0.4
				c-0.2-0.3-0.3-0.6-0.3-1.2v-2.3h-0.6c-0.1,0-0.2,0-0.2-0.1c-0.1-0.1-0.1-0.1-0.1-0.2c0-0.1,0-0.2,0.1-0.2
				c0.1-0.1,0.1-0.1,0.2-0.1h0.6v-1c0-0.1,0-0.2,0.1-0.3c0.1-0.1,0.2-0.1,0.3-0.1c0.1,0,0.2,0,0.3,0.1c0.1,0.1,0.1,0.2,0.1,0.3v1h1
				c0.1,0,0.2,0,0.2,0.1c0.1,0.1,0.1,0.1,0.1,0.2c0,0.1,0,0.2-0.1,0.2c-0.1,0.1-0.1,0.1-0.2,0.1h-1v2.4c0,0.3,0.1,0.6,0.2,0.7
				c0.1,0.2,0.3,0.2,0.6,0.3l0.2,0C242.5,249,242.6,249.1,242.6,249.3z"/>
			<path fill="#A7BBC4" d="M244.1,249.3c-0.3-0.2-0.6-0.5-0.7-0.8c-0.2-0.4-0.3-0.8-0.3-1.2s0.1-0.9,0.3-1.2
				c0.2-0.4,0.4-0.6,0.8-0.8c0.3-0.2,0.7-0.3,1.1-0.3c0.2,0,0.5,0,0.7,0.1c0.2,0.1,0.4,0.2,0.6,0.3c0.1,0.1,0.2,0.1,0.2,0.2
				c0,0.1,0.1,0.1,0.1,0.2c0,0.1,0,0.2-0.1,0.2c0,0.1-0.1,0.1-0.2,0.1c0,0-0.1,0-0.1,0c0,0-0.1,0-0.1-0.1c0,0-0.1,0-0.1,0
				c-0.2-0.1-0.3-0.2-0.5-0.2c-0.1-0.1-0.3-0.1-0.5-0.1c-0.4,0-0.8,0.2-1,0.5c-0.2,0.3-0.4,0.7-0.4,1.3s0.1,1,0.4,1.3s0.6,0.4,1,0.4
				c0.2,0,0.4,0,0.5-0.1c0.2-0.1,0.3-0.1,0.5-0.2c0.1,0,0.1-0.1,0.2-0.1c0.1,0,0.1,0,0.2,0c0.1,0,0.1,0,0.2,0.1
				c0,0.1,0.1,0.1,0.1,0.2c0,0.1,0,0.2-0.1,0.2c0,0.1-0.1,0.1-0.2,0.2c-0.2,0.1-0.4,0.2-0.6,0.3s-0.5,0.1-0.7,0.1
				C244.8,249.6,244.4,249.5,244.1,249.3z"/>
			<path fill="#A7BBC4" d="M251.2,245.4c0.3,0.3,0.4,0.7,0.4,1.3v2.5c0,0.1,0,0.2-0.1,0.3c-0.1,0.1-0.2,0.1-0.3,0.1
				c-0.1,0-0.2,0-0.3-0.1c-0.1-0.1-0.1-0.2-0.1-0.3v-2.5c0-0.4-0.1-0.7-0.2-0.9c-0.2-0.2-0.4-0.3-0.8-0.3c-0.4,0-0.7,0.1-1,0.4
				c-0.2,0.3-0.4,0.6-0.4,1v2.2c0,0.1,0,0.2-0.1,0.3c-0.1,0.1-0.2,0.1-0.3,0.1s-0.2,0-0.3-0.1c-0.1-0.1-0.1-0.2-0.1-0.3v-5.9
				c0-0.1,0-0.2,0.1-0.3c0.1-0.1,0.2-0.1,0.3-0.1c0.1,0,0.2,0,0.3,0.1c0.1,0.1,0.1,0.2,0.1,0.3v2.4c0.1-0.3,0.4-0.5,0.6-0.6
				c0.3-0.1,0.6-0.2,0.9-0.2C250.6,244.9,250.9,245.1,251.2,245.4z"/>
		</g>
		
			<line fill="none" stroke="#489FC4" stroke-width="3" stroke-linecap="round" stroke-miterlimit="10" x1="197.5" y1="201" x2="197.5" y2="232"/>
		
			<line fill="none" stroke="#F8B534" stroke-width="3" stroke-linecap="round" stroke-miterlimit="10" x1="207.5" y1="212" x2="207.5" y2="232"/>
		
			<line fill="none" stroke="#D85F57" stroke-width="3" stroke-linecap="round" stroke-miterlimit="10" x1="219.5" y1="218" x2="219.5" y2="232"/>
		
			<line fill="none" stroke="#1DABA5" stroke-width="3" stroke-linecap="round" stroke-miterlimit="10" x1="231.5" y1="201" x2="231.5" y2="232"/>
		
			<line fill="none" stroke="#A7BBC4" stroke-width="3" stroke-linecap="round" stroke-miterlimit="10" x1="246.5" y1="209" x2="246.5" y2="232"/>
	</g>
	<line fill="none" stroke="#EEF1F3" stroke-miterlimit="10" x1="149.5" y1="180" x2="149.5" y2="273"/>
	<line fill="none" stroke="#EEF1F3" stroke-miterlimit="10" x1="0" y1="271.5" x2="299" y2="271.5"/>
	<line fill="none" stroke="#EEF1F3" stroke-miterlimit="10" x1="0" y1="331.5" x2="299" y2="331.5"/>
	<line fill="none" stroke="#EEF1F3" stroke-miterlimit="10" x1="0" y1="178.5" x2="299" y2="178.5"/>
	<g>
		<path fill="#EEF1F3" d="M297.7,438H2.3c-1.3,0-2.3-1-2.3-2.3V393h300v42.6C300,436.9,299,438,297.7,438z"/>
		<line fill="none" stroke="#FFFFFF" stroke-miterlimit="10" x1="149.5" y1="393" x2="149.5" y2="438"/>
		<g>
			<path fill="#A7BBC4" d="M63.2,420.1c-0.6-0.2-1.1-0.5-1.5-0.8c-0.1-0.1-0.2-0.3-0.2-0.5c0-0.1,0-0.2,0.1-0.3
				c0.1-0.1,0.2-0.1,0.3-0.1c0.1,0,0.2,0.1,0.4,0.2c0.9,0.7,1.8,1,2.9,1c0.8,0,1.4-0.2,1.8-0.5c0.4-0.3,0.6-0.7,0.6-1.3
				c0-0.3-0.1-0.6-0.3-0.8c-0.2-0.2-0.5-0.4-0.8-0.5c-0.3-0.1-0.8-0.2-1.3-0.4c-0.8-0.2-1.4-0.4-1.9-0.6c-0.5-0.2-0.9-0.5-1.2-0.8
				c-0.3-0.4-0.4-0.8-0.4-1.4c0-0.6,0.1-1,0.4-1.5c0.3-0.4,0.7-0.8,1.3-1c0.5-0.2,1.2-0.4,1.8-0.4c0.6,0,1.2,0.1,1.8,0.3
				c0.6,0.2,1,0.5,1.4,0.9c0.1,0.1,0.2,0.3,0.2,0.5c0,0.1,0,0.2-0.1,0.3c-0.1,0.1-0.2,0.1-0.3,0.1c-0.1,0-0.2-0.1-0.4-0.2
				c-0.5-0.4-0.9-0.6-1.3-0.8c-0.4-0.1-0.9-0.2-1.4-0.2c-0.8,0-1.4,0.2-1.8,0.5c-0.4,0.3-0.6,0.8-0.6,1.3c0,0.5,0.2,0.9,0.6,1.1
				c0.4,0.2,0.9,0.5,1.7,0.6c0.8,0.2,1.5,0.4,2,0.6c0.5,0.2,0.9,0.4,1.2,0.8c0.3,0.3,0.5,0.8,0.5,1.4c0,0.5-0.2,1-0.4,1.4
				c-0.3,0.4-0.7,0.7-1.3,1c-0.5,0.2-1.2,0.3-1.9,0.3C64.5,420.4,63.8,420.3,63.2,420.1z"/>
			<path fill="#A7BBC4" d="M76,419.9c0,0.1,0,0.3-0.1,0.4c-0.1,0.1-0.2,0.2-0.4,0.2c-0.1,0-0.2-0.1-0.4-0.2l-3.6-3.1v2.7
				c0,0.2-0.1,0.3-0.2,0.4c-0.1,0.1-0.2,0.1-0.4,0.1c-0.2,0-0.3,0-0.4-0.1c-0.1-0.1-0.2-0.2-0.2-0.4V411c0-0.2,0.1-0.3,0.2-0.4
				c0.1-0.1,0.2-0.1,0.4-0.1c0.2,0,0.3,0,0.4,0.1c0.1,0.1,0.2,0.2,0.2,0.4v5.6l3.3-3c0.1-0.1,0.2-0.2,0.4-0.2s0.3,0.1,0.4,0.2
				c0.1,0.1,0.2,0.2,0.2,0.4c0,0.2-0.1,0.3-0.2,0.4l-2.7,2.4l3,2.6C75.9,419.6,76,419.7,76,419.9z"/>
			<path fill="#A7BBC4" d="M77.3,411.8c-0.1-0.1-0.2-0.3-0.2-0.5c0-0.2,0.1-0.4,0.2-0.5c0.1-0.1,0.3-0.2,0.5-0.2s0.4,0.1,0.5,0.2
				c0.1,0.1,0.2,0.3,0.2,0.5c0,0.2-0.1,0.4-0.2,0.5c-0.1,0.1-0.3,0.2-0.5,0.2S77.5,411.9,77.3,411.8z M77.5,420.2
				c-0.1-0.1-0.2-0.2-0.2-0.4V414c0-0.2,0.1-0.3,0.2-0.4c0.1-0.1,0.2-0.1,0.4-0.1s0.3,0,0.4,0.1c0.1,0.1,0.2,0.2,0.2,0.4v5.8
				c0,0.2-0.1,0.3-0.2,0.4c-0.1,0.1-0.2,0.1-0.4,0.1S77.6,420.3,77.5,420.2z"/>
			<path fill="#A7BBC4" d="M85.4,413.8c0.5,0.3,0.8,0.7,1,1.2c0.2,0.5,0.4,1.1,0.4,1.8c0,0.7-0.1,1.3-0.4,1.8
				c-0.2,0.5-0.6,0.9-1,1.2c-0.4,0.3-1,0.4-1.6,0.4c-0.5,0-1-0.1-1.4-0.3c-0.4-0.2-0.7-0.6-0.9-1v3.3c0,0.2,0,0.3-0.1,0.4
				s-0.2,0.1-0.4,0.1c-0.2,0-0.3-0.1-0.4-0.2c-0.1-0.1-0.2-0.2-0.2-0.4V414c0-0.2,0.1-0.3,0.2-0.4c0.1-0.1,0.2-0.2,0.4-0.2
				c0.2,0,0.3,0.1,0.4,0.2s0.1,0.2,0.1,0.4v0.7c0.2-0.4,0.5-0.8,0.9-1c0.4-0.2,0.8-0.3,1.4-0.3C84.5,413.4,85,413.5,85.4,413.8z
				 M85.2,418.8c0.4-0.4,0.5-1.1,0.5-1.9s-0.2-1.4-0.5-1.9c-0.4-0.5-0.9-0.7-1.5-0.7c-0.7,0-1.2,0.2-1.5,0.7
				c-0.4,0.4-0.5,1.1-0.5,1.9s0.2,1.5,0.5,1.9c0.4,0.4,0.9,0.7,1.5,0.7C84.3,419.5,84.8,419.3,85.2,418.8z"/>
		</g>
		<g>
			<path fill="#3A7D99" d="M193.7,419.8c-0.7-0.4-1.2-1-1.6-1.7c-0.4-0.8-0.5-1.6-0.5-2.7c0-1,0.2-1.9,0.5-2.6
				c0.4-0.8,0.9-1.3,1.6-1.7c0.7-0.4,1.5-0.6,2.4-0.6c0.6,0,1.2,0.1,1.7,0.3c0.5,0.2,1,0.5,1.4,0.9c0.1,0.1,0.2,0.3,0.2,0.5
				c0,0.1,0,0.2-0.1,0.3c-0.1,0.1-0.2,0.1-0.3,0.1c-0.1,0-0.2-0.1-0.4-0.2c-0.5-0.4-0.9-0.6-1.3-0.8c-0.4-0.1-0.8-0.2-1.3-0.2
				c-1.1,0-1.9,0.3-2.5,1c-0.6,0.7-0.9,1.7-0.9,3c0,1.3,0.3,2.3,0.9,3c0.6,0.7,1.4,1,2.5,1c0.5,0,0.9-0.1,1.3-0.2
				c0.4-0.1,0.8-0.4,1.3-0.8c0.2-0.1,0.3-0.2,0.4-0.2c0.1,0,0.2,0,0.3,0.1c0.1,0.1,0.1,0.2,0.1,0.3c0,0.2-0.1,0.3-0.2,0.5
				c-0.4,0.4-0.9,0.7-1.4,0.9c-0.5,0.2-1.1,0.3-1.7,0.3C195.2,420.4,194.4,420.2,193.7,419.8z"/>
			<path fill="#3A7D99" d="M202.1,420c-0.5-0.3-0.9-0.7-1.1-1.2c-0.3-0.5-0.4-1.1-0.4-1.8c0-0.7,0.1-1.3,0.4-1.8
				c0.3-0.5,0.6-0.9,1.1-1.2s1-0.4,1.7-0.4c0.6,0,1.2,0.1,1.7,0.4s0.9,0.7,1.1,1.2c0.3,0.5,0.4,1.1,0.4,1.8c0,0.7-0.1,1.3-0.4,1.8
				c-0.3,0.5-0.6,0.9-1.1,1.2s-1,0.4-1.7,0.4C203.2,420.4,202.6,420.3,202.1,420z M205.3,418.8c0.4-0.4,0.5-1.1,0.5-1.9
				c0-0.8-0.2-1.5-0.5-1.9c-0.4-0.4-0.9-0.7-1.5-0.7s-1.2,0.2-1.5,0.7c-0.4,0.4-0.5,1.1-0.5,1.9c0,0.8,0.2,1.5,0.5,1.9
				s0.9,0.7,1.5,0.7C204.5,419.5,205,419.3,205.3,418.8z"/>
			<path fill="#3A7D99" d="M218.4,416.1v3.7c0,0.2-0.1,0.3-0.2,0.4s-0.2,0.1-0.4,0.1c-0.2,0-0.3,0-0.4-0.1c-0.1-0.1-0.2-0.2-0.2-0.4
				v-3.7c0-0.6-0.1-1.1-0.3-1.3c-0.2-0.3-0.6-0.4-1-0.4c-0.6,0-1,0.2-1.3,0.6c-0.3,0.4-0.5,0.9-0.5,1.5v3.4c0,0.2-0.1,0.3-0.2,0.4
				c-0.1,0.1-0.2,0.1-0.4,0.1c-0.2,0-0.3,0-0.4-0.1s-0.2-0.2-0.2-0.4v-3.7c0-0.6-0.1-1.1-0.3-1.3c-0.2-0.3-0.6-0.4-1-0.4
				c-0.6,0-1,0.2-1.3,0.6s-0.5,0.9-0.5,1.5v3.4c0,0.2-0.1,0.3-0.2,0.4c-0.1,0.1-0.2,0.1-0.4,0.1c-0.2,0-0.3,0-0.4-0.1
				c-0.1-0.1-0.2-0.2-0.2-0.4V414c0-0.2,0.1-0.3,0.2-0.4c0.1-0.1,0.2-0.2,0.4-0.2c0.2,0,0.3,0,0.4,0.1c0.1,0.1,0.2,0.2,0.2,0.4v0.7
				c0.2-0.4,0.5-0.7,0.8-0.9c0.4-0.2,0.8-0.3,1.2-0.3c1,0,1.7,0.4,2.1,1.3c0.2-0.4,0.5-0.7,0.9-1s0.8-0.4,1.4-0.4
				C217.6,413.4,218.4,414.3,218.4,416.1z"/>
			<path fill="#3A7D99" d="M225.4,413.8c0.5,0.3,0.8,0.7,1,1.2c0.2,0.5,0.4,1.1,0.4,1.8c0,0.7-0.1,1.3-0.4,1.8
				c-0.2,0.5-0.6,0.9-1,1.2c-0.4,0.3-1,0.4-1.6,0.4c-0.5,0-1-0.1-1.4-0.3c-0.4-0.2-0.7-0.6-0.9-1v3.3c0,0.2,0,0.3-0.1,0.4
				c-0.1,0.1-0.2,0.1-0.4,0.1c-0.2,0-0.3-0.1-0.4-0.2s-0.2-0.2-0.2-0.4V414c0-0.2,0.1-0.3,0.2-0.4s0.2-0.2,0.4-0.2
				c0.2,0,0.3,0.1,0.4,0.2c0.1,0.1,0.1,0.2,0.1,0.4v0.7c0.2-0.4,0.5-0.8,0.9-1c0.4-0.2,0.8-0.3,1.4-0.3
				C224.4,413.4,224.9,413.5,225.4,413.8z M225.1,418.8c0.4-0.4,0.5-1.1,0.5-1.9s-0.2-1.4-0.5-1.9c-0.4-0.5-0.9-0.7-1.5-0.7
				c-0.7,0-1.2,0.2-1.5,0.7c-0.4,0.4-0.5,1.1-0.5,1.9s0.2,1.5,0.5,1.9c0.4,0.4,0.9,0.7,1.5,0.7C224.3,419.5,224.8,419.3,225.1,418.8
				z"/>
			<path fill="#3A7D99" d="M228.6,420.2c-0.1-0.1-0.2-0.2-0.2-0.4V411c0-0.2,0.1-0.3,0.2-0.4c0.1-0.1,0.2-0.1,0.4-0.1
				c0.2,0,0.3,0,0.4,0.1s0.2,0.2,0.2,0.4v8.8c0,0.2-0.1,0.3-0.2,0.4s-0.2,0.1-0.4,0.1C228.9,420.4,228.7,420.3,228.6,420.2z"/>
			<path fill="#3A7D99" d="M237.1,418.9c0.1,0.1,0.1,0.2,0.1,0.3c0,0.2-0.2,0.4-0.5,0.6c-0.3,0.2-0.7,0.3-1,0.4
				c-0.4,0.1-0.7,0.1-1.1,0.1c-1,0-1.9-0.3-2.5-0.9c-0.6-0.6-0.9-1.5-0.9-2.6c0-0.7,0.1-1.3,0.4-1.8c0.3-0.5,0.6-0.9,1.1-1.2
				c0.5-0.3,1-0.4,1.7-0.4c0.9,0,1.6,0.3,2.1,0.9c0.5,0.6,0.8,1.3,0.8,2.3c0,0.2,0,0.3-0.1,0.4c-0.1,0.1-0.2,0.1-0.4,0.1h-4.4
				c0.1,1.6,0.8,2.4,2.3,2.4c0.4,0,0.7,0,0.9-0.1s0.5-0.2,0.8-0.4c0.2-0.1,0.4-0.2,0.5-0.2C237,418.7,237.1,418.8,237.1,418.9z
				 M233,414.8c-0.4,0.4-0.6,0.9-0.6,1.6h3.9c0-0.7-0.2-1.2-0.5-1.6c-0.3-0.4-0.8-0.5-1.4-0.5C233.9,414.3,233.4,414.5,233,414.8z"
				/>
			<path fill="#3A7D99" d="M242.5,419.9c0,0.2-0.1,0.3-0.2,0.4c-0.1,0.1-0.3,0.1-0.5,0.1l-0.4,0c-0.7-0.1-1.3-0.3-1.6-0.7
				c-0.4-0.4-0.5-1-0.5-1.8v-3.5h-0.9c-0.2,0-0.3,0-0.4-0.1c-0.1-0.1-0.1-0.2-0.1-0.3c0-0.1,0-0.2,0.1-0.3c0.1-0.1,0.2-0.1,0.4-0.1
				h0.9V412c0-0.2,0.1-0.3,0.2-0.4c0.1-0.1,0.2-0.1,0.4-0.1c0.2,0,0.3,0,0.4,0.1s0.2,0.2,0.2,0.4v1.6h1.5c0.1,0,0.3,0,0.4,0.1
				c0.1,0.1,0.1,0.2,0.1,0.3c0,0.1,0,0.2-0.1,0.3c-0.1,0.1-0.2,0.1-0.4,0.1h-1.5v3.5c0,0.5,0.1,0.9,0.3,1.1c0.2,0.2,0.5,0.4,0.9,0.4
				l0.4,0C242.3,419.5,242.5,419.7,242.5,419.9z"/>
			<path fill="#3A7D99" d="M249.1,418.9c0.1,0.1,0.1,0.2,0.1,0.3c0,0.2-0.2,0.4-0.5,0.6c-0.3,0.2-0.7,0.3-1,0.4
				c-0.4,0.1-0.7,0.1-1.1,0.1c-1,0-1.9-0.3-2.5-0.9c-0.6-0.6-0.9-1.5-0.9-2.6c0-0.7,0.1-1.3,0.4-1.8c0.3-0.5,0.6-0.9,1.1-1.2
				c0.5-0.3,1-0.4,1.7-0.4c0.9,0,1.6,0.3,2.1,0.9c0.5,0.6,0.8,1.3,0.8,2.3c0,0.2,0,0.3-0.1,0.4c-0.1,0.1-0.2,0.1-0.4,0.1h-4.4
				c0.1,1.6,0.8,2.4,2.3,2.4c0.4,0,0.7,0,0.9-0.1s0.5-0.2,0.8-0.4c0.2-0.1,0.4-0.2,0.5-0.2C248.9,418.7,249,418.8,249.1,418.9z
				 M245,414.8c-0.4,0.4-0.6,0.9-0.6,1.6h3.9c0-0.7-0.2-1.2-0.5-1.6c-0.3-0.4-0.8-0.5-1.4-0.5C245.8,414.3,245.3,414.5,245,414.8z"
				/>
		</g>
	</g>
	<g>
		<path fill="#A7BBC4" d="M17.1,294.7c-0.4-0.3-0.8-0.7-1-1.2c-0.2-0.5-0.4-1.1-0.4-1.8c0-0.7,0.1-1.3,0.4-1.8
			c0.2-0.5,0.6-0.9,1-1.2c0.4-0.3,1-0.4,1.6-0.4c0.4,0,0.8,0.1,1.2,0.2c0.4,0.1,0.7,0.3,1,0.6c0.1,0.1,0.1,0.2,0.1,0.3
			c0,0.1,0,0.2-0.1,0.2c0,0.1-0.1,0.1-0.2,0.1c-0.1,0-0.2,0-0.3-0.1c-0.3-0.2-0.6-0.4-0.9-0.5c-0.3-0.1-0.5-0.1-0.9-0.1
			c-0.7,0-1.3,0.2-1.6,0.7c-0.4,0.5-0.6,1.1-0.6,2c0,0.9,0.2,1.5,0.6,2c0.4,0.5,0.9,0.7,1.6,0.7c0.3,0,0.6,0,0.9-0.1
			c0.3-0.1,0.5-0.3,0.9-0.5c0.1-0.1,0.2-0.1,0.3-0.1c0.1,0,0.1,0,0.2,0.1c0,0.1,0.1,0.1,0.1,0.2c0,0.1,0,0.2-0.1,0.3
			c-0.3,0.2-0.6,0.4-1,0.6c-0.4,0.1-0.8,0.2-1.2,0.2C18.1,295.1,17.6,294.9,17.1,294.7z"/>
		<path fill="#A7BBC4" d="M25.7,294c0,0.1,0.1,0.1,0.1,0.2c0,0.2-0.1,0.3-0.3,0.4c-0.2,0.1-0.5,0.2-0.7,0.3
			c-0.2,0.1-0.5,0.1-0.7,0.1c-0.7,0-1.2-0.2-1.6-0.6c-0.4-0.4-0.6-1-0.6-1.7c0-0.5,0.1-0.9,0.3-1.2c0.2-0.4,0.4-0.6,0.8-0.8
			c0.3-0.2,0.7-0.3,1.1-0.3c0.6,0,1,0.2,1.4,0.6c0.3,0.4,0.5,0.9,0.5,1.5c0,0.1,0,0.2-0.1,0.3c0,0.1-0.1,0.1-0.2,0.1h-3
			c0.1,1.1,0.6,1.6,1.5,1.6c0.2,0,0.4,0,0.6-0.1c0.2-0.1,0.4-0.2,0.6-0.3c0.2-0.1,0.3-0.1,0.3-0.1C25.5,294,25.6,294,25.7,294z
			 M22.9,291.3c-0.2,0.2-0.4,0.6-0.4,1h2.6c0-0.5-0.1-0.8-0.3-1c-0.2-0.2-0.5-0.4-0.9-0.4C23.5,291,23.2,291.1,22.9,291.3z"/>
		<path fill="#A7BBC4" d="M30.7,292.2v2.5c0,0.1,0,0.2-0.1,0.3c-0.1,0.1-0.2,0.1-0.3,0.1c-0.1,0-0.2,0-0.3-0.1
			c-0.1-0.1-0.1-0.2-0.1-0.3v-2.5c0-0.4-0.1-0.7-0.2-0.9c-0.2-0.2-0.4-0.3-0.8-0.3c-0.4,0-0.7,0.1-1,0.4c-0.2,0.3-0.4,0.6-0.4,1v2.2
			c0,0.1,0,0.2-0.1,0.3c-0.1,0.1-0.2,0.1-0.3,0.1c-0.1,0-0.2,0-0.3-0.1c-0.1-0.1-0.1-0.2-0.1-0.3v-3.9c0-0.1,0-0.2,0.1-0.3
			c0.1-0.1,0.2-0.1,0.3-0.1c0.1,0,0.2,0,0.3,0.1c0.1,0.1,0.1,0.2,0.1,0.3v0.5c0.1-0.3,0.4-0.5,0.6-0.6c0.3-0.1,0.6-0.2,0.9-0.2
			C30.2,290.4,30.7,291,30.7,292.2z"/>
		<path fill="#A7BBC4" d="M34.5,294.7c0,0.1,0,0.2-0.1,0.2c-0.1,0.1-0.2,0.1-0.3,0.1l-0.2,0c-0.5,0-0.9-0.2-1.1-0.4
			c-0.2-0.3-0.3-0.6-0.3-1.2v-2.3h-0.6c-0.1,0-0.2,0-0.2-0.1c-0.1-0.1-0.1-0.1-0.1-0.2c0-0.1,0-0.2,0.1-0.2c0.1-0.1,0.1-0.1,0.2-0.1
			h0.6v-1c0-0.1,0-0.2,0.1-0.3s0.2-0.1,0.3-0.1c0.1,0,0.2,0,0.3,0.1s0.1,0.2,0.1,0.3v1h1c0.1,0,0.2,0,0.2,0.1
			c0.1,0.1,0.1,0.1,0.1,0.2c0,0.1,0,0.2-0.1,0.2c-0.1,0.1-0.1,0.1-0.2,0.1h-1v2.4c0,0.3,0.1,0.6,0.2,0.7c0.1,0.2,0.3,0.2,0.6,0.3
			l0.2,0C34.4,294.5,34.5,294.6,34.5,294.7z"/>
		<path fill="#A7BBC4" d="M38.9,294c0,0.1,0.1,0.1,0.1,0.2c0,0.2-0.1,0.3-0.3,0.4c-0.2,0.1-0.5,0.2-0.7,0.3
			c-0.2,0.1-0.5,0.1-0.7,0.1c-0.7,0-1.2-0.2-1.6-0.6c-0.4-0.4-0.6-1-0.6-1.7c0-0.5,0.1-0.9,0.3-1.2c0.2-0.4,0.4-0.6,0.8-0.8
			c0.3-0.2,0.7-0.3,1.1-0.3c0.6,0,1,0.2,1.4,0.6c0.3,0.4,0.5,0.9,0.5,1.5c0,0.1,0,0.2-0.1,0.3c0,0.1-0.1,0.1-0.2,0.1h-3
			c0.1,1.1,0.6,1.6,1.5,1.6c0.2,0,0.4,0,0.6-0.1c0.2-0.1,0.4-0.2,0.6-0.3c0.2-0.1,0.3-0.1,0.3-0.1C38.8,294,38.8,294,38.9,294z
			 M36.1,291.3c-0.2,0.2-0.4,0.6-0.4,1h2.6c0-0.5-0.1-0.8-0.3-1c-0.2-0.2-0.5-0.4-0.9-0.4C36.7,291,36.4,291.1,36.1,291.3z"/>
		<path fill="#A7BBC4" d="M42.7,290.7c0,0.1,0,0.2-0.1,0.2c-0.1,0.1-0.2,0.1-0.3,0.1l-0.3,0c-0.4,0-0.7,0.2-0.9,0.4
			c-0.2,0.3-0.3,0.6-0.3,0.9v2.2c0,0.1,0,0.2-0.1,0.3c-0.1,0.1-0.2,0.1-0.3,0.1c-0.1,0-0.2,0-0.3-0.1c-0.1-0.1-0.1-0.2-0.1-0.3v-3.9
			c0-0.1,0-0.2,0.1-0.3c0.1-0.1,0.2-0.1,0.3-0.1c0.1,0,0.2,0,0.2,0.1c0.1,0.1,0.1,0.2,0.1,0.3v0.5c0.1-0.3,0.3-0.5,0.5-0.6
			s0.5-0.2,0.8-0.2l0.1,0C42.5,290.4,42.7,290.5,42.7,290.7z"/>
		<path fill="#A7BBC4" d="M46.4,294.8c-0.3-0.2-0.6-0.5-0.7-0.8c-0.2-0.4-0.3-0.8-0.3-1.2s0.1-0.9,0.3-1.2c0.2-0.4,0.4-0.6,0.7-0.8
			s0.7-0.3,1.1-0.3c0.4,0,0.8,0.1,1.1,0.3c0.3,0.2,0.6,0.5,0.7,0.8c0.2,0.4,0.3,0.8,0.3,1.2s-0.1,0.9-0.3,1.2
			c-0.2,0.4-0.4,0.6-0.7,0.8c-0.3,0.2-0.7,0.3-1.1,0.3C47.1,295.1,46.8,295,46.4,294.8z M48.6,294c0.2-0.3,0.4-0.7,0.4-1.3
			c0-0.5-0.1-1-0.4-1.3c-0.2-0.3-0.6-0.4-1-0.4c-0.4,0-0.8,0.1-1,0.4c-0.2,0.3-0.4,0.7-0.4,1.3c0,0.6,0.1,1,0.4,1.3
			c0.2,0.3,0.6,0.4,1,0.4C48,294.4,48.3,294.3,48.6,294z"/>
		<path fill="#A7BBC4" d="M52,289.4c-0.2,0.2-0.2,0.5-0.2,0.8v0.3h1c0.1,0,0.2,0,0.2,0.1c0.1,0.1,0.1,0.1,0.1,0.2
			c0,0.1,0,0.2-0.1,0.2c-0.1,0-0.1,0.1-0.2,0.1h-1v3.6c0,0.1,0,0.2-0.1,0.3c-0.1,0.1-0.2,0.1-0.3,0.1c-0.1,0-0.2,0-0.3-0.1
			c-0.1-0.1-0.1-0.2-0.1-0.3v-3.6h-0.6c-0.1,0-0.2,0-0.2-0.1c-0.1-0.1-0.1-0.1-0.1-0.2c0-0.1,0-0.2,0.1-0.2c0.1-0.1,0.1-0.1,0.2-0.1
			H51v-0.2c0-0.6,0.1-1,0.4-1.3c0.3-0.3,0.7-0.5,1.2-0.5l0.2,0c0.2,0,0.3,0,0.3,0c0.1,0,0.1,0.1,0.1,0.2c0,0.2-0.1,0.3-0.3,0.3
			l-0.2,0C52.4,289.1,52.2,289.2,52,289.4z"/>
		<path fill="#A7BBC4" d="M56.4,294.9c-0.1-0.1-0.1-0.2-0.1-0.3v-5.8c0-0.1,0-0.2,0.1-0.3c0.1-0.1,0.2-0.1,0.3-0.1
			c0.1,0,0.2,0,0.3,0.1c0.1,0.1,0.1,0.2,0.1,0.3v5.8c0,0.1,0,0.2-0.1,0.3c-0.1,0.1-0.2,0.1-0.3,0.1C56.6,295,56.5,295,56.4,294.9z"
			/>
		<path fill="#A7BBC4" d="M62.4,292.2v2.5c0,0.1,0,0.2-0.1,0.3c-0.1,0.1-0.2,0.1-0.3,0.1c-0.1,0-0.2,0-0.3-0.1
			c-0.1-0.1-0.1-0.2-0.1-0.3v-2.5c0-0.4-0.1-0.7-0.2-0.9c-0.2-0.2-0.4-0.3-0.8-0.3c-0.4,0-0.7,0.1-1,0.4c-0.2,0.3-0.4,0.6-0.4,1v2.2
			c0,0.1,0,0.2-0.1,0.3c-0.1,0.1-0.2,0.1-0.3,0.1s-0.2,0-0.3-0.1c-0.1-0.1-0.1-0.2-0.1-0.3v-3.9c0-0.1,0-0.2,0.1-0.3
			c0.1-0.1,0.2-0.1,0.3-0.1c0.1,0,0.2,0,0.3,0.1c0.1,0.1,0.1,0.2,0.1,0.3v0.5c0.1-0.3,0.4-0.5,0.6-0.6c0.3-0.1,0.6-0.2,0.9-0.2
			C61.9,290.4,62.4,291,62.4,292.2z"/>
		<path fill="#A7BBC4" d="M65,289.4c-0.2,0.2-0.2,0.5-0.2,0.8v0.3h1c0.1,0,0.2,0,0.2,0.1c0.1,0.1,0.1,0.1,0.1,0.2
			c0,0.1,0,0.2-0.1,0.2c-0.1,0-0.1,0.1-0.2,0.1h-1v3.6c0,0.1,0,0.2-0.1,0.3c-0.1,0.1-0.2,0.1-0.3,0.1c-0.1,0-0.2,0-0.3-0.1
			c-0.1-0.1-0.1-0.2-0.1-0.3v-3.6h-0.6c-0.1,0-0.2,0-0.2-0.1c-0.1-0.1-0.1-0.1-0.1-0.2c0-0.1,0-0.2,0.1-0.2c0.1-0.1,0.1-0.1,0.2-0.1
			H64v-0.2c0-0.6,0.1-1,0.4-1.3c0.3-0.3,0.7-0.5,1.2-0.5l0.2,0c0.2,0,0.3,0,0.3,0c0.1,0,0.1,0.1,0.1,0.2c0,0.2-0.1,0.3-0.3,0.3
			l-0.2,0C65.4,289.1,65.2,289.2,65,289.4z M66.9,294.9c-0.1-0.1-0.1-0.2-0.1-0.3v-5.9c0-0.1,0-0.2,0.1-0.3c0.1-0.1,0.2-0.1,0.3-0.1
			c0.1,0,0.2,0,0.3,0.1c0.1,0.1,0.1,0.2,0.1,0.3v5.9c0,0.1,0,0.2-0.1,0.3c-0.1,0.1-0.2,0.1-0.3,0.1C67.1,295,67,295,66.9,294.9z"/>
		<path fill="#A7BBC4" d="M72.6,290.5c0.1,0.1,0.1,0.2,0.1,0.3v3.9c0,0.1,0,0.2-0.1,0.3c-0.1,0.1-0.2,0.1-0.3,0.1
			c-0.1,0-0.2,0-0.3-0.1c-0.1-0.1-0.1-0.1-0.1-0.3v-0.5c-0.1,0.3-0.3,0.5-0.6,0.6c-0.3,0.1-0.5,0.2-0.9,0.2c-0.5,0-0.9-0.1-1.2-0.4
			c-0.3-0.3-0.4-0.7-0.4-1.3v-2.5c0-0.1,0-0.2,0.1-0.3c0.1-0.1,0.2-0.1,0.3-0.1c0.1,0,0.2,0,0.3,0.1c0.1,0.1,0.1,0.2,0.1,0.3v2.5
			c0,0.4,0.1,0.7,0.2,0.9c0.2,0.2,0.4,0.3,0.8,0.3c0.4,0,0.7-0.1,0.9-0.4c0.2-0.3,0.4-0.6,0.4-1v-2.3c0-0.1,0-0.2,0.1-0.3
			c0.1-0.1,0.2-0.1,0.3-0.1C72.5,290.4,72.5,290.4,72.6,290.5z"/>
		<path fill="#A7BBC4" d="M77.7,294c0,0.1,0.1,0.1,0.1,0.2c0,0.2-0.1,0.3-0.3,0.4c-0.2,0.1-0.5,0.2-0.7,0.3
			c-0.2,0.1-0.5,0.1-0.7,0.1c-0.7,0-1.2-0.2-1.6-0.6c-0.4-0.4-0.6-1-0.6-1.7c0-0.5,0.1-0.9,0.3-1.2c0.2-0.4,0.4-0.6,0.8-0.8
			c0.3-0.2,0.7-0.3,1.1-0.3c0.6,0,1,0.2,1.4,0.6c0.3,0.4,0.5,0.9,0.5,1.5c0,0.1,0,0.2-0.1,0.3c0,0.1-0.1,0.1-0.2,0.1h-3
			c0.1,1.1,0.6,1.6,1.5,1.6c0.2,0,0.4,0,0.6-0.1c0.2-0.1,0.4-0.2,0.6-0.3c0.2-0.1,0.3-0.1,0.3-0.1C77.6,294,77.7,294,77.7,294z
			 M75,291.3c-0.2,0.2-0.4,0.6-0.4,1h2.6c0-0.5-0.1-0.8-0.3-1c-0.2-0.2-0.5-0.4-0.9-0.4C75.6,291,75.2,291.1,75,291.3z"/>
		<path fill="#A7BBC4" d="M82.8,292.2v2.5c0,0.1,0,0.2-0.1,0.3c-0.1,0.1-0.2,0.1-0.3,0.1c-0.1,0-0.2,0-0.3-0.1
			c-0.1-0.1-0.1-0.2-0.1-0.3v-2.5c0-0.4-0.1-0.7-0.2-0.9c-0.2-0.2-0.4-0.3-0.8-0.3c-0.4,0-0.7,0.1-1,0.4c-0.2,0.3-0.4,0.6-0.4,1v2.2
			c0,0.1,0,0.2-0.1,0.3c-0.1,0.1-0.2,0.1-0.3,0.1s-0.2,0-0.3-0.1c-0.1-0.1-0.1-0.2-0.1-0.3v-3.9c0-0.1,0-0.2,0.1-0.3
			c0.1-0.1,0.2-0.1,0.3-0.1c0.1,0,0.2,0,0.3,0.1c0.1,0.1,0.1,0.2,0.1,0.3v0.5c0.1-0.3,0.4-0.5,0.6-0.6c0.3-0.1,0.6-0.2,0.9-0.2
			C82.3,290.4,82.8,291,82.8,292.2z"/>
		<path fill="#A7BBC4" d="M84.9,294.8c-0.3-0.2-0.6-0.5-0.7-0.8c-0.2-0.4-0.3-0.8-0.3-1.2c0-0.5,0.1-0.9,0.3-1.2
			c0.2-0.4,0.4-0.6,0.8-0.8c0.3-0.2,0.7-0.3,1.1-0.3c0.2,0,0.5,0,0.7,0.1c0.2,0.1,0.4,0.2,0.6,0.3c0.1,0.1,0.2,0.1,0.2,0.2
			c0,0.1,0.1,0.1,0.1,0.2c0,0.1,0,0.2-0.1,0.2c0,0.1-0.1,0.1-0.2,0.1c0,0-0.1,0-0.1,0c0,0-0.1,0-0.1-0.1c0,0-0.1,0-0.1,0
			c-0.2-0.1-0.3-0.2-0.5-0.2c-0.1-0.1-0.3-0.1-0.5-0.1c-0.4,0-0.8,0.2-1,0.5c-0.2,0.3-0.4,0.7-0.4,1.3c0,0.5,0.1,1,0.4,1.3
			c0.2,0.3,0.6,0.4,1,0.4c0.2,0,0.4,0,0.5-0.1c0.2-0.1,0.3-0.1,0.5-0.2c0.1,0,0.1-0.1,0.2-0.1c0.1,0,0.1,0,0.2,0
			c0.1,0,0.1,0,0.2,0.1s0.1,0.1,0.1,0.2c0,0.1,0,0.2-0.1,0.2c0,0.1-0.1,0.1-0.2,0.2c-0.2,0.1-0.4,0.2-0.6,0.3
			c-0.2,0.1-0.5,0.1-0.7,0.1C85.6,295.1,85.2,295,84.9,294.8z"/>
		<path fill="#A7BBC4" d="M92.2,294c0,0.1,0.1,0.1,0.1,0.2c0,0.2-0.1,0.3-0.3,0.4c-0.2,0.1-0.5,0.2-0.7,0.3
			c-0.2,0.1-0.5,0.1-0.7,0.1c-0.7,0-1.2-0.2-1.6-0.6c-0.4-0.4-0.6-1-0.6-1.7c0-0.5,0.1-0.9,0.3-1.2c0.2-0.4,0.4-0.6,0.8-0.8
			c0.3-0.2,0.7-0.3,1.1-0.3c0.6,0,1,0.2,1.4,0.6c0.3,0.4,0.5,0.9,0.5,1.5c0,0.1,0,0.2-0.1,0.3c0,0.1-0.1,0.1-0.2,0.1h-3
			c0.1,1.1,0.6,1.6,1.5,1.6c0.2,0,0.4,0,0.6-0.1c0.2-0.1,0.4-0.2,0.6-0.3c0.2-0.1,0.3-0.1,0.3-0.1C92.1,294,92.2,294,92.2,294z
			 M89.5,291.3c-0.2,0.2-0.4,0.6-0.4,1h2.6c0-0.5-0.1-0.8-0.3-1c-0.2-0.2-0.5-0.4-0.9-0.4C90.1,291,89.7,291.1,89.5,291.3z"/>
		<path fill="#3A7D99" d="M27.6,305.8c0,1.3-0.3,2.5-0.9,3.8c-0.6,1.3-1.6,2.3-2.7,3.1c-1.3,0.8-2.7,1.3-4.4,1.3
			c-1.6,0-3-0.4-4.3-1.3c0.2,0,0.4,0,0.7,0c1.3,0,2.5-0.4,3.5-1.2c-0.6,0-1.2-0.2-1.7-0.6c-0.5-0.4-0.8-0.8-1-1.4c0.2,0,0.4,0,0.5,0
			c0.3,0,0.5,0,0.8-0.1c-0.6-0.1-1.2-0.5-1.6-1c-0.4-0.5-0.6-1.1-0.6-1.8v-0.1c0.4,0.2,0.8,0.4,1.3,0.4c-0.4-0.3-0.7-0.6-0.9-1
			c-0.2-0.4-0.4-0.9-0.4-1.4s0.1-1,0.4-1.4c0.7,0.9,1.6,1.6,2.6,2.1s2.1,0.8,3.2,0.9c0-0.2-0.1-0.4-0.1-0.6c0-0.5,0.1-1,0.4-1.4
			s0.6-0.8,1-1c0.4-0.3,0.9-0.4,1.4-0.4c0.4,0,0.8,0.1,1.1,0.2s0.7,0.4,0.9,0.6c0.6-0.1,1.2-0.4,1.8-0.7c-0.2,0.7-0.6,1.2-1.2,1.6
			c0.5-0.1,1.1-0.2,1.6-0.5c-0.4,0.6-0.9,1.1-1.4,1.5C27.6,305.5,27.6,305.6,27.6,305.8z"/>
		<path fill="#0F2026" d="M39.3,309.3c0.3,0.4,0.5,0.9,0.5,1.5c0,0.8-0.3,1.5-0.9,2c-0.6,0.5-1.3,0.7-2.3,0.7
			c-0.6,0-1.2-0.1-1.7-0.3c-0.5-0.2-1-0.5-1.4-0.8c-0.1-0.1-0.2-0.3-0.2-0.5c0-0.1,0-0.3,0.1-0.3c0.1-0.1,0.2-0.1,0.3-0.1
			c0.1,0,0.3,0.1,0.4,0.2c0.4,0.3,0.8,0.6,1.2,0.7c0.4,0.2,0.8,0.2,1.3,0.2c0.7,0,1.2-0.2,1.6-0.5c0.4-0.3,0.5-0.8,0.5-1.4
			c0-1.2-0.7-1.8-2.2-1.8h-0.7c-0.1,0-0.3,0-0.4-0.1c-0.1-0.1-0.1-0.2-0.1-0.3c0-0.1,0-0.2,0.1-0.3c0.1-0.1,0.2-0.1,0.4-0.1h0.5
			c0.7,0,1.3-0.2,1.7-0.5c0.4-0.3,0.6-0.8,0.6-1.4c0-0.5-0.2-0.9-0.5-1.2c-0.3-0.3-0.8-0.4-1.3-0.4c-0.4,0-0.9,0.1-1.3,0.2
			c-0.4,0.2-0.8,0.4-1.2,0.7c-0.1,0.1-0.3,0.2-0.4,0.2c-0.1,0-0.2,0-0.3-0.1c-0.1-0.1-0.1-0.2-0.1-0.3c0-0.2,0.1-0.3,0.2-0.5
			c0.4-0.4,0.8-0.6,1.4-0.8c0.5-0.2,1.1-0.3,1.7-0.3c0.9,0,1.6,0.2,2.1,0.7c0.5,0.4,0.8,1,0.8,1.8c0,0.6-0.1,1.1-0.4,1.5
			c-0.3,0.4-0.7,0.7-1.2,0.9C38.6,308.6,39,308.9,39.3,309.3z"/>
		<path fill="#0F2026" d="M47,307.7c0.5,0.3,0.8,0.6,1.1,1.1s0.4,1,0.4,1.6c0,0.6-0.1,1.1-0.4,1.6c-0.3,0.5-0.6,0.9-1.1,1.1
			s-1,0.4-1.6,0.4c-1.2,0-2.1-0.4-2.7-1.2c-0.6-0.8-1-2-1-3.5c0-1.1,0.1-2,0.4-2.8s0.7-1.4,1.3-1.8c0.6-0.4,1.2-0.6,2-0.6
			c0.5,0,1,0.1,1.6,0.3c0.5,0.2,1,0.5,1.3,0.8c0.2,0.1,0.2,0.3,0.2,0.5c0,0.1,0,0.3-0.1,0.3c-0.1,0.1-0.2,0.1-0.3,0.1
			c-0.1,0-0.3-0.1-0.4-0.2c-0.8-0.7-1.6-1-2.3-1c-0.8,0-1.5,0.4-1.9,1.1c-0.5,0.7-0.7,1.8-0.7,3.1v0.2c0.2-0.5,0.6-0.9,1-1.2
			c0.5-0.3,1-0.4,1.6-0.4C46,307.3,46.5,307.4,47,307.7z M46.7,312c0.4-0.4,0.6-0.9,0.6-1.6c0-0.7-0.2-1.2-0.6-1.6
			c-0.4-0.4-0.9-0.6-1.5-0.6c-0.6,0-1.2,0.2-1.6,0.6c-0.4,0.4-0.6,0.9-0.6,1.6c0,0.6,0.2,1.2,0.6,1.6s0.9,0.6,1.6,0.6
			C45.9,312.6,46.4,312.4,46.7,312z"/>
		<path fill="#0F2026" d="M55.2,307.7c0.5,0.3,0.8,0.6,1.1,1.1c0.3,0.5,0.4,1,0.4,1.6s-0.1,1.2-0.4,1.6c-0.3,0.5-0.7,0.8-1.2,1.1
			c-0.5,0.3-1.1,0.4-1.7,0.4c-0.6,0-1.1-0.1-1.7-0.3c-0.5-0.2-1-0.5-1.4-0.8c-0.1-0.1-0.2-0.3-0.2-0.5c0-0.1,0-0.3,0.1-0.3
			c0.1-0.1,0.2-0.1,0.3-0.1c0.1,0,0.3,0.1,0.4,0.2c0.4,0.3,0.8,0.6,1.2,0.7c0.4,0.2,0.8,0.2,1.3,0.2c0.7,0,1.2-0.2,1.6-0.6
			c0.4-0.4,0.6-0.9,0.6-1.6c0-0.6-0.2-1.2-0.6-1.6c-0.4-0.4-0.9-0.6-1.6-0.6c-0.8,0-1.5,0.3-2,1c-0.1,0.1-0.3,0.2-0.5,0.2
			c-0.1,0-0.2,0-0.3-0.1c-0.1-0.1-0.1-0.2-0.1-0.3v-4.8c0-0.2,0-0.3,0.1-0.4c0.1-0.1,0.2-0.2,0.4-0.2h4.9c0.2,0,0.3,0,0.4,0.1
			c0.1,0.1,0.1,0.2,0.1,0.3c0,0.1,0,0.3-0.1,0.3c-0.1,0.1-0.2,0.1-0.4,0.1h-4.3v3.5c0.3-0.2,0.6-0.4,0.9-0.6
			c0.3-0.1,0.7-0.2,1.1-0.2C54.2,307.3,54.8,307.5,55.2,307.7z"/>
		<path fill="#A7BBC4" d="M58,314.2c-0.1,0.1-0.2,0.1-0.3,0.1c-0.1,0-0.2,0-0.3-0.1c-0.1-0.1-0.2-0.2-0.2-0.3c0-0.1,0-0.1,0-0.2
			l3.3-10.2c0-0.1,0.1-0.2,0.2-0.3c0.1-0.1,0.2-0.1,0.3-0.1c0.1,0,0.2,0,0.3,0.1c0.1,0.1,0.2,0.2,0.2,0.4c0,0,0,0.1,0,0.2l-3.3,10.2
			C58.1,314.1,58.1,314.1,58,314.2z"/>
		<path fill="#A7BBC4" d="M68.5,309.3c0.3,0.4,0.5,0.9,0.5,1.5c0,0.8-0.3,1.5-0.9,2c-0.6,0.5-1.5,0.7-2.6,0.7c-1.1,0-2-0.2-2.6-0.7
			c-0.6-0.5-0.9-1.1-0.9-2c0-0.6,0.2-1.1,0.5-1.5c0.3-0.4,0.8-0.7,1.3-0.9c-0.5-0.2-0.9-0.5-1.2-0.9c-0.3-0.4-0.4-0.9-0.4-1.4
			c0-0.8,0.3-1.4,0.9-1.9c0.6-0.5,1.4-0.7,2.4-0.7c1,0,1.8,0.2,2.4,0.7c0.6,0.5,0.9,1.1,0.9,1.9c0,0.5-0.1,1-0.4,1.4
			c-0.3,0.4-0.7,0.7-1.1,0.9C67.7,308.6,68.1,308.9,68.5,309.3z M67.8,310.8c0-1.2-0.8-1.8-2.4-1.8c-1.6,0-2.4,0.6-2.4,1.8
			c0,1.2,0.8,1.8,2.4,1.8C67,312.6,67.8,312,67.8,310.8z M63.8,307.6c0.4,0.3,0.9,0.5,1.6,0.5c0.7,0,1.2-0.2,1.6-0.5
			c0.4-0.3,0.5-0.7,0.5-1.3c0-0.5-0.2-1-0.5-1.3c-0.4-0.3-0.9-0.5-1.6-0.5c-0.7,0-1.2,0.2-1.6,0.5c-0.4,0.3-0.5,0.7-0.5,1.3
			C63.3,306.8,63.5,307.3,63.8,307.6z"/>
		<path fill="#A7BBC4" d="M76.9,303.8c0.1,0.1,0.1,0.2,0.1,0.3c0,0.1,0,0.3-0.1,0.4l-4.6,8.6c-0.1,0.2-0.3,0.3-0.5,0.3
			c-0.1,0-0.3-0.1-0.4-0.2c-0.1-0.1-0.2-0.2-0.2-0.4c0-0.1,0-0.2,0.1-0.3l4.3-8.1h-4.8c-0.2,0-0.3,0-0.4-0.1
			c-0.1-0.1-0.1-0.2-0.1-0.3c0-0.2,0-0.3,0.1-0.4c0.1-0.1,0.2-0.1,0.4-0.1h5.6C76.7,303.7,76.8,303.7,76.9,303.8z"/>
		<path fill="#A7BBC4" d="M82.9,315.8c-0.1-0.1-0.2-0.2-0.2-0.4v-11.3c0-0.2,0.1-0.3,0.2-0.4c0.1-0.1,0.2-0.2,0.4-0.2
			c0.1,0,0.3,0.1,0.4,0.2c0.1,0.1,0.2,0.2,0.2,0.4v11.3c0,0.2-0.1,0.3-0.2,0.4c-0.1,0.1-0.2,0.2-0.4,0.2
			C83.1,316,83,315.9,82.9,315.8z"/>
		<path fill="#3A7D99" d="M103.4,302.2c0.2,0,0.4,0.1,0.6,0.3c0.2,0.2,0.3,0.4,0.3,0.6v10.4c0,0.2-0.1,0.4-0.3,0.6
			c-0.2,0.2-0.4,0.3-0.6,0.3H93c-0.2,0-0.4-0.1-0.6-0.3c-0.2-0.2-0.3-0.4-0.3-0.6v-10.4c0-0.2,0.1-0.4,0.3-0.6
			c0.2-0.2,0.4-0.3,0.6-0.3H103.4z M94.9,306c0.3,0,0.5-0.1,0.7-0.3c0.2-0.2,0.3-0.5,0.3-0.7c0-0.3-0.1-0.5-0.3-0.7
			s-0.5-0.3-0.7-0.3s-0.5,0.1-0.7,0.3c-0.2,0.2-0.3,0.5-0.3,0.7c0,0.3,0.1,0.5,0.3,0.7C94.4,305.9,94.6,306,94.9,306z M95.8,312.6
			L95.8,312.6l0-5.8H94v5.8H95.8z M102.5,312.6v-3.2c0-0.9-0.1-1.6-0.4-2c-0.3-0.5-0.9-0.8-1.8-0.8c-0.4,0-0.8,0.1-1.1,0.3
			c-0.3,0.2-0.5,0.4-0.6,0.6h0v-0.8h-1.7v5.8h1.8v-2.9c0-0.5,0.1-0.8,0.2-1c0.2-0.3,0.5-0.5,0.9-0.5c0.4,0,0.7,0.2,0.8,0.5
			c0.1,0.2,0.1,0.6,0.1,1v2.8H102.5z"/>
		<path fill="#0F2026" d="M115,312.6c0.1,0.1,0.1,0.2,0.1,0.3c0,0.2,0,0.3-0.1,0.4c-0.1,0.1-0.2,0.1-0.4,0.1H110
			c-0.2,0-0.3,0-0.4-0.1c-0.1-0.1-0.1-0.2-0.1-0.4c0-0.1,0-0.3,0.1-0.3c0.1-0.1,0.2-0.1,0.4-0.1h1.7v-7.4l-1.5,1
			c-0.1,0-0.1,0.1-0.2,0.1c-0.1,0-0.2-0.1-0.3-0.2c-0.1-0.1-0.1-0.2-0.1-0.4c0-0.2,0.1-0.3,0.2-0.4l2.1-1.4c0.2-0.1,0.3-0.2,0.5-0.2
			c0.2,0,0.3,0.1,0.4,0.2c0.1,0.1,0.2,0.2,0.2,0.4v8.3h1.7C114.8,312.5,114.9,312.5,115,312.6z"/>
		<path fill="#0F2026" d="M122.9,309.3c0.3,0.4,0.5,0.9,0.5,1.5c0,0.8-0.3,1.5-0.9,2c-0.6,0.5-1.3,0.7-2.3,0.7
			c-0.6,0-1.2-0.1-1.7-0.3c-0.5-0.2-1-0.5-1.4-0.8c-0.1-0.1-0.2-0.3-0.2-0.5c0-0.1,0-0.3,0.1-0.3c0.1-0.1,0.2-0.1,0.3-0.1
			c0.1,0,0.3,0.1,0.4,0.2c0.4,0.3,0.8,0.6,1.2,0.7c0.4,0.2,0.8,0.2,1.3,0.2c0.7,0,1.2-0.2,1.6-0.5c0.4-0.3,0.5-0.8,0.5-1.4
			c0-1.2-0.7-1.8-2.2-1.8h-0.7c-0.1,0-0.3,0-0.4-0.1c-0.1-0.1-0.1-0.2-0.1-0.3c0-0.1,0-0.2,0.1-0.3c0.1-0.1,0.2-0.1,0.4-0.1h0.5
			c0.7,0,1.3-0.2,1.7-0.5c0.4-0.3,0.6-0.8,0.6-1.4c0-0.5-0.2-0.9-0.5-1.2c-0.3-0.3-0.8-0.4-1.3-0.4c-0.4,0-0.9,0.1-1.3,0.2
			c-0.4,0.2-0.8,0.4-1.2,0.7c-0.1,0.1-0.3,0.2-0.4,0.2c-0.1,0-0.2,0-0.3-0.1c-0.1-0.1-0.1-0.2-0.1-0.3c0-0.2,0.1-0.3,0.2-0.5
			c0.4-0.4,0.8-0.6,1.4-0.8c0.5-0.2,1.1-0.3,1.7-0.3c0.9,0,1.6,0.2,2.1,0.7c0.5,0.4,0.8,1,0.8,1.8c0,0.6-0.1,1.1-0.4,1.5
			s-0.7,0.7-1.2,0.9C122.1,308.6,122.6,308.9,122.9,309.3z"/>
		<path fill="#A7BBC4" d="M125,314.2c-0.1,0.1-0.2,0.1-0.3,0.1c-0.1,0-0.2,0-0.3-0.1c-0.1-0.1-0.2-0.2-0.2-0.3c0-0.1,0-0.1,0-0.2
			l3.3-10.2c0-0.1,0.1-0.2,0.2-0.3c0.1-0.1,0.2-0.1,0.3-0.1c0.1,0,0.2,0,0.3,0.1c0.1,0.1,0.2,0.2,0.2,0.4c0,0,0,0.1,0,0.2l-3.3,10.2
			C125.1,314.1,125.1,314.1,125,314.2z"/>
		<path fill="#A7BBC4" d="M135.7,312.6c0.1,0.1,0.1,0.2,0.1,0.3c0,0.3-0.2,0.5-0.5,0.5h-5.4c-0.2,0-0.3,0-0.4-0.1s-0.2-0.2-0.2-0.4
			c0-0.2,0.1-0.3,0.2-0.5l3.3-3.7c0.5-0.5,0.8-1,1-1.4c0.2-0.4,0.3-0.8,0.3-1.2c0-0.5-0.2-0.9-0.5-1.2c-0.3-0.3-0.7-0.4-1.3-0.4
			c-0.4,0-0.9,0.1-1.3,0.2c-0.4,0.2-0.8,0.4-1.2,0.7c-0.1,0.1-0.3,0.2-0.4,0.2c-0.1,0-0.2,0-0.3-0.1c-0.1-0.1-0.1-0.2-0.1-0.4
			c0-0.2,0.1-0.4,0.2-0.5c0.4-0.4,0.8-0.6,1.4-0.8c0.5-0.2,1.1-0.3,1.7-0.3c0.9,0,1.6,0.2,2.1,0.7c0.5,0.5,0.8,1.1,0.8,1.9
			c0,0.6-0.1,1.1-0.4,1.6c-0.3,0.5-0.7,1.1-1.2,1.7l-2.8,3h4.4C135.5,312.5,135.6,312.5,135.7,312.6z"/>
		<path fill="#A7BBC4" d="M141.6,315.8c-0.1-0.1-0.2-0.2-0.2-0.4v-11.3c0-0.2,0.1-0.3,0.2-0.4c0.1-0.1,0.2-0.2,0.4-0.2
			c0.1,0,0.3,0.1,0.4,0.2c0.1,0.1,0.2,0.2,0.2,0.4v11.3c0,0.2-0.1,0.3-0.2,0.4c-0.1,0.1-0.2,0.2-0.4,0.2
			C141.8,316,141.7,315.9,141.6,315.8z"/>
		<path fill="#3A7D99" d="M162.9,305.7c0,0.5,0,1.3,0,2.5c0,1.2,0,2,0,2.5c0,0.5-0.1,1-0.2,1.3c-0.2,0.5-0.4,0.8-0.7,1.2
			s-0.7,0.6-1.2,0.7c-0.4,0.1-0.8,0.2-1.3,0.2c-0.5,0-1.4,0-2.5,0s-2,0-2.5,0c-0.5,0-1-0.1-1.3-0.3c-0.4-0.1-0.8-0.4-1.2-0.7
			s-0.6-0.7-0.7-1.2c-0.1-0.4-0.2-0.8-0.2-1.3c0-0.5,0-1.4,0-2.5c0-1.2,0-2,0-2.5c0-0.5,0.1-1,0.2-1.3c0.2-0.5,0.4-0.8,0.7-1.2
			s0.7-0.6,1.2-0.7c0.4-0.1,0.8-0.2,1.3-0.2s1.4,0,2.5,0s2,0,2.5,0c0.5,0,1,0.1,1.3,0.2c0.4,0.2,0.8,0.4,1.2,0.7s0.6,0.7,0.7,1.2
			C162.8,304.8,162.9,305.2,162.9,305.7z M161.6,311.8c0.1-0.3,0.2-0.8,0.2-1.5c0-0.4,0-1,0-1.7v-0.9c0-0.7,0-1.3,0-1.7
			c0-0.7-0.1-1.2-0.2-1.5c-0.2-0.6-0.6-0.9-1.2-1.2c-0.3-0.1-0.8-0.2-1.5-0.2c-0.4,0-1,0-1.7,0h-0.9c-0.7,0-1.3,0-1.7,0
			c-0.7,0-1.2,0.1-1.5,0.2c-0.6,0.2-0.9,0.6-1.2,1.2c-0.1,0.3-0.2,0.8-0.2,1.5c0,0.4,0,1,0,1.7v0.9c0,0.7,0,1.3,0,1.7
			c0,0.7,0.1,1.2,0.2,1.5c0.2,0.6,0.6,0.9,1.2,1.2c0.3,0.1,0.8,0.2,1.5,0.2c0.4,0,1,0,1.7,0h0.9c0.7,0,1.3,0,1.7,0
			c0.7,0,1.2-0.1,1.5-0.2C161,312.7,161.4,312.4,161.6,311.8z M156.9,305.1c0.6,0,1.1,0.1,1.6,0.4c0.5,0.3,0.9,0.7,1.1,1.1
			s0.4,1,0.4,1.6c0,0.6-0.1,1.1-0.4,1.6s-0.7,0.9-1.1,1.1c-0.5,0.3-1,0.4-1.6,0.4c-0.6,0-1.1-0.1-1.6-0.4c-0.5-0.3-0.9-0.7-1.1-1.1
			s-0.4-1-0.4-1.6c0-0.6,0.1-1.1,0.4-1.6s0.7-0.9,1.1-1.1C155.8,305.3,156.3,305.1,156.9,305.1z M156.9,310.3c0.6,0,1-0.2,1.4-0.6
			c0.4-0.4,0.6-0.9,0.6-1.4c0-0.6-0.2-1-0.6-1.4c-0.4-0.4-0.9-0.6-1.4-0.6c-0.6,0-1,0.2-1.4,0.6c-0.4,0.4-0.6,0.9-0.6,1.4
			c0,0.6,0.2,1,0.6,1.4C155.9,310.1,156.3,310.3,156.9,310.3z M160.9,305c0-0.2-0.1-0.4-0.2-0.5c-0.1-0.1-0.3-0.2-0.5-0.2
			c-0.2,0-0.4,0.1-0.5,0.2s-0.2,0.3-0.2,0.5c0,0.2,0.1,0.4,0.2,0.5s0.3,0.2,0.5,0.2c0.2,0,0.4-0.1,0.5-0.2
			C160.8,305.4,160.8,305.2,160.9,305z"/>
		<path fill="#0F2026" d="M173.7,312.6c0.1,0.1,0.1,0.2,0.1,0.3c0,0.2,0,0.3-0.1,0.4c-0.1,0.1-0.2,0.1-0.4,0.1h-4.6
			c-0.2,0-0.3,0-0.4-0.1c-0.1-0.1-0.1-0.2-0.1-0.4c0-0.1,0-0.3,0.1-0.3c0.1-0.1,0.2-0.1,0.4-0.1h1.7v-7.4l-1.5,1
			c-0.1,0-0.1,0.1-0.2,0.1c-0.1,0-0.2-0.1-0.3-0.2c-0.1-0.1-0.1-0.2-0.1-0.4c0-0.2,0.1-0.3,0.2-0.4l2.1-1.4c0.2-0.1,0.3-0.2,0.5-0.2
			c0.2,0,0.3,0.1,0.4,0.2c0.1,0.1,0.2,0.2,0.2,0.4v8.3h1.7C173.5,312.5,173.6,312.5,173.7,312.6z"/>
		<path fill="#0F2026" d="M182.5,310.5c0.1,0.1,0.1,0.2,0.1,0.3c0,0.3-0.2,0.5-0.5,0.5h-1v1.6c0,0.2-0.1,0.3-0.2,0.4
			c-0.1,0.1-0.2,0.2-0.4,0.2c-0.2,0-0.3-0.1-0.4-0.2c-0.1-0.1-0.2-0.2-0.2-0.4v-1.6h-4.1c-0.2,0-0.3,0-0.4-0.1s-0.1-0.2-0.1-0.3
			c0-0.1,0.1-0.3,0.2-0.4l4.5-6.5c0.1-0.2,0.3-0.2,0.5-0.2c0.2,0,0.3,0.1,0.4,0.2c0.1,0.1,0.2,0.2,0.2,0.4v6.2h1
			C182.3,310.4,182.4,310.4,182.5,310.5z M176.7,310.4h3.3v-4.8L176.7,310.4z"/>
		<path fill="#0F2026" d="M184.7,312.3c-0.6-0.8-0.9-2.1-0.9-3.7c0-1.6,0.3-2.9,0.9-3.7c0.6-0.8,1.4-1.3,2.5-1.3
			c1.1,0,2,0.4,2.5,1.3c0.6,0.8,0.9,2.1,0.9,3.7s-0.3,2.9-0.9,3.7s-1.4,1.3-2.5,1.3C186.1,313.5,185.3,313.1,184.7,312.3z
			 M188.9,311.6c0.4-0.7,0.6-1.7,0.6-3.1c0-1.4-0.2-2.4-0.5-3.1c-0.4-0.6-0.9-1-1.7-1c-0.8,0-1.3,0.3-1.7,1c-0.4,0.6-0.6,1.7-0.6,3
			c0,1.4,0.2,2.4,0.6,3.1c0.4,0.7,0.9,1,1.7,1C188,312.6,188.6,312.3,188.9,311.6z"/>
		<path fill="#A7BBC4" d="M192,314.2c-0.1,0.1-0.2,0.1-0.3,0.1c-0.1,0-0.2,0-0.3-0.1c-0.1-0.1-0.2-0.2-0.2-0.3c0-0.1,0-0.1,0-0.2
			l3.3-10.2c0-0.1,0.1-0.2,0.2-0.3c0.1-0.1,0.2-0.1,0.3-0.1c0.1,0,0.2,0,0.3,0.1c0.1,0.1,0.2,0.2,0.2,0.4c0,0,0,0.1,0,0.2l-3.3,10.2
			C192.1,314.1,192,314.1,192,314.2z"/>
		<path fill="#A7BBC4" d="M202.4,312.6c0.1,0.1,0.1,0.2,0.1,0.3c0,0.2,0,0.3-0.1,0.4c-0.1,0.1-0.2,0.1-0.4,0.1h-4.6
			c-0.2,0-0.3,0-0.4-0.1c-0.1-0.1-0.1-0.2-0.1-0.4c0-0.1,0-0.3,0.1-0.3c0.1-0.1,0.2-0.1,0.4-0.1h1.7v-7.4l-1.5,1
			c-0.1,0-0.1,0.1-0.2,0.1c-0.1,0-0.2-0.1-0.3-0.2c-0.1-0.1-0.1-0.2-0.1-0.4c0-0.2,0.1-0.3,0.2-0.4l2.1-1.4c0.2-0.1,0.3-0.2,0.5-0.2
			c0.2,0,0.3,0.1,0.4,0.2c0.1,0.1,0.2,0.2,0.2,0.4v8.3h1.7C202.2,312.5,202.4,312.5,202.4,312.6z"/>
		<path fill="#A7BBC4" d="M211,312.6c0.1,0.1,0.1,0.2,0.1,0.3c0,0.3-0.2,0.5-0.5,0.5h-5.4c-0.2,0-0.3,0-0.4-0.1s-0.2-0.2-0.2-0.4
			c0-0.2,0.1-0.3,0.2-0.5l3.3-3.7c0.5-0.5,0.8-1,1-1.4c0.2-0.4,0.3-0.8,0.3-1.2c0-0.5-0.2-0.9-0.5-1.2c-0.3-0.3-0.7-0.4-1.3-0.4
			c-0.4,0-0.9,0.1-1.3,0.2c-0.4,0.2-0.8,0.4-1.2,0.7c-0.1,0.1-0.3,0.2-0.4,0.2c-0.1,0-0.2,0-0.3-0.1c-0.1-0.1-0.1-0.2-0.1-0.4
			c0-0.2,0.1-0.4,0.2-0.5c0.4-0.4,0.8-0.6,1.4-0.8c0.5-0.2,1.1-0.3,1.7-0.3c0.9,0,1.6,0.2,2.1,0.7c0.5,0.5,0.8,1.1,0.8,1.9
			c0,0.6-0.1,1.1-0.4,1.6c-0.3,0.5-0.7,1.1-1.2,1.7l-2.8,3h4.4C210.7,312.5,210.9,312.5,211,312.6z"/>
	</g>
	<g>
		<path fill="#A7BBC4" d="M16.1,354.8c-0.1-0.1-0.1-0.2-0.1-0.3v-5.8c0-0.1,0-0.2,0.1-0.3c0.1-0.1,0.2-0.1,0.3-0.1h2.2
			c0.7,0,1.2,0.2,1.6,0.5c0.4,0.3,0.6,0.8,0.6,1.4c0,0.6-0.2,1.1-0.6,1.4c-0.4,0.3-0.9,0.5-1.6,0.5h-1.8v2.3c0,0.1,0,0.2-0.1,0.3
			c-0.1,0.1-0.2,0.1-0.3,0.1C16.2,354.9,16.1,354.8,16.1,354.8z M18.5,351.5c1,0,1.5-0.4,1.5-1.3c0-0.9-0.5-1.3-1.5-1.3h-1.7v2.6
			H18.5z"/>
		<path fill="#A7BBC4" d="M25.3,353.9c0,0.1,0.1,0.1,0.1,0.2c0,0.2-0.1,0.3-0.3,0.4c-0.2,0.1-0.5,0.2-0.7,0.3
			c-0.2,0.1-0.5,0.1-0.7,0.1c-0.7,0-1.2-0.2-1.6-0.6c-0.4-0.4-0.6-1-0.6-1.7c0-0.5,0.1-0.9,0.3-1.2c0.2-0.4,0.4-0.6,0.8-0.8
			c0.3-0.2,0.7-0.3,1.1-0.3c0.6,0,1,0.2,1.4,0.6c0.3,0.4,0.5,0.9,0.5,1.5c0,0.1,0,0.2-0.1,0.3c0,0.1-0.1,0.1-0.2,0.1h-3
			c0.1,1.1,0.6,1.6,1.5,1.6c0.2,0,0.4,0,0.6-0.1c0.2-0.1,0.4-0.2,0.6-0.3c0.2-0.1,0.3-0.1,0.3-0.1C25.2,353.8,25.3,353.8,25.3,353.9
			z M22.6,351.2c-0.2,0.2-0.4,0.6-0.4,1h2.6c0-0.5-0.1-0.8-0.3-1c-0.2-0.2-0.5-0.4-0.9-0.4C23.1,350.8,22.8,350.9,22.6,351.2z"/>
		<path fill="#A7BBC4" d="M29.1,350.6c0,0.1,0,0.2-0.1,0.2c-0.1,0.1-0.2,0.1-0.3,0.1l-0.3,0c-0.4,0-0.7,0.2-0.9,0.4
			c-0.2,0.3-0.3,0.6-0.3,0.9v2.2c0,0.1,0,0.2-0.1,0.3c-0.1,0.1-0.2,0.1-0.3,0.1c-0.1,0-0.2,0-0.3-0.1c-0.1-0.1-0.1-0.2-0.1-0.3v-3.9
			c0-0.1,0-0.2,0.1-0.3c0.1-0.1,0.2-0.1,0.3-0.1c0.1,0,0.2,0,0.2,0.1c0.1,0.1,0.1,0.2,0.1,0.3v0.5c0.1-0.3,0.3-0.5,0.5-0.6
			c0.2-0.1,0.5-0.2,0.8-0.2l0.1,0C29,350.2,29.1,350.3,29.1,350.6z"/>
		<path fill="#A7BBC4" d="M30.4,354.8c-0.3-0.1-0.5-0.2-0.7-0.3c-0.1-0.1-0.2-0.1-0.2-0.2c0-0.1-0.1-0.1-0.1-0.2
			c0-0.1,0-0.1,0.1-0.2c0-0.1,0.1-0.1,0.2-0.1c0.1,0,0.2,0,0.3,0.1c0.2,0.1,0.4,0.2,0.5,0.3c0.2,0.1,0.4,0.1,0.7,0.1
			c0.3,0,0.6-0.1,0.8-0.2c0.2-0.1,0.3-0.3,0.3-0.5c0-0.1,0-0.2-0.1-0.3c-0.1-0.1-0.2-0.2-0.4-0.2c-0.2-0.1-0.4-0.1-0.7-0.2
			c-0.5-0.1-0.9-0.3-1.2-0.5c-0.2-0.2-0.3-0.5-0.3-0.8c0-0.3,0.1-0.5,0.2-0.7c0.1-0.2,0.4-0.4,0.6-0.5c0.3-0.1,0.6-0.2,0.9-0.2
			c0.2,0,0.5,0,0.7,0.1c0.2,0.1,0.4,0.2,0.6,0.3c0.2,0.1,0.3,0.3,0.3,0.5c0,0.1,0,0.1-0.1,0.2c0,0.1-0.1,0.1-0.2,0.1
			c-0.1,0-0.2-0.1-0.3-0.2c-0.2-0.1-0.3-0.2-0.5-0.3c-0.2-0.1-0.3-0.1-0.6-0.1c-0.3,0-0.5,0.1-0.7,0.2c-0.2,0.1-0.3,0.3-0.3,0.5
			c0,0.1,0,0.2,0.1,0.3c0.1,0.1,0.2,0.2,0.3,0.2c0.2,0.1,0.4,0.1,0.6,0.2c0.4,0.1,0.7,0.2,1,0.3c0.2,0.1,0.4,0.2,0.5,0.4
			c0.1,0.2,0.1,0.4,0.1,0.6c0,0.4-0.2,0.7-0.5,0.9c-0.3,0.2-0.8,0.4-1.3,0.4C30.9,354.9,30.7,354.9,30.4,354.8z"/>
		<path fill="#A7BBC4" d="M34.9,354.6c-0.3-0.2-0.6-0.5-0.7-0.8c-0.2-0.4-0.3-0.8-0.3-1.2s0.1-0.9,0.3-1.2c0.2-0.4,0.4-0.6,0.7-0.8
			c0.3-0.2,0.7-0.3,1.1-0.3c0.4,0,0.8,0.1,1.1,0.3s0.6,0.5,0.8,0.8c0.2,0.4,0.3,0.8,0.3,1.2s-0.1,0.9-0.3,1.2
			c-0.2,0.4-0.4,0.6-0.8,0.8s-0.7,0.3-1.1,0.3C35.6,354.9,35.2,354.8,34.9,354.6z M37,353.8c0.2-0.3,0.4-0.7,0.4-1.3
			c0-0.5-0.1-1-0.4-1.3c-0.2-0.3-0.6-0.4-1-0.4c-0.4,0-0.8,0.1-1,0.4c-0.2,0.3-0.4,0.7-0.4,1.3c0,0.6,0.1,1,0.4,1.3
			c0.2,0.3,0.6,0.4,1,0.4C36.4,354.3,36.8,354.1,37,353.8z"/>
		<path fill="#A7BBC4" d="M43.1,352v2.5c0,0.1,0,0.2-0.1,0.3c-0.1,0.1-0.2,0.1-0.3,0.1c-0.1,0-0.2,0-0.3-0.1
			c-0.1-0.1-0.1-0.2-0.1-0.3v-2.5c0-0.4-0.1-0.7-0.2-0.9c-0.2-0.2-0.4-0.3-0.8-0.3c-0.4,0-0.7,0.1-1,0.4c-0.2,0.3-0.4,0.6-0.4,1v2.2
			c0,0.1,0,0.2-0.1,0.3c-0.1,0.1-0.2,0.1-0.3,0.1c-0.1,0-0.2,0-0.3-0.1c-0.1-0.1-0.1-0.2-0.1-0.3v-3.9c0-0.1,0-0.2,0.1-0.3
			c0.1-0.1,0.2-0.1,0.3-0.1c0.1,0,0.2,0,0.3,0.1c0.1,0.1,0.1,0.2,0.1,0.3v0.5c0.1-0.3,0.4-0.5,0.6-0.6c0.3-0.1,0.6-0.2,0.9-0.2
			C42.6,350.2,43.1,350.8,43.1,352z"/>
		<path fill="#A7BBC4" d="M48,352v2.5c0,0.1,0,0.2-0.1,0.3c-0.1,0.1-0.2,0.1-0.3,0.1c-0.1,0-0.2,0-0.3-0.1s-0.1-0.2-0.1-0.3v-0.4
			c-0.1,0.3-0.3,0.5-0.5,0.6c-0.2,0.1-0.5,0.2-0.8,0.2c-0.3,0-0.6-0.1-0.8-0.2c-0.2-0.1-0.4-0.3-0.6-0.5c-0.1-0.2-0.2-0.4-0.2-0.7
			c0-0.3,0.1-0.6,0.3-0.8c0.2-0.2,0.5-0.3,0.8-0.4c0.4-0.1,0.9-0.1,1.6-0.1h0.2v-0.3c0-0.4-0.1-0.6-0.2-0.8
			c-0.2-0.2-0.4-0.3-0.7-0.3c-0.4,0-0.8,0.1-1.3,0.3c-0.2,0.1-0.3,0.2-0.3,0.2c-0.1,0-0.1,0-0.2-0.1c0-0.1-0.1-0.1-0.1-0.2
			c0-0.1,0-0.2,0.1-0.2c0.1-0.1,0.1-0.1,0.3-0.2c0.2-0.1,0.5-0.2,0.7-0.3c0.3-0.1,0.5-0.1,0.8-0.1C47.4,350.2,48,350.8,48,352z
			 M46.9,353.9c0.2-0.2,0.4-0.6,0.4-1v-0.3h-0.2c-0.5,0-1,0-1.2,0.1c-0.3,0-0.5,0.1-0.6,0.2c-0.1,0.1-0.2,0.3-0.2,0.5
			c0,0.2,0.1,0.4,0.3,0.6c0.2,0.2,0.4,0.2,0.7,0.2C46.4,354.3,46.7,354.2,46.9,353.9z"/>
		<path fill="#A7BBC4" d="M49.5,354.8c-0.1-0.1-0.1-0.2-0.1-0.3v-5.9c0-0.1,0-0.2,0.1-0.3c0.1-0.1,0.2-0.1,0.3-0.1
			c0.1,0,0.2,0,0.3,0.1c0.1,0.1,0.1,0.2,0.1,0.3v5.9c0,0.1,0,0.2-0.1,0.3c-0.1,0.1-0.2,0.1-0.3,0.1
			C49.6,354.9,49.5,354.8,49.5,354.8z"/>
		<path fill="#A7BBC4" d="M51.5,349.2c-0.1-0.1-0.1-0.2-0.1-0.3c0-0.1,0-0.2,0.1-0.3c0.1-0.1,0.2-0.1,0.4-0.1c0.1,0,0.3,0,0.4,0.1
			c0.1,0.1,0.1,0.2,0.1,0.3c0,0.1,0,0.3-0.1,0.3c-0.1,0.1-0.2,0.1-0.4,0.1C51.7,349.3,51.6,349.2,51.5,349.2z M51.6,354.8
			c-0.1-0.1-0.1-0.2-0.1-0.3v-3.9c0-0.1,0-0.2,0.1-0.3c0.1-0.1,0.2-0.1,0.3-0.1c0.1,0,0.2,0,0.3,0.1c0.1,0.1,0.1,0.2,0.1,0.3v3.9
			c0,0.1,0,0.2-0.1,0.3c-0.1,0.1-0.2,0.1-0.3,0.1C51.8,354.9,51.7,354.8,51.6,354.8z"/>
		<path fill="#A7BBC4" d="M56,354.6c0,0.1,0,0.2-0.1,0.2c-0.1,0.1-0.2,0.1-0.3,0.1l-0.2,0c-0.5,0-0.9-0.2-1.1-0.4
			c-0.2-0.3-0.4-0.6-0.4-1.2v-2.3h-0.6c-0.1,0-0.2,0-0.2-0.1c-0.1-0.1-0.1-0.1-0.1-0.2c0-0.1,0-0.2,0.1-0.2c0.1-0.1,0.1-0.1,0.2-0.1
			h0.6v-1c0-0.1,0-0.2,0.1-0.3c0.1-0.1,0.2-0.1,0.3-0.1c0.1,0,0.2,0,0.3,0.1c0.1,0.1,0.1,0.2,0.1,0.3v1h1c0.1,0,0.2,0,0.2,0.1
			c0.1,0.1,0.1,0.1,0.1,0.2c0,0.1,0,0.2-0.1,0.2c-0.1,0.1-0.1,0.1-0.2,0.1h-1v2.4c0,0.3,0.1,0.6,0.2,0.7c0.1,0.2,0.3,0.2,0.6,0.3
			l0.2,0C55.9,354.3,56,354.4,56,354.6z"/>
		<path fill="#A7BBC4" d="M60.4,350.3c0.1,0,0.2,0,0.2,0.1c0.1,0.1,0.1,0.1,0.1,0.2c0,0.1,0,0.1,0,0.1l-2.6,5.6
			c0,0.1-0.1,0.1-0.1,0.2c-0.1,0-0.1,0.1-0.2,0.1c-0.1,0-0.2,0-0.2-0.1c-0.1-0.1-0.1-0.1-0.1-0.2c0,0,0-0.1,0-0.1l0.6-1.4l-1.8-3.9
			c0,0,0-0.1,0-0.1c0-0.1,0-0.2,0.1-0.2c0.1-0.1,0.2-0.1,0.3-0.1c0.1,0,0.1,0,0.2,0.1c0.1,0,0.1,0.1,0.1,0.2l1.5,3.5l1.5-3.4
			C60.1,350.3,60.2,350.3,60.4,350.3z"/>
		<path fill="#A7BBC4" d="M64.1,354.8c-0.1-0.1-0.1-0.2-0.1-0.3v-5.8c0-0.1,0-0.2,0.1-0.3c0.1-0.1,0.2-0.1,0.3-0.1
			c0.1,0,0.2,0,0.3,0.1c0.1,0.1,0.1,0.2,0.1,0.3v5.8c0,0.1,0,0.2-0.1,0.3c-0.1,0.1-0.2,0.1-0.3,0.1
			C64.3,354.9,64.2,354.8,64.1,354.8z"/>
		<path fill="#A7BBC4" d="M70.1,352v2.5c0,0.1,0,0.2-0.1,0.3c-0.1,0.1-0.2,0.1-0.3,0.1c-0.1,0-0.2,0-0.3-0.1
			c-0.1-0.1-0.1-0.2-0.1-0.3v-2.5c0-0.4-0.1-0.7-0.2-0.9c-0.2-0.2-0.4-0.3-0.8-0.3c-0.4,0-0.7,0.1-1,0.4c-0.2,0.3-0.4,0.6-0.4,1v2.2
			c0,0.1,0,0.2-0.1,0.3c-0.1,0.1-0.2,0.1-0.3,0.1c-0.1,0-0.2,0-0.3-0.1c-0.1-0.1-0.1-0.2-0.1-0.3v-3.9c0-0.1,0-0.2,0.1-0.3
			c0.1-0.1,0.2-0.1,0.3-0.1c0.1,0,0.2,0,0.3,0.1c0.1,0.1,0.1,0.2,0.1,0.3v0.5c0.1-0.3,0.4-0.5,0.6-0.6c0.3-0.1,0.6-0.2,0.9-0.2
			C69.6,350.2,70.1,350.8,70.1,352z"/>
		<path fill="#A7BBC4" d="M72.2,354.8c-0.3-0.1-0.5-0.2-0.7-0.3c-0.1-0.1-0.2-0.1-0.2-0.2c0-0.1-0.1-0.1-0.1-0.2
			c0-0.1,0-0.1,0.1-0.2c0-0.1,0.1-0.1,0.2-0.1s0.2,0,0.3,0.1c0.2,0.1,0.4,0.2,0.5,0.3c0.2,0.1,0.4,0.1,0.7,0.1
			c0.3,0,0.6-0.1,0.8-0.2c0.2-0.1,0.3-0.3,0.3-0.5c0-0.1,0-0.2-0.1-0.3c-0.1-0.1-0.2-0.2-0.4-0.2c-0.2-0.1-0.4-0.1-0.7-0.2
			c-0.5-0.1-0.9-0.3-1.2-0.5s-0.3-0.5-0.3-0.8c0-0.3,0.1-0.5,0.2-0.7c0.1-0.2,0.4-0.4,0.6-0.5c0.3-0.1,0.6-0.2,0.9-0.2
			c0.2,0,0.5,0,0.7,0.1c0.2,0.1,0.4,0.2,0.6,0.3c0.2,0.1,0.3,0.3,0.3,0.5c0,0.1,0,0.1-0.1,0.2c0,0.1-0.1,0.1-0.2,0.1
			c-0.1,0-0.2-0.1-0.3-0.2c-0.2-0.1-0.3-0.2-0.5-0.3c-0.2-0.1-0.3-0.1-0.6-0.1c-0.3,0-0.5,0.1-0.7,0.2c-0.2,0.1-0.3,0.3-0.3,0.5
			c0,0.1,0,0.2,0.1,0.3c0.1,0.1,0.2,0.2,0.3,0.2c0.2,0.1,0.4,0.1,0.6,0.2c0.4,0.1,0.7,0.2,1,0.3c0.2,0.1,0.4,0.2,0.5,0.4
			c0.1,0.2,0.1,0.4,0.1,0.6c0,0.4-0.2,0.7-0.5,0.9c-0.3,0.2-0.8,0.4-1.3,0.4C72.7,354.9,72.5,354.9,72.2,354.8z"/>
		<path fill="#A7BBC4" d="M75.9,349.2c-0.1-0.1-0.1-0.2-0.1-0.3c0-0.1,0-0.2,0.1-0.3c0.1-0.1,0.2-0.1,0.4-0.1c0.1,0,0.3,0,0.4,0.1
			c0.1,0.1,0.1,0.2,0.1,0.3c0,0.1,0,0.3-0.1,0.3c-0.1,0.1-0.2,0.1-0.4,0.1C76.1,349.3,76,349.2,75.9,349.2z M76,354.8
			c-0.1-0.1-0.1-0.2-0.1-0.3v-3.9c0-0.1,0-0.2,0.1-0.3c0.1-0.1,0.2-0.1,0.3-0.1c0.1,0,0.2,0,0.3,0.1c0.1,0.1,0.1,0.2,0.1,0.3v3.9
			c0,0.1,0,0.2-0.1,0.3c-0.1,0.1-0.2,0.1-0.3,0.1C76.2,354.9,76.1,354.8,76,354.8z"/>
		<path fill="#A7BBC4" d="M82,350.4c0.1,0.1,0.1,0.2,0.1,0.3v3.9c0,0.7-0.2,1.2-0.5,1.5c-0.3,0.3-0.9,0.5-1.5,0.5
			c-0.7,0-1.2-0.1-1.6-0.4c-0.2-0.1-0.3-0.3-0.3-0.4c0-0.1,0-0.2,0.1-0.2c0-0.1,0.1-0.1,0.2-0.1c0.1,0,0.2,0,0.3,0.1
			c0.2,0.1,0.4,0.2,0.6,0.3c0.2,0.1,0.5,0.1,0.7,0.1c0.4,0,0.8-0.1,1-0.3c0.2-0.2,0.3-0.6,0.3-1v-0.8c-0.1,0.3-0.3,0.5-0.6,0.7
			c-0.3,0.2-0.6,0.2-0.9,0.2c-0.4,0-0.7-0.1-1-0.3c-0.3-0.2-0.5-0.4-0.7-0.8c-0.2-0.3-0.3-0.7-0.3-1.2c0-0.4,0.1-0.8,0.3-1.2
			c0.2-0.3,0.4-0.6,0.7-0.8c0.3-0.2,0.7-0.3,1-0.3c0.4,0,0.7,0.1,0.9,0.2c0.3,0.2,0.5,0.4,0.6,0.7v-0.5c0-0.1,0-0.2,0.1-0.3
			c0.1-0.1,0.2-0.1,0.3-0.1C81.8,350.3,81.9,350.3,82,350.4z M81,353.7c0.2-0.3,0.4-0.7,0.4-1.2c0-0.5-0.1-0.9-0.4-1.2
			c-0.2-0.3-0.6-0.4-1-0.4c-0.4,0-0.8,0.1-1,0.4c-0.2,0.3-0.4,0.7-0.4,1.2c0,0.5,0.1,0.9,0.4,1.2c0.2,0.3,0.6,0.4,1,0.4
			C80.4,354.1,80.7,353.9,81,353.7z"/>
		<path fill="#A7BBC4" d="M86.9,350.7c0.3,0.3,0.4,0.7,0.4,1.3v2.5c0,0.1,0,0.2-0.1,0.3c-0.1,0.1-0.2,0.1-0.3,0.1
			c-0.1,0-0.2,0-0.3-0.1c-0.1-0.1-0.1-0.2-0.1-0.3V352c0-0.4-0.1-0.7-0.2-0.9c-0.2-0.2-0.4-0.3-0.8-0.3c-0.4,0-0.7,0.1-1,0.4
			c-0.2,0.3-0.4,0.6-0.4,1v2.2c0,0.1,0,0.2-0.1,0.3c-0.1,0.1-0.2,0.1-0.3,0.1c-0.1,0-0.2,0-0.3-0.1c-0.1-0.1-0.1-0.2-0.1-0.3v-5.9
			c0-0.1,0-0.2,0.1-0.3c0.1-0.1,0.2-0.1,0.3-0.1c0.1,0,0.2,0,0.3,0.1c0.1,0.1,0.1,0.2,0.1,0.3v2.4c0.1-0.3,0.4-0.5,0.6-0.6
			c0.3-0.1,0.6-0.2,0.9-0.2C86.2,350.2,86.6,350.4,86.9,350.7z"/>
		<path fill="#A7BBC4" d="M91.1,354.6c0,0.1,0,0.2-0.1,0.2c-0.1,0.1-0.2,0.1-0.3,0.1l-0.2,0c-0.5,0-0.9-0.2-1.1-0.4
			s-0.4-0.6-0.4-1.2v-2.3h-0.6c-0.1,0-0.2,0-0.2-0.1s-0.1-0.1-0.1-0.2c0-0.1,0-0.2,0.1-0.2s0.1-0.1,0.2-0.1h0.6v-1
			c0-0.1,0-0.2,0.1-0.3c0.1-0.1,0.2-0.1,0.3-0.1c0.1,0,0.2,0,0.3,0.1c0.1,0.1,0.1,0.2,0.1,0.3v1h1c0.1,0,0.2,0,0.2,0.1
			c0.1,0.1,0.1,0.1,0.1,0.2c0,0.1,0,0.2-0.1,0.2c-0.1,0.1-0.1,0.1-0.2,0.1h-1v2.4c0,0.3,0.1,0.6,0.2,0.7c0.1,0.2,0.3,0.2,0.6,0.3
			l0.2,0C91,354.3,91.1,354.4,91.1,354.6z"/>
		<path fill="#A7BBC4" d="M92.5,354.8c-0.3-0.1-0.5-0.2-0.7-0.3c-0.1-0.1-0.2-0.1-0.2-0.2c0-0.1-0.1-0.1-0.1-0.2
			c0-0.1,0-0.1,0.1-0.2c0-0.1,0.1-0.1,0.2-0.1c0.1,0,0.2,0,0.3,0.1c0.2,0.1,0.4,0.2,0.5,0.3c0.2,0.1,0.4,0.1,0.7,0.1
			c0.3,0,0.6-0.1,0.8-0.2c0.2-0.1,0.3-0.3,0.3-0.5c0-0.1,0-0.2-0.1-0.3c-0.1-0.1-0.2-0.2-0.4-0.2c-0.2-0.1-0.4-0.1-0.7-0.2
			c-0.5-0.1-0.9-0.3-1.2-0.5s-0.3-0.5-0.3-0.8c0-0.3,0.1-0.5,0.2-0.7c0.1-0.2,0.4-0.4,0.6-0.5c0.3-0.1,0.6-0.2,0.9-0.2
			c0.2,0,0.5,0,0.7,0.1c0.2,0.1,0.4,0.2,0.6,0.3c0.2,0.1,0.3,0.3,0.3,0.5c0,0.1,0,0.1-0.1,0.2c0,0.1-0.1,0.1-0.2,0.1
			c-0.1,0-0.2-0.1-0.3-0.2c-0.2-0.1-0.3-0.2-0.5-0.3c-0.2-0.1-0.3-0.1-0.6-0.1c-0.3,0-0.5,0.1-0.7,0.2c-0.2,0.1-0.3,0.3-0.3,0.5
			c0,0.1,0,0.2,0.1,0.3c0.1,0.1,0.2,0.2,0.3,0.2c0.2,0.1,0.4,0.1,0.6,0.2c0.4,0.1,0.7,0.2,1,0.3c0.2,0.1,0.4,0.2,0.5,0.4
			c0.1,0.2,0.1,0.4,0.1,0.6c0,0.4-0.2,0.7-0.5,0.9c-0.3,0.2-0.8,0.4-1.3,0.4C93,354.9,92.8,354.9,92.5,354.8z"/>
		<path fill="#3A7D99" d="M28.3,366.4c0.2,0,0.3,0.1,0.5,0.2c0.1,0.1,0.2,0.3,0.2,0.5v2.2c0,0.2-0.1,0.3-0.2,0.5
			c-0.1,0.1-0.3,0.2-0.5,0.2h-0.2v3c0,0.4-0.1,0.7-0.4,0.9c-0.3,0.3-0.6,0.4-0.9,0.4h-9.5c-0.4,0-0.7-0.1-0.9-0.4
			c-0.3-0.3-0.4-0.6-0.4-0.9v-3h-0.2c-0.2,0-0.3-0.1-0.5-0.2c-0.1-0.1-0.2-0.3-0.2-0.5V367c0-0.2,0.1-0.3,0.2-0.5
			c0.1-0.1,0.3-0.2,0.5-0.2h1.8c-0.4-0.5-0.7-1.1-0.7-1.7c0-0.7,0.3-1.3,0.8-1.8c0.5-0.5,1.1-0.8,1.8-0.8c0.5,0,1,0.1,1.4,0.4
			c0.4,0.2,0.8,0.6,1.2,1.1c0.4-0.5,0.8-0.8,1.1-1.1c0.4-0.3,0.9-0.4,1.5-0.4c0.7,0,1.3,0.3,1.8,0.8s0.8,1.1,0.8,1.8
			c0,0.7-0.2,1.2-0.7,1.7H28.3z M19.5,363.8c-0.2,0-0.4,0.1-0.6,0.3s-0.3,0.4-0.3,0.6c0,0.2,0.1,0.4,0.3,0.6s0.4,0.3,0.6,0.3h1.9
			c-0.3-0.7-0.6-1.1-1.1-1.4C20.1,363.9,19.8,363.8,19.5,363.8z M20.8,367.2v5c0,0.2,0.1,0.3,0.2,0.5c0.1,0.1,0.3,0.2,0.5,0.2h1.3
			c0.2,0,0.3-0.1,0.5-0.2c0.1-0.1,0.2-0.3,0.2-0.5v-5H20.8z M22.7,365.5h1.9c0.2,0,0.4-0.1,0.6-0.3c0.2-0.2,0.3-0.4,0.3-0.6
			c0-0.2-0.1-0.4-0.3-0.6c-0.2-0.2-0.4-0.3-0.6-0.3c-0.3,0-0.6,0.1-0.9,0.3C23.4,364.4,23,364.8,22.7,365.5z"/>
		<path fill="#0F2026" d="M39.7,369.2c0.3,0.4,0.5,0.9,0.5,1.5c0,0.8-0.3,1.5-0.9,2c-0.6,0.5-1.5,0.7-2.6,0.7c-1.1,0-2-0.2-2.6-0.7
			c-0.6-0.5-0.9-1.1-0.9-2c0-0.6,0.2-1.1,0.5-1.5c0.3-0.4,0.8-0.7,1.3-0.9c-0.5-0.2-0.9-0.5-1.2-0.9c-0.3-0.4-0.4-0.9-0.4-1.4
			c0-0.8,0.3-1.4,0.9-1.9c0.6-0.5,1.4-0.7,2.4-0.7c1,0,1.8,0.2,2.4,0.7c0.6,0.5,0.9,1.1,0.9,1.9c0,0.5-0.1,1-0.4,1.4
			c-0.3,0.4-0.7,0.7-1.1,0.9C38.9,368.4,39.4,368.7,39.7,369.2z M39.1,370.6c0-1.2-0.8-1.8-2.4-1.8c-1.6,0-2.4,0.6-2.4,1.8
			c0,1.2,0.8,1.8,2.4,1.8C38.3,372.4,39.1,371.8,39.1,370.6z M35.1,367.4c0.4,0.3,0.9,0.5,1.6,0.5c0.7,0,1.2-0.2,1.6-0.5
			c0.4-0.3,0.5-0.7,0.5-1.3c0-0.5-0.2-1-0.5-1.3s-0.9-0.5-1.6-0.5c-0.7,0-1.2,0.2-1.6,0.5s-0.5,0.7-0.5,1.3
			C34.6,366.7,34.7,367.1,35.1,367.4z"/>
		<path fill="#0F2026" d="M48.2,363.7c0.1,0.1,0.1,0.2,0.1,0.3c0,0.1,0,0.3-0.1,0.4l-4.6,8.6c-0.1,0.2-0.3,0.3-0.5,0.3
			c-0.1,0-0.3-0.1-0.4-0.2c-0.1-0.1-0.2-0.2-0.2-0.4c0-0.1,0-0.2,0.1-0.3l4.3-8.1h-4.8c-0.2,0-0.3,0-0.4-0.1
			c-0.1-0.1-0.1-0.2-0.1-0.3c0-0.2,0-0.3,0.1-0.4c0.1-0.1,0.2-0.1,0.4-0.1h5.6C47.9,363.5,48.1,363.6,48.2,363.7z"/>
		<path fill="#0F2026" d="M50.5,368.6c-0.4-0.5-0.6-1.2-0.6-2.2c0-1,0.2-1.7,0.6-2.2c0.4-0.5,1-0.8,1.7-0.8c0.7,0,1.3,0.3,1.7,0.8
			c0.4,0.5,0.6,1.2,0.6,2.2c0,1-0.2,1.7-0.6,2.2c-0.4,0.5-1,0.8-1.7,0.8C51.5,369.4,50.9,369.1,50.5,368.6z M53.2,368
			c0.2-0.4,0.3-0.9,0.3-1.7c0-0.7-0.1-1.3-0.3-1.6c-0.2-0.4-0.6-0.5-1-0.5c-0.5,0-0.8,0.2-1,0.5c-0.2,0.4-0.3,0.9-0.3,1.6
			c0,0.8,0.1,1.3,0.3,1.7c0.2,0.4,0.6,0.5,1,0.5C52.7,368.6,53,368.4,53.2,368z M52.8,373.5c-0.1,0-0.2,0-0.3-0.1
			c-0.1-0.1-0.1-0.2-0.1-0.3c0-0.1,0-0.2,0.1-0.3l5.3-9.1c0.1-0.2,0.3-0.3,0.5-0.3c0.1,0,0.2,0,0.3,0.1c0.1,0.1,0.1,0.2,0.1,0.3
			c0,0.1,0,0.2-0.1,0.3l-5.3,9.1C53.2,373.4,53,373.5,52.8,373.5z M57.1,372.6c-0.4-0.5-0.6-1.2-0.6-2.2c0-1,0.2-1.7,0.6-2.2
			c0.4-0.5,1-0.8,1.7-0.8c0.7,0,1.3,0.2,1.7,0.7c0.4,0.5,0.6,1.2,0.6,2.2c0,1-0.2,1.7-0.6,2.2c-0.4,0.5-1,0.8-1.7,0.8
			C58.1,373.4,57.5,373.1,57.1,372.6z M59.9,372.1c0.2-0.3,0.3-0.9,0.3-1.7c0-0.7-0.1-1.3-0.3-1.6c-0.2-0.4-0.6-0.5-1-0.5
			c-0.5,0-0.8,0.2-1,0.5c-0.2,0.4-0.3,0.9-0.3,1.6c0,0.8,0.1,1.3,0.3,1.7c0.2,0.4,0.6,0.5,1,0.5C59.3,372.6,59.7,372.4,59.9,372.1z"
			/>
		<path fill="#A7BBC4" d="M66.9,375.7c-0.1-0.1-0.2-0.2-0.2-0.4V364c0-0.2,0.1-0.3,0.2-0.4s0.2-0.2,0.4-0.2c0.1,0,0.3,0.1,0.4,0.2
			c0.1,0.1,0.2,0.2,0.2,0.4v11.3c0,0.2-0.1,0.3-0.2,0.4c-0.1,0.1-0.2,0.2-0.4,0.2C67.2,375.8,67,375.8,66.9,375.7z"/>
		<path fill="#3A7D99" d="M86.2,362.8c0.9,0.5,1.7,1,2.2,1.8c0.5,0.7,0.8,1.5,0.8,2.3c0,0.6-0.2,1.2-0.5,1.8
			c-0.3,0.6-0.8,1.1-1.4,1.6c-0.6,0.5-1.2,0.8-2,1.1c-0.8,0.3-1.7,0.4-2.6,0.4c-0.7,0-1.3-0.1-1.9-0.2c-1.2,0.6-2.2,0.9-3.3,0.9
			c-0.3,0-0.6-0.1-0.8-0.3s-0.4-0.4-0.5-0.7c-0.1-0.3,0-0.6,0.1-0.8c0.1-0.3,0.3-0.5,0.6-0.6c0.2-0.1,0.4-0.2,0.5-0.3
			c-0.2-0.2-0.4-0.4-0.5-0.7c-0.4-0.7-0.6-1.4-0.6-2.1s0.3-1.5,0.8-2.3c0.5-0.7,1.3-1.3,2.2-1.8c1-0.5,2.2-0.8,3.5-0.8
			S85.2,362.3,86.2,362.8z M79.9,363.9c-0.8,0.3-1.3,0.8-1.8,1.4c-0.4,0.5-0.6,1.1-0.6,1.6c0,0.5,0.1,1,0.4,1.4
			c0.3,0.4,0.6,0.7,1.1,1.1c-0.1,0.7-0.6,1.3-1.5,1.8c0.9,0,2-0.3,3.1-1c0.7,0.2,1.4,0.3,2.1,0.3c1,0,2-0.2,2.8-0.6
			c0.8-0.3,1.3-0.8,1.8-1.4c0.4-0.5,0.6-1.1,0.6-1.6c0-0.5-0.2-1.1-0.6-1.6c-0.4-0.6-1-1-1.8-1.4c-0.8-0.4-1.8-0.6-2.8-0.6
			S80.7,363.5,79.9,363.9z M91.3,373.9c-0.2,0.2-0.5,0.3-0.8,0.3c-0.9,0-1.8-0.3-2.8-0.8c-0.7,0.2-1.4,0.2-2.2,0.2
			c-0.7-0.1-1.4-0.2-2.1-0.5c1.1-0.1,2.2-0.4,3.1-0.8c0.5,0,0.9-0.1,1.3-0.2c0.9,0.6,1.8,0.9,2.6,0.9c-0.7-0.4-1.2-0.9-1.2-1.6
			c0.4-0.3,0.6-0.6,0.9-0.9c0.3-0.4,0.4-0.8,0.4-1.3c0-0.3-0.1-0.6-0.2-0.9c0.2-0.7,0.2-1.3,0.1-2c0.4,0.4,0.8,0.9,1,1.4
			c0.2,0.5,0.4,1,0.4,1.5c0,0.9-0.3,1.7-0.9,2.5c0.1,0.1,0.2,0.1,0.3,0.2c0.3,0.1,0.4,0.4,0.6,0.6c0.1,0.3,0.2,0.5,0.1,0.8
			C91.7,373.5,91.5,373.7,91.3,373.9z"/>
		<path fill="#0F2026" d="M101.5,367.5c0.5,0.3,0.8,0.6,1.1,1.1c0.3,0.5,0.4,1,0.4,1.6c0,0.6-0.1,1.1-0.4,1.6
			c-0.3,0.5-0.6,0.9-1.1,1.1c-0.5,0.3-1,0.4-1.6,0.4c-1.2,0-2.1-0.4-2.7-1.2c-0.6-0.8-1-2-1-3.5c0-1.1,0.1-2,0.4-2.8
			c0.3-0.8,0.7-1.4,1.3-1.8c0.6-0.4,1.2-0.6,2-0.6c0.5,0,1,0.1,1.6,0.3c0.5,0.2,1,0.5,1.3,0.8c0.2,0.1,0.2,0.3,0.2,0.5
			c0,0.1,0,0.3-0.1,0.3c-0.1,0.1-0.2,0.1-0.3,0.1c-0.1,0-0.3-0.1-0.4-0.2c-0.8-0.7-1.6-1-2.3-1c-0.8,0-1.5,0.4-1.9,1.1
			c-0.5,0.7-0.7,1.8-0.7,3.1v0.2c0.2-0.5,0.6-0.9,1-1.2s1-0.4,1.6-0.4C100.5,367.1,101,367.3,101.5,367.5z M101.2,371.8
			c0.4-0.4,0.6-0.9,0.6-1.6c0-0.7-0.2-1.2-0.6-1.6c-0.4-0.4-0.9-0.6-1.5-0.6c-0.6,0-1.2,0.2-1.6,0.6c-0.4,0.4-0.6,0.9-0.6,1.6
			c0,0.6,0.2,1.2,0.6,1.6c0.4,0.4,0.9,0.6,1.6,0.6C100.4,372.4,100.9,372.2,101.2,371.8z"/>
		<path fill="#0F2026" d="M111.4,370.4c0.1,0.1,0.1,0.2,0.1,0.3c0,0.3-0.2,0.5-0.5,0.5h-1v1.6c0,0.2-0.1,0.3-0.2,0.4
			c-0.1,0.1-0.2,0.2-0.4,0.2s-0.3-0.1-0.4-0.2c-0.1-0.1-0.2-0.2-0.2-0.4v-1.6h-4.1c-0.2,0-0.3,0-0.4-0.1c-0.1-0.1-0.1-0.2-0.1-0.3
			c0-0.1,0.1-0.3,0.2-0.4l4.5-6.5c0.1-0.2,0.3-0.2,0.5-0.2c0.2,0,0.3,0.1,0.4,0.2c0.1,0.1,0.2,0.2,0.2,0.4v6.2h1
			C111.1,370.2,111.3,370.3,111.4,370.4z M105.5,370.2h3.3v-4.8L105.5,370.2z"/>
		<path fill="#0F2026" d="M113.3,368.6c-0.4-0.5-0.6-1.2-0.6-2.2c0-1,0.2-1.7,0.6-2.2c0.4-0.5,1-0.8,1.7-0.8c0.7,0,1.3,0.3,1.7,0.8
			c0.4,0.5,0.6,1.2,0.6,2.2c0,1-0.2,1.7-0.6,2.2c-0.4,0.5-1,0.8-1.7,0.8C114.3,369.4,113.7,369.1,113.3,368.6z M116,368
			c0.2-0.4,0.3-0.9,0.3-1.7c0-0.7-0.1-1.3-0.3-1.6c-0.2-0.4-0.6-0.5-1-0.5c-0.5,0-0.8,0.2-1,0.5c-0.2,0.4-0.3,0.9-0.3,1.6
			c0,0.8,0.1,1.3,0.3,1.7c0.2,0.4,0.6,0.5,1,0.5C115.5,368.6,115.8,368.4,116,368z M115.6,373.5c-0.1,0-0.2,0-0.3-0.1
			c-0.1-0.1-0.1-0.2-0.1-0.3c0-0.1,0-0.2,0.1-0.3l5.3-9.1c0.1-0.2,0.3-0.3,0.5-0.3c0.1,0,0.2,0,0.3,0.1c0.1,0.1,0.1,0.2,0.1,0.3
			c0,0.1,0,0.2-0.1,0.3l-5.3,9.1C116,373.4,115.8,373.5,115.6,373.5z M119.9,372.6c-0.4-0.5-0.6-1.2-0.6-2.2c0-1,0.2-1.7,0.6-2.2
			c0.4-0.5,1-0.8,1.7-0.8c0.7,0,1.3,0.2,1.7,0.7c0.4,0.5,0.6,1.2,0.6,2.2c0,1-0.2,1.7-0.6,2.2c-0.4,0.5-1,0.8-1.7,0.8
			C120.9,373.4,120.3,373.1,119.9,372.6z M122.7,372.1c0.2-0.3,0.3-0.9,0.3-1.7c0-0.7-0.1-1.3-0.3-1.6s-0.6-0.5-1-0.5
			c-0.5,0-0.8,0.2-1,0.5s-0.3,0.9-0.3,1.6c0,0.8,0.1,1.3,0.3,1.7c0.2,0.4,0.6,0.5,1,0.5C122.1,372.6,122.4,372.4,122.7,372.1z"/>
		<path fill="#A7BBC4" d="M129.7,375.7c-0.1-0.1-0.2-0.2-0.2-0.4V364c0-0.2,0.1-0.3,0.2-0.4s0.2-0.2,0.4-0.2c0.1,0,0.3,0.1,0.4,0.2
			s0.2,0.2,0.2,0.4v11.3c0,0.2-0.1,0.3-0.2,0.4s-0.2,0.2-0.4,0.2C130,375.8,129.8,375.8,129.7,375.7z"/>
		<path fill="#3A7D99" d="M155.7,363.8c0.2,0,0.3,0.1,0.5,0.2c0.1,0.1,0.2,0.3,0.2,0.5v6.5c0,0.2-0.1,0.3-0.2,0.5
			c-0.1,0.1-0.3,0.2-0.5,0.2h-1.3c-0.1,0-0.3,0-0.4-0.1c-0.1-0.1-0.2-0.2-0.2-0.3h-1.1c-0.3,0.5-0.8,0.8-1.5,0.9
			c-0.4,0.5-0.8,0.8-1.3,0.9c-0.3,0.3-0.5,0.5-0.9,0.6c-0.3,0.1-0.7,0.2-1,0.2c-0.4,0.2-0.8,0.3-1.3,0.3c-0.5,0-0.9-0.1-1.4-0.3
			c-0.4-0.2-0.9-0.5-1.2-0.9l-2-1.8h-0.5c-0.1,0.1-0.1,0.2-0.2,0.3c-0.1,0.1-0.2,0.1-0.4,0.1h-1.3c-0.2,0-0.3-0.1-0.5-0.2
			c-0.1-0.1-0.2-0.3-0.2-0.5v-6.5c0-0.2,0.1-0.3,0.2-0.5c0.1-0.1,0.3-0.2,0.5-0.2h1.3c0.2,0,0.4,0.1,0.5,0.2h0.7l1.1-1.1
			c0.3-0.3,0.6-0.5,1-0.7c0.4-0.2,0.8-0.2,1.2-0.2h0.9c0.5,0,1,0.1,1.5,0.4c0.4-0.3,0.9-0.4,1.3-0.4h1.3c0.4,0,0.8,0.1,1.2,0.3
			c0.4,0.2,0.7,0.4,0.9,0.7l0.9,1h0.6c0.1-0.1,0.3-0.2,0.5-0.2H155.7z M140.3,370.7c0.1,0,0.2,0,0.3-0.1c0.1-0.1,0.1-0.2,0.1-0.3
			c0-0.1,0-0.2-0.1-0.3c-0.1-0.1-0.2-0.1-0.3-0.1c-0.1,0-0.2,0-0.3,0.1c-0.1,0.1-0.1,0.2-0.1,0.3c0,0.1,0,0.2,0.1,0.3
			C140.1,370.6,140.2,370.7,140.3,370.7z M151.5,370.5c0.2-0.2,0.3-0.4,0.3-0.6c0-0.3-0.1-0.5-0.2-0.7l-2-2.6l-0.7,0.8
			c-0.3,0.3-0.6,0.6-1.1,0.7s-0.8,0.1-1.2,0s-0.8-0.4-1.1-0.7c-0.3-0.4-0.5-0.8-0.5-1.3s0.2-0.9,0.5-1.3l1.2-1.4
			c-0.2,0-0.3-0.1-0.5-0.1h-0.9c-0.5,0-0.9,0.2-1.2,0.5l-1.2,1.2c-0.2,0.2-0.4,0.2-0.6,0.2h-0.7v4.5h0.6c0.2,0,0.4,0.1,0.6,0.2
			l2.2,2c0.2,0.3,0.5,0.5,0.8,0.6c0.3,0.2,0.6,0.2,0.9,0.2c0.4,0,0.7-0.1,0.9-0.4c0.3,0.1,0.6,0.1,0.9-0.1c0.3-0.2,0.4-0.4,0.5-0.6
			c0.3,0,0.5,0,0.7-0.1c0.2-0.1,0.4-0.3,0.5-0.4c0.1-0.2,0.2-0.3,0.2-0.5c0.1,0.1,0.2,0.1,0.4,0.1
			C151.1,370.8,151.3,370.7,151.5,370.5z M153.7,369.8v-4.5h-1.1l-1.2-1.4c-0.3-0.3-0.7-0.5-1.1-0.5H149c-0.4,0-0.7,0.1-0.9,0.4
			l-1.6,1.8c-0.1,0.1-0.2,0.3-0.2,0.4s0,0.3,0.2,0.4c0.2,0.2,0.4,0.4,0.7,0.4c0.3,0,0.5-0.1,0.7-0.3l1.5-1.7
			c0.1-0.1,0.3-0.2,0.4-0.2c0.2,0,0.3,0,0.5,0.1c0.1,0.1,0.2,0.2,0.2,0.4c0,0.1,0,0.3,0,0.4l2.1,2.8c0.4,0.4,0.5,0.9,0.5,1.5H153.7z
			 M155,370.7c0.1,0,0.2,0,0.3-0.1c0.1-0.1,0.1-0.2,0.1-0.3c0-0.1,0-0.2-0.1-0.3c-0.1-0.1-0.2-0.1-0.3-0.1c-0.1,0-0.2,0-0.3,0.1
			c-0.1,0.1-0.1,0.2-0.1,0.3c0,0.1,0,0.2,0.1,0.3C154.8,370.6,154.9,370.7,155,370.7z"/>
		<path fill="#0F2026" d="M167.8,367.5c0.5,0.3,0.8,0.6,1.1,1.1c0.3,0.5,0.4,1,0.4,1.6c0,0.6-0.1,1.1-0.4,1.6
			c-0.3,0.5-0.6,0.9-1.1,1.1c-0.5,0.3-1,0.4-1.6,0.4c-1.2,0-2.1-0.4-2.7-1.2c-0.6-0.8-1-2-1-3.5c0-1.1,0.1-2,0.4-2.8
			c0.3-0.8,0.7-1.4,1.3-1.8c0.6-0.4,1.2-0.6,2-0.6c0.5,0,1,0.1,1.6,0.3c0.5,0.2,1,0.5,1.3,0.8c0.2,0.1,0.2,0.3,0.2,0.5
			c0,0.1,0,0.3-0.1,0.3c-0.1,0.1-0.2,0.1-0.3,0.1c-0.1,0-0.3-0.1-0.4-0.2c-0.8-0.7-1.6-1-2.3-1c-0.8,0-1.5,0.4-1.9,1.1
			c-0.5,0.7-0.7,1.8-0.7,3.1v0.2c0.2-0.5,0.6-0.9,1-1.2c0.5-0.3,1-0.4,1.6-0.4C166.8,367.1,167.4,367.3,167.8,367.5z M167.6,371.8
			c0.4-0.4,0.6-0.9,0.6-1.6c0-0.7-0.2-1.2-0.6-1.6c-0.4-0.4-0.9-0.6-1.5-0.6c-0.6,0-1.2,0.2-1.6,0.6c-0.4,0.4-0.6,0.9-0.6,1.6
			c0,0.6,0.2,1.2,0.6,1.6c0.4,0.4,0.9,0.6,1.6,0.6C166.7,372.4,167.2,372.2,167.6,371.8z"/>
		<path fill="#0F2026" d="M177.3,363.7c0.1,0.1,0.1,0.2,0.1,0.3c0,0.1,0,0.3-0.1,0.4l-4.6,8.6c-0.1,0.2-0.3,0.3-0.5,0.3
			c-0.1,0-0.3-0.1-0.4-0.2c-0.1-0.1-0.2-0.2-0.2-0.4c0-0.1,0-0.2,0.1-0.3l4.3-8.1h-4.8c-0.2,0-0.3,0-0.4-0.1
			c-0.1-0.1-0.1-0.2-0.1-0.3c0-0.2,0-0.3,0.1-0.4c0.1-0.1,0.2-0.1,0.4-0.1h5.6C177.1,363.5,177.2,363.6,177.3,363.7z"/>
		<path fill="#0F2026" d="M179.6,368.6c-0.4-0.5-0.6-1.2-0.6-2.2c0-1,0.2-1.7,0.6-2.2c0.4-0.5,1-0.8,1.7-0.8c0.7,0,1.3,0.3,1.7,0.8
			c0.4,0.5,0.6,1.2,0.6,2.2c0,1-0.2,1.7-0.6,2.2c-0.4,0.5-1,0.8-1.7,0.8C180.6,369.4,180,369.1,179.6,368.6z M182.4,368
			c0.2-0.4,0.3-0.9,0.3-1.7c0-0.7-0.1-1.3-0.3-1.6c-0.2-0.4-0.5-0.5-1-0.5c-0.5,0-0.8,0.2-1,0.5c-0.2,0.4-0.3,0.9-0.3,1.6
			c0,0.8,0.1,1.3,0.3,1.7c0.2,0.4,0.6,0.5,1,0.5C181.8,368.6,182.1,368.4,182.4,368z M182,373.5c-0.1,0-0.2,0-0.3-0.1
			c-0.1-0.1-0.1-0.2-0.1-0.3c0-0.1,0-0.2,0.1-0.3l5.3-9.1c0.1-0.2,0.3-0.3,0.5-0.3c0.1,0,0.2,0,0.3,0.1c0.1,0.1,0.1,0.2,0.1,0.3
			c0,0.1,0,0.2-0.1,0.3l-5.3,9.1C182.3,373.4,182.2,373.5,182,373.5z M186.3,372.6c-0.4-0.5-0.6-1.2-0.6-2.2c0-1,0.2-1.7,0.6-2.2
			c0.4-0.5,1-0.8,1.7-0.8c0.7,0,1.3,0.2,1.7,0.7c0.4,0.5,0.6,1.2,0.6,2.2c0,1-0.2,1.7-0.6,2.2c-0.4,0.5-1,0.8-1.7,0.8
			C187.2,373.4,186.7,373.1,186.3,372.6z M189,372.1c0.2-0.3,0.3-0.9,0.3-1.7c0-0.7-0.1-1.3-0.3-1.6c-0.2-0.4-0.6-0.5-1-0.5
			c-0.5,0-0.8,0.2-1,0.5c-0.2,0.4-0.3,0.9-0.3,1.6c0,0.8,0.1,1.3,0.3,1.7c0.2,0.4,0.5,0.5,1,0.5C188.4,372.6,188.8,372.4,189,372.1z
			"/>
		<path fill="#A7BBC4" d="M196.1,375.7c-0.1-0.1-0.2-0.2-0.2-0.4V364c0-0.2,0.1-0.3,0.2-0.4c0.1-0.1,0.2-0.2,0.4-0.2
			c0.1,0,0.3,0.1,0.4,0.2c0.1,0.1,0.2,0.2,0.2,0.4v11.3c0,0.2-0.1,0.3-0.2,0.4c-0.1,0.1-0.2,0.2-0.4,0.2
			C196.3,375.8,196.2,375.8,196.1,375.7z"/>
		<path fill="#3A7D99" d="M215.5,363.1c0.2,0.2,0.2,0.4,0.2,0.6c0,0.2-0.1,0.4-0.2,0.6l-2.6,2.5v7.2c0,0.2-0.1,0.4-0.3,0.6
			s-0.4,0.3-0.6,0.3h-0.4c-0.2,0-0.4-0.1-0.6-0.3s-0.3-0.4-0.3-0.6v-3h-0.4v3c0,0.2-0.1,0.4-0.3,0.6s-0.4,0.3-0.6,0.3h-0.4
			c-0.2,0-0.4-0.1-0.6-0.3s-0.3-0.4-0.3-0.6v-7.2l-2.6-2.5c-0.2-0.2-0.2-0.4-0.2-0.6c0-0.2,0.1-0.4,0.3-0.6c0.2-0.2,0.4-0.3,0.6-0.3
			c0.2,0,0.4,0.1,0.6,0.2l2.3,2.4h2.8l2.3-2.4c0.2-0.2,0.4-0.2,0.6-0.2C215.1,362.9,215.3,363,215.5,363.1z M208.6,363.1
			c0,0.5,0.2,1,0.6,1.4c0.4,0.4,0.8,0.6,1.4,0.6c0.5,0,1-0.2,1.4-0.6s0.6-0.8,0.6-1.4c0-0.5-0.2-1-0.6-1.4c-0.4-0.4-0.8-0.6-1.4-0.6
			c-0.5,0-1,0.2-1.4,0.6C208.8,362.1,208.6,362.6,208.6,363.1z"/>
		<path fill="#0F2026" d="M228.9,370.4c0.1,0.1,0.1,0.2,0.1,0.3c0,0.3-0.2,0.5-0.5,0.5h-1v1.6c0,0.2-0.1,0.3-0.2,0.4
			c-0.1,0.1-0.2,0.2-0.4,0.2c-0.2,0-0.3-0.1-0.4-0.2s-0.2-0.2-0.2-0.4v-1.6h-4.1c-0.2,0-0.3,0-0.4-0.1c-0.1-0.1-0.1-0.2-0.1-0.3
			c0-0.1,0.1-0.3,0.2-0.4l4.5-6.5c0.1-0.2,0.3-0.2,0.5-0.2c0.2,0,0.3,0.1,0.4,0.2c0.1,0.1,0.2,0.2,0.2,0.4v6.2h1
			C228.7,370.2,228.8,370.3,228.9,370.4z M223,370.2h3.3v-4.8L223,370.2z"/>
		<path fill="#0F2026" d="M235.6,367.6c0.5,0.3,0.8,0.6,1.1,1.1c0.3,0.5,0.4,1,0.4,1.6c0,0.6-0.1,1.2-0.4,1.6
			c-0.3,0.5-0.7,0.8-1.2,1.1c-0.5,0.3-1.1,0.4-1.7,0.4c-0.6,0-1.1-0.1-1.7-0.3c-0.5-0.2-1-0.5-1.4-0.8c-0.1-0.1-0.2-0.3-0.2-0.5
			c0-0.1,0-0.3,0.1-0.3c0.1-0.1,0.2-0.1,0.3-0.1c0.1,0,0.3,0.1,0.4,0.2c0.4,0.3,0.8,0.6,1.2,0.7c0.4,0.2,0.8,0.2,1.3,0.2
			c0.7,0,1.2-0.2,1.6-0.6c0.4-0.4,0.6-0.9,0.6-1.6c0-0.6-0.2-1.2-0.6-1.6c-0.4-0.4-0.9-0.6-1.6-0.6c-0.8,0-1.5,0.3-2,1
			c-0.1,0.1-0.3,0.2-0.5,0.2c-0.1,0-0.2,0-0.3-0.1c-0.1-0.1-0.1-0.2-0.1-0.3v-4.8c0-0.2,0-0.3,0.1-0.4c0.1-0.1,0.2-0.2,0.4-0.2h4.9
			c0.2,0,0.3,0,0.4,0.1c0.1,0.1,0.1,0.2,0.1,0.3c0,0.1,0,0.3-0.1,0.3c-0.1,0.1-0.2,0.1-0.4,0.1h-4.3v3.5c0.3-0.2,0.6-0.4,0.9-0.6
			c0.3-0.1,0.7-0.2,1.1-0.2C234.6,367.2,235.1,367.3,235.6,367.6z"/>
		<path fill="#0F2026" d="M239.1,368.6c-0.4-0.5-0.6-1.2-0.6-2.2c0-1,0.2-1.7,0.6-2.2c0.4-0.5,1-0.8,1.7-0.8c0.7,0,1.3,0.3,1.7,0.8
			c0.4,0.5,0.6,1.2,0.6,2.2c0,1-0.2,1.7-0.6,2.2c-0.4,0.5-1,0.8-1.7,0.8C240.1,369.4,239.5,369.1,239.1,368.6z M241.8,368
			c0.2-0.4,0.3-0.9,0.3-1.7c0-0.7-0.1-1.3-0.3-1.6c-0.2-0.4-0.6-0.5-1-0.5c-0.5,0-0.8,0.2-1,0.5c-0.2,0.4-0.3,0.9-0.3,1.6
			c0,0.8,0.1,1.3,0.3,1.7c0.2,0.4,0.6,0.5,1,0.5C241.3,368.6,241.6,368.4,241.8,368z M241.4,373.5c-0.1,0-0.2,0-0.3-0.1
			c-0.1-0.1-0.1-0.2-0.1-0.3c0-0.1,0-0.2,0.1-0.3l5.3-9.1c0.1-0.2,0.3-0.3,0.5-0.3c0.1,0,0.2,0,0.3,0.1c0.1,0.1,0.1,0.2,0.1,0.3
			c0,0.1,0,0.2-0.1,0.3l-5.3,9.1C241.8,373.4,241.6,373.5,241.4,373.5z M245.7,372.6c-0.4-0.5-0.6-1.2-0.6-2.2c0-1,0.2-1.7,0.6-2.2
			c0.4-0.5,1-0.8,1.7-0.8c0.7,0,1.3,0.2,1.7,0.7c0.4,0.5,0.6,1.2,0.6,2.2c0,1-0.2,1.7-0.6,2.2c-0.4,0.5-1,0.8-1.7,0.8
			C246.7,373.4,246.1,373.1,245.7,372.6z M248.5,372.1c0.2-0.3,0.3-0.9,0.3-1.7c0-0.7-0.1-1.3-0.3-1.6c-0.2-0.4-0.6-0.5-1-0.5
			s-0.8,0.2-1,0.5c-0.2,0.4-0.3,0.9-0.3,1.6c0,0.8,0.1,1.3,0.3,1.7c0.2,0.4,0.6,0.5,1,0.5C247.9,372.6,248.2,372.4,248.5,372.1z"/>
	</g>
</g>
</svg>
