<?xml version="1.0" encoding="utf-8"?>
<!-- Generator: Adobe Illustrator 19.1.0, SVG Export Plug-In . SVG Version: 6.00 Build 0)  -->
<svg version="1.0" id="Layer_1_copy" xmlns="http://www.w3.org/2000/svg" xmlns:xlink="http://www.w3.org/1999/xlink" x="0px"
	 y="0px" viewBox="0 0 300 438" enable-background="new 0 0 300 438" xml:space="preserve">
<rect y="0.4" fill="#FFFFFF" width="300" height="437.6"/>
<g>
	<path fill="#0F2026" d="M111,20.4c-0.7-0.4-1.2-1-1.6-1.7c-0.4-0.8-0.6-1.6-0.6-2.7s0.2-1.9,0.6-2.6c0.4-0.8,0.9-1.3,1.6-1.7
		c0.7-0.4,1.5-0.6,2.5-0.6c0.6,0,1.2,0.1,1.7,0.3c0.5,0.2,1,0.4,1.4,0.8c0.1,0.1,0.2,0.2,0.2,0.3s0.1,0.2,0.1,0.4
		c0,0.2-0.1,0.4-0.2,0.5c-0.1,0.1-0.2,0.2-0.4,0.2c-0.2,0-0.4-0.1-0.6-0.2c-0.4-0.3-0.8-0.5-1.1-0.6c-0.3-0.1-0.7-0.2-1.1-0.2
		c-1,0-1.7,0.3-2.2,0.9c-0.5,0.6-0.7,1.5-0.7,2.6c0,1.2,0.2,2.1,0.7,2.7c0.5,0.6,1.2,0.9,2.2,0.9c0.4,0,0.8-0.1,1.1-0.2
		c0.3-0.1,0.7-0.3,1.1-0.6c0.1-0.1,0.2-0.1,0.3-0.1c0.1,0,0.2-0.1,0.3-0.1c0.2,0,0.3,0.1,0.4,0.2c0.1,0.1,0.2,0.3,0.2,0.5
		c0,0.1,0,0.3-0.1,0.4c0,0.1-0.1,0.2-0.2,0.3c-0.4,0.3-0.9,0.6-1.4,0.8c-0.5,0.2-1.1,0.3-1.7,0.3C112.5,21,111.7,20.8,111,20.4z"/>
	<path fill="#0F2026" d="M118.4,12.5c-0.2-0.2-0.3-0.4-0.3-0.7c0-0.3,0.1-0.5,0.3-0.7s0.4-0.2,0.7-0.2c0.3,0,0.6,0.1,0.7,0.2
		s0.3,0.4,0.3,0.7c0,0.3-0.1,0.5-0.3,0.7c-0.2,0.2-0.4,0.3-0.7,0.3C118.8,12.8,118.6,12.7,118.4,12.5z M118.5,20.8
		c-0.2-0.1-0.2-0.3-0.2-0.6v-5.3c0-0.3,0.1-0.5,0.2-0.6c0.2-0.1,0.4-0.2,0.6-0.2c0.2,0,0.5,0.1,0.6,0.2c0.2,0.1,0.2,0.3,0.2,0.6v5.3
		c0,0.3-0.1,0.5-0.2,0.6c-0.2,0.1-0.4,0.2-0.6,0.2C118.9,21,118.7,20.9,118.5,20.8z"/>
	<path fill="#0F2026" d="M127.5,14.7c0.4,0.5,0.6,1.2,0.6,2.1v3.4c0,0.3-0.1,0.5-0.2,0.6c-0.2,0.1-0.4,0.2-0.6,0.2
		c-0.3,0-0.5-0.1-0.6-0.2c-0.2-0.1-0.2-0.4-0.2-0.6v-3.3c0-0.5-0.1-0.9-0.3-1.1c-0.2-0.2-0.5-0.4-0.9-0.4c-0.5,0-0.9,0.2-1.2,0.5
		c-0.3,0.3-0.4,0.7-0.4,1.3v3.1c0,0.3-0.1,0.5-0.2,0.6c-0.2,0.1-0.4,0.2-0.6,0.2c-0.3,0-0.5-0.1-0.6-0.2c-0.2-0.1-0.2-0.4-0.2-0.6
		v-5.4c0-0.2,0.1-0.4,0.2-0.6c0.2-0.1,0.4-0.2,0.6-0.2c0.2,0,0.4,0.1,0.6,0.2c0.2,0.1,0.2,0.3,0.2,0.6v0.4c0.2-0.4,0.5-0.7,0.9-0.9
		c0.4-0.2,0.8-0.3,1.3-0.3C126.5,14,127.1,14.2,127.5,14.7z"/>
	<path fill="#0F2026" d="M136.2,11.3c0.2,0.1,0.2,0.3,0.2,0.6v8.3c0,0.2-0.1,0.4-0.2,0.6c-0.2,0.1-0.4,0.2-0.6,0.2s-0.5-0.1-0.6-0.2
		c-0.2-0.1-0.2-0.3-0.2-0.6v-0.3c-0.2,0.4-0.5,0.7-0.9,0.9c-0.4,0.2-0.8,0.3-1.3,0.3c-0.6,0-1.1-0.1-1.6-0.4
		c-0.5-0.3-0.8-0.7-1.1-1.3c-0.3-0.5-0.4-1.2-0.4-1.9c0-0.7,0.1-1.3,0.4-1.8s0.6-0.9,1.1-1.2c0.5-0.3,1-0.4,1.6-0.4
		c0.5,0,0.9,0.1,1.3,0.3c0.4,0.2,0.7,0.5,0.9,0.9v-3.3c0-0.2,0.1-0.4,0.2-0.6c0.2-0.1,0.4-0.2,0.6-0.2
		C135.8,11.1,136,11.1,136.2,11.3z M134.2,19.1c0.3-0.4,0.4-0.9,0.4-1.6c0-0.7-0.1-1.2-0.4-1.6c-0.3-0.4-0.7-0.6-1.3-0.6
		c-0.6,0-1,0.2-1.3,0.6c-0.3,0.4-0.5,0.9-0.5,1.6c0,0.7,0.2,1.2,0.5,1.6c0.3,0.4,0.7,0.6,1.3,0.6C133.5,19.7,133.9,19.5,134.2,19.1z
		"/>
	<path fill="#0F2026" d="M143.2,14.1c0.1-0.1,0.3-0.1,0.4-0.1c0.2,0,0.4,0.1,0.6,0.2c0.2,0.1,0.3,0.3,0.3,0.5c0,0.1,0,0.2-0.1,0.3
		l-3.8,7.9c-0.2,0.3-0.4,0.5-0.7,0.5c-0.2,0-0.4-0.1-0.6-0.2c-0.2-0.1-0.2-0.3-0.2-0.5c0-0.1,0-0.2,0.1-0.3l0.9-2l-2.6-5.4
		c0-0.1-0.1-0.2-0.1-0.3c0-0.2,0.1-0.4,0.3-0.5c0.2-0.1,0.4-0.2,0.6-0.2c0.2,0,0.3,0,0.4,0.1c0.1,0.1,0.2,0.2,0.3,0.4l1.9,4.3
		l1.9-4.3C143,14.3,143.1,14.2,143.2,14.1z"/>
	<path fill="#0F2026" d="M161.9,11.2c0.1-0.1,0.3-0.1,0.5-0.1c0.2,0,0.4,0.1,0.6,0.2c0.2,0.1,0.2,0.3,0.2,0.6c0,0.1,0,0.2-0.1,0.4
		l-3,8.2c-0.1,0.2-0.2,0.3-0.4,0.4c-0.2,0.1-0.4,0.2-0.6,0.2s-0.4-0.1-0.6-0.2s-0.3-0.2-0.4-0.4l-2.3-6.5l-2.3,6.5
		c-0.1,0.2-0.2,0.3-0.4,0.4c-0.2,0.1-0.4,0.2-0.6,0.2c-0.2,0-0.4-0.1-0.6-0.2c-0.2-0.1-0.3-0.2-0.4-0.4l-3-8.2
		c0-0.1-0.1-0.3-0.1-0.4c0-0.2,0.1-0.4,0.3-0.6c0.2-0.1,0.4-0.2,0.6-0.2c0.2,0,0.4,0,0.5,0.1c0.1,0.1,0.3,0.2,0.3,0.4l2.3,6.8
		l2.4-6.7c0.1-0.2,0.2-0.3,0.3-0.4c0.1-0.1,0.3-0.2,0.5-0.2c0.2,0,0.3,0.1,0.5,0.2c0.2,0.1,0.3,0.3,0.3,0.4l2.3,6.8l2.4-6.8
		C161.6,11.4,161.7,11.3,161.9,11.2z"/>
	<path fill="#0F2026" d="M168.7,14.7c0.5,0.5,0.7,1.2,0.7,2.1v3.4c0,0.2-0.1,0.4-0.2,0.6c-0.1,0.1-0.4,0.2-0.6,0.2
		c-0.2,0-0.4-0.1-0.6-0.2c-0.2-0.1-0.2-0.3-0.2-0.6v-0.3c-0.2,0.4-0.4,0.6-0.7,0.8s-0.7,0.3-1.2,0.3c-0.5,0-0.9-0.1-1.2-0.3
		c-0.4-0.2-0.7-0.4-0.9-0.8c-0.2-0.3-0.3-0.7-0.3-1.1c0-0.5,0.1-0.9,0.4-1.2c0.3-0.3,0.7-0.5,1.2-0.6c0.6-0.1,1.4-0.2,2.4-0.2h0.3
		v-0.3c0-0.5-0.1-0.8-0.3-1c-0.2-0.2-0.5-0.3-0.9-0.3c-0.3,0-0.5,0-0.8,0.1c-0.3,0.1-0.6,0.2-1,0.3c-0.2,0.1-0.4,0.2-0.5,0.2
		c-0.2,0-0.3-0.1-0.4-0.2c-0.1-0.1-0.2-0.3-0.2-0.5c0-0.2,0-0.3,0.1-0.4c0.1-0.1,0.2-0.2,0.4-0.3c0.3-0.2,0.7-0.3,1.2-0.4
		c0.4-0.1,0.9-0.2,1.3-0.2C167.6,14,168.3,14.2,168.7,14.7z M167.3,19.3c0.3-0.3,0.4-0.7,0.4-1.2v-0.3h-0.2c-0.6,0-1.1,0-1.4,0.1
		c-0.3,0.1-0.6,0.2-0.7,0.3c-0.1,0.1-0.2,0.3-0.2,0.6c0,0.3,0.1,0.5,0.3,0.7c0.2,0.2,0.5,0.3,0.8,0.3
		C166.7,19.8,167.1,19.6,167.3,19.3z"/>
	<path fill="#0F2026" d="M175.4,20.3c0,0.2-0.1,0.4-0.3,0.5c-0.2,0.1-0.4,0.2-0.8,0.1l-0.4,0c-1.5-0.1-2.3-0.9-2.3-2.5v-3H171
		c-0.2,0-0.4-0.1-0.6-0.2c-0.1-0.1-0.2-0.3-0.2-0.5c0-0.2,0.1-0.4,0.2-0.5c0.1-0.1,0.3-0.2,0.6-0.2h0.7v-1.3c0-0.2,0.1-0.4,0.2-0.6
		c0.2-0.1,0.4-0.2,0.6-0.2c0.3,0,0.5,0.1,0.6,0.2c0.2,0.1,0.2,0.3,0.2,0.6v1.3h1.2c0.2,0,0.4,0.1,0.6,0.2c0.1,0.1,0.2,0.3,0.2,0.5
		c0,0.2-0.1,0.4-0.2,0.5c-0.1,0.1-0.3,0.2-0.6,0.2h-1.2v3.1c0,0.7,0.3,1,0.9,1.1l0.4,0C175.1,19.7,175.4,19.9,175.4,20.3z"/>
	<path fill="#0F2026" d="M176.3,20.4c-0.3-0.2-0.4-0.4-0.4-0.7c0-0.2,0.1-0.3,0.2-0.4c0.1-0.1,0.2-0.2,0.4-0.2
		c0.2,0,0.4,0.1,0.6,0.2c0.3,0.1,0.6,0.2,0.8,0.3c0.2,0.1,0.6,0.1,0.9,0.1c0.4,0,0.7-0.1,0.9-0.2c0.2-0.1,0.3-0.3,0.3-0.5
		c0-0.2,0-0.3-0.1-0.4c-0.1-0.1-0.2-0.2-0.5-0.3c-0.2-0.1-0.6-0.2-1-0.3c-0.8-0.2-1.4-0.4-1.8-0.7c-0.4-0.3-0.5-0.7-0.5-1.3
		c0-0.4,0.1-0.8,0.4-1.1c0.2-0.3,0.6-0.6,1-0.8c0.4-0.2,0.9-0.3,1.4-0.3c0.4,0,0.8,0,1.1,0.1c0.4,0.1,0.7,0.2,1,0.4
		c0.3,0.2,0.4,0.4,0.4,0.7c0,0.2-0.1,0.3-0.2,0.5c-0.1,0.1-0.2,0.2-0.4,0.2c-0.1,0-0.2,0-0.3-0.1c-0.1,0-0.2-0.1-0.4-0.2
		c-0.3-0.1-0.5-0.2-0.7-0.3s-0.4-0.1-0.7-0.1c-0.3,0-0.6,0.1-0.8,0.2c-0.2,0.1-0.3,0.3-0.3,0.6c0,0.2,0.1,0.4,0.3,0.5
		c0.2,0.1,0.6,0.2,1.2,0.4c0.6,0.1,1.1,0.3,1.4,0.4c0.3,0.2,0.6,0.4,0.8,0.6c0.2,0.2,0.2,0.6,0.2,1c0,0.6-0.3,1.1-0.8,1.5
		c-0.5,0.4-1.2,0.6-2.1,0.6C177.7,21,176.9,20.8,176.3,20.4z"/>
	<path fill="#0F2026" d="M184.2,20.6c-0.5-0.3-0.9-0.7-1.2-1.2c-0.3-0.5-0.4-1.2-0.4-1.9c0-0.7,0.1-1.3,0.4-1.9
		c0.3-0.5,0.7-0.9,1.2-1.2c0.5-0.3,1.1-0.4,1.8-0.4c0.7,0,1.3,0.1,1.8,0.4c0.5,0.3,0.9,0.7,1.2,1.2c0.3,0.5,0.4,1.2,0.4,1.9
		c0,0.7-0.1,1.3-0.4,1.9c-0.3,0.5-0.7,0.9-1.2,1.2c-0.5,0.3-1.1,0.4-1.8,0.4C185.4,21,184.8,20.9,184.2,20.6z M187.3,19.1
		c0.3-0.4,0.4-0.9,0.4-1.6c0-0.7-0.1-1.3-0.4-1.6c-0.3-0.4-0.7-0.6-1.3-0.6c-0.6,0-1,0.2-1.3,0.6c-0.3,0.4-0.4,0.9-0.4,1.6
		c0,0.7,0.1,1.3,0.4,1.6c0.3,0.4,0.7,0.6,1.3,0.6C186.6,19.7,187,19.5,187.3,19.1z"/>
	<path fill="#0F2026" d="M196.6,14.7c0.4,0.5,0.6,1.2,0.6,2.1v3.4c0,0.3-0.1,0.5-0.2,0.6c-0.2,0.1-0.4,0.2-0.6,0.2s-0.5-0.1-0.6-0.2
		c-0.2-0.1-0.2-0.4-0.2-0.6v-3.3c0-0.5-0.1-0.9-0.3-1.1c-0.2-0.2-0.5-0.4-0.9-0.4c-0.5,0-0.9,0.2-1.2,0.5c-0.3,0.3-0.4,0.7-0.4,1.3
		v3.1c0,0.3-0.1,0.5-0.2,0.6c-0.2,0.1-0.4,0.2-0.6,0.2c-0.3,0-0.5-0.1-0.6-0.2c-0.2-0.1-0.2-0.4-0.2-0.6v-5.4c0-0.2,0.1-0.4,0.2-0.6
		c0.2-0.1,0.4-0.2,0.6-0.2c0.2,0,0.4,0.1,0.6,0.2c0.2,0.1,0.2,0.3,0.2,0.6v0.4c0.2-0.4,0.5-0.7,0.9-0.9c0.4-0.2,0.8-0.3,1.3-0.3
		C195.6,14,196.2,14.2,196.6,14.7z"/>
	<path fill="#0F2026" d="M83.4,35.6c0,0.1,0,0.2-0.1,0.2c-0.1,0.1-0.1,0.1-0.2,0.1c-0.1,0-0.1,0-0.2-0.1c-0.1,0-0.1-0.1-0.1-0.2
		l-0.9-2h-4.5l-0.9,2c-0.1,0.1-0.2,0.2-0.3,0.2c-0.1,0-0.2,0-0.2-0.1c-0.1-0.1-0.1-0.1-0.1-0.2c0-0.1,0-0.1,0-0.1l3.4-7.6
		c0.1-0.2,0.2-0.3,0.4-0.3c0.1,0,0.2,0,0.2,0.1s0.1,0.1,0.2,0.2l3.3,7.6C83.4,35.5,83.4,35.6,83.4,35.6z M77.7,33.1h3.9l-2-4.5
		L77.7,33.1z"/>
	<path fill="#0F2026" d="M85.5,35.8c-0.3-0.1-0.6-0.2-0.8-0.4c-0.1-0.1-0.2-0.2-0.3-0.3c-0.1-0.1-0.1-0.2-0.1-0.2
		c0-0.1,0-0.1,0.1-0.2c0-0.1,0.1-0.1,0.2-0.1c0.1,0,0.2,0.1,0.4,0.2c0.2,0.1,0.5,0.3,0.7,0.4c0.2,0.1,0.5,0.1,0.9,0.1
		c0.5,0,0.8-0.1,1.1-0.2c0.3-0.2,0.4-0.4,0.4-0.7c0-0.2,0-0.3-0.1-0.5c-0.1-0.1-0.2-0.2-0.5-0.3c-0.2-0.1-0.5-0.2-0.9-0.3
		c-0.7-0.2-1.2-0.4-1.5-0.6c-0.3-0.2-0.4-0.6-0.4-1c0-0.5,0.2-0.9,0.6-1.2c0.4-0.3,0.9-0.5,1.5-0.5c0.3,0,0.6,0,0.9,0.1
		c0.3,0.1,0.5,0.2,0.7,0.3c0.3,0.2,0.4,0.4,0.4,0.5c0,0.1,0,0.1-0.1,0.2c0,0.1-0.1,0.1-0.2,0.1c-0.1,0-0.2-0.1-0.4-0.2
		c-0.2-0.1-0.4-0.3-0.6-0.4c-0.2-0.1-0.5-0.1-0.8-0.1c-0.4,0-0.7,0.1-1,0.3c-0.2,0.2-0.4,0.4-0.4,0.7c0,0.2,0,0.3,0.1,0.4
		c0.1,0.1,0.2,0.2,0.4,0.3s0.5,0.2,0.8,0.3c0.5,0.1,0.9,0.3,1.2,0.4c0.3,0.1,0.5,0.3,0.6,0.5c0.1,0.2,0.2,0.4,0.2,0.7
		c0,0.5-0.2,0.8-0.6,1.1c-0.4,0.3-0.9,0.4-1.6,0.4C86.1,36,85.8,35.9,85.5,35.8z"/>
	<path fill="#0F2026" d="M91,35.8c-0.3-0.1-0.6-0.2-0.8-0.4c-0.1-0.1-0.2-0.2-0.3-0.3c-0.1-0.1-0.1-0.2-0.1-0.2c0-0.1,0-0.1,0.1-0.2
		c0-0.1,0.1-0.1,0.2-0.1c0.1,0,0.2,0.1,0.4,0.2c0.2,0.1,0.5,0.3,0.7,0.4c0.2,0.1,0.5,0.1,0.9,0.1c0.5,0,0.8-0.1,1.1-0.2
		c0.3-0.2,0.4-0.4,0.4-0.7c0-0.2,0-0.3-0.1-0.5c-0.1-0.1-0.2-0.2-0.5-0.3s-0.5-0.2-0.9-0.3c-0.7-0.2-1.2-0.4-1.5-0.6s-0.4-0.6-0.4-1
		c0-0.5,0.2-0.9,0.6-1.2c0.4-0.3,0.9-0.5,1.5-0.5c0.3,0,0.6,0,0.9,0.1c0.3,0.1,0.5,0.2,0.7,0.3c0.3,0.2,0.4,0.4,0.4,0.5
		c0,0.1,0,0.1-0.1,0.2c-0.1,0.1-0.1,0.1-0.2,0.1c-0.1,0-0.2-0.1-0.4-0.2c-0.2-0.1-0.4-0.3-0.6-0.4c-0.2-0.1-0.5-0.1-0.8-0.1
		c-0.4,0-0.7,0.1-1,0.3c-0.2,0.2-0.4,0.4-0.4,0.7c0,0.2,0,0.3,0.1,0.4c0.1,0.1,0.2,0.2,0.4,0.3c0.2,0.1,0.5,0.2,0.8,0.3
		c0.5,0.1,0.9,0.3,1.2,0.4c0.3,0.1,0.5,0.3,0.6,0.5c0.1,0.2,0.2,0.4,0.2,0.7c0,0.5-0.2,0.8-0.6,1.1c-0.4,0.3-0.9,0.4-1.6,0.4
		C91.6,36,91.3,35.9,91,35.8z"/>
	<path fill="#0F2026" d="M95.6,28.7c-0.1-0.1-0.1-0.2-0.1-0.4c0-0.2,0-0.3,0.1-0.4c0.1-0.1,0.2-0.1,0.4-0.1c0.2,0,0.3,0,0.4,0.1
		s0.1,0.2,0.1,0.4c0,0.1,0,0.3-0.1,0.4c-0.1,0.1-0.2,0.1-0.4,0.1C95.8,28.9,95.7,28.8,95.6,28.7z M95.7,35.8
		c-0.1-0.1-0.1-0.2-0.1-0.3v-5c0-0.1,0-0.2,0.1-0.3c0.1-0.1,0.2-0.1,0.3-0.1c0.1,0,0.2,0,0.3,0.1c0.1,0.1,0.1,0.1,0.1,0.3v5
		c0,0.1,0,0.2-0.1,0.3c-0.1,0.1-0.1,0.1-0.3,0.1C95.9,35.9,95.8,35.9,95.7,35.8z"/>
	<path fill="#0F2026" d="M99,35.8c-0.3-0.1-0.6-0.2-0.8-0.4c-0.1-0.1-0.2-0.2-0.3-0.3c-0.1-0.1-0.1-0.2-0.1-0.2c0-0.1,0-0.1,0.1-0.2
		c0-0.1,0.1-0.1,0.2-0.1c0.1,0,0.2,0.1,0.4,0.2c0.2,0.1,0.5,0.3,0.7,0.4c0.2,0.1,0.5,0.1,0.9,0.1c0.5,0,0.8-0.1,1.1-0.2
		c0.3-0.2,0.4-0.4,0.4-0.7c0-0.2,0-0.3-0.1-0.5c-0.1-0.1-0.2-0.2-0.5-0.3s-0.5-0.2-0.9-0.3c-0.7-0.2-1.2-0.4-1.5-0.6s-0.4-0.6-0.4-1
		c0-0.5,0.2-0.9,0.6-1.2c0.4-0.3,0.9-0.5,1.5-0.5c0.3,0,0.6,0,0.9,0.1c0.3,0.1,0.5,0.2,0.7,0.3c0.3,0.2,0.4,0.4,0.4,0.5
		c0,0.1,0,0.1-0.1,0.2c-0.1,0.1-0.1,0.1-0.2,0.1c-0.1,0-0.2-0.1-0.4-0.2c-0.2-0.1-0.4-0.3-0.6-0.4c-0.2-0.1-0.5-0.1-0.8-0.1
		c-0.4,0-0.7,0.1-1,0.3c-0.2,0.2-0.4,0.4-0.4,0.7c0,0.2,0,0.3,0.1,0.4c0.1,0.1,0.2,0.2,0.4,0.3s0.5,0.2,0.8,0.3
		c0.5,0.1,0.9,0.3,1.2,0.4c0.3,0.1,0.5,0.3,0.6,0.5c0.1,0.2,0.2,0.4,0.2,0.7c0,0.5-0.2,0.8-0.6,1.1c-0.4,0.3-0.9,0.4-1.6,0.4
		C99.7,36,99.3,35.9,99,35.8z"/>
	<path fill="#0F2026" d="M106.4,35.6c0,0.1,0,0.2-0.1,0.2c-0.1,0.1-0.2,0.1-0.3,0.1l-0.3,0c-0.6,0-1-0.2-1.3-0.5
		c-0.3-0.3-0.4-0.8-0.4-1.5v-3.1H103c-0.1,0-0.2,0-0.2-0.1c-0.1-0.1-0.1-0.1-0.1-0.2c0-0.1,0-0.2,0.1-0.2c0.1-0.1,0.1-0.1,0.2-0.1
		h0.9v-1.4c0-0.1,0-0.2,0.1-0.3c0.1-0.1,0.1-0.1,0.3-0.1c0.1,0,0.2,0,0.3,0.1c0.1,0.1,0.1,0.1,0.1,0.3v1.4h1.4c0.1,0,0.2,0,0.2,0.1
		c0.1,0.1,0.1,0.1,0.1,0.2c0,0.1,0,0.2-0.1,0.2c-0.1,0.1-0.1,0.1-0.2,0.1h-1.4v3.1c0,0.5,0.1,0.8,0.3,1c0.2,0.2,0.5,0.3,0.9,0.4
		l0.3,0C106.3,35.4,106.4,35.5,106.4,35.6z"/>
	<path fill="#0F2026" d="M111.1,30.7c0.3,0.4,0.5,0.9,0.5,1.6v3.3c0,0.1,0,0.2-0.1,0.3s-0.1,0.1-0.3,0.1c-0.1,0-0.2,0-0.3-0.1
		c-0.1-0.1-0.1-0.2-0.1-0.3v-0.7c-0.2,0.3-0.4,0.6-0.7,0.8c-0.3,0.2-0.7,0.3-1.1,0.3c-0.4,0-0.7-0.1-1-0.2c-0.3-0.1-0.5-0.3-0.7-0.6
		c-0.2-0.3-0.3-0.5-0.3-0.9c0-0.4,0.1-0.7,0.3-1c0.2-0.2,0.6-0.4,1.1-0.5c0.5-0.1,1.2-0.1,2.1-0.1h0.2v-0.4c0-0.5-0.1-0.9-0.3-1.1
		c-0.2-0.2-0.5-0.4-1-0.4c-0.6,0-1.1,0.1-1.6,0.4c0,0-0.1,0.1-0.2,0.1c-0.1,0.1-0.2,0.1-0.2,0.1c-0.1,0-0.1,0-0.2-0.1
		c0-0.1-0.1-0.1-0.1-0.2c0-0.2,0.1-0.3,0.4-0.5c0.3-0.2,0.6-0.3,0.9-0.4c0.3-0.1,0.7-0.1,1-0.1C110.3,30.1,110.8,30.3,111.1,30.7z
		 M110.4,34.8c0.3-0.3,0.5-0.8,0.5-1.3v-0.4h-0.2c-0.7,0-1.3,0-1.7,0.1c-0.4,0.1-0.7,0.2-0.8,0.3c-0.2,0.1-0.2,0.4-0.2,0.7
		c0,0.3,0.1,0.6,0.4,0.8c0.2,0.2,0.5,0.3,0.9,0.3C109.7,35.3,110.1,35.2,110.4,34.8z"/>
	<path fill="#0F2026" d="M118.1,32.3v3.3c0,0.1,0,0.2-0.1,0.3c-0.1,0.1-0.1,0.1-0.3,0.1c-0.1,0-0.2,0-0.3-0.1
		c-0.1-0.1-0.1-0.2-0.1-0.3v-3.2c0-0.6-0.1-1-0.3-1.2c-0.2-0.3-0.6-0.4-1.1-0.4c-0.6,0-1,0.2-1.3,0.5c-0.3,0.3-0.5,0.8-0.5,1.4v2.9
		c0,0.1,0,0.2-0.1,0.3c-0.1,0.1-0.1,0.1-0.3,0.1c-0.1,0-0.2,0-0.3-0.1c-0.1-0.1-0.1-0.2-0.1-0.3v-5c0-0.1,0-0.2,0.1-0.3
		c0.1-0.1,0.2-0.1,0.3-0.1c0.1,0,0.2,0,0.2,0.1c0.1,0.1,0.1,0.1,0.1,0.3v0.7c0.2-0.4,0.4-0.6,0.8-0.8c0.3-0.2,0.7-0.3,1.2-0.3
		C117.4,30.1,118.1,30.9,118.1,32.3z"/>
	<path fill="#0F2026" d="M122.6,35.6c0,0.1,0,0.2-0.1,0.2c-0.1,0.1-0.2,0.1-0.3,0.1l-0.3,0c-0.6,0-1-0.2-1.3-0.5
		c-0.3-0.3-0.4-0.8-0.4-1.5v-3.1h-0.9c-0.1,0-0.2,0-0.2-0.1c-0.1-0.1-0.1-0.1-0.1-0.2c0-0.1,0-0.2,0.1-0.2c0.1-0.1,0.1-0.1,0.2-0.1
		h0.9v-1.4c0-0.1,0-0.2,0.1-0.3c0.1-0.1,0.1-0.1,0.3-0.1c0.1,0,0.2,0,0.3,0.1c0.1,0.1,0.1,0.1,0.1,0.3v1.4h1.4c0.1,0,0.2,0,0.2,0.1
		c0.1,0.1,0.1,0.1,0.1,0.2c0,0.1,0,0.2-0.1,0.2c-0.1,0.1-0.1,0.1-0.2,0.1h-1.4v3.1c0,0.5,0.1,0.8,0.3,1c0.2,0.2,0.5,0.3,0.9,0.4
		l0.3,0C122.5,35.4,122.6,35.5,122.6,35.6z"/>
	<path fill="#0F2026" d="M134.2,27.8c0.1,0.1,0.1,0.2,0.1,0.3v7.5c0,0.1,0,0.2-0.1,0.3c-0.1,0.1-0.1,0.1-0.3,0.1
		c-0.1,0-0.2,0-0.2-0.1c-0.1-0.1-0.1-0.2-0.1-0.3v-6.4l-2.7,5.3c-0.1,0.2-0.2,0.3-0.4,0.3c-0.2,0-0.3-0.1-0.4-0.3l-2.7-5.2v6.4
		c0,0.1,0,0.2-0.1,0.3c-0.1,0.1-0.1,0.1-0.2,0.1c-0.1,0-0.2,0-0.3-0.1c-0.1-0.1-0.1-0.2-0.1-0.3v-7.5c0-0.1,0-0.2,0.1-0.3
		c0.1-0.1,0.2-0.1,0.3-0.1c0.1,0,0.3,0.1,0.3,0.3l3.1,5.9l3-5.9c0.1-0.2,0.2-0.3,0.3-0.3C134,27.7,134.1,27.7,134.2,27.8z"/>
	<path fill="#0F2026" d="M139.9,30.7c0.3,0.4,0.5,0.9,0.5,1.6v3.3c0,0.1,0,0.2-0.1,0.3c-0.1,0.1-0.1,0.1-0.3,0.1
		c-0.1,0-0.2,0-0.3-0.1c-0.1-0.1-0.1-0.2-0.1-0.3v-0.7c-0.2,0.3-0.4,0.6-0.7,0.8c-0.3,0.2-0.7,0.3-1.1,0.3c-0.4,0-0.7-0.1-1-0.2
		c-0.3-0.1-0.5-0.3-0.7-0.6c-0.2-0.3-0.3-0.5-0.3-0.9c0-0.4,0.1-0.7,0.3-1c0.2-0.2,0.6-0.4,1.1-0.5c0.5-0.1,1.2-0.1,2.1-0.1h0.2
		v-0.4c0-0.5-0.1-0.9-0.3-1.1c-0.2-0.2-0.5-0.4-1-0.4c-0.6,0-1.1,0.1-1.6,0.4c0,0-0.1,0.1-0.2,0.1c-0.1,0.1-0.2,0.1-0.2,0.1
		c-0.1,0-0.1,0-0.2-0.1c0-0.1-0.1-0.1-0.1-0.2c0-0.2,0.1-0.3,0.4-0.5c0.3-0.2,0.6-0.3,0.9-0.4c0.3-0.1,0.7-0.1,1-0.1
		C139.1,30.1,139.6,30.3,139.9,30.7z M139.3,34.8c0.3-0.3,0.5-0.8,0.5-1.3v-0.4h-0.2c-0.7,0-1.3,0-1.7,0.1c-0.4,0.1-0.7,0.2-0.8,0.3
		c-0.2,0.1-0.2,0.4-0.2,0.7c0,0.3,0.1,0.6,0.4,0.8c0.2,0.2,0.5,0.3,0.9,0.3C138.5,35.3,139,35.2,139.3,34.8z"/>
	<path fill="#0F2026" d="M146.9,32.3v3.3c0,0.1,0,0.2-0.1,0.3c-0.1,0.1-0.1,0.1-0.3,0.1c-0.1,0-0.2,0-0.3-0.1
		c-0.1-0.1-0.1-0.2-0.1-0.3v-3.2c0-0.6-0.1-1-0.3-1.2c-0.2-0.3-0.6-0.4-1.1-0.4c-0.6,0-1,0.2-1.3,0.5c-0.3,0.3-0.5,0.8-0.5,1.4v2.9
		c0,0.1,0,0.2-0.1,0.3c-0.1,0.1-0.1,0.1-0.3,0.1c-0.1,0-0.2,0-0.3-0.1c-0.1-0.1-0.1-0.2-0.1-0.3v-5c0-0.1,0-0.2,0.1-0.3
		c0.1-0.1,0.2-0.1,0.3-0.1c0.1,0,0.2,0,0.2,0.1c0.1,0.1,0.1,0.1,0.1,0.3v0.7c0.2-0.4,0.4-0.6,0.8-0.8c0.3-0.2,0.7-0.3,1.2-0.3
		C146.2,30.1,146.9,30.9,146.9,32.3z"/>
	<path fill="#0F2026" d="M152.4,30.7c0.3,0.4,0.5,0.9,0.5,1.6v3.3c0,0.1,0,0.2-0.1,0.3c-0.1,0.1-0.1,0.1-0.3,0.1
		c-0.1,0-0.2,0-0.3-0.1c-0.1-0.1-0.1-0.2-0.1-0.3v-0.7c-0.2,0.3-0.4,0.6-0.7,0.8c-0.3,0.2-0.7,0.3-1.1,0.3c-0.4,0-0.7-0.1-1-0.2
		c-0.3-0.1-0.5-0.3-0.7-0.6c-0.2-0.3-0.3-0.5-0.3-0.9c0-0.4,0.1-0.7,0.3-1c0.2-0.2,0.6-0.4,1.1-0.5c0.5-0.1,1.2-0.1,2.1-0.1h0.2
		v-0.4c0-0.5-0.1-0.9-0.3-1.1c-0.2-0.2-0.5-0.4-1-0.4c-0.6,0-1.1,0.1-1.6,0.4c0,0-0.1,0.1-0.2,0.1c-0.1,0.1-0.2,0.1-0.2,0.1
		c-0.1,0-0.1,0-0.2-0.1c0-0.1-0.1-0.1-0.1-0.2c0-0.2,0.1-0.3,0.4-0.5c0.3-0.2,0.6-0.3,0.9-0.4c0.3-0.1,0.7-0.1,1-0.1
		C151.6,30.1,152.1,30.3,152.4,30.7z M151.8,34.8c0.3-0.3,0.5-0.8,0.5-1.3v-0.4H152c-0.7,0-1.3,0-1.7,0.1c-0.4,0.1-0.7,0.2-0.8,0.3
		c-0.2,0.1-0.2,0.4-0.2,0.7c0,0.3,0.1,0.6,0.4,0.8c0.2,0.2,0.5,0.3,0.9,0.3C151.1,35.3,151.5,35.2,151.8,34.8z"/>
	<path fill="#0F2026" d="M159.5,30.3c0.1,0.1,0.1,0.2,0.1,0.3v5c0,0.8-0.2,1.4-0.6,1.8c-0.4,0.4-1,0.6-1.8,0.6c-0.4,0-0.8,0-1.1-0.1
		c-0.3-0.1-0.6-0.2-0.9-0.4c-0.3-0.2-0.4-0.3-0.4-0.5c0-0.1,0-0.2,0.1-0.2c0-0.1,0.1-0.1,0.2-0.1c0,0,0.1,0,0.2,0.1
		c0.1,0,0.1,0.1,0.2,0.1c0.3,0.1,0.5,0.3,0.8,0.4c0.3,0.1,0.6,0.1,1,0.1c0.6,0,1-0.1,1.3-0.4c0.3-0.3,0.4-0.7,0.4-1.3v-1.1
		c-0.2,0.4-0.4,0.7-0.7,0.9c-0.3,0.2-0.7,0.3-1.2,0.3c-0.5,0-0.9-0.1-1.3-0.3c-0.4-0.2-0.7-0.6-0.9-1c-0.2-0.4-0.3-0.9-0.3-1.5
		c0-0.5,0.1-1,0.3-1.5c0.2-0.4,0.5-0.7,0.9-1c0.4-0.2,0.8-0.3,1.3-0.3c0.5,0,0.9,0.1,1.2,0.3c0.3,0.2,0.6,0.5,0.7,0.9v-0.8
		c0-0.1,0-0.2,0.1-0.3c0.1-0.1,0.1-0.1,0.3-0.1C159.3,30.2,159.4,30.2,159.5,30.3z M158.4,34.5c0.3-0.4,0.5-0.9,0.5-1.6
		s-0.2-1.2-0.5-1.6c-0.3-0.4-0.8-0.6-1.4-0.6c-0.6,0-1,0.2-1.4,0.6c-0.3,0.4-0.5,0.9-0.5,1.6c0,0.7,0.2,1.2,0.5,1.6
		c0.3,0.4,0.8,0.6,1.4,0.6C157.6,35.1,158.1,34.9,158.4,34.5z"/>
	<path fill="#0F2026" d="M165.9,34.8c0.1,0.1,0.1,0.1,0.1,0.2c0,0.2-0.1,0.3-0.4,0.5c-0.6,0.3-1.1,0.5-1.7,0.5c-0.9,0-1.5-0.3-2-0.8
		c-0.5-0.5-0.7-1.2-0.7-2.1c0-0.6,0.1-1.1,0.3-1.5c0.2-0.4,0.5-0.8,0.9-1c0.4-0.2,0.8-0.4,1.4-0.4c0.7,0,1.3,0.2,1.7,0.7
		c0.4,0.5,0.6,1.1,0.6,1.9c0,0.1,0,0.2-0.1,0.3c-0.1,0.1-0.2,0.1-0.3,0.1h-3.8c0,0.7,0.2,1.2,0.6,1.6c0.3,0.4,0.8,0.6,1.5,0.6
		c0.3,0,0.6,0,0.8-0.1s0.5-0.2,0.7-0.4c0.2-0.1,0.3-0.2,0.4-0.2C165.8,34.7,165.8,34.7,165.9,34.8z M162.4,31.2
		c-0.3,0.3-0.5,0.8-0.6,1.4h3.6c0-0.6-0.2-1.1-0.5-1.4c-0.3-0.3-0.7-0.5-1.2-0.5C163.1,30.7,162.7,30.9,162.4,31.2z"/>
	<path fill="#0F2026" d="M170.4,30.2c0.1,0,0.1,0.1,0.1,0.2c0,0.2-0.1,0.3-0.3,0.3l-0.3,0c-0.5,0.1-0.9,0.2-1.2,0.6
		c-0.3,0.3-0.4,0.7-0.4,1.2v3c0,0.1,0,0.2-0.1,0.3c-0.1,0.1-0.1,0.1-0.3,0.1c-0.1,0-0.2,0-0.3-0.1c-0.1-0.1-0.1-0.2-0.1-0.3v-5
		c0-0.1,0-0.2,0.1-0.3c0.1-0.1,0.2-0.1,0.3-0.1c0.1,0,0.2,0,0.2,0.1c0.1,0.1,0.1,0.1,0.1,0.3v0.7c0.3-0.7,0.9-1,1.7-1.1l0.2,0
		C170.2,30.2,170.3,30.2,170.4,30.2z"/>
	<path fill="#0F2026" d="M173.4,33c-0.1,0-0.1-0.1-0.1-0.2c0-0.1,0-0.1,0.1-0.2c0.1,0,0.1-0.1,0.2-0.1h5.2c0.1,0,0.2,0,0.2,0.1
		c0.1,0.1,0.1,0.1,0.1,0.2c0,0.1,0,0.1-0.1,0.2c-0.1,0-0.1,0.1-0.2,0.1h-5.2C173.6,33.1,173.5,33,173.4,33z"/>
	<path fill="#0F2026" d="M189.9,35.6c0,0.1,0,0.2-0.1,0.2c-0.1,0.1-0.1,0.1-0.2,0.1c-0.1,0-0.1,0-0.2-0.1c-0.1,0-0.1-0.1-0.1-0.2
		l-0.9-2h-4.5l-0.9,2c-0.1,0.1-0.2,0.2-0.3,0.2c-0.1,0-0.2,0-0.2-0.1c-0.1-0.1-0.1-0.1-0.1-0.2c0-0.1,0-0.1,0-0.1l3.4-7.6
		c0.1-0.2,0.2-0.3,0.4-0.3c0.1,0,0.2,0,0.2,0.1c0.1,0,0.1,0.1,0.2,0.2l3.3,7.6C189.9,35.5,189.9,35.6,189.9,35.6z M184.2,33.1h3.9
		l-2-4.5L184.2,33.1z"/>
	<path fill="#0F2026" d="M192.1,35.6c-0.4-0.2-0.7-0.6-0.9-1c-0.2-0.4-0.3-0.9-0.3-1.5c0-0.6,0.1-1.1,0.3-1.5c0.2-0.4,0.5-0.8,0.9-1
		c0.4-0.2,0.8-0.4,1.4-0.4c0.3,0,0.6,0,0.9,0.1c0.3,0.1,0.5,0.2,0.7,0.3c0.1,0.1,0.2,0.2,0.3,0.3s0.1,0.2,0.1,0.3
		c0,0.1,0,0.2-0.1,0.2c0,0.1-0.1,0.1-0.2,0.1c-0.1,0-0.2-0.1-0.4-0.2c-0.2-0.1-0.4-0.3-0.6-0.3c-0.2-0.1-0.4-0.1-0.7-0.1
		c-0.6,0-1.1,0.2-1.4,0.6c-0.3,0.4-0.5,1-0.5,1.7c0,0.7,0.2,1.3,0.5,1.7s0.8,0.6,1.4,0.6c0.3,0,0.5,0,0.7-0.1
		c0.2-0.1,0.4-0.2,0.6-0.3c0.1,0,0.1-0.1,0.2-0.1c0.1,0,0.1-0.1,0.2-0.1c0.1,0,0.1,0,0.2,0.1c0,0.1,0.1,0.1,0.1,0.2
		c0,0.1,0,0.2-0.1,0.2c-0.1,0.1-0.2,0.2-0.3,0.3c-0.2,0.2-0.5,0.3-0.8,0.4s-0.6,0.1-0.9,0.1C192.9,36,192.5,35.8,192.1,35.6z"/>
	<path fill="#0F2026" d="M204.6,32.3v3.3c0,0.1,0,0.2-0.1,0.3c-0.1,0.1-0.1,0.1-0.3,0.1c-0.1,0-0.2,0-0.3-0.1
		c-0.1-0.1-0.1-0.2-0.1-0.3v-3.2c0-0.6-0.1-1-0.3-1.2c-0.2-0.2-0.5-0.4-1-0.4c-0.5,0-0.9,0.2-1.2,0.5c-0.3,0.3-0.4,0.8-0.4,1.4v2.9
		c0,0.1,0,0.2-0.1,0.3c-0.1,0.1-0.1,0.1-0.3,0.1c-0.1,0-0.2,0-0.3-0.1c-0.1-0.1-0.1-0.2-0.1-0.3v-3.2c0-0.6-0.1-1-0.3-1.2
		c-0.2-0.2-0.5-0.4-1-0.4c-0.5,0-0.9,0.2-1.2,0.5c-0.3,0.3-0.4,0.8-0.4,1.4v2.9c0,0.1,0,0.2-0.1,0.3c-0.1,0.1-0.1,0.1-0.3,0.1
		c-0.1,0-0.2,0-0.3-0.1c-0.1-0.1-0.1-0.2-0.1-0.3v-5c0-0.1,0-0.2,0.1-0.3c0.1-0.1,0.2-0.1,0.3-0.1c0.1,0,0.2,0,0.2,0.1
		c0.1,0.1,0.1,0.1,0.1,0.3v0.7c0.2-0.3,0.4-0.6,0.7-0.8c0.3-0.2,0.7-0.3,1.1-0.3c0.9,0,1.5,0.4,1.7,1.1c0.2-0.3,0.4-0.6,0.7-0.8
		c0.3-0.2,0.7-0.3,1.1-0.3C203.9,30.1,204.6,30.9,204.6,32.3z"/>
	<path fill="#0F2026" d="M210.8,34.8c0.1,0.1,0.1,0.1,0.1,0.2c0,0.2-0.1,0.3-0.4,0.5c-0.6,0.3-1.1,0.5-1.7,0.5c-0.9,0-1.5-0.3-2-0.8
		c-0.5-0.5-0.7-1.2-0.7-2.1c0-0.6,0.1-1.1,0.3-1.5c0.2-0.4,0.5-0.8,0.9-1c0.4-0.2,0.8-0.4,1.4-0.4c0.7,0,1.3,0.2,1.7,0.7
		c0.4,0.5,0.6,1.1,0.6,1.9c0,0.1,0,0.2-0.1,0.3c-0.1,0.1-0.2,0.1-0.3,0.1h-3.8c0,0.7,0.2,1.2,0.6,1.6c0.3,0.4,0.8,0.6,1.5,0.6
		c0.3,0,0.6,0,0.8-0.1s0.5-0.2,0.7-0.4c0.2-0.1,0.3-0.2,0.4-0.2C210.7,34.7,210.8,34.7,210.8,34.8z M207.3,31.2
		c-0.3,0.3-0.5,0.8-0.6,1.4h3.6c0-0.6-0.2-1.1-0.5-1.4c-0.3-0.3-0.7-0.5-1.2-0.5C208.1,30.7,207.7,30.9,207.3,31.2z"/>
	<path fill="#0F2026" d="M216.9,35.5c-0.6-0.3-1-0.8-1.3-1.4c-0.3-0.6-0.4-1.4-0.4-2.2c0-0.9,0.1-1.6,0.4-2.2s0.7-1.1,1.3-1.4
		c0.6-0.3,1.2-0.5,2-0.5c0.5,0,1,0.1,1.5,0.3c0.5,0.2,0.9,0.4,1.2,0.7c0.1,0.1,0.2,0.2,0.2,0.3c0,0.1,0,0.2-0.1,0.2
		c-0.1,0.1-0.1,0.1-0.2,0.1c-0.1,0-0.2,0-0.3-0.1c-0.4-0.3-0.8-0.6-1.1-0.7c-0.3-0.1-0.7-0.2-1.2-0.2c-0.9,0-1.6,0.3-2.2,0.9
		c-0.5,0.6-0.8,1.5-0.8,2.6c0,1.1,0.3,2,0.8,2.6c0.5,0.6,1.2,0.9,2.2,0.9c0.5,0,0.8-0.1,1.2-0.2c0.3-0.1,0.7-0.4,1.1-0.7
		c0.1-0.1,0.2-0.1,0.3-0.1c0.1,0,0.1,0,0.2,0.1c0,0.1,0.1,0.1,0.1,0.2c0,0.1-0.1,0.2-0.2,0.3c-0.3,0.3-0.7,0.6-1.2,0.7
		c-0.5,0.2-1,0.3-1.5,0.3C218.1,36,217.4,35.8,216.9,35.5z"/>
	<path fill="#0F2026" d="M223.9,35.6c-0.4-0.2-0.7-0.6-0.9-1c-0.2-0.4-0.3-0.9-0.3-1.5c0-0.6,0.1-1.1,0.3-1.5c0.2-0.4,0.5-0.8,0.9-1
		c0.4-0.2,0.8-0.4,1.4-0.4c0.5,0,1,0.1,1.3,0.4c0.4,0.2,0.7,0.6,0.9,1c0.2,0.4,0.3,0.9,0.3,1.5c0,0.6-0.1,1.1-0.3,1.5
		c-0.2,0.4-0.5,0.8-0.9,1c-0.4,0.2-0.8,0.4-1.3,0.4C224.7,36,224.3,35.8,223.9,35.6z M226.6,34.7c0.3-0.4,0.5-1,0.5-1.7
		c0-0.7-0.2-1.3-0.5-1.7c-0.3-0.4-0.8-0.6-1.4-0.6c-0.6,0-1,0.2-1.4,0.6c-0.3,0.4-0.5,1-0.5,1.7c0,0.7,0.2,1.3,0.5,1.7
		s0.8,0.6,1.4,0.6C225.8,35.3,226.3,35.1,226.6,34.7z"/>
	<path fill="#0F2026" d="M229,35.8c-0.1-0.1-0.2-0.2-0.2-0.4c0-0.2,0.1-0.3,0.2-0.4c0.1-0.1,0.2-0.2,0.4-0.2c0.1,0,0.3,0.1,0.4,0.2
		c0.1,0.1,0.2,0.2,0.2,0.4c0,0.2-0.1,0.3-0.2,0.4c-0.1,0.1-0.2,0.2-0.4,0.2C229.3,35.9,229.1,35.9,229,35.8z"/>
</g>
<g>
	<path fill="#A7BBC4" d="M23.2,16.8c0.1-0.1,0.3-0.2,0.5-0.2c0.2,0,0.3,0.1,0.5,0.2l0.6,0.6c0.1,0.1,0.2,0.3,0.2,0.5
		c0,0.2,0,0.3-0.2,0.5l-4.2,4.2l4.2,4.2c0.1,0.1,0.2,0.3,0.2,0.5c0,0.2-0.1,0.3-0.2,0.5l-0.6,0.6c-0.1,0.1-0.3,0.2-0.5,0.2
		c-0.2,0-0.3-0.1-0.5-0.2l-5.2-5.2c-0.1-0.1-0.2-0.3-0.2-0.5s0.1-0.3,0.2-0.5L23.2,16.8z"/>
</g>
<line fill="none" stroke="#EEF1F3" stroke-miterlimit="10" x1="0" y1="106.5" x2="300" y2="106.5"/>
<line fill="none" stroke="#EEF1F3" stroke-miterlimit="10" x1="0" y1="179.5" x2="300" y2="179.5"/>
<g>
	<path fill="#A7BBC4" d="M90.7,73.7c0.8-0.9,1.9-1.3,3.3-1.3c1.4,0,2.5,0.4,3.3,1.2l-0.4,0.9c-0.8-0.8-1.8-1.1-2.9-1.1
		c-1.1,0-1.9,0.3-2.5,1c-0.6,0.7-0.9,1.7-0.9,3s0.3,2.3,0.9,3c0.6,0.7,1.4,1.1,2.5,1.1c1.1,0,2-0.4,2.9-1.1l0.4,0.9
		c-0.8,0.8-1.9,1.2-3.3,1.2c-1.4,0-2.5-0.5-3.3-1.4s-1.2-2.1-1.2-3.7C89.4,75.8,89.9,74.6,90.7,73.7z"/>
	<path fill="#A7BBC4" d="M105.1,78.8H100c0,1.8,0.8,2.7,2.3,2.7c0.8,0,1.6-0.3,2.2-0.8l0.4,0.8c-0.7,0.6-1.6,0.9-2.6,0.9
		c-1.1,0-1.9-0.3-2.6-1c-0.6-0.6-0.9-1.5-0.9-2.6c0-1.1,0.3-1.9,0.9-2.6c0.6-0.7,1.4-1,2.3-1c0.9,0,1.6,0.3,2.2,0.9
		c0.5,0.6,0.8,1.4,0.8,2.5V78.8z M104.1,78c-0.1-1.3-0.8-2-1.9-2c-1.2,0-1.9,0.7-2.1,2H104.1z"/>
	<path fill="#A7BBC4" d="M112.8,82.3h-1.1V78c0-1.2-0.5-1.9-1.6-1.9c-0.6,0-1.1,0.2-1.5,0.6c-0.4,0.4-0.6,0.9-0.6,1.6v4h-1.1v-5
		c0-0.5,0-1.2-0.1-2h1l0.1,1.3c0.4-1,1.2-1.4,2.4-1.4c1.7,0,2.5,0.9,2.5,2.7V82.3z"/>
	<path fill="#A7BBC4" d="M118.3,76.2h-2V80c0,0.9,0.4,1.4,1.2,1.4c0.2,0,0.5,0,0.8-0.1v0.9c-0.3,0.1-0.6,0.2-1,0.2
		c-0.7,0-1.2-0.2-1.5-0.6c-0.4-0.4-0.6-0.9-0.6-1.6v-4h-1.3v-0.9h1.3v-1.8l1.1-0.4v2.2h2V76.2z"/>
	<path fill="#A7BBC4" d="M125.2,78.8h-5.1c0,1.8,0.8,2.7,2.3,2.7c0.8,0,1.6-0.3,2.2-0.8l0.4,0.8c-0.7,0.6-1.6,0.9-2.6,0.9
		c-1.1,0-1.9-0.3-2.6-1c-0.6-0.6-0.9-1.5-0.9-2.6c0-1.1,0.3-1.9,0.9-2.6c0.6-0.7,1.4-1,2.3-1c0.9,0,1.6,0.3,2.2,0.9
		c0.5,0.6,0.8,1.4,0.8,2.5V78.8z M124.3,78c-0.1-1.3-0.8-2-1.9-2c-1.2,0-1.9,0.7-2.1,2H124.3z"/>
	<path fill="#A7BBC4" d="M130.8,76.3c-0.3-0.1-0.5-0.1-0.7-0.1c-0.6,0-1.1,0.2-1.5,0.6c-0.3,0.4-0.5,1-0.5,1.5v4H127v-5
		c0-0.5,0-1.2-0.1-2h1l0.1,1.3c0.4-1,1.1-1.5,2.2-1.5c0.2,0,0.4,0,0.6,0.1L130.8,76.3z"/>
	<path fill="#A7BBC4" d="M138.8,76.2c0.6-0.7,1.4-1,2.4-1c1,0,1.8,0.3,2.4,1s0.9,1.5,0.9,2.6s-0.3,2-0.9,2.6c-0.6,0.7-1.4,1-2.4,1
		c-1,0-1.8-0.3-2.4-1c-0.6-0.7-0.9-1.5-0.9-2.6S138.2,76.8,138.8,76.2z M142.7,76.8c-0.4-0.5-0.9-0.7-1.6-0.7
		c-0.7,0-1.2,0.2-1.6,0.7c-0.4,0.5-0.6,1.1-0.6,2c0,1.8,0.7,2.7,2.1,2.7c1.4,0,2.2-0.9,2.2-2.7C143.3,77.9,143.1,77.3,142.7,76.8z"
		/>
	<path fill="#A7BBC4" d="M147.6,75.3h1.7v0.9h-1.7v6.1h-1.1v-6.1h-1.3v-0.9h1.3v-1c0-1.5,0.7-2.2,2.1-2.2c0.3,0,0.6,0,0.9,0.1v0.9
		c-0.2-0.1-0.4-0.1-0.7-0.1c-0.8,0-1.2,0.5-1.2,1.4V75.3z"/>
	<path fill="#A7BBC4" d="M157.4,82.3h-1.1v-9.8h1.1V82.3z"/>
	<path fill="#A7BBC4" d="M165.6,82.3h-1.1V78c0-1.2-0.5-1.9-1.6-1.9c-0.6,0-1.1,0.2-1.5,0.6c-0.4,0.4-0.6,0.9-0.6,1.6v4h-1.1v-5
		c0-0.5,0-1.2-0.1-2h1l0.1,1.3c0.4-1,1.2-1.4,2.4-1.4c1.7,0,2.5,0.9,2.5,2.7V82.3z"/>
	<path fill="#A7BBC4" d="M169.1,75.3h1.7v0.9h-1.7v6.1H168v-6.1h-1.3v-0.9h1.3v-1c0-1.5,0.7-2.2,2.1-2.2c0.3,0,0.6,0,0.9,0.1v0.9
		c-0.2-0.1-0.4-0.1-0.7-0.1c-0.8,0-1.2,0.5-1.2,1.4V75.3z"/>
	<path fill="#A7BBC4" d="M173.3,82.3h-1.1V72.1h1.1V82.3z"/>
	<path fill="#A7BBC4" d="M180.1,75.3h1.1v6.9h-1.1v-1.2c-0.4,0.9-1.2,1.3-2.3,1.3c-1.7,0-2.5-0.9-2.5-2.7v-4.3h1.1v4.3
		c0,1.2,0.5,1.8,1.6,1.8c0.6,0,1.1-0.2,1.5-0.6c0.4-0.4,0.6-0.9,0.6-1.6V75.3z"/>
	<path fill="#A7BBC4" d="M189.1,78.8h-5.1c0,1.8,0.8,2.7,2.3,2.7c0.8,0,1.6-0.3,2.2-0.8l0.4,0.8c-0.7,0.6-1.6,0.9-2.6,0.9
		c-1.1,0-1.9-0.3-2.6-1c-0.6-0.6-0.9-1.5-0.9-2.6c0-1.1,0.3-1.9,0.9-2.6c0.6-0.7,1.4-1,2.3-1c0.9,0,1.6,0.3,2.2,0.9
		c0.5,0.6,0.8,1.4,0.8,2.5V78.8z M188.1,78c-0.1-1.3-0.8-2-1.9-2c-1.2,0-1.9,0.7-2.1,2H188.1z"/>
	<path fill="#A7BBC4" d="M196.8,82.3h-1.1V78c0-1.2-0.5-1.9-1.6-1.9c-0.6,0-1.1,0.2-1.5,0.6c-0.4,0.4-0.6,0.9-0.6,1.6v4h-1.1v-5
		c0-0.5,0-1.2-0.1-2h1l0.1,1.3c0.4-1,1.2-1.4,2.4-1.4c1.7,0,2.5,0.9,2.5,2.7V82.3z"/>
	<path fill="#A7BBC4" d="M199.4,76.2c0.6-0.7,1.4-1,2.5-1c1,0,1.8,0.3,2.4,0.9l-0.4,0.8c-0.7-0.5-1.3-0.8-2-0.8
		c-0.7,0-1.3,0.2-1.7,0.7s-0.6,1.1-0.6,2c0,0.8,0.2,1.5,0.6,1.9c0.4,0.5,1,0.7,1.7,0.7c0.7,0,1.3-0.3,2-0.8l0.4,0.8
		c-0.6,0.6-1.5,0.9-2.5,0.9c-1,0-1.8-0.3-2.4-1c-0.6-0.7-0.9-1.5-0.9-2.6C198.5,77.7,198.8,76.9,199.4,76.2z"/>
	<path fill="#A7BBC4" d="M211.8,78.8h-5.1c0,1.8,0.8,2.7,2.3,2.7c0.8,0,1.6-0.3,2.2-0.8l0.4,0.8c-0.7,0.6-1.6,0.9-2.6,0.9
		c-1.1,0-1.9-0.3-2.6-1c-0.6-0.6-0.9-1.5-0.9-2.6c0-1.1,0.3-1.9,0.9-2.6c0.6-0.7,1.4-1,2.3-1c0.9,0,1.6,0.3,2.2,0.9
		c0.5,0.6,0.8,1.4,0.8,2.5V78.8z M210.8,78c-0.1-1.3-0.8-2-1.9-2c-1.2,0-1.9,0.7-2.1,2H210.8z"/>
</g>
<g>
	<path fill="#3A7D99" d="M66.6,138.6c0,3-0.7,6-2.2,8.8c-1.5,3-3.6,5.4-6.4,7.1c-3,2-6.4,3-10.3,3c-3.7,0-7.1-1-10.2-3
		c0.5,0,1,0.1,1.6,0.1c3.1,0,5.8-0.9,8.3-2.8c-1.5,0-2.8-0.4-3.9-1.3c-1.1-0.9-1.9-1.9-2.3-3.3c0.4,0,0.8,0.1,1.2,0.1
		c0.6,0,1.2-0.1,1.8-0.2c-1.5-0.3-2.8-1.1-3.8-2.3c-1-1.2-1.5-2.6-1.5-4.2v-0.1c0.9,0.5,1.9,0.8,3,0.9c-0.9-0.6-1.6-1.4-2.1-2.4
		c-0.5-1-0.8-2-0.8-3.2s0.3-2.3,0.9-3.3c1.6,2.1,3.7,3.7,6,4.9c2.4,1.2,4.9,1.9,7.6,2c-0.1-0.5-0.1-1-0.1-1.5c0-1.2,0.3-2.3,0.9-3.3
		c0.6-1,1.4-1.8,2.4-2.4c1-0.6,2.1-0.9,3.3-0.9c1,0,1.9,0.2,2.7,0.6c0.8,0.4,1.5,0.9,2.2,1.5c1.5-0.3,2.9-0.8,4.2-1.6
		c-0.5,1.6-1.5,2.8-2.9,3.7c1.3-0.2,2.5-0.5,3.8-1.1c-0.9,1.3-2,2.5-3.4,3.5C66.5,138,66.6,138.3,66.6,138.6z"/>
</g>
<g>
</g>
<g>
	<path fill="#0F2026" d="M136.8,143.4c0.7,0.9,1.1,2.1,1.1,3.5c0,2-0.7,3.5-2,4.7c-1.3,1.1-3.2,1.7-5.5,1.7c-1.4,0-2.7-0.2-4-0.7
		c-1.3-0.5-2.4-1.1-3.3-1.9c-0.3-0.3-0.5-0.7-0.5-1.1c0-0.3,0.1-0.6,0.3-0.8c0.2-0.2,0.4-0.3,0.6-0.3c0.3,0,0.6,0.1,0.9,0.4
		c1,0.8,2,1.4,2.9,1.7s2,0.5,3.1,0.5c1.6,0,2.8-0.4,3.6-1.1c0.8-0.7,1.2-1.8,1.2-3.2c0-2.8-1.7-4.2-5.2-4.2h-1.7
		c-0.3,0-0.6-0.1-0.8-0.3s-0.3-0.5-0.3-0.8c0-0.3,0.1-0.6,0.3-0.8c0.2-0.2,0.5-0.3,0.8-0.3h1.2c1.7,0,3-0.4,3.9-1.1
		c0.9-0.7,1.4-1.8,1.4-3.2c0-1.2-0.4-2.2-1.1-2.8s-1.8-1-3.1-1c-1,0-2,0.2-2.9,0.6c-0.9,0.4-1.9,1-2.8,1.7c-0.3,0.2-0.6,0.4-0.9,0.4
		c-0.2,0-0.4-0.1-0.6-0.3s-0.3-0.5-0.3-0.8c0-0.4,0.2-0.8,0.5-1.1c0.9-0.8,2-1.5,3.2-1.9s2.6-0.7,3.9-0.7c2.1,0,3.7,0.5,4.9,1.6
		c1.2,1,1.8,2.5,1.8,4.2c0,1.3-0.3,2.5-1,3.4s-1.6,1.7-2.7,2.1C135,141.8,136.1,142.5,136.8,143.4z"/>
	<path fill="#0F2026" d="M154.6,139.7c1.1,0.6,1.9,1.5,2.5,2.6c0.6,1.1,0.9,2.4,0.9,3.8c0,1.4-0.3,2.7-0.9,3.8
		c-0.6,1.1-1.5,2-2.6,2.6c-1.1,0.6-2.4,0.9-3.8,0.9c-2.8,0-4.9-1-6.4-2.9c-1.5-1.9-2.2-4.7-2.2-8.2c0-2.5,0.3-4.7,1-6.6
		c0.7-1.8,1.7-3.2,3-4.2c1.3-1,2.9-1.5,4.7-1.5c1.2,0,2.5,0.2,3.7,0.7c1.2,0.5,2.3,1.1,3.1,1.9c0.4,0.3,0.5,0.7,0.5,1.1
		c0,0.3-0.1,0.6-0.3,0.8s-0.4,0.3-0.6,0.3c-0.3,0-0.6-0.1-0.9-0.4c-1.9-1.5-3.7-2.3-5.5-2.3c-1.9,0-3.4,0.9-4.5,2.6
		c-1.1,1.7-1.6,4.2-1.6,7.3v0.4c0.5-1.2,1.3-2.2,2.4-2.8c1.1-0.7,2.4-1,3.8-1C152.3,138.8,153.6,139.1,154.6,139.7z M154.1,149.8
		c0.9-0.9,1.3-2.2,1.3-3.7c0-1.5-0.4-2.8-1.3-3.7c-0.9-0.9-2.1-1.4-3.5-1.4c-1.5,0-2.7,0.5-3.6,1.4c-0.9,0.9-1.4,2.2-1.4,3.6
		c0,1.5,0.5,2.7,1.4,3.7c0.9,0.9,2.2,1.4,3.7,1.4C152.1,151.2,153.2,150.7,154.1,149.8z"/>
	<path fill="#0F2026" d="M174.1,139.7c1.1,0.6,1.9,1.5,2.5,2.5c0.6,1.1,0.9,2.3,0.9,3.8c0,1.4-0.3,2.7-1,3.8c-0.6,1.1-1.5,2-2.7,2.6
		c-1.2,0.6-2.5,0.9-4,0.9c-1.3,0-2.6-0.2-3.9-0.7s-2.4-1.1-3.2-1.9c-0.3-0.3-0.5-0.7-0.5-1.1c0-0.3,0.1-0.6,0.3-0.8
		c0.2-0.2,0.4-0.3,0.6-0.3c0.3,0,0.6,0.1,0.9,0.4c0.9,0.8,1.9,1.4,2.8,1.7c0.9,0.4,1.9,0.6,3,0.6c1.6,0,2.8-0.5,3.8-1.4
		c0.9-0.9,1.4-2.1,1.4-3.7c0-1.5-0.5-2.7-1.4-3.7c-0.9-0.9-2.1-1.4-3.7-1.4c-2,0-3.6,0.8-4.8,2.3c-0.3,0.3-0.7,0.5-1.1,0.5
		c-0.3,0-0.6-0.1-0.8-0.3c-0.2-0.2-0.3-0.4-0.3-0.8v-11.2c0-0.4,0.1-0.7,0.3-0.9c0.2-0.2,0.5-0.4,1-0.4h11.4c0.4,0,0.7,0.1,0.9,0.3
		c0.2,0.2,0.3,0.5,0.3,0.8c0,0.3-0.1,0.6-0.3,0.8c-0.2,0.2-0.5,0.3-0.9,0.3h-10.1v8.1c0.6-0.6,1.3-1,2.1-1.3
		c0.8-0.3,1.7-0.5,2.6-0.5C171.7,138.8,173,139.1,174.1,139.7z"/>
	<path d="M146.2,157.8c0.1,0.1,0.1,0.2,0.1,0.3v5.8c0,0.1,0,0.2-0.1,0.3s-0.2,0.1-0.3,0.1c-0.1,0-0.2-0.1-0.3-0.2l-3.8-5.1v4.9
		c0,0.1,0,0.2-0.1,0.3s-0.2,0.1-0.3,0.1c-0.1,0-0.2,0-0.3-0.1s-0.1-0.2-0.1-0.3v-5.8c0-0.1,0-0.2,0.1-0.3c0.1-0.1,0.2-0.1,0.3-0.1
		c0.1,0,0.2,0.1,0.3,0.2l3.8,5.1v-4.9c0-0.1,0-0.2,0.1-0.3c0.1-0.1,0.2-0.1,0.3-0.1C146.1,157.7,146.2,157.7,146.2,157.8z"/>
	<path d="M151.5,163.3c0,0.1,0.1,0.1,0.1,0.2c0,0.2-0.1,0.3-0.3,0.4c-0.2,0.1-0.5,0.2-0.7,0.3s-0.5,0.1-0.7,0.1
		c-0.7,0-1.2-0.2-1.6-0.6c-0.4-0.4-0.6-1-0.6-1.7c0-0.5,0.1-0.9,0.3-1.2c0.2-0.4,0.4-0.6,0.8-0.8s0.7-0.3,1.1-0.3
		c0.6,0,1,0.2,1.4,0.6c0.3,0.4,0.5,0.9,0.5,1.6c0,0.1,0,0.2-0.1,0.3c0,0.1-0.1,0.1-0.2,0.1h-3c0.1,1.1,0.6,1.6,1.5,1.6
		c0.2,0,0.4,0,0.6-0.1c0.2-0.1,0.4-0.2,0.6-0.3c0.2-0.1,0.3-0.1,0.3-0.1C151.4,163.2,151.4,163.2,151.5,163.3z M148.7,160.6
		c-0.2,0.2-0.4,0.6-0.4,1h2.6c0-0.5-0.1-0.8-0.3-1c-0.2-0.2-0.5-0.4-0.9-0.4C149.3,160.2,149,160.3,148.7,160.6z"/>
	<path d="M159.1,159.6c0.1,0,0.2,0,0.2,0.1s0.1,0.1,0.1,0.2c0,0,0,0.1,0,0.1l-1.5,3.9c0,0.1-0.1,0.1-0.2,0.2c-0.1,0-0.1,0.1-0.2,0.1
		c-0.1,0-0.2,0-0.2-0.1c-0.1,0-0.1-0.1-0.2-0.2l-1.3-3.2l-1.3,3.2c0,0.1-0.1,0.1-0.2,0.2c-0.1,0-0.2,0.1-0.2,0.1
		c-0.1,0-0.2,0-0.2-0.1c-0.1,0-0.1-0.1-0.2-0.2l-1.5-3.9c0,0,0-0.1,0-0.1c0-0.1,0-0.2,0.1-0.2s0.2-0.1,0.3-0.1
		c0.1,0,0.3,0.1,0.3,0.2l1.3,3.4l1.3-3.4c0-0.1,0.1-0.1,0.2-0.2s0.1-0.1,0.2-0.1c0.1,0,0.2,0,0.2,0.1s0.1,0.1,0.1,0.2l1.3,3.4
		l1.3-3.4C158.8,159.7,158.9,159.6,159.1,159.6z"/>
</g>
<g>
	<path fill="#A7BBC4" d="M248,143.5c0.7,1,1.1,2.2,1.1,3.6c0,2-0.7,3.5-2.1,4.6c-1.4,1.1-3.4,1.7-6.1,1.7c-2.6,0-4.6-0.6-6.1-1.7
		c-1.4-1.1-2.1-2.6-2.1-4.6c0-1.4,0.4-2.6,1.1-3.6c0.8-1,1.8-1.7,3.1-2.1c-1.1-0.4-2-1.1-2.7-2c-0.7-0.9-1-2-1-3.3
		c0-1.9,0.7-3.3,2-4.4c1.3-1.1,3.2-1.6,5.6-1.6c2.4,0,4.3,0.5,5.6,1.6c1.3,1.1,2,2.6,2,4.4c0,1.3-0.3,2.3-1,3.3
		c-0.7,0.9-1.6,1.6-2.7,2C246.2,141.8,247.2,142.5,248,143.5z M246.5,146.9c0-2.8-1.9-4.2-5.6-4.2c-3.7,0-5.6,1.4-5.6,4.2
		c0,2.8,1.9,4.2,5.6,4.2C244.6,151.2,246.5,149.8,246.5,146.9z M237.2,139.4c0.9,0.7,2.1,1.1,3.7,1.1c1.6,0,2.9-0.4,3.7-1.1
		c0.9-0.7,1.3-1.7,1.3-3.1c0-1.3-0.4-2.3-1.3-3c-0.9-0.7-2.1-1.1-3.7-1.1c-1.6,0-2.9,0.4-3.7,1.1c-0.9,0.7-1.3,1.7-1.3,3
		C235.9,137.6,236.3,138.7,237.2,139.4z"/>
	<path fill="#A7BBC4" d="M267.8,130.6c0.2,0.2,0.3,0.5,0.3,0.8c0,0.3-0.1,0.6-0.3,1l-10.7,20.2c-0.3,0.5-0.6,0.7-1.1,0.7
		c-0.3,0-0.7-0.1-0.9-0.4c-0.3-0.2-0.4-0.5-0.4-0.9c0-0.2,0.1-0.5,0.2-0.7l10.1-18.9h-11.2c-0.4,0-0.7-0.1-0.9-0.3
		c-0.2-0.2-0.3-0.5-0.3-0.8c0-0.4,0.1-0.6,0.3-0.8c0.2-0.2,0.5-0.3,0.9-0.3h13.1C267.3,130.3,267.6,130.4,267.8,130.6z"/>
	<path fill="#A7BBC4" d="M237.6,164.1c-0.4-0.1-0.8-0.3-1-0.6c-0.1-0.1-0.1-0.2-0.1-0.3c0-0.1,0-0.2,0.1-0.2c0-0.1,0.1-0.1,0.2-0.1
		c0.1,0,0.2,0,0.3,0.1c0.6,0.4,1.2,0.7,2,0.7c0.5,0,0.9-0.1,1.2-0.3c0.3-0.2,0.4-0.5,0.4-0.9c0-0.2-0.1-0.4-0.2-0.5
		c-0.1-0.1-0.3-0.2-0.5-0.3c-0.2-0.1-0.5-0.2-0.9-0.2c-0.5-0.1-0.9-0.2-1.2-0.4c-0.3-0.1-0.6-0.3-0.8-0.6c-0.2-0.2-0.3-0.6-0.3-0.9
		c0-0.4,0.1-0.7,0.3-1s0.5-0.5,0.8-0.7c0.4-0.2,0.8-0.2,1.2-0.2c0.4,0,0.8,0.1,1.2,0.2s0.7,0.3,0.9,0.6c0.1,0.1,0.1,0.2,0.1,0.3
		c0,0.1,0,0.2-0.1,0.2c0,0.1-0.1,0.1-0.2,0.1c-0.1,0-0.2,0-0.3-0.1c-0.3-0.2-0.6-0.4-0.8-0.5c-0.3-0.1-0.6-0.1-0.9-0.1
		c-0.5,0-0.9,0.1-1.2,0.3c-0.3,0.2-0.4,0.5-0.4,0.9c0,0.3,0.1,0.6,0.4,0.7s0.6,0.3,1.1,0.4c0.6,0.1,1,0.3,1.3,0.4
		c0.3,0.1,0.6,0.3,0.8,0.5c0.2,0.2,0.3,0.5,0.3,0.9c0,0.4-0.1,0.7-0.3,1s-0.5,0.5-0.8,0.6c-0.4,0.2-0.8,0.2-1.2,0.2
		C238.4,164.3,238,164.2,237.6,164.1z"/>
	<path fill="#A7BBC4" d="M245.9,160.1c0.3,0.3,0.4,0.7,0.4,1.3v2.5c0,0.1,0,0.2-0.1,0.3s-0.2,0.1-0.3,0.1c-0.1,0-0.2,0-0.3-0.1
		c-0.1-0.1-0.1-0.2-0.1-0.3v-2.5c0-0.4-0.1-0.7-0.2-0.9c-0.2-0.2-0.4-0.3-0.8-0.3c-0.4,0-0.7,0.1-1,0.4c-0.2,0.3-0.4,0.6-0.4,1v2.3
		c0,0.1,0,0.2-0.1,0.3s-0.2,0.1-0.3,0.1c-0.1,0-0.2,0-0.3-0.1c-0.1-0.1-0.1-0.2-0.1-0.3V158c0-0.1,0-0.2,0.1-0.3
		c0.1-0.1,0.2-0.1,0.3-0.1c0.1,0,0.2,0,0.3,0.1c0.1,0.1,0.1,0.2,0.1,0.3v2.4c0.1-0.3,0.4-0.5,0.6-0.6c0.3-0.1,0.6-0.2,0.9-0.2
		C245.2,159.6,245.6,159.8,245.9,160.1z"/>
	<path fill="#A7BBC4" d="M251.2,161.4v2.5c0,0.1,0,0.2-0.1,0.3c-0.1,0.1-0.2,0.1-0.3,0.1c-0.1,0-0.2,0-0.3-0.1
		c-0.1-0.1-0.1-0.2-0.1-0.3v-0.4c-0.1,0.3-0.3,0.5-0.5,0.6c-0.2,0.1-0.5,0.2-0.8,0.2c-0.3,0-0.6-0.1-0.8-0.2s-0.4-0.3-0.6-0.5
		c-0.1-0.2-0.2-0.4-0.2-0.7c0-0.3,0.1-0.6,0.3-0.8c0.2-0.2,0.5-0.3,0.8-0.4s0.9-0.1,1.6-0.1h0.2v-0.3c0-0.4-0.1-0.6-0.2-0.8
		c-0.2-0.2-0.4-0.3-0.7-0.3c-0.4,0-0.8,0.1-1.3,0.3c-0.2,0.1-0.3,0.2-0.4,0.2c-0.1,0-0.1,0-0.2-0.1c0-0.1-0.1-0.1-0.1-0.2
		c0-0.1,0-0.2,0.1-0.2c0.1-0.1,0.1-0.1,0.3-0.2c0.2-0.1,0.5-0.2,0.7-0.3s0.5-0.1,0.8-0.1C250.6,159.6,251.2,160.2,251.2,161.4z
		 M250.1,163.3c0.2-0.2,0.4-0.6,0.4-1v-0.3h-0.2c-0.5,0-1,0-1.2,0.1c-0.3,0-0.5,0.1-0.6,0.2c-0.1,0.1-0.2,0.3-0.2,0.5
		c0,0.2,0.1,0.4,0.3,0.6c0.2,0.2,0.4,0.2,0.7,0.2C249.5,163.7,249.8,163.6,250.1,163.3z"/>
	<path fill="#A7BBC4" d="M255.1,159.9c0,0.1,0,0.2-0.1,0.2c-0.1,0.1-0.2,0.1-0.3,0.1l-0.3,0c-0.4,0-0.7,0.2-0.9,0.4
		c-0.2,0.3-0.3,0.6-0.3,0.9v2.2c0,0.1,0,0.2-0.1,0.3c-0.1,0.1-0.2,0.1-0.3,0.1c-0.1,0-0.2,0-0.3-0.1c-0.1-0.1-0.1-0.2-0.1-0.3V160
		c0-0.1,0-0.2,0.1-0.3c0.1-0.1,0.2-0.1,0.3-0.1c0.1,0,0.2,0,0.2,0.1c0.1,0.1,0.1,0.2,0.1,0.3v0.5c0.1-0.3,0.3-0.5,0.5-0.6
		c0.2-0.1,0.5-0.2,0.8-0.2l0.1,0C255,159.6,255.1,159.7,255.1,159.9z"/>
	<path fill="#A7BBC4" d="M259.3,163.3c0,0.1,0.1,0.1,0.1,0.2c0,0.2-0.1,0.3-0.3,0.4c-0.2,0.1-0.5,0.2-0.7,0.3s-0.5,0.1-0.7,0.1
		c-0.7,0-1.2-0.2-1.6-0.6c-0.4-0.4-0.6-1-0.6-1.7c0-0.5,0.1-0.9,0.3-1.2c0.2-0.4,0.4-0.6,0.8-0.8s0.7-0.3,1.1-0.3
		c0.6,0,1,0.2,1.4,0.6c0.3,0.4,0.5,0.9,0.5,1.6c0,0.1,0,0.2-0.1,0.3c0,0.1-0.1,0.1-0.2,0.1h-3c0.1,1.1,0.6,1.6,1.5,1.6
		c0.2,0,0.4,0,0.6-0.1c0.2-0.1,0.4-0.2,0.6-0.3c0.2-0.1,0.3-0.1,0.3-0.1C259.2,163.2,259.3,163.2,259.3,163.3z M256.6,160.6
		c-0.2,0.2-0.4,0.6-0.4,1h2.6c0-0.5-0.1-0.8-0.3-1c-0.2-0.2-0.5-0.4-0.9-0.4C257.2,160.2,256.8,160.3,256.6,160.6z"/>
	<path fill="#A7BBC4" d="M264.4,157.8c0.1,0.1,0.1,0.2,0.1,0.3v5.9c0,0.1,0,0.2-0.1,0.3c-0.1,0.1-0.2,0.1-0.3,0.1s-0.2,0-0.3-0.1
		c-0.1-0.1-0.1-0.2-0.1-0.3v-0.5c-0.1,0.3-0.3,0.5-0.6,0.7c-0.3,0.2-0.6,0.2-0.9,0.2c-0.4,0-0.7-0.1-1-0.3c-0.3-0.2-0.5-0.5-0.7-0.8
		s-0.2-0.8-0.2-1.2c0-0.5,0.1-0.9,0.2-1.2c0.2-0.4,0.4-0.6,0.7-0.8c0.3-0.2,0.6-0.3,1-0.3c0.4,0,0.7,0.1,0.9,0.2
		c0.3,0.2,0.5,0.4,0.6,0.7V158c0-0.1,0-0.2,0.1-0.3c0.1-0.1,0.2-0.1,0.3-0.1S264.4,157.7,264.4,157.8z M263.4,163.2
		c0.2-0.3,0.4-0.7,0.4-1.3c0-0.5-0.1-1-0.4-1.3c-0.2-0.3-0.6-0.4-1-0.4c-0.4,0-0.8,0.1-1,0.4s-0.4,0.7-0.4,1.2c0,0.5,0.1,1,0.4,1.3
		c0.2,0.3,0.6,0.5,1,0.5C262.9,163.7,263.2,163.5,263.4,163.2z"/>
</g>
<line fill="none" stroke="#EEF1F3" stroke-miterlimit="10" x1="100" y1="106.5" x2="100" y2="179.5"/>
<line fill="none" stroke="#EEF1F3" stroke-miterlimit="10" x1="0" y1="252.5" x2="300" y2="252.5"/>
<g>
	<path fill="#3A7D99" d="M63.8,203.2c0.5,0,1,0.2,1.4,0.6c0.4,0.4,0.6,0.9,0.6,1.4v24.3c0,0.5-0.2,1-0.6,1.4
		c-0.4,0.4-0.9,0.6-1.4,0.6H39.5c-0.5,0-1-0.2-1.4-0.6c-0.4-0.4-0.6-0.9-0.6-1.4v-24.3c0-0.5,0.2-1,0.6-1.4c0.4-0.4,0.9-0.6,1.4-0.6
		H63.8z M43.9,212.1c0.7,0,1.3-0.2,1.7-0.7c0.5-0.5,0.7-1.1,0.7-1.7s-0.2-1.2-0.7-1.7s-1.1-0.7-1.7-0.7c-0.7,0-1.2,0.2-1.7,0.7
		s-0.7,1.1-0.7,1.7s0.2,1.2,0.7,1.7C42.7,211.9,43.3,212.1,43.9,212.1z M46,227.5L46,227.5l0.1-13.5h-4.2v13.5H46z M61.8,227.5v-7.4
		c0-2.1-0.3-3.6-0.9-4.6c-0.8-1.2-2.2-1.8-4.1-1.8c-1,0-1.8,0.2-2.6,0.7c-0.6,0.4-1.1,0.9-1.4,1.5h-0.1V214h-4v13.5h4.2v-6.7
		c0-1.1,0.1-1.9,0.4-2.4c0.4-0.7,1.1-1.1,2.1-1.1c1,0,1.6,0.4,1.9,1.2c0.2,0.5,0.3,1.3,0.3,2.4v6.6H61.8z"/>
</g>
<g>
	<path fill="#0F2026" d="M147.4,224.2c0.2,0.2,0.3,0.5,0.3,0.8c0,0.4-0.1,0.6-0.3,0.8c-0.2,0.2-0.5,0.3-0.9,0.3h-10.7
		c-0.4,0-0.7-0.1-0.9-0.3c-0.2-0.2-0.3-0.5-0.3-0.8c0-0.3,0.1-0.6,0.3-0.8c0.2-0.2,0.5-0.3,0.9-0.3h4v-17.3l-3.5,2.3
		c-0.2,0.1-0.3,0.2-0.5,0.2c-0.3,0-0.6-0.1-0.8-0.4s-0.3-0.6-0.3-0.9c0-0.5,0.2-0.8,0.5-1l4.9-3.2c0.4-0.2,0.7-0.4,1.1-0.4
		c0.4,0,0.7,0.1,0.9,0.4c0.2,0.2,0.4,0.6,0.4,1v19.4h4C146.9,223.9,147.2,224,147.4,224.2z"/>
	<path fill="#0F2026" d="M167.3,224.2c0.2,0.2,0.3,0.5,0.3,0.8c0,0.8-0.4,1.1-1.2,1.1h-12.7c-0.4,0-0.7-0.1-0.9-0.3
		s-0.4-0.5-0.4-0.8c0-0.4,0.2-0.8,0.5-1.1l7.8-8.6c1.1-1.2,1.9-2.3,2.3-3.3s0.7-1.9,0.7-2.9c0-1.3-0.4-2.2-1.1-2.9s-1.7-1-3.1-1
		c-1,0-2,0.2-3,0.6c-0.9,0.4-1.9,1-2.8,1.7c-0.3,0.3-0.6,0.4-0.9,0.4c-0.2,0-0.4-0.1-0.6-0.3s-0.3-0.5-0.3-0.8
		c0-0.5,0.2-0.8,0.5-1.1c0.9-0.8,2-1.5,3.2-1.9c1.3-0.5,2.6-0.7,3.9-0.7c2,0,3.7,0.5,4.9,1.6c1.2,1.1,1.8,2.5,1.8,4.4
		c0,1.3-0.3,2.6-0.9,3.8c-0.6,1.2-1.6,2.6-2.9,4l-6.5,7h10.3C166.8,223.9,167.1,224,167.3,224.2z"/>
	<path d="M146.2,230.8c0.1,0.1,0.1,0.2,0.1,0.3v5.8c0,0.1,0,0.2-0.1,0.3c-0.1,0.1-0.2,0.1-0.3,0.1c-0.1,0-0.2-0.1-0.3-0.2l-3.8-5.1
		v4.9c0,0.1,0,0.2-0.1,0.3c-0.1,0.1-0.2,0.1-0.3,0.1c-0.1,0-0.2,0-0.3-0.1c-0.1-0.1-0.1-0.2-0.1-0.3v-5.8c0-0.1,0-0.2,0.1-0.3
		c0.1-0.1,0.2-0.1,0.3-0.1c0.1,0,0.2,0.1,0.3,0.2l3.8,5.1v-4.9c0-0.1,0-0.2,0.1-0.3c0.1-0.1,0.2-0.1,0.3-0.1
		C146.1,230.7,146.2,230.7,146.2,230.8z"/>
	<path d="M151.5,236.3c0,0.1,0.1,0.1,0.1,0.2c0,0.2-0.1,0.3-0.3,0.4c-0.2,0.1-0.5,0.2-0.7,0.3s-0.5,0.1-0.7,0.1
		c-0.7,0-1.2-0.2-1.6-0.6c-0.4-0.4-0.6-1-0.6-1.7c0-0.5,0.1-0.9,0.3-1.2c0.2-0.4,0.4-0.6,0.8-0.8c0.3-0.2,0.7-0.3,1.1-0.3
		c0.6,0,1,0.2,1.4,0.6c0.3,0.4,0.5,0.9,0.5,1.5c0,0.1,0,0.2-0.1,0.3c0,0.1-0.1,0.1-0.2,0.1h-3c0.1,1.1,0.6,1.6,1.5,1.6
		c0.2,0,0.4,0,0.6-0.1c0.2-0.1,0.4-0.2,0.6-0.3c0.2-0.1,0.3-0.1,0.3-0.1C151.4,236.2,151.4,236.2,151.5,236.3z M148.7,233.6
		c-0.2,0.2-0.4,0.6-0.4,1h2.6c0-0.5-0.1-0.8-0.3-1c-0.2-0.2-0.5-0.4-0.9-0.4C149.3,233.2,149,233.3,148.7,233.6z"/>
	<path d="M159.1,232.6c0.1,0,0.2,0,0.2,0.1s0.1,0.1,0.1,0.2c0,0,0,0.1,0,0.1l-1.5,3.9c0,0.1-0.1,0.1-0.2,0.2c-0.1,0-0.1,0.1-0.2,0.1
		c-0.1,0-0.2,0-0.2-0.1c-0.1,0-0.1-0.1-0.2-0.2l-1.3-3.2l-1.3,3.2c0,0.1-0.1,0.1-0.2,0.2c-0.1,0-0.2,0.1-0.2,0.1
		c-0.1,0-0.2,0-0.2-0.1c-0.1,0-0.1-0.1-0.2-0.2l-1.5-3.9c0,0,0-0.1,0-0.1c0-0.1,0-0.2,0.1-0.2c0.1-0.1,0.2-0.1,0.3-0.1
		c0.1,0,0.3,0.1,0.3,0.2l1.3,3.4l1.3-3.4c0-0.1,0.1-0.1,0.2-0.2s0.1-0.1,0.2-0.1c0.1,0,0.2,0,0.2,0.1s0.1,0.1,0.1,0.2l1.3,3.4
		l1.3-3.4C158.8,232.7,158.9,232.6,159.1,232.6z"/>
</g>
<g>
	<path fill="#A7BBC4" d="M258.3,224.2c0.2,0.2,0.3,0.5,0.3,0.8c0,0.8-0.4,1.1-1.2,1.1h-12.7c-0.4,0-0.7-0.1-0.9-0.3
		s-0.4-0.5-0.4-0.8c0-0.4,0.2-0.8,0.5-1.1l7.8-8.6c1.1-1.2,1.9-2.3,2.3-3.3s0.7-1.9,0.7-2.9c0-1.3-0.4-2.2-1.1-2.9s-1.7-1-3.1-1
		c-1,0-2,0.2-3,0.6c-0.9,0.4-1.9,1-2.8,1.7c-0.3,0.3-0.6,0.4-0.9,0.4c-0.2,0-0.4-0.1-0.6-0.3s-0.3-0.5-0.3-0.8
		c0-0.5,0.2-0.8,0.5-1.1c0.9-0.8,2-1.5,3.2-1.9c1.3-0.5,2.6-0.7,3.9-0.7c2,0,3.7,0.5,4.9,1.6c1.2,1.1,1.8,2.5,1.8,4.4
		c0,1.3-0.3,2.6-0.9,3.8c-0.6,1.2-1.6,2.6-2.9,4l-6.5,7h10.3C257.7,223.9,258,224,258.3,224.2z"/>
	<path fill="#A7BBC4" d="M237.6,237.1c-0.4-0.1-0.8-0.3-1-0.6c-0.1-0.1-0.1-0.2-0.1-0.3c0-0.1,0-0.2,0.1-0.2c0-0.1,0.1-0.1,0.2-0.1
		c0.1,0,0.2,0,0.3,0.1c0.6,0.4,1.2,0.7,2,0.7c0.5,0,0.9-0.1,1.2-0.3c0.3-0.2,0.4-0.5,0.4-0.9c0-0.2-0.1-0.4-0.2-0.5
		c-0.1-0.1-0.3-0.2-0.5-0.3c-0.2-0.1-0.5-0.2-0.9-0.2c-0.5-0.1-0.9-0.2-1.2-0.4c-0.3-0.1-0.6-0.3-0.8-0.6c-0.2-0.2-0.3-0.6-0.3-0.9
		c0-0.4,0.1-0.7,0.3-1s0.5-0.5,0.8-0.7c0.4-0.2,0.8-0.2,1.2-0.2c0.4,0,0.8,0.1,1.2,0.2c0.4,0.1,0.7,0.3,0.9,0.6
		c0.1,0.1,0.1,0.2,0.1,0.3c0,0.1,0,0.2-0.1,0.2S241,232,241,232c-0.1,0-0.2,0-0.3-0.1c-0.3-0.2-0.6-0.4-0.8-0.5
		c-0.3-0.1-0.6-0.1-0.9-0.1c-0.5,0-0.9,0.1-1.2,0.3c-0.3,0.2-0.4,0.5-0.4,0.9c0,0.3,0.1,0.6,0.4,0.7s0.6,0.3,1.1,0.4
		c0.6,0.1,1,0.3,1.3,0.4c0.3,0.1,0.6,0.3,0.8,0.5c0.2,0.2,0.3,0.5,0.3,0.9c0,0.4-0.1,0.7-0.3,1c-0.2,0.3-0.5,0.5-0.8,0.6
		c-0.4,0.2-0.8,0.2-1.2,0.2C238.4,237.3,238,237.2,237.6,237.1z"/>
	<path fill="#A7BBC4" d="M245.9,233.1c0.3,0.3,0.4,0.7,0.4,1.3v2.5c0,0.1,0,0.2-0.1,0.3s-0.2,0.1-0.3,0.1c-0.1,0-0.2,0-0.3-0.1
		c-0.1-0.1-0.1-0.2-0.1-0.3v-2.5c0-0.4-0.1-0.7-0.2-0.9c-0.2-0.2-0.4-0.3-0.8-0.3c-0.4,0-0.7,0.1-1,0.4s-0.4,0.6-0.4,1v2.3
		c0,0.1,0,0.2-0.1,0.3s-0.2,0.1-0.3,0.1c-0.1,0-0.2,0-0.3-0.1c-0.1-0.1-0.1-0.2-0.1-0.3V231c0-0.1,0-0.2,0.1-0.3
		c0.1-0.1,0.2-0.1,0.3-0.1c0.1,0,0.2,0,0.3,0.1s0.1,0.2,0.1,0.3v2.4c0.1-0.3,0.4-0.5,0.6-0.6c0.3-0.1,0.6-0.2,0.9-0.2
		C245.2,232.6,245.6,232.8,245.9,233.1z"/>
	<path fill="#A7BBC4" d="M251.2,234.4v2.5c0,0.1,0,0.2-0.1,0.3s-0.2,0.1-0.3,0.1c-0.1,0-0.2,0-0.3-0.1c-0.1-0.1-0.1-0.2-0.1-0.3
		v-0.4c-0.1,0.3-0.3,0.5-0.5,0.6c-0.2,0.1-0.5,0.2-0.8,0.2c-0.3,0-0.6-0.1-0.8-0.2c-0.2-0.1-0.4-0.3-0.6-0.5
		c-0.1-0.2-0.2-0.4-0.2-0.7c0-0.3,0.1-0.6,0.3-0.8c0.2-0.2,0.5-0.3,0.8-0.4s0.9-0.1,1.6-0.1h0.2v-0.3c0-0.4-0.1-0.6-0.2-0.8
		c-0.2-0.2-0.4-0.3-0.7-0.3c-0.4,0-0.8,0.1-1.3,0.3c-0.2,0.1-0.3,0.2-0.4,0.2c-0.1,0-0.1,0-0.2-0.1c0-0.1-0.1-0.1-0.1-0.2
		s0-0.2,0.1-0.2c0.1-0.1,0.1-0.1,0.3-0.2c0.2-0.1,0.5-0.2,0.7-0.3c0.3-0.1,0.5-0.1,0.8-0.1C250.6,232.6,251.2,233.2,251.2,234.4z
		 M250.1,236.3c0.2-0.2,0.4-0.6,0.4-1v-0.3h-0.2c-0.5,0-1,0-1.2,0.1c-0.3,0-0.5,0.1-0.6,0.2s-0.2,0.3-0.2,0.5c0,0.2,0.1,0.4,0.3,0.6
		c0.2,0.2,0.4,0.2,0.7,0.2C249.5,236.7,249.8,236.6,250.1,236.3z"/>
	<path fill="#A7BBC4" d="M255.1,232.9c0,0.1,0,0.2-0.1,0.2c-0.1,0.1-0.2,0.1-0.3,0.1l-0.3,0c-0.4,0-0.7,0.2-0.9,0.4
		c-0.2,0.3-0.3,0.6-0.3,0.9v2.2c0,0.1,0,0.2-0.1,0.3c-0.1,0.1-0.2,0.1-0.3,0.1c-0.1,0-0.2,0-0.3-0.1c-0.1-0.1-0.1-0.2-0.1-0.3V233
		c0-0.1,0-0.2,0.1-0.3c0.1-0.1,0.2-0.1,0.3-0.1c0.1,0,0.2,0,0.2,0.1c0.1,0.1,0.1,0.2,0.1,0.3v0.5c0.1-0.3,0.3-0.5,0.5-0.6
		c0.2-0.1,0.5-0.2,0.8-0.2l0.1,0C255,232.6,255.1,232.7,255.1,232.9z"/>
	<path fill="#A7BBC4" d="M259.3,236.3c0,0.1,0.1,0.1,0.1,0.2c0,0.2-0.1,0.3-0.3,0.4c-0.2,0.1-0.5,0.2-0.7,0.3s-0.5,0.1-0.7,0.1
		c-0.7,0-1.2-0.2-1.6-0.6c-0.4-0.4-0.6-1-0.6-1.7c0-0.5,0.1-0.9,0.3-1.2c0.2-0.4,0.4-0.6,0.8-0.8c0.3-0.2,0.7-0.3,1.1-0.3
		c0.6,0,1,0.2,1.4,0.6c0.3,0.4,0.5,0.9,0.5,1.5c0,0.1,0,0.2-0.1,0.3c0,0.1-0.1,0.1-0.2,0.1h-3c0.1,1.1,0.6,1.6,1.5,1.6
		c0.2,0,0.4,0,0.6-0.1c0.2-0.1,0.4-0.2,0.6-0.3c0.2-0.1,0.3-0.1,0.3-0.1C259.2,236.2,259.3,236.2,259.3,236.3z M256.6,233.6
		c-0.2,0.2-0.4,0.6-0.4,1h2.6c0-0.5-0.1-0.8-0.3-1c-0.2-0.2-0.5-0.4-0.9-0.4C257.2,233.2,256.8,233.3,256.6,233.6z"/>
	<path fill="#A7BBC4" d="M264.4,230.8c0.1,0.1,0.1,0.2,0.1,0.3v5.9c0,0.1,0,0.2-0.1,0.3c-0.1,0.1-0.2,0.1-0.3,0.1s-0.2,0-0.3-0.1
		s-0.1-0.2-0.1-0.3v-0.5c-0.1,0.3-0.3,0.5-0.6,0.7c-0.3,0.2-0.6,0.2-0.9,0.2c-0.4,0-0.7-0.1-1-0.3c-0.3-0.2-0.5-0.5-0.7-0.8
		c-0.2-0.4-0.2-0.8-0.2-1.2c0-0.5,0.1-0.9,0.2-1.2c0.2-0.4,0.4-0.6,0.7-0.8s0.6-0.3,1-0.3c0.4,0,0.7,0.1,0.9,0.2
		c0.3,0.2,0.5,0.4,0.6,0.7V231c0-0.1,0-0.2,0.1-0.3s0.2-0.1,0.3-0.1S264.4,230.7,264.4,230.8z M263.4,236.2c0.2-0.3,0.4-0.7,0.4-1.3
		s-0.1-1-0.4-1.3c-0.2-0.3-0.6-0.4-1-0.4c-0.4,0-0.8,0.1-1,0.4c-0.2,0.3-0.4,0.7-0.4,1.2c0,0.5,0.1,1,0.4,1.3s0.6,0.5,1,0.5
		C262.9,236.7,263.2,236.5,263.4,236.2z"/>
</g>
<line fill="none" stroke="#EEF1F3" stroke-miterlimit="10" x1="100" y1="179.5" x2="100" y2="252.5"/>
<line fill="none" stroke="#EEF1F3" stroke-miterlimit="10" x1="0" y1="325.5" x2="300" y2="325.5"/>
<g>
	<path fill="#3A7D99" d="M65.7,284.5c0,1.2,0.1,3.1,0.1,5.9s0,4.7-0.1,5.9s-0.2,2.2-0.5,3.1c-0.4,1.1-1,2-1.7,2.8
		c-0.8,0.8-1.7,1.4-2.7,1.7c-0.9,0.3-1.9,0.5-3.1,0.5c-1.2,0.1-3.2,0.1-5.9,0.1c-2.7,0-4.7,0-5.9-0.1c-1.2-0.1-2.2-0.3-3.1-0.6
		c-1.1-0.3-2-0.9-2.7-1.7c-0.8-0.8-1.4-1.7-1.7-2.8c-0.3-0.9-0.5-1.9-0.5-3.1s-0.1-3.2-0.1-5.9s0-4.7,0.1-5.9s0.2-2.2,0.5-3.1
		c0.4-1.1,1-2,1.7-2.8c0.8-0.8,1.7-1.4,2.7-1.7c0.9-0.3,1.9-0.5,3.1-0.5c1.2-0.1,3.2-0.1,5.9-0.1c2.7,0,4.7,0,5.9,0.1
		c1.2,0.1,2.2,0.2,3.1,0.5c1.1,0.4,2,1,2.7,1.7c0.8,0.8,1.4,1.7,1.7,2.8C65.5,282.2,65.7,283.3,65.7,284.5z M62.7,298.7
		c0.3-0.7,0.4-1.9,0.5-3.4c0-0.9,0.1-2.2,0.1-3.9v-2c0-1.7,0-3-0.1-3.9c-0.1-1.6-0.3-2.7-0.5-3.4c-0.5-1.3-1.4-2.2-2.7-2.7
		c-0.7-0.3-1.8-0.4-3.4-0.5c-0.9,0-2.2-0.1-3.9-0.1h-2c-1.7,0-3,0-3.9,0.1c-1.6,0.1-2.7,0.3-3.4,0.5c-1.3,0.5-2.2,1.4-2.7,2.7
		c-0.3,0.7-0.4,1.8-0.5,3.4c0,0.9-0.1,2.2-0.1,3.9v2c0,1.7,0,3,0.1,3.9c0.1,1.6,0.3,2.7,0.5,3.4c0.5,1.3,1.5,2.2,2.7,2.7
		c0.7,0.3,1.9,0.4,3.4,0.5c0.9,0,2.2,0.1,3.9,0.1h2c1.7,0,3,0,3.9-0.1c1.6-0.1,2.7-0.3,3.4-0.5C61.3,300.9,62.2,300,62.7,298.7z
		 M51.7,283.1c1.3,0,2.5,0.3,3.6,1c1.1,0.7,2,1.5,2.7,2.7c0.7,1.1,1,2.3,1,3.6s-0.3,2.5-1,3.6c-0.7,1.1-1.5,2-2.7,2.7
		c-1.1,0.7-2.3,1-3.6,1c-1.3,0-2.5-0.3-3.6-1c-1.1-0.7-2-1.5-2.7-2.7c-0.7-1.1-1-2.3-1-3.6s0.3-2.5,1-3.6c0.7-1.1,1.5-2,2.7-2.7
		C49.1,283.5,50.3,283.1,51.7,283.1z M51.7,295.1c1.3,0,2.4-0.5,3.3-1.4c0.9-0.9,1.4-2,1.4-3.4S55.9,288,55,287
		c-0.9-0.9-2-1.4-3.3-1.4c-1.3,0-2.4,0.5-3.4,1.4c-0.9,0.9-1.4,2-1.4,3.4s0.5,2.4,1.4,3.4C49.2,294.7,50.3,295.1,51.7,295.1z
		 M60.9,282.8c0-0.5-0.2-0.9-0.5-1.2c-0.3-0.3-0.7-0.5-1.2-0.5c-0.5,0-0.9,0.2-1.2,0.5c-0.3,0.3-0.5,0.7-0.5,1.2s0.2,0.9,0.5,1.2
		c0.3,0.3,0.7,0.5,1.2,0.5c0.5,0,0.9-0.2,1.2-0.5C60.7,283.7,60.9,283.3,60.9,282.8z"/>
</g>
<g>
	<path fill="#0F2026" d="M137.7,297.2c0.2,0.2,0.3,0.5,0.3,0.8c0,0.4-0.1,0.6-0.3,0.8c-0.2,0.2-0.5,0.3-0.9,0.3h-10.7
		c-0.4,0-0.7-0.1-0.9-0.3c-0.2-0.2-0.3-0.5-0.3-0.8c0-0.3,0.1-0.6,0.3-0.8c0.2-0.2,0.5-0.3,0.9-0.3h4v-17.3l-3.5,2.3
		c-0.2,0.1-0.3,0.2-0.5,0.2c-0.3,0-0.6-0.1-0.8-0.4s-0.3-0.6-0.3-0.9c0-0.5,0.2-0.8,0.5-1l4.9-3.2c0.4-0.2,0.7-0.4,1.1-0.4
		c0.4,0,0.7,0.1,0.9,0.4c0.2,0.2,0.4,0.6,0.4,1v19.4h4C137.2,296.9,137.5,297,137.7,297.2z"/>
	<path fill="#0F2026" d="M158.4,292.3c0.2,0.2,0.3,0.5,0.3,0.8c0,0.7-0.4,1.1-1.2,1.1h-2.4v3.8c0,0.4-0.1,0.8-0.4,1s-0.6,0.4-1,0.4
		c-0.4,0-0.7-0.1-0.9-0.4s-0.4-0.6-0.4-1v-3.8h-9.6c-0.4,0-0.7-0.1-0.9-0.3c-0.2-0.2-0.3-0.5-0.3-0.8c0-0.3,0.1-0.6,0.4-1l10.6-15.3
		c0.3-0.4,0.7-0.6,1.2-0.6c0.4,0,0.7,0.1,0.9,0.4c0.3,0.2,0.4,0.6,0.4,1V292h2.4C157.9,292,158.2,292.1,158.4,292.3z M144.7,292h7.8
		v-11.2L144.7,292z"/>
	<path fill="#0F2026" d="M163.5,296.4c-1.4-2-2-4.9-2-8.7c0-3.8,0.7-6.7,2-8.7c1.4-2,3.3-3,6-3c2.6,0,4.6,1,6,3s2,4.9,2,8.7
		c0,3.8-0.7,6.7-2,8.7s-3.3,3-6,3C166.8,299.4,164.8,298.4,163.5,296.4z M173.4,294.9c0.9-1.5,1.3-3.9,1.3-7.2
		c0-3.3-0.4-5.6-1.3-7.2c-0.9-1.5-2.2-2.3-4-2.3c-1.8,0-3.2,0.8-4,2.3c-0.9,1.5-1.3,3.9-1.3,7.1c0,3.2,0.4,5.6,1.3,7.2
		c0.9,1.5,2.2,2.3,4,2.3S172.6,296.4,173.4,294.9z"/>
	<path d="M146.2,303.8c0.1,0.1,0.1,0.2,0.1,0.3v5.8c0,0.1,0,0.2-0.1,0.3c-0.1,0.1-0.2,0.1-0.3,0.1c-0.1,0-0.2-0.1-0.3-0.2l-3.8-5.1
		v4.9c0,0.1,0,0.2-0.1,0.3c-0.1,0.1-0.2,0.1-0.3,0.1c-0.1,0-0.2,0-0.3-0.1c-0.1-0.1-0.1-0.2-0.1-0.3v-5.8c0-0.1,0-0.2,0.1-0.3
		c0.1-0.1,0.2-0.1,0.3-0.1c0.1,0,0.2,0.1,0.3,0.2l3.8,5.1v-4.9c0-0.1,0-0.2,0.1-0.3c0.1-0.1,0.2-0.1,0.3-0.1
		C146.1,303.7,146.2,303.7,146.2,303.8z"/>
	<path d="M151.5,309.3c0,0.1,0.1,0.1,0.1,0.2c0,0.2-0.1,0.3-0.3,0.4c-0.2,0.1-0.5,0.2-0.7,0.3s-0.5,0.1-0.7,0.1
		c-0.7,0-1.2-0.2-1.6-0.6c-0.4-0.4-0.6-1-0.6-1.7c0-0.5,0.1-0.9,0.3-1.2c0.2-0.4,0.4-0.6,0.8-0.8c0.3-0.2,0.7-0.3,1.1-0.3
		c0.6,0,1,0.2,1.4,0.6c0.3,0.4,0.5,0.9,0.5,1.5c0,0.1,0,0.2-0.1,0.3c0,0.1-0.1,0.1-0.2,0.1h-3c0.1,1.1,0.6,1.6,1.5,1.6
		c0.2,0,0.4,0,0.6-0.1c0.2-0.1,0.4-0.2,0.6-0.3c0.2-0.1,0.3-0.1,0.3-0.1C151.4,309.2,151.4,309.2,151.5,309.3z M148.7,306.6
		c-0.2,0.2-0.4,0.6-0.4,1h2.6c0-0.5-0.1-0.8-0.3-1c-0.2-0.2-0.5-0.4-0.9-0.4C149.3,306.2,149,306.3,148.7,306.6z"/>
	<path d="M159.1,305.6c0.1,0,0.2,0,0.2,0.1s0.1,0.1,0.1,0.2c0,0,0,0.1,0,0.1l-1.5,3.9c0,0.1-0.1,0.1-0.2,0.2c-0.1,0-0.1,0.1-0.2,0.1
		c-0.1,0-0.2,0-0.2-0.1c-0.1,0-0.1-0.1-0.2-0.2l-1.3-3.2l-1.3,3.2c0,0.1-0.1,0.1-0.2,0.2c-0.1,0-0.2,0.1-0.2,0.1
		c-0.1,0-0.2,0-0.2-0.1c-0.1,0-0.1-0.1-0.2-0.2l-1.5-3.9c0,0,0-0.1,0-0.1c0-0.1,0-0.2,0.1-0.2c0.1-0.1,0.2-0.1,0.3-0.1
		c0.1,0,0.3,0.1,0.3,0.2l1.3,3.4l1.3-3.4c0-0.1,0.1-0.1,0.2-0.2s0.1-0.1,0.2-0.1c0.1,0,0.2,0,0.2,0.1s0.1,0.1,0.1,0.2l1.3,3.4
		l1.3-3.4C158.8,305.7,158.9,305.6,159.1,305.6z"/>
</g>
<g>
	<path fill="#A7BBC4" d="M248,297.2c0.2,0.2,0.3,0.5,0.3,0.8c0,0.4-0.1,0.6-0.3,0.8c-0.2,0.2-0.5,0.3-0.9,0.3h-10.7
		c-0.4,0-0.7-0.1-0.9-0.3c-0.2-0.2-0.3-0.5-0.3-0.8c0-0.3,0.1-0.6,0.3-0.8c0.2-0.2,0.5-0.3,0.9-0.3h4v-17.3l-3.5,2.3
		c-0.2,0.1-0.3,0.2-0.5,0.2c-0.3,0-0.6-0.1-0.8-0.4s-0.3-0.6-0.3-0.9c0-0.5,0.2-0.8,0.5-1l4.9-3.2c0.4-0.2,0.7-0.4,1.1-0.4
		c0.4,0,0.7,0.1,0.9,0.4c0.2,0.2,0.4,0.6,0.4,1v19.4h4C247.5,296.9,247.8,297,248,297.2z"/>
	<path fill="#A7BBC4" d="M268,297.2c0.2,0.2,0.3,0.5,0.3,0.8c0,0.8-0.4,1.1-1.2,1.1h-12.7c-0.4,0-0.7-0.1-0.9-0.3s-0.4-0.5-0.4-0.8
		c0-0.4,0.2-0.8,0.5-1.1l7.8-8.6c1.1-1.2,1.9-2.3,2.3-3.3s0.7-1.9,0.7-2.9c0-1.3-0.4-2.2-1.1-2.9s-1.7-1-3.1-1c-1,0-2,0.2-3,0.6
		c-0.9,0.4-1.9,1-2.8,1.7c-0.3,0.3-0.6,0.4-0.9,0.4c-0.2,0-0.4-0.1-0.6-0.3s-0.3-0.5-0.3-0.8c0-0.5,0.2-0.8,0.5-1.1
		c0.9-0.8,2-1.5,3.2-1.9c1.3-0.5,2.6-0.7,3.9-0.7c2,0,3.7,0.5,4.9,1.6c1.2,1.1,1.8,2.5,1.8,4.4c0,1.3-0.3,2.6-0.9,3.8
		c-0.6,1.2-1.6,2.6-2.9,4l-6.5,7h10.3C267.4,296.9,267.8,297,268,297.2z"/>
	<path fill="#A7BBC4" d="M237.6,310.1c-0.4-0.1-0.8-0.3-1-0.6c-0.1-0.1-0.1-0.2-0.1-0.3c0-0.1,0-0.2,0.1-0.2c0-0.1,0.1-0.1,0.2-0.1
		c0.1,0,0.2,0,0.3,0.1c0.6,0.4,1.2,0.7,2,0.7c0.5,0,0.9-0.1,1.2-0.3c0.3-0.2,0.4-0.5,0.4-0.9c0-0.2-0.1-0.4-0.2-0.5
		c-0.1-0.1-0.3-0.2-0.5-0.3c-0.2-0.1-0.5-0.2-0.9-0.2c-0.5-0.1-0.9-0.2-1.2-0.4c-0.3-0.1-0.6-0.3-0.8-0.6c-0.2-0.2-0.3-0.6-0.3-0.9
		c0-0.4,0.1-0.7,0.3-1s0.5-0.5,0.8-0.7c0.4-0.2,0.8-0.2,1.2-0.2c0.4,0,0.8,0.1,1.2,0.2c0.4,0.1,0.7,0.3,0.9,0.6
		c0.1,0.1,0.1,0.2,0.1,0.3c0,0.1,0,0.2-0.1,0.2S241,305,241,305c-0.1,0-0.2,0-0.3-0.1c-0.3-0.2-0.6-0.4-0.8-0.5
		c-0.3-0.1-0.6-0.1-0.9-0.1c-0.5,0-0.9,0.1-1.2,0.3c-0.3,0.2-0.4,0.5-0.4,0.9c0,0.3,0.1,0.6,0.4,0.7s0.6,0.3,1.1,0.4
		c0.6,0.1,1,0.3,1.3,0.4c0.3,0.1,0.6,0.3,0.8,0.5c0.2,0.2,0.3,0.5,0.3,0.9c0,0.4-0.1,0.7-0.3,1c-0.2,0.3-0.5,0.5-0.8,0.6
		c-0.4,0.2-0.8,0.2-1.2,0.2C238.4,310.3,238,310.2,237.6,310.1z"/>
	<path fill="#A7BBC4" d="M245.9,306.1c0.3,0.3,0.4,0.7,0.4,1.3v2.5c0,0.1,0,0.2-0.1,0.3s-0.2,0.1-0.3,0.1c-0.1,0-0.2,0-0.3-0.1
		c-0.1-0.1-0.1-0.2-0.1-0.3v-2.5c0-0.4-0.1-0.7-0.2-0.9c-0.2-0.2-0.4-0.3-0.8-0.3c-0.4,0-0.7,0.1-1,0.4s-0.4,0.6-0.4,1v2.3
		c0,0.1,0,0.2-0.1,0.3s-0.2,0.1-0.3,0.1c-0.1,0-0.2,0-0.3-0.1c-0.1-0.1-0.1-0.2-0.1-0.3V304c0-0.1,0-0.2,0.1-0.3
		c0.1-0.1,0.2-0.1,0.3-0.1c0.1,0,0.2,0,0.3,0.1s0.1,0.2,0.1,0.3v2.4c0.1-0.3,0.4-0.5,0.6-0.6c0.3-0.1,0.6-0.2,0.9-0.2
		C245.2,305.6,245.6,305.8,245.9,306.1z"/>
	<path fill="#A7BBC4" d="M251.2,307.4v2.5c0,0.1,0,0.2-0.1,0.3s-0.2,0.1-0.3,0.1c-0.1,0-0.2,0-0.3-0.1c-0.1-0.1-0.1-0.2-0.1-0.3
		v-0.4c-0.1,0.3-0.3,0.5-0.5,0.6c-0.2,0.1-0.5,0.2-0.8,0.2c-0.3,0-0.6-0.1-0.8-0.2c-0.2-0.1-0.4-0.3-0.6-0.5
		c-0.1-0.2-0.2-0.4-0.2-0.7c0-0.3,0.1-0.6,0.3-0.8c0.2-0.2,0.5-0.3,0.8-0.4s0.9-0.1,1.6-0.1h0.2v-0.3c0-0.4-0.1-0.6-0.2-0.8
		c-0.2-0.2-0.4-0.3-0.7-0.3c-0.4,0-0.8,0.1-1.3,0.3c-0.2,0.1-0.3,0.2-0.4,0.2c-0.1,0-0.1,0-0.2-0.1c0-0.1-0.1-0.1-0.1-0.2
		s0-0.2,0.1-0.2c0.1-0.1,0.1-0.1,0.3-0.2c0.2-0.1,0.5-0.2,0.7-0.3c0.3-0.1,0.5-0.1,0.8-0.1C250.6,305.6,251.2,306.2,251.2,307.4z
		 M250.1,309.3c0.2-0.2,0.4-0.6,0.4-1v-0.3h-0.2c-0.5,0-1,0-1.2,0.1c-0.3,0-0.5,0.1-0.6,0.2s-0.2,0.3-0.2,0.5c0,0.2,0.1,0.4,0.3,0.6
		c0.2,0.2,0.4,0.2,0.7,0.2C249.5,309.7,249.8,309.6,250.1,309.3z"/>
	<path fill="#A7BBC4" d="M255.1,305.9c0,0.1,0,0.2-0.1,0.2c-0.1,0.1-0.2,0.1-0.3,0.1l-0.3,0c-0.4,0-0.7,0.2-0.9,0.4
		c-0.2,0.3-0.3,0.6-0.3,0.9v2.2c0,0.1,0,0.2-0.1,0.3c-0.1,0.1-0.2,0.1-0.3,0.1c-0.1,0-0.2,0-0.3-0.1c-0.1-0.1-0.1-0.2-0.1-0.3V306
		c0-0.1,0-0.2,0.1-0.3c0.1-0.1,0.2-0.1,0.3-0.1c0.1,0,0.2,0,0.2,0.1c0.1,0.1,0.1,0.2,0.1,0.3v0.5c0.1-0.3,0.3-0.5,0.5-0.6
		c0.2-0.1,0.5-0.2,0.8-0.2l0.1,0C255,305.6,255.1,305.7,255.1,305.9z"/>
	<path fill="#A7BBC4" d="M259.3,309.3c0,0.1,0.1,0.1,0.1,0.2c0,0.2-0.1,0.3-0.3,0.4c-0.2,0.1-0.5,0.2-0.7,0.3s-0.5,0.1-0.7,0.1
		c-0.7,0-1.2-0.2-1.6-0.6c-0.4-0.4-0.6-1-0.6-1.7c0-0.5,0.1-0.9,0.3-1.2c0.2-0.4,0.4-0.6,0.8-0.8c0.3-0.2,0.7-0.3,1.1-0.3
		c0.6,0,1,0.2,1.4,0.6c0.3,0.4,0.5,0.9,0.5,1.5c0,0.1,0,0.2-0.1,0.3c0,0.1-0.1,0.1-0.2,0.1h-3c0.1,1.1,0.6,1.6,1.5,1.6
		c0.2,0,0.4,0,0.6-0.1c0.2-0.1,0.4-0.2,0.6-0.3c0.2-0.1,0.3-0.1,0.3-0.1C259.2,309.2,259.3,309.2,259.3,309.3z M256.6,306.6
		c-0.2,0.2-0.4,0.6-0.4,1h2.6c0-0.5-0.1-0.8-0.3-1c-0.2-0.2-0.5-0.4-0.9-0.4C257.2,306.2,256.8,306.3,256.6,306.6z"/>
	<path fill="#A7BBC4" d="M264.4,303.8c0.1,0.1,0.1,0.2,0.1,0.3v5.9c0,0.1,0,0.2-0.1,0.3c-0.1,0.1-0.2,0.1-0.3,0.1s-0.2,0-0.3-0.1
		s-0.1-0.2-0.1-0.3v-0.5c-0.1,0.3-0.3,0.5-0.6,0.7c-0.3,0.2-0.6,0.2-0.9,0.2c-0.4,0-0.7-0.1-1-0.3c-0.3-0.2-0.5-0.5-0.7-0.8
		c-0.2-0.4-0.2-0.8-0.2-1.2c0-0.5,0.1-0.9,0.2-1.2c0.2-0.4,0.4-0.6,0.7-0.8s0.6-0.3,1-0.3c0.4,0,0.7,0.1,0.9,0.2
		c0.3,0.2,0.5,0.4,0.6,0.7V304c0-0.1,0-0.2,0.1-0.3s0.2-0.1,0.3-0.1S264.4,303.7,264.4,303.8z M263.4,309.2c0.2-0.3,0.4-0.7,0.4-1.3
		s-0.1-1-0.4-1.3c-0.2-0.3-0.6-0.4-1-0.4c-0.4,0-0.8,0.1-1,0.4c-0.2,0.3-0.4,0.7-0.4,1.2c0,0.5,0.1,1,0.4,1.3s0.6,0.5,1,0.5
		C262.9,309.7,263.2,309.5,263.4,309.2z"/>
</g>
<line fill="none" stroke="#EEF1F3" stroke-miterlimit="10" x1="100" y1="252.5" x2="100" y2="325.5"/>
<g>
</g>
<g>
</g>
<g>
</g>
<g>
</g>
<g>
</g>
<g>
</g>
</svg>
